M48
; DRILL file KiCad 10.0.5 date 2026-08-23T13:32:26
; FORMAT={-:-/ absolute / metric / decimal}
; #@! TF.CreationDate,2026-08-23T13:32:26+09:00
; #@! TF.GenerationSoftware,Kicad,Pcbnew,10.0.5
; #@! TF.FileFunction,Plated,1,4,PTH
FMAT,2
METRIC
; #@! TA.AperFunction,Plated,PTH,ViaDrill
T1C0.300
; #@! TA.AperFunction,Plated,PTH,ComponentDrill
T2C0.800
; #@! TA.AperFunction,Plated,PTH,ComponentDrill
T3C1.000
; #@! TA.AperFunction,Plated,PTH,ComponentDrill
T4C1.100
%
G90
G05
T1
X0.6Y-10.6
X0.6Y-59.6
X1.6Y-3.6
X1.6Y-4.6
X2.6Y-1.6
X2.6Y-2.6
X2.6Y-3.6
X2.6Y-10.6
X2.717Y-48.466
X3.592Y-11.205
X3.6Y-0.6
X3.6Y-1.6
X3.6Y-2.6
X3.6Y-3.6
X3.6Y-13.6
X3.6Y-14.6
X3.6Y-15.6
X3.6Y-25.6
X3.6Y-27.6
X3.6Y-28.6
X3.675Y-53.518
X3.779Y-31.225
X3.88Y-20.788
X3.88Y-38.826
X4.019Y-23.771
X4.6Y-0.6
X4.6Y-1.6
X4.6Y-2.6
X4.6Y-33.6
X4.607Y-60.152
X4.655Y-31.461
X4.874Y-58.693
X5.383Y-25.219
X5.43Y-18.818
X5.43Y-38.822
X5.525Y-28.436
X5.538Y-30.237
X5.6Y-0.6
X5.6Y-1.6
X5.6Y-5.6
X5.6Y-7.6
X5.6Y-46.6
X5.6Y-51.6
X5.6Y-52.6
X5.6Y-54.6
X5.6Y-55.6
X5.6Y-56.6
X5.6Y-57.6
X5.62Y-33.786
X5.799Y-11.205
X6.534Y-45.449
X6.591Y-25.586
X6.6Y-0.6
X6.6Y-1.6
X6.6Y-2.6
X6.6Y-4.6
X6.6Y-7.6
X6.6Y-40.6
X6.6Y-41.6
X6.6Y-46.6
X6.6Y-53.6
X6.6Y-54.6
X6.6Y-55.6
X6.6Y-56.6
X6.6Y-57.6
X6.611Y-32.411
X7.155Y-35.075
X7.6Y-0.6
X7.6Y-1.6
X7.6Y-2.6
X7.6Y-41.6
X7.6Y-45.6
X7.6Y-46.6
X7.6Y-54.6
X7.63Y-40.685
X7.775Y-44.955
X7.981Y-33.699
X8.089Y-25.404
X8.474Y-31.115
X8.51Y-48.412
X8.6Y-1.6
X8.6Y-38.6
X8.6Y-41.6
X8.921Y-25.394
X9.14Y-14.389
X9.18Y-13.635
X9.18Y-38.805
X9.33Y-34.319
X9.375Y-20.78
X9.42Y-17.245
X9.6Y-15.6
X9.6Y-33.6
X9.726Y-44.951
X10.526Y-20.741
X10.545Y-60.025
X10.6Y-8.6
X10.6Y-11.6
X10.6Y-12.6
X10.6Y-31.6
X10.6Y-32.6
X10.6Y-33.6
X10.6Y-40.6
X10.6Y-46.6
X10.605Y-45.449
X10.666Y-36.409
X10.959Y-18.233
X11.063Y-24.384
X11.063Y-25.82
X11.759Y-38.256
X11.984Y-42.39
X12.125Y-30.909
X12.382Y-23.906
X12.6Y-11.6
X12.6Y-12.6
X12.6Y-31.6
X12.6Y-32.6
X12.6Y-33.6
X12.6Y-45.6
X12.6Y-46.6
X12.6Y-51.6
X12.6Y-53.6
X12.6Y-55.6
X12.98Y-11.188
X13.021Y-40.685
X13.043Y-52.877
X13.048Y-54.325
X13.15Y-33.715
X13.272Y-20.723
X13.43Y-18.811
X13.6Y-11.6
X13.6Y-57.6
X13.897Y-31.128
X14.03Y-40.199
X14.313Y-18.249
X14.321Y-21.084
X14.6Y-24.6
X14.6Y-41.6
X14.6Y-57.6
X14.718Y-27.355
X14.825Y-42.803
X15.269Y-21.287
X15.526Y-18.79
X15.6Y-24.6
X15.6Y-26.6
X15.6Y-41.6
X15.6Y-42.6
X15.6Y-57.6
X16.047Y-11.185
X16.6Y-14.6
X16.6Y-26.6
X16.6Y-27.6
X16.6Y-28.6
X16.6Y-29.6
X16.73Y-38.807
X16.85Y-37.082
X16.9Y-21.147
X17.055Y-8.209
X17.175Y-57.563
X17.23Y-16.551
X17.6Y-7.6
X17.6Y-26.6
X17.6Y-27.6
X17.6Y-28.6
X17.6Y-29.6
X17.6Y-30.6
X17.6Y-32.6
X17.6Y-33.6
X17.6Y-37.6
X17.6Y-38.6
X17.6Y-44.6
X17.6Y-45.6
X17.6Y-49.6
X17.6Y-50.6
X17.6Y-51.6
X17.6Y-56.6
X18.6Y-6.6
X18.6Y-7.6
X18.6Y-10.6
X18.6Y-28.6
X18.6Y-33.6
X19.6Y-7.6
X19.6Y-59.6
T2
X15.0Y-32.56
X15.0Y-37.44
T3
X1.61Y-9.37
X1.61Y-11.91
X1.61Y-14.45
X1.61Y-16.99
X1.61Y-19.53
X1.61Y-22.07
X1.61Y-24.61
X1.61Y-27.15
X1.61Y-29.69
X1.61Y-32.23
X1.61Y-34.77
X1.61Y-37.31
X1.61Y-39.85
X1.61Y-42.39
X1.61Y-44.93
X1.61Y-47.47
X1.61Y-50.01
X1.61Y-52.55
X1.61Y-55.09
X1.61Y-57.63
X19.39Y-9.37
X19.39Y-11.91
X19.39Y-14.45
X19.39Y-16.99
X19.39Y-19.53
X19.39Y-22.07
X19.39Y-24.61
X19.39Y-27.15
X19.39Y-29.69
X19.39Y-32.23
X19.39Y-34.77
X19.39Y-37.31
X19.39Y-39.85
X19.39Y-42.39
X19.39Y-44.93
X19.39Y-47.47
X19.39Y-50.01
X19.39Y-52.55
X19.39Y-55.09
X19.39Y-57.63
T4
X3.5Y-6.3
X5.5Y-3.76
X7.5Y-6.3
X9.5Y-3.76
X11.5Y-6.3
X13.5Y-3.76
X15.5Y-6.3
X17.5Y-3.76
M30
