%TF.GenerationSoftware,KiCad,Pcbnew,10.0.5*%
%TF.CreationDate,2026-08-23T13:32:25+09:00*%
%TF.ProjectId,MotoRecoPico,4d6f746f-5265-4636-9f50-69636f2e6b69,rev?*%
%TF.SameCoordinates,Original*%
%TF.FileFunction,Copper,L2,Inr*%
%TF.FilePolarity,Positive*%
%FSLAX46Y46*%
G04 Gerber Fmt 4.6, Leading zero omitted, Abs format (unit mm)*
G04 Created by KiCad (PCBNEW 10.0.5) date 2026-08-23 13:32:25*
%MOMM*%
%LPD*%
G01*
G04 APERTURE LIST*
G04 Aperture macros list*
%AMRoundRect*
0 Rectangle with rounded corners*
0 $1 Rounding radius*
0 $2 $3 $4 $5 $6 $7 $8 $9 X,Y pos of 4 corners*
0 Add a 4 corners polygon primitive as box body*
4,1,4,$2,$3,$4,$5,$6,$7,$8,$9,$2,$3,0*
0 Add four circle primitives for the rounded corners*
1,1,$1+$1,$2,$3*
1,1,$1+$1,$4,$5*
1,1,$1+$1,$6,$7*
1,1,$1+$1,$8,$9*
0 Add four rect primitives between the rounded corners*
20,1,$1+$1,$2,$3,$4,$5,0*
20,1,$1+$1,$4,$5,$6,$7,0*
20,1,$1+$1,$6,$7,$8,$9,0*
20,1,$1+$1,$8,$9,$2,$3,0*%
%AMFreePoly0*
4,1,37,0.603843,0.796157,0.639018,0.796157,0.711114,0.766294,0.766294,0.711114,0.796157,0.639018,0.796157,0.603843,0.800000,0.600000,0.800000,-0.600000,0.796157,-0.603843,0.796157,-0.639018,0.766294,-0.711114,0.711114,-0.766294,0.639018,-0.796157,0.603843,-0.796157,0.600000,-0.800000,0.000000,-0.800000,0.000000,-0.796148,-0.078414,-0.796148,-0.232228,-0.765552,-0.377117,-0.705537,
-0.507515,-0.618408,-0.618408,-0.507515,-0.705537,-0.377117,-0.765552,-0.232228,-0.796148,-0.078414,-0.796148,0.078414,-0.765552,0.232228,-0.705537,0.377117,-0.618408,0.507515,-0.507515,0.618408,-0.377117,0.705537,-0.232228,0.765552,-0.078414,0.796148,0.000000,0.796148,0.000000,0.800000,0.600000,0.800000,0.603843,0.796157,0.603843,0.796157,$1*%
%AMFreePoly1*
4,1,37,0.000000,0.796148,0.078414,0.796148,0.232228,0.765552,0.377117,0.705537,0.507515,0.618408,0.618408,0.507515,0.705537,0.377117,0.765552,0.232228,0.796148,0.078414,0.796148,-0.078414,0.765552,-0.232228,0.705537,-0.377117,0.618408,-0.507515,0.507515,-0.618408,0.377117,-0.705537,0.232228,-0.765552,0.078414,-0.796148,0.000000,-0.796148,0.000000,-0.800000,-0.600000,-0.800000,
-0.603843,-0.796157,-0.639018,-0.796157,-0.711114,-0.766294,-0.766294,-0.711114,-0.796157,-0.639018,-0.796157,-0.603843,-0.800000,-0.600000,-0.800000,0.600000,-0.796157,0.603843,-0.796157,0.639018,-0.766294,0.711114,-0.711114,0.766294,-0.639018,0.796157,-0.603843,0.796157,-0.600000,0.800000,0.000000,0.800000,0.000000,0.796148,0.000000,0.796148,$1*%
G04 Aperture macros list end*
%TA.AperFunction,ComponentPad*%
%ADD10R,1.800000X1.800000*%
%TD*%
%TA.AperFunction,ComponentPad*%
%ADD11C,1.800000*%
%TD*%
%TA.AperFunction,ComponentPad*%
%ADD12RoundRect,0.200000X-0.600000X-0.600000X0.600000X-0.600000X0.600000X0.600000X-0.600000X0.600000X0*%
%TD*%
%TA.AperFunction,ComponentPad*%
%ADD13C,1.600000*%
%TD*%
%TA.AperFunction,ComponentPad*%
%ADD14FreePoly0,0.000000*%
%TD*%
%TA.AperFunction,ComponentPad*%
%ADD15FreePoly1,0.000000*%
%TD*%
%TA.AperFunction,ComponentPad*%
%ADD16C,1.500000*%
%TD*%
%TA.AperFunction,ViaPad*%
%ADD17C,0.600000*%
%TD*%
%TA.AperFunction,Conductor*%
%ADD18C,0.150000*%
%TD*%
G04 APERTURE END LIST*
D10*
%TO.N,N/C*%
%TO.C,J1*%
X17500000Y-3760000D03*
D11*
X13500000Y-3760000D03*
%TO.N,IG_RAW*%
X9500000Y-3760000D03*
%TO.N,GND*%
X5500000Y-3760000D03*
%TO.N,CANL*%
X15500000Y-6300000D03*
%TO.N,CANH*%
X11500000Y-6300000D03*
%TO.N,N/C*%
X7500000Y-6300000D03*
%TO.N,V12_RAW*%
X3500000Y-6300000D03*
%TD*%
D12*
%TO.N,GPS_TX*%
%TO.C,U3*%
X1610000Y-57630000D03*
D13*
%TO.N,GPS_RX*%
X1610000Y-55090000D03*
D14*
%TO.N,GND*%
X1610000Y-52550000D03*
D13*
%TO.N,SD_SCK*%
X1610000Y-50010000D03*
%TO.N,SD_MOSI*%
X1610000Y-47470000D03*
%TO.N,SD_MISO*%
X1610000Y-44930000D03*
%TO.N,SD_CS*%
X1610000Y-42390000D03*
D14*
%TO.N,GND*%
X1610000Y-39850000D03*
D13*
%TO.N,GPS_PPS*%
X1610000Y-37310000D03*
%TO.N,SD_CD*%
X1610000Y-34770000D03*
%TO.N,LED_STATUS*%
X1610000Y-32230000D03*
%TO.N,CAN_INT*%
X1610000Y-29690000D03*
D14*
%TO.N,GND*%
X1610000Y-27150000D03*
D13*
%TO.N,CAN_SCK*%
X1610000Y-24610000D03*
%TO.N,CAN_MOSI*%
X1610000Y-22070000D03*
%TO.N,CAN_MISO*%
X1610000Y-19530000D03*
%TO.N,CAN_CS*%
X1610000Y-16990000D03*
D14*
%TO.N,GND*%
X1610000Y-14450000D03*
D13*
%TO.N,N/C*%
X1610000Y-11910000D03*
X1610000Y-9370000D03*
X19390000Y-9370000D03*
X19390000Y-11910000D03*
D15*
%TO.N,GND*%
X19390000Y-14450000D03*
D13*
%TO.N,N/C*%
X19390000Y-16990000D03*
X19390000Y-19530000D03*
%TO.N,CAN_STBY*%
X19390000Y-22070000D03*
%TO.N,CAN_RESET*%
X19390000Y-24610000D03*
D15*
%TO.N,GND*%
X19390000Y-27150000D03*
D13*
%TO.N,N/C*%
X19390000Y-29690000D03*
X19390000Y-32230000D03*
X19390000Y-34770000D03*
X19390000Y-37310000D03*
D15*
%TO.N,GND*%
X19390000Y-39850000D03*
D13*
%TO.N,IG_SENSE*%
X19390000Y-42390000D03*
%TO.N,N/C*%
X19390000Y-44930000D03*
%TO.N,V3V3*%
X19390000Y-47470000D03*
%TO.N,N/C*%
X19390000Y-50010000D03*
D15*
%TO.N,GND*%
X19390000Y-52550000D03*
D13*
%TO.N,VSYS*%
X19390000Y-55090000D03*
%TO.N,N/C*%
X19390000Y-57630000D03*
%TD*%
D16*
%TO.N,XTAL1*%
%TO.C,Y1*%
X15000000Y-37440000D03*
%TO.N,XTAL2*%
X15000000Y-32560000D03*
%TD*%
D17*
%TO.N,Q1_B*%
X5799000Y-11205300D03*
X3779200Y-31225000D03*
%TO.N,SD_CS*%
X11984100Y-42390000D03*
%TO.N,SD_MOSI*%
X10605500Y-45449200D03*
%TO.N,V3V3*%
X17230000Y-16550900D03*
X13021100Y-40684800D03*
X5538100Y-30236900D03*
X11759100Y-38256000D03*
X7155000Y-35075300D03*
X3880000Y-20787700D03*
X12381800Y-23906500D03*
X9725900Y-44950800D03*
X14312900Y-18249200D03*
X13048000Y-54324700D03*
X7630000Y-40684800D03*
X15526100Y-18790000D03*
X16730000Y-38807100D03*
X3880000Y-38825700D03*
%TO.N,SD_SCK*%
X8509700Y-48412300D03*
%TO.N,GND*%
X14600000Y-41600000D03*
X10959400Y-18233000D03*
X17600000Y-28600000D03*
X5600000Y-56600000D03*
X17600000Y-45600000D03*
X19600000Y-59600000D03*
X6600000Y-2600000D03*
X13043000Y-52877000D03*
X17600000Y-37600000D03*
X17600000Y-29600000D03*
X12600000Y-46600000D03*
X16900000Y-21147100D03*
X19600000Y-7600000D03*
X5600000Y-52600000D03*
X3600000Y-28600000D03*
X16600000Y-14600000D03*
X6600000Y-46600000D03*
X5600000Y-57600000D03*
X6600000Y-54600000D03*
X12600000Y-51600000D03*
X17600000Y-44600000D03*
X12600000Y-33600000D03*
X17600000Y-33600000D03*
X5600000Y-54600000D03*
X3675000Y-53517800D03*
X16850000Y-37081700D03*
X15600000Y-41600000D03*
X13150000Y-33715100D03*
X17600000Y-50600000D03*
X5430000Y-18818400D03*
X17175000Y-57563500D03*
X14825000Y-42803400D03*
X9180000Y-38804700D03*
X15600000Y-24600000D03*
X12600000Y-55600000D03*
X10600000Y-11600000D03*
X16600000Y-28600000D03*
X10600000Y-8600000D03*
X3600000Y-14600000D03*
X5600000Y-600000D03*
X7775000Y-44955100D03*
X6600000Y-4600000D03*
X5600000Y-46600000D03*
X8600000Y-38600000D03*
X15600000Y-57600000D03*
X13430000Y-18811200D03*
X16600000Y-27600000D03*
X4600000Y-33600000D03*
X6611100Y-32410700D03*
X3600000Y-600000D03*
X18600000Y-10600000D03*
X3600000Y-13600000D03*
X7600000Y-45600000D03*
X5600000Y-1600000D03*
X2717200Y-48466500D03*
X18600000Y-28600000D03*
X7600000Y-54600000D03*
X6600000Y-600000D03*
X17055000Y-8209400D03*
X3600000Y-2600000D03*
X16600000Y-26600000D03*
X9420000Y-17245100D03*
X1600000Y-3600000D03*
X4607400Y-60151700D03*
X17600000Y-38600000D03*
X10600000Y-40600000D03*
X6600000Y-40600000D03*
X2600000Y-1600000D03*
X8600000Y-41600000D03*
X17600000Y-56600000D03*
X17600000Y-51600000D03*
X18600000Y-7600000D03*
X600000Y-10600000D03*
X12600000Y-31600000D03*
X6600000Y-56600000D03*
X15600000Y-26600000D03*
X5600000Y-5600000D03*
X16600000Y-29600000D03*
X3600000Y-15600000D03*
X12600000Y-12600000D03*
X6600000Y-1600000D03*
X10600000Y-46600000D03*
X10600000Y-32600000D03*
X4600000Y-600000D03*
X12600000Y-45600000D03*
X2600000Y-3600000D03*
X12125000Y-30908600D03*
X18600000Y-33600000D03*
X12980000Y-11187900D03*
X7600000Y-46600000D03*
X600000Y-59600000D03*
X12600000Y-53600000D03*
X12600000Y-32600000D03*
X14600000Y-57600000D03*
X9600000Y-15600000D03*
X17600000Y-32600000D03*
X6600000Y-55600000D03*
X7600000Y-1600000D03*
X6600000Y-57600000D03*
X17600000Y-49600000D03*
X10600000Y-12600000D03*
X6600000Y-53600000D03*
X10600000Y-33600000D03*
X7600000Y-600000D03*
X13600000Y-57600000D03*
X2600000Y-10600000D03*
X5525000Y-28435900D03*
X9375200Y-20779900D03*
X1600000Y-4600000D03*
X13600000Y-11600000D03*
X5600000Y-7600000D03*
X4600000Y-1600000D03*
X3600000Y-3600000D03*
X4600000Y-2600000D03*
X12600000Y-11600000D03*
X3600000Y-25600000D03*
X15600000Y-42600000D03*
X10600000Y-31600000D03*
X5600000Y-55600000D03*
X3600000Y-27600000D03*
X7600000Y-41600000D03*
X6600000Y-41600000D03*
X3600000Y-1600000D03*
X5600000Y-51600000D03*
X4019400Y-23771000D03*
X17600000Y-27600000D03*
X5430000Y-38821600D03*
X8600000Y-1600000D03*
X14600000Y-24600000D03*
X9600000Y-33600000D03*
X7600000Y-2600000D03*
X17600000Y-30600000D03*
X17600000Y-7600000D03*
X6600000Y-7600000D03*
X17600000Y-26600000D03*
X2600000Y-2600000D03*
X18600000Y-6600000D03*
%TO.N,SD_MISO*%
X14030000Y-40198900D03*
X6534000Y-45449200D03*
%TO.N,CANL*%
X8473900Y-31114800D03*
%TO.N,CANH*%
X7981400Y-33699300D03*
X8088600Y-25404400D03*
%TO.N,CAN_STBY*%
X8921100Y-25393700D03*
%TO.N,CAN_INT*%
X13896700Y-31127800D03*
%TO.N,CAN_SCK*%
X14718300Y-27354600D03*
%TO.N,CAN_MOSI*%
X15269000Y-21286800D03*
%TO.N,CAN_MISO*%
X14321100Y-21084500D03*
%TO.N,CAN_CS*%
X13272200Y-20722700D03*
%TO.N,TXCAN*%
X6590700Y-25586500D03*
X11062700Y-25820300D03*
%TO.N,RXCAN*%
X5382800Y-25218700D03*
X11062700Y-24384500D03*
%TO.N,V5*%
X9330000Y-34319200D03*
X10525600Y-20740500D03*
%TO.N,Q2_G*%
X9139900Y-14389500D03*
%TO.N,V12P*%
X3592400Y-11205300D03*
X9180000Y-13635300D03*
X16047500Y-11185200D03*
%TO.N,IG_SENSE*%
X5619900Y-33786500D03*
%TO.N,Q1_C*%
X4654800Y-31460600D03*
%TO.N,LED_A*%
X10544900Y-60025100D03*
X10666200Y-36409300D03*
%TO.N,LED_STATUS*%
X4873900Y-58693100D03*
%TD*%
%TO.N,SD_CS*%
D18*
X11984100Y-42390000D02*
X1610000Y-42390000D01*
%TO.N,SD_MOSI*%
X1610000Y-47470000D02*
X8584700Y-47470000D01*
X8584700Y-47470000D02*
X10605500Y-45449200D01*
%TO.N,SD_SCK*%
X8509700Y-48412300D02*
X6912000Y-50010000D01*
X6912000Y-50010000D02*
X1610000Y-50010000D01*
%TO.N,SD_MISO*%
X11004200Y-44131000D02*
X7852200Y-44131000D01*
X2129200Y-45449200D02*
X1610000Y-44930000D01*
X6534000Y-45449200D02*
X2129200Y-45449200D01*
X7852200Y-44131000D02*
X6534000Y-45449200D01*
X14030000Y-40198900D02*
X14030000Y-41105200D01*
X14030000Y-41105200D02*
X11004200Y-44131000D01*
%TO.N,CAN_STBY*%
X19390000Y-22070000D02*
X16166400Y-25293600D01*
X9021200Y-25293600D02*
X8921100Y-25393700D01*
X16166400Y-25293600D02*
X9021200Y-25293600D01*
%TO.N,CAN_INT*%
X12458900Y-29690000D02*
X13896700Y-31127800D01*
X1610000Y-29690000D02*
X12458900Y-29690000D01*
%TO.N,CAN_SCK*%
X4354600Y-27354600D02*
X14718300Y-27354600D01*
X1610000Y-24610000D02*
X4354600Y-27354600D01*
%TO.N,CAN_MOSI*%
X14485800Y-22070000D02*
X15269000Y-21286800D01*
X1610000Y-22070000D02*
X14485800Y-22070000D01*
%TO.N,CAN_MISO*%
X9989800Y-20561700D02*
X9681300Y-20253200D01*
X9681300Y-20253200D02*
X2333200Y-20253200D01*
X2333200Y-20253200D02*
X1610000Y-19530000D01*
X10260600Y-21269100D02*
X9989800Y-20998300D01*
X14136500Y-21269100D02*
X10260600Y-21269100D01*
X14321100Y-21084500D02*
X14136500Y-21269100D01*
X9989800Y-20998300D02*
X9989800Y-20561700D01*
%TO.N,CAN_CS*%
X13272200Y-20722700D02*
X12501000Y-19951500D01*
X12501000Y-19951500D02*
X4571500Y-19951500D01*
X4571500Y-19951500D02*
X1610000Y-16990000D01*
%TO.N,TXCAN*%
X7019000Y-26014800D02*
X10868200Y-26014800D01*
X10868200Y-26014800D02*
X11062700Y-25820300D01*
X6590700Y-25586500D02*
X7019000Y-26014800D01*
%TO.N,RXCAN*%
X10484000Y-23805800D02*
X11062700Y-24384500D01*
X5382800Y-25218700D02*
X6795700Y-23805800D01*
X6795700Y-23805800D02*
X10484000Y-23805800D01*
%TO.N,V12P*%
X9180000Y-13635300D02*
X6022400Y-13635300D01*
X6022400Y-13635300D02*
X3592400Y-11205300D01*
%TO.N,IG_SENSE*%
X11232400Y-38474100D02*
X11541000Y-38782700D01*
X11541000Y-38782700D02*
X15782700Y-38782700D01*
X15782700Y-38782700D02*
X19390000Y-42390000D01*
X5619900Y-33786500D02*
X6642700Y-33786500D01*
X6642700Y-33786500D02*
X11232400Y-38376200D01*
X11232400Y-38376200D02*
X11232400Y-38474100D01*
%TD*%
%TA.AperFunction,Conductor*%
%TO.N,GND*%
G36*
X20581255Y-418745D02*
G01*
X20600000Y-464000D01*
X20600000Y-13522842D01*
X20600000Y-14219230D01*
X20581255Y-14264485D01*
X20536000Y-14283230D01*
X20490745Y-14264485D01*
X20473230Y-14231716D01*
X20458401Y-14157166D01*
X20458393Y-14157136D01*
X20441044Y-14099942D01*
X20441039Y-14099929D01*
X20380738Y-13954349D01*
X20380731Y-13954334D01*
X20352554Y-13901618D01*
X20352543Y-13901601D01*
X20299950Y-13822891D01*
X19858019Y-14264822D01*
X19855925Y-14257007D01*
X19790099Y-14142993D01*
X19697007Y-14049901D01*
X19582993Y-13984075D01*
X19575175Y-13981980D01*
X20017108Y-13540048D01*
X20017107Y-13540047D01*
X19938407Y-13487461D01*
X19938381Y-13487445D01*
X19885665Y-13459268D01*
X19885650Y-13459261D01*
X19740070Y-13398960D01*
X19740057Y-13398955D01*
X19682863Y-13381606D01*
X19682833Y-13381598D01*
X19528304Y-13350861D01*
X19528296Y-13350860D01*
X19468793Y-13345000D01*
X18750235Y-13345000D01*
X18743175Y-13345080D01*
X18633502Y-13368216D01*
X18633493Y-13368218D01*
X18603489Y-13380645D01*
X18603489Y-13380646D01*
X19204823Y-13981980D01*
X19197007Y-13984075D01*
X19082993Y-14049901D01*
X18989901Y-14142993D01*
X18924075Y-14257007D01*
X18921980Y-14264823D01*
X18320646Y-13663489D01*
X18320645Y-13663489D01*
X18308232Y-13693461D01*
X18305594Y-13700042D01*
X18305594Y-13700043D01*
X18285000Y-13810215D01*
X18285000Y-15089764D01*
X18285080Y-15096824D01*
X18308217Y-15206501D01*
X18320645Y-15236509D01*
X18921980Y-14635174D01*
X18924075Y-14642993D01*
X18989901Y-14757007D01*
X19082993Y-14850099D01*
X19197007Y-14915925D01*
X19204823Y-14918019D01*
X18603489Y-15519352D01*
X18633507Y-15531786D01*
X18640043Y-15534405D01*
X18750215Y-15554999D01*
X18750218Y-15555000D01*
X19468793Y-15555000D01*
X19528296Y-15549139D01*
X19528304Y-15549138D01*
X19682833Y-15518401D01*
X19682863Y-15518393D01*
X19740057Y-15501044D01*
X19740070Y-15501039D01*
X19885650Y-15440738D01*
X19885665Y-15440731D01*
X19938391Y-15412548D01*
X19938397Y-15412544D01*
X20017107Y-15359951D01*
X20017108Y-15359951D01*
X19575176Y-14918019D01*
X19582993Y-14915925D01*
X19697007Y-14850099D01*
X19790099Y-14757007D01*
X19855925Y-14642993D01*
X19858019Y-14635176D01*
X20299951Y-15077108D01*
X20299951Y-15077107D01*
X20352544Y-14998397D01*
X20352548Y-14998391D01*
X20380731Y-14945665D01*
X20380738Y-14945650D01*
X20441039Y-14800070D01*
X20441044Y-14800057D01*
X20458393Y-14742863D01*
X20458402Y-14742829D01*
X20473230Y-14668284D01*
X20500443Y-14627555D01*
X20548485Y-14617999D01*
X20589214Y-14645212D01*
X20600000Y-14680769D01*
X20600000Y-26222842D01*
X20600000Y-26919230D01*
X20581255Y-26964485D01*
X20536000Y-26983230D01*
X20490745Y-26964485D01*
X20473230Y-26931716D01*
X20458401Y-26857166D01*
X20458393Y-26857136D01*
X20441044Y-26799942D01*
X20441039Y-26799929D01*
X20380738Y-26654349D01*
X20380731Y-26654334D01*
X20352554Y-26601618D01*
X20352543Y-26601601D01*
X20299950Y-26522891D01*
X19858019Y-26964822D01*
X19855925Y-26957007D01*
X19790099Y-26842993D01*
X19697007Y-26749901D01*
X19582993Y-26684075D01*
X19575175Y-26681980D01*
X20017108Y-26240048D01*
X20017107Y-26240047D01*
X19938407Y-26187461D01*
X19938381Y-26187445D01*
X19885665Y-26159268D01*
X19885650Y-26159261D01*
X19740070Y-26098960D01*
X19740057Y-26098955D01*
X19682863Y-26081606D01*
X19682833Y-26081598D01*
X19528304Y-26050861D01*
X19528296Y-26050860D01*
X19468793Y-26045000D01*
X18750235Y-26045000D01*
X18743175Y-26045080D01*
X18633502Y-26068216D01*
X18633493Y-26068218D01*
X18603489Y-26080645D01*
X18603489Y-26080646D01*
X19204823Y-26681980D01*
X19197007Y-26684075D01*
X19082993Y-26749901D01*
X18989901Y-26842993D01*
X18924075Y-26957007D01*
X18921980Y-26964823D01*
X18320646Y-26363489D01*
X18320645Y-26363489D01*
X18308232Y-26393461D01*
X18305594Y-26400042D01*
X18305594Y-26400043D01*
X18285000Y-26510215D01*
X18285000Y-27789764D01*
X18285080Y-27796824D01*
X18308217Y-27906501D01*
X18320645Y-27936509D01*
X18921980Y-27335174D01*
X18924075Y-27342993D01*
X18989901Y-27457007D01*
X19082993Y-27550099D01*
X19197007Y-27615925D01*
X19204823Y-27618019D01*
X18603489Y-28219352D01*
X18633507Y-28231786D01*
X18640043Y-28234405D01*
X18750215Y-28254999D01*
X18750218Y-28255000D01*
X19468793Y-28255000D01*
X19528296Y-28249139D01*
X19528304Y-28249138D01*
X19682833Y-28218401D01*
X19682863Y-28218393D01*
X19740057Y-28201044D01*
X19740070Y-28201039D01*
X19885650Y-28140738D01*
X19885665Y-28140731D01*
X19938391Y-28112548D01*
X19938397Y-28112544D01*
X20017107Y-28059951D01*
X20017108Y-28059951D01*
X19575176Y-27618019D01*
X19582993Y-27615925D01*
X19697007Y-27550099D01*
X19790099Y-27457007D01*
X19855925Y-27342993D01*
X19858019Y-27335176D01*
X20299951Y-27777108D01*
X20299951Y-27777107D01*
X20352544Y-27698397D01*
X20352548Y-27698391D01*
X20380731Y-27645665D01*
X20380738Y-27645650D01*
X20441039Y-27500070D01*
X20441044Y-27500057D01*
X20458393Y-27442863D01*
X20458402Y-27442829D01*
X20473230Y-27368284D01*
X20500443Y-27327555D01*
X20548485Y-27317999D01*
X20589214Y-27345212D01*
X20600000Y-27380769D01*
X20600000Y-38922842D01*
X20600000Y-39619230D01*
X20581255Y-39664485D01*
X20536000Y-39683230D01*
X20490745Y-39664485D01*
X20473230Y-39631716D01*
X20458401Y-39557166D01*
X20458393Y-39557136D01*
X20441044Y-39499942D01*
X20441039Y-39499929D01*
X20380738Y-39354349D01*
X20380731Y-39354334D01*
X20352554Y-39301618D01*
X20352543Y-39301601D01*
X20299950Y-39222891D01*
X19858019Y-39664822D01*
X19855925Y-39657007D01*
X19790099Y-39542993D01*
X19697007Y-39449901D01*
X19582993Y-39384075D01*
X19575175Y-39381980D01*
X20017108Y-38940048D01*
X20017107Y-38940047D01*
X19938407Y-38887461D01*
X19938381Y-38887445D01*
X19885665Y-38859268D01*
X19885650Y-38859261D01*
X19740070Y-38798960D01*
X19740057Y-38798955D01*
X19682863Y-38781606D01*
X19682833Y-38781598D01*
X19528304Y-38750861D01*
X19528296Y-38750860D01*
X19468793Y-38745000D01*
X18750235Y-38745000D01*
X18743175Y-38745080D01*
X18633502Y-38768216D01*
X18633493Y-38768218D01*
X18603489Y-38780645D01*
X18603489Y-38780646D01*
X19204823Y-39381980D01*
X19197007Y-39384075D01*
X19082993Y-39449901D01*
X18989901Y-39542993D01*
X18924075Y-39657007D01*
X18921980Y-39664823D01*
X18320646Y-39063489D01*
X18320645Y-39063489D01*
X18308232Y-39093461D01*
X18305594Y-39100042D01*
X18305594Y-39100043D01*
X18285000Y-39210215D01*
X18285000Y-40489764D01*
X18285080Y-40496824D01*
X18308217Y-40606505D01*
X18338654Y-40679988D01*
X18341435Y-40686485D01*
X18341437Y-40686490D01*
X18404776Y-40778955D01*
X18404783Y-40778963D01*
X18460996Y-40835175D01*
X18466084Y-40840146D01*
X18466086Y-40840148D01*
X18559989Y-40901334D01*
X18633464Y-40931769D01*
X18640043Y-40934405D01*
X18750215Y-40954999D01*
X18750218Y-40955000D01*
X19468793Y-40955000D01*
X19528296Y-40949139D01*
X19528304Y-40949138D01*
X19682833Y-40918401D01*
X19682863Y-40918393D01*
X19740057Y-40901044D01*
X19740070Y-40901039D01*
X19885650Y-40840738D01*
X19885665Y-40840731D01*
X19938391Y-40812548D01*
X19938397Y-40812544D01*
X20017107Y-40759951D01*
X20017108Y-40759951D01*
X19575176Y-40318019D01*
X19582993Y-40315925D01*
X19697007Y-40250099D01*
X19790099Y-40157007D01*
X19855925Y-40042993D01*
X19858019Y-40035176D01*
X20299951Y-40477108D01*
X20299951Y-40477107D01*
X20352544Y-40398397D01*
X20352548Y-40398391D01*
X20380731Y-40345665D01*
X20380738Y-40345650D01*
X20441039Y-40200070D01*
X20441044Y-40200057D01*
X20458393Y-40142863D01*
X20458402Y-40142829D01*
X20473230Y-40068284D01*
X20500443Y-40027555D01*
X20548485Y-40017999D01*
X20589214Y-40045212D01*
X20600000Y-40080769D01*
X20600000Y-51622842D01*
X20600000Y-52319230D01*
X20581255Y-52364485D01*
X20536000Y-52383230D01*
X20490745Y-52364485D01*
X20473230Y-52331716D01*
X20458401Y-52257166D01*
X20458393Y-52257136D01*
X20441044Y-52199942D01*
X20441039Y-52199929D01*
X20380738Y-52054349D01*
X20380731Y-52054334D01*
X20352554Y-52001618D01*
X20352543Y-52001601D01*
X20299950Y-51922891D01*
X19858019Y-52364822D01*
X19855925Y-52357007D01*
X19790099Y-52242993D01*
X19697007Y-52149901D01*
X19582993Y-52084075D01*
X19575175Y-52081980D01*
X20017108Y-51640048D01*
X20017107Y-51640047D01*
X19938407Y-51587461D01*
X19938381Y-51587445D01*
X19885665Y-51559268D01*
X19885650Y-51559261D01*
X19740070Y-51498960D01*
X19740057Y-51498955D01*
X19682863Y-51481606D01*
X19682833Y-51481598D01*
X19528304Y-51450861D01*
X19528296Y-51450860D01*
X19468793Y-51445000D01*
X18750235Y-51445000D01*
X18743175Y-51445080D01*
X18633502Y-51468216D01*
X18633493Y-51468218D01*
X18603489Y-51480645D01*
X18603489Y-51480646D01*
X19204823Y-52081980D01*
X19197007Y-52084075D01*
X19082993Y-52149901D01*
X18989901Y-52242993D01*
X18924075Y-52357007D01*
X18921980Y-52364823D01*
X18320646Y-51763489D01*
X18320645Y-51763489D01*
X18308232Y-51793461D01*
X18305594Y-51800042D01*
X18305594Y-51800043D01*
X18285000Y-51910215D01*
X18285000Y-53189764D01*
X18285080Y-53196824D01*
X18308217Y-53306501D01*
X18320645Y-53336509D01*
X18921980Y-52735174D01*
X18924075Y-52742993D01*
X18989901Y-52857007D01*
X19082993Y-52950099D01*
X19197007Y-53015925D01*
X19204823Y-53018019D01*
X18603489Y-53619352D01*
X18633507Y-53631786D01*
X18640043Y-53634405D01*
X18750215Y-53654999D01*
X18750218Y-53655000D01*
X19468793Y-53655000D01*
X19528296Y-53649139D01*
X19528304Y-53649138D01*
X19682833Y-53618401D01*
X19682863Y-53618393D01*
X19740057Y-53601044D01*
X19740070Y-53601039D01*
X19885650Y-53540738D01*
X19885665Y-53540731D01*
X19938391Y-53512548D01*
X19938397Y-53512544D01*
X20017107Y-53459951D01*
X20017108Y-53459951D01*
X19575176Y-53018019D01*
X19582993Y-53015925D01*
X19697007Y-52950099D01*
X19790099Y-52857007D01*
X19855925Y-52742993D01*
X19858019Y-52735176D01*
X20299951Y-53177108D01*
X20299951Y-53177107D01*
X20352544Y-53098397D01*
X20352548Y-53098391D01*
X20380731Y-53045665D01*
X20380738Y-53045650D01*
X20441039Y-52900070D01*
X20441044Y-52900057D01*
X20458393Y-52842863D01*
X20458402Y-52842829D01*
X20473230Y-52768284D01*
X20500443Y-52727555D01*
X20548485Y-52717999D01*
X20589214Y-52745212D01*
X20600000Y-52780769D01*
X20600000Y-53720000D01*
X20600000Y-60536000D01*
X20581255Y-60581255D01*
X20536000Y-60600000D01*
X10626071Y-60600000D01*
X10580816Y-60581255D01*
X10562071Y-60536000D01*
X10580816Y-60490745D01*
X10609507Y-60474181D01*
X10679416Y-60455448D01*
X10718786Y-60444899D01*
X10821513Y-60385589D01*
X10905389Y-60301713D01*
X10964699Y-60198986D01*
X10995400Y-60084409D01*
X10995400Y-59965791D01*
X10964699Y-59851214D01*
X10905389Y-59748487D01*
X10821513Y-59664611D01*
X10718786Y-59605301D01*
X10718783Y-59605300D01*
X10718781Y-59605299D01*
X10604215Y-59574601D01*
X10604211Y-59574600D01*
X10604209Y-59574600D01*
X10485591Y-59574600D01*
X10485589Y-59574600D01*
X10485584Y-59574601D01*
X10371018Y-59605299D01*
X10371017Y-59605299D01*
X10268285Y-59664612D01*
X10184412Y-59748485D01*
X10125099Y-59851217D01*
X10125099Y-59851218D01*
X10094401Y-59965784D01*
X10094400Y-59965793D01*
X10094400Y-60084406D01*
X10094401Y-60084415D01*
X10125099Y-60198981D01*
X10125099Y-60198982D01*
X10125100Y-60198984D01*
X10125101Y-60198986D01*
X10184411Y-60301713D01*
X10268287Y-60385589D01*
X10371014Y-60444899D01*
X10371018Y-60444900D01*
X10480293Y-60474181D01*
X10519155Y-60504000D01*
X10525548Y-60552564D01*
X10495729Y-60591426D01*
X10463729Y-60600000D01*
X464000Y-60600000D01*
X418745Y-60581255D01*
X400000Y-60536000D01*
X400000Y-58633793D01*
X4423400Y-58633793D01*
X4423400Y-58752406D01*
X4423401Y-58752415D01*
X4454099Y-58866981D01*
X4454099Y-58866982D01*
X4454100Y-58866984D01*
X4454101Y-58866986D01*
X4513411Y-58969713D01*
X4597287Y-59053589D01*
X4700014Y-59112899D01*
X4814591Y-59143600D01*
X4814594Y-59143600D01*
X4933206Y-59143600D01*
X4933209Y-59143600D01*
X5047786Y-59112899D01*
X5150513Y-59053589D01*
X5234389Y-58969713D01*
X5293699Y-58866986D01*
X5324400Y-58752409D01*
X5324400Y-58633791D01*
X5293699Y-58519214D01*
X5234389Y-58416487D01*
X5150513Y-58332611D01*
X5047786Y-58273301D01*
X5047783Y-58273300D01*
X5047781Y-58273299D01*
X4933215Y-58242601D01*
X4933211Y-58242600D01*
X4933209Y-58242600D01*
X4814591Y-58242600D01*
X4814589Y-58242600D01*
X4814584Y-58242601D01*
X4700018Y-58273299D01*
X4700017Y-58273299D01*
X4597285Y-58332612D01*
X4513412Y-58416485D01*
X4454099Y-58519217D01*
X4454099Y-58519218D01*
X4423401Y-58633784D01*
X4423400Y-58633793D01*
X400000Y-58633793D01*
X400000Y-56996738D01*
X659500Y-56996738D01*
X659500Y-58263261D01*
X669425Y-58331387D01*
X669428Y-58331395D01*
X720801Y-58436481D01*
X720801Y-58436482D01*
X720802Y-58436483D01*
X803517Y-58519198D01*
X908607Y-58570573D01*
X908610Y-58570573D01*
X908612Y-58570574D01*
X976739Y-58580500D01*
X976740Y-58580500D01*
X2243261Y-58580500D01*
X2311387Y-58570574D01*
X2311387Y-58570573D01*
X2311393Y-58570573D01*
X2416483Y-58519198D01*
X2499198Y-58436483D01*
X2550573Y-58331393D01*
X2560500Y-58263260D01*
X2560500Y-57536381D01*
X18439500Y-57536381D01*
X18439500Y-57723618D01*
X18476025Y-57907243D01*
X18476028Y-57907253D01*
X18547676Y-58080228D01*
X18547677Y-58080230D01*
X18547678Y-58080231D01*
X18651698Y-58235908D01*
X18784092Y-58368302D01*
X18939769Y-58472322D01*
X19112749Y-58543973D01*
X19185599Y-58558463D01*
X19296381Y-58580500D01*
X19296384Y-58580500D01*
X19483619Y-58580500D01*
X19575851Y-58562153D01*
X19667251Y-58543973D01*
X19840231Y-58472322D01*
X19995908Y-58368302D01*
X20128302Y-58235908D01*
X20232322Y-58080231D01*
X20303973Y-57907251D01*
X20340500Y-57723616D01*
X20340500Y-57536384D01*
X20340500Y-57536381D01*
X20303974Y-57352756D01*
X20303973Y-57352749D01*
X20232322Y-57179769D01*
X20128302Y-57024092D01*
X19995908Y-56891698D01*
X19840231Y-56787678D01*
X19840230Y-56787677D01*
X19840228Y-56787676D01*
X19667253Y-56716028D01*
X19667254Y-56716028D01*
X19667251Y-56716027D01*
X19667247Y-56716026D01*
X19667243Y-56716025D01*
X19483619Y-56679500D01*
X19483616Y-56679500D01*
X19296384Y-56679500D01*
X19296381Y-56679500D01*
X19112756Y-56716025D01*
X19112746Y-56716028D01*
X18939771Y-56787676D01*
X18784090Y-56891699D01*
X18651699Y-57024090D01*
X18547676Y-57179771D01*
X18476028Y-57352746D01*
X18476025Y-57352756D01*
X18439500Y-57536381D01*
X2560500Y-57536381D01*
X2560500Y-56996740D01*
X2550573Y-56928607D01*
X2499198Y-56823517D01*
X2416483Y-56740802D01*
X2416482Y-56740801D01*
X2311395Y-56689428D01*
X2311393Y-56689427D01*
X2311391Y-56689426D01*
X2311387Y-56689425D01*
X2243261Y-56679500D01*
X2243260Y-56679500D01*
X976740Y-56679500D01*
X976739Y-56679500D01*
X908612Y-56689425D01*
X908604Y-56689428D01*
X803518Y-56740801D01*
X803517Y-56740801D01*
X720801Y-56823517D01*
X720801Y-56823518D01*
X669428Y-56928604D01*
X669425Y-56928612D01*
X659500Y-56996738D01*
X400000Y-56996738D01*
X400000Y-54996381D01*
X659500Y-54996381D01*
X659500Y-55183618D01*
X696025Y-55367243D01*
X696028Y-55367253D01*
X767676Y-55540228D01*
X767677Y-55540230D01*
X767678Y-55540231D01*
X871698Y-55695908D01*
X1004092Y-55828302D01*
X1159769Y-55932322D01*
X1332749Y-56003973D01*
X1405599Y-56018463D01*
X1516381Y-56040500D01*
X1516384Y-56040500D01*
X1703619Y-56040500D01*
X1795851Y-56022153D01*
X1887251Y-56003973D01*
X2060231Y-55932322D01*
X2215908Y-55828302D01*
X2348302Y-55695908D01*
X2452322Y-55540231D01*
X2523973Y-55367251D01*
X2560500Y-55183616D01*
X2560500Y-54996384D01*
X2560500Y-54996381D01*
X18439500Y-54996381D01*
X18439500Y-55183618D01*
X18476025Y-55367243D01*
X18476028Y-55367253D01*
X18547676Y-55540228D01*
X18547677Y-55540230D01*
X18547678Y-55540231D01*
X18651698Y-55695908D01*
X18784092Y-55828302D01*
X18939769Y-55932322D01*
X19112749Y-56003973D01*
X19185599Y-56018463D01*
X19296381Y-56040500D01*
X19296384Y-56040500D01*
X19483619Y-56040500D01*
X19575851Y-56022153D01*
X19667251Y-56003973D01*
X19840231Y-55932322D01*
X19995908Y-55828302D01*
X20128302Y-55695908D01*
X20232322Y-55540231D01*
X20303973Y-55367251D01*
X20340500Y-55183616D01*
X20340500Y-54996384D01*
X20340500Y-54996381D01*
X20303974Y-54812756D01*
X20303973Y-54812749D01*
X20232322Y-54639769D01*
X20128302Y-54484092D01*
X19995908Y-54351698D01*
X19840231Y-54247678D01*
X19840230Y-54247677D01*
X19840228Y-54247676D01*
X19667253Y-54176028D01*
X19667254Y-54176028D01*
X19667251Y-54176027D01*
X19667247Y-54176026D01*
X19667243Y-54176025D01*
X19483619Y-54139500D01*
X19483616Y-54139500D01*
X19296384Y-54139500D01*
X19296381Y-54139500D01*
X19112756Y-54176025D01*
X19112746Y-54176028D01*
X18939771Y-54247676D01*
X18784090Y-54351699D01*
X18651699Y-54484090D01*
X18547676Y-54639771D01*
X18476028Y-54812746D01*
X18476025Y-54812756D01*
X18439500Y-54996381D01*
X2560500Y-54996381D01*
X2523974Y-54812756D01*
X2523973Y-54812749D01*
X2452322Y-54639769D01*
X2348302Y-54484092D01*
X2215908Y-54351698D01*
X2086743Y-54265393D01*
X12597500Y-54265393D01*
X12597500Y-54384006D01*
X12597501Y-54384015D01*
X12628199Y-54498581D01*
X12628199Y-54498582D01*
X12628200Y-54498584D01*
X12628201Y-54498586D01*
X12687511Y-54601313D01*
X12771387Y-54685189D01*
X12874114Y-54744499D01*
X12988691Y-54775200D01*
X12988694Y-54775200D01*
X13107306Y-54775200D01*
X13107309Y-54775200D01*
X13221886Y-54744499D01*
X13324613Y-54685189D01*
X13408489Y-54601313D01*
X13467799Y-54498586D01*
X13498500Y-54384009D01*
X13498500Y-54265391D01*
X13467799Y-54150814D01*
X13408489Y-54048087D01*
X13324613Y-53964211D01*
X13221886Y-53904901D01*
X13221883Y-53904900D01*
X13221881Y-53904899D01*
X13107315Y-53874201D01*
X13107311Y-53874200D01*
X13107309Y-53874200D01*
X12988691Y-53874200D01*
X12988689Y-53874200D01*
X12988684Y-53874201D01*
X12874118Y-53904899D01*
X12874117Y-53904899D01*
X12771385Y-53964212D01*
X12687512Y-54048085D01*
X12628199Y-54150817D01*
X12628199Y-54150818D01*
X12597501Y-54265384D01*
X12597500Y-54265393D01*
X2086743Y-54265393D01*
X2060231Y-54247678D01*
X2060230Y-54247677D01*
X2060228Y-54247676D01*
X1887253Y-54176028D01*
X1887254Y-54176028D01*
X1887251Y-54176027D01*
X1887247Y-54176026D01*
X1887243Y-54176025D01*
X1703619Y-54139500D01*
X1703616Y-54139500D01*
X1516384Y-54139500D01*
X1516381Y-54139500D01*
X1332756Y-54176025D01*
X1332746Y-54176028D01*
X1159771Y-54247676D01*
X1004090Y-54351699D01*
X871699Y-54484090D01*
X767676Y-54639771D01*
X696028Y-54812746D01*
X696025Y-54812756D01*
X659500Y-54996381D01*
X400000Y-54996381D01*
X400000Y-53720000D01*
X400000Y-52780769D01*
X418745Y-52735514D01*
X464000Y-52716769D01*
X509255Y-52735514D01*
X526770Y-52768284D01*
X541597Y-52842829D01*
X541606Y-52842863D01*
X558955Y-52900057D01*
X558960Y-52900070D01*
X619261Y-53045650D01*
X619268Y-53045665D01*
X647445Y-53098381D01*
X647461Y-53098407D01*
X700047Y-53177107D01*
X700048Y-53177108D01*
X1141980Y-52735175D01*
X1144075Y-52742993D01*
X1209901Y-52857007D01*
X1302993Y-52950099D01*
X1417007Y-53015925D01*
X1424823Y-53018019D01*
X982891Y-53459950D01*
X1061601Y-53512543D01*
X1061618Y-53512554D01*
X1114334Y-53540731D01*
X1114349Y-53540738D01*
X1259929Y-53601039D01*
X1259942Y-53601044D01*
X1317136Y-53618393D01*
X1317166Y-53618401D01*
X1471695Y-53649138D01*
X1471703Y-53649139D01*
X1531207Y-53655000D01*
X2249765Y-53655000D01*
X2256824Y-53654919D01*
X2366503Y-53631782D01*
X2396509Y-53619353D01*
X2396509Y-53619352D01*
X1795176Y-53018019D01*
X1802993Y-53015925D01*
X1917007Y-52950099D01*
X2010099Y-52857007D01*
X2075925Y-52742993D01*
X2078019Y-52735176D01*
X2679352Y-53336509D01*
X2679353Y-53336509D01*
X2691769Y-53306535D01*
X2694405Y-53299957D01*
X2694405Y-53299956D01*
X2714999Y-53189784D01*
X2715000Y-53189782D01*
X2715000Y-51910245D01*
X2714974Y-51908000D01*
X2714976Y-51907994D01*
X2714974Y-51907990D01*
X2714918Y-51903175D01*
X2691782Y-51793494D01*
X2679353Y-51763489D01*
X2078019Y-52364822D01*
X2075925Y-52357007D01*
X2010099Y-52242993D01*
X1917007Y-52149901D01*
X1802993Y-52084075D01*
X1795174Y-52081980D01*
X2396510Y-51480645D01*
X2366538Y-51468232D01*
X2359957Y-51465594D01*
X2249784Y-51445000D01*
X1531207Y-51445000D01*
X1471703Y-51450860D01*
X1471695Y-51450861D01*
X1317166Y-51481598D01*
X1317136Y-51481606D01*
X1259942Y-51498955D01*
X1259929Y-51498960D01*
X1114349Y-51559261D01*
X1114334Y-51559268D01*
X1061618Y-51587445D01*
X1061592Y-51587461D01*
X982891Y-51640047D01*
X982891Y-51640048D01*
X1424823Y-52081980D01*
X1417007Y-52084075D01*
X1302993Y-52149901D01*
X1209901Y-52242993D01*
X1144075Y-52357007D01*
X1141980Y-52364823D01*
X700048Y-51922891D01*
X700047Y-51922891D01*
X647461Y-52001592D01*
X647445Y-52001618D01*
X619268Y-52054334D01*
X619261Y-52054349D01*
X558960Y-52199929D01*
X558955Y-52199942D01*
X541606Y-52257136D01*
X541598Y-52257166D01*
X526770Y-52331716D01*
X499557Y-52372444D01*
X451514Y-52382000D01*
X410786Y-52354787D01*
X400000Y-52319230D01*
X400000Y-51622843D01*
X400000Y-49916381D01*
X659500Y-49916381D01*
X659500Y-50103618D01*
X696025Y-50287243D01*
X696028Y-50287253D01*
X767676Y-50460228D01*
X767677Y-50460230D01*
X767678Y-50460231D01*
X871698Y-50615908D01*
X1004092Y-50748302D01*
X1159769Y-50852322D01*
X1332749Y-50923973D01*
X1405599Y-50938463D01*
X1516381Y-50960500D01*
X1516384Y-50960500D01*
X1703619Y-50960500D01*
X1795851Y-50942153D01*
X1887251Y-50923973D01*
X2060231Y-50852322D01*
X2215908Y-50748302D01*
X2348302Y-50615908D01*
X2452322Y-50460231D01*
X2523973Y-50287251D01*
X2524022Y-50287007D01*
X2524067Y-50286938D01*
X2524888Y-50284236D01*
X2525707Y-50284484D01*
X2551241Y-50246282D01*
X2586791Y-50235500D01*
X6859689Y-50235500D01*
X6859697Y-50235501D01*
X6867145Y-50235501D01*
X6956853Y-50235501D01*
X6956855Y-50235501D01*
X6986157Y-50223363D01*
X7015459Y-50211226D01*
X7032624Y-50204115D01*
X7039736Y-50201170D01*
X7103170Y-50137736D01*
X7103170Y-50137734D01*
X7112169Y-50128736D01*
X7112171Y-50128733D01*
X7324523Y-49916381D01*
X18439500Y-49916381D01*
X18439500Y-50103618D01*
X18476025Y-50287243D01*
X18476028Y-50287253D01*
X18547676Y-50460228D01*
X18547677Y-50460230D01*
X18547678Y-50460231D01*
X18651698Y-50615908D01*
X18784092Y-50748302D01*
X18939769Y-50852322D01*
X19112749Y-50923973D01*
X19185599Y-50938463D01*
X19296381Y-50960500D01*
X19296384Y-50960500D01*
X19483619Y-50960500D01*
X19575851Y-50942153D01*
X19667251Y-50923973D01*
X19840231Y-50852322D01*
X19995908Y-50748302D01*
X20128302Y-50615908D01*
X20232322Y-50460231D01*
X20303973Y-50287251D01*
X20333714Y-50137734D01*
X20340500Y-50103618D01*
X20340500Y-49916381D01*
X20310538Y-49765755D01*
X20303973Y-49732749D01*
X20232322Y-49559769D01*
X20128302Y-49404092D01*
X19995908Y-49271698D01*
X19840231Y-49167678D01*
X19840230Y-49167677D01*
X19840228Y-49167676D01*
X19667253Y-49096028D01*
X19667254Y-49096028D01*
X19667251Y-49096027D01*
X19667247Y-49096026D01*
X19667243Y-49096025D01*
X19483619Y-49059500D01*
X19483616Y-49059500D01*
X19296384Y-49059500D01*
X19296381Y-49059500D01*
X19112756Y-49096025D01*
X19112746Y-49096028D01*
X18939771Y-49167676D01*
X18784090Y-49271699D01*
X18651699Y-49404090D01*
X18547676Y-49559771D01*
X18476028Y-49732746D01*
X18476025Y-49732756D01*
X18439500Y-49916381D01*
X7324523Y-49916381D01*
X8367253Y-48873650D01*
X8412507Y-48854906D01*
X8429066Y-48857086D01*
X8450391Y-48862800D01*
X8450394Y-48862800D01*
X8569006Y-48862800D01*
X8569009Y-48862800D01*
X8683586Y-48832099D01*
X8786313Y-48772789D01*
X8870189Y-48688913D01*
X8929499Y-48586186D01*
X8960200Y-48471609D01*
X8960200Y-48352991D01*
X8929499Y-48238414D01*
X8870189Y-48135687D01*
X8786313Y-48051811D01*
X8683586Y-47992501D01*
X8683583Y-47992500D01*
X8683581Y-47992499D01*
X8569015Y-47961801D01*
X8569011Y-47961800D01*
X8569009Y-47961800D01*
X8450391Y-47961800D01*
X8450389Y-47961800D01*
X8450384Y-47961801D01*
X8335818Y-47992499D01*
X8335817Y-47992499D01*
X8233085Y-48051812D01*
X8149212Y-48135685D01*
X8089899Y-48238417D01*
X8089899Y-48238418D01*
X8059201Y-48352984D01*
X8059200Y-48352993D01*
X8059200Y-48471608D01*
X8064912Y-48492929D01*
X8058517Y-48541493D01*
X8048347Y-48554746D01*
X6837340Y-49765755D01*
X6792085Y-49784500D01*
X2586791Y-49784500D01*
X2541536Y-49765755D01*
X2525417Y-49735603D01*
X2524888Y-49735764D01*
X2524080Y-49733101D01*
X2524022Y-49732993D01*
X2523974Y-49732752D01*
X2523973Y-49732751D01*
X2523973Y-49732749D01*
X2452322Y-49559769D01*
X2348302Y-49404092D01*
X2215908Y-49271698D01*
X2060231Y-49167678D01*
X2060230Y-49167677D01*
X2060228Y-49167676D01*
X1887253Y-49096028D01*
X1887254Y-49096028D01*
X1887251Y-49096027D01*
X1887247Y-49096026D01*
X1887243Y-49096025D01*
X1703619Y-49059500D01*
X1703616Y-49059500D01*
X1516384Y-49059500D01*
X1516381Y-49059500D01*
X1332756Y-49096025D01*
X1332746Y-49096028D01*
X1159771Y-49167676D01*
X1004090Y-49271699D01*
X871699Y-49404090D01*
X767676Y-49559771D01*
X696028Y-49732746D01*
X696025Y-49732756D01*
X659500Y-49916381D01*
X400000Y-49916381D01*
X400000Y-47376381D01*
X659500Y-47376381D01*
X659500Y-47563618D01*
X696025Y-47747243D01*
X696028Y-47747253D01*
X767676Y-47920228D01*
X767677Y-47920230D01*
X767678Y-47920231D01*
X871698Y-48075908D01*
X1004092Y-48208302D01*
X1159769Y-48312322D01*
X1332749Y-48383973D01*
X1405599Y-48398463D01*
X1516381Y-48420500D01*
X1516384Y-48420500D01*
X1703619Y-48420500D01*
X1795851Y-48402153D01*
X1887251Y-48383973D01*
X2060231Y-48312322D01*
X2215908Y-48208302D01*
X2348302Y-48075908D01*
X2452322Y-47920231D01*
X2523973Y-47747251D01*
X2524022Y-47747007D01*
X2524067Y-47746938D01*
X2524888Y-47744236D01*
X2525707Y-47744484D01*
X2551241Y-47706282D01*
X2586791Y-47695500D01*
X8532389Y-47695500D01*
X8532397Y-47695501D01*
X8539845Y-47695501D01*
X8629553Y-47695501D01*
X8629555Y-47695501D01*
X8658857Y-47683363D01*
X8688159Y-47671226D01*
X8705324Y-47664115D01*
X8712436Y-47661170D01*
X8775870Y-47597736D01*
X8775870Y-47597734D01*
X8784869Y-47588736D01*
X8784871Y-47588733D01*
X8997223Y-47376381D01*
X18439500Y-47376381D01*
X18439500Y-47563618D01*
X18476025Y-47747243D01*
X18476028Y-47747253D01*
X18547676Y-47920228D01*
X18547677Y-47920230D01*
X18547678Y-47920231D01*
X18651698Y-48075908D01*
X18784092Y-48208302D01*
X18939769Y-48312322D01*
X19112749Y-48383973D01*
X19185599Y-48398463D01*
X19296381Y-48420500D01*
X19296384Y-48420500D01*
X19483619Y-48420500D01*
X19575851Y-48402153D01*
X19667251Y-48383973D01*
X19840231Y-48312322D01*
X19995908Y-48208302D01*
X20128302Y-48075908D01*
X20232322Y-47920231D01*
X20303973Y-47747251D01*
X20333714Y-47597734D01*
X20340500Y-47563618D01*
X20340500Y-47376381D01*
X20310538Y-47225755D01*
X20303973Y-47192749D01*
X20232322Y-47019769D01*
X20128302Y-46864092D01*
X19995908Y-46731698D01*
X19840231Y-46627678D01*
X19840230Y-46627677D01*
X19840228Y-46627676D01*
X19667253Y-46556028D01*
X19667254Y-46556028D01*
X19667251Y-46556027D01*
X19667247Y-46556026D01*
X19667243Y-46556025D01*
X19483619Y-46519500D01*
X19483616Y-46519500D01*
X19296384Y-46519500D01*
X19296381Y-46519500D01*
X19112756Y-46556025D01*
X19112746Y-46556028D01*
X18939771Y-46627676D01*
X18784090Y-46731699D01*
X18651699Y-46864090D01*
X18547676Y-47019771D01*
X18476028Y-47192746D01*
X18476025Y-47192756D01*
X18439500Y-47376381D01*
X8997223Y-47376381D01*
X10463053Y-45910550D01*
X10508307Y-45891806D01*
X10524866Y-45893986D01*
X10546191Y-45899700D01*
X10546194Y-45899700D01*
X10664806Y-45899700D01*
X10664809Y-45899700D01*
X10779386Y-45868999D01*
X10882113Y-45809689D01*
X10965989Y-45725813D01*
X11025299Y-45623086D01*
X11056000Y-45508509D01*
X11056000Y-45389891D01*
X11025299Y-45275314D01*
X10965989Y-45172587D01*
X10882113Y-45088711D01*
X10779386Y-45029401D01*
X10779383Y-45029400D01*
X10779381Y-45029399D01*
X10664815Y-44998701D01*
X10664811Y-44998700D01*
X10664809Y-44998700D01*
X10546191Y-44998700D01*
X10546189Y-44998700D01*
X10546184Y-44998701D01*
X10431618Y-45029399D01*
X10431617Y-45029399D01*
X10328885Y-45088712D01*
X10260709Y-45156888D01*
X10215454Y-45175633D01*
X10170199Y-45156888D01*
X10151454Y-45111633D01*
X10153635Y-45095068D01*
X10155339Y-45088711D01*
X10176400Y-45010109D01*
X10176400Y-44891491D01*
X10175230Y-44887127D01*
X10165231Y-44849804D01*
X10161634Y-44836381D01*
X18439500Y-44836381D01*
X18439500Y-45023618D01*
X18469737Y-45175633D01*
X18476027Y-45207251D01*
X18483116Y-45224366D01*
X18547676Y-45380228D01*
X18547677Y-45380230D01*
X18547678Y-45380231D01*
X18651698Y-45535908D01*
X18784092Y-45668302D01*
X18939769Y-45772322D01*
X19112749Y-45843973D01*
X19185599Y-45858463D01*
X19296381Y-45880500D01*
X19296384Y-45880500D01*
X19483619Y-45880500D01*
X19575851Y-45862153D01*
X19667251Y-45843973D01*
X19840231Y-45772322D01*
X19995908Y-45668302D01*
X20128302Y-45535908D01*
X20232322Y-45380231D01*
X20303973Y-45207251D01*
X20327552Y-45088711D01*
X20340500Y-45023618D01*
X20340500Y-44836381D01*
X20303974Y-44652756D01*
X20303973Y-44652749D01*
X20232322Y-44479769D01*
X20128302Y-44324092D01*
X19995908Y-44191698D01*
X19840231Y-44087678D01*
X19840230Y-44087677D01*
X19840228Y-44087676D01*
X19667253Y-44016028D01*
X19667254Y-44016028D01*
X19667251Y-44016027D01*
X19667247Y-44016026D01*
X19667243Y-44016025D01*
X19483619Y-43979500D01*
X19483616Y-43979500D01*
X19296384Y-43979500D01*
X19296381Y-43979500D01*
X19112756Y-44016025D01*
X19112746Y-44016028D01*
X18939771Y-44087676D01*
X18784090Y-44191699D01*
X18651699Y-44324090D01*
X18547676Y-44479771D01*
X18476028Y-44652746D01*
X18476025Y-44652756D01*
X18439500Y-44836381D01*
X10161634Y-44836381D01*
X10145700Y-44776917D01*
X10145699Y-44776916D01*
X10145699Y-44776914D01*
X10086389Y-44674187D01*
X10002513Y-44590311D01*
X9899786Y-44531001D01*
X9899783Y-44531000D01*
X9899781Y-44530999D01*
X9785215Y-44500301D01*
X9785211Y-44500300D01*
X9785209Y-44500300D01*
X9666591Y-44500300D01*
X9666589Y-44500300D01*
X9666584Y-44500301D01*
X9552018Y-44530999D01*
X9552017Y-44530999D01*
X9449285Y-44590312D01*
X9365412Y-44674185D01*
X9306099Y-44776917D01*
X9306099Y-44776918D01*
X9275401Y-44891484D01*
X9275400Y-44891493D01*
X9275400Y-45010106D01*
X9275401Y-45010115D01*
X9306099Y-45124681D01*
X9306099Y-45124682D01*
X9306100Y-45124684D01*
X9306101Y-45124686D01*
X9365411Y-45227413D01*
X9449287Y-45311289D01*
X9552014Y-45370599D01*
X9666591Y-45401300D01*
X9666594Y-45401300D01*
X9785206Y-45401300D01*
X9785209Y-45401300D01*
X9899786Y-45370599D01*
X10002513Y-45311289D01*
X10070691Y-45243110D01*
X10115945Y-45224366D01*
X10161200Y-45243111D01*
X10179945Y-45288366D01*
X10177764Y-45304930D01*
X10155001Y-45389884D01*
X10155000Y-45389893D01*
X10155000Y-45508508D01*
X10160712Y-45529829D01*
X10154317Y-45578393D01*
X10144147Y-45591646D01*
X8510040Y-47225755D01*
X8464785Y-47244500D01*
X2586791Y-47244500D01*
X2541536Y-47225755D01*
X2525417Y-47195603D01*
X2524888Y-47195764D01*
X2524080Y-47193101D01*
X2524022Y-47192993D01*
X2523974Y-47192752D01*
X2523973Y-47192751D01*
X2523973Y-47192749D01*
X2452322Y-47019769D01*
X2348302Y-46864092D01*
X2215908Y-46731698D01*
X2060231Y-46627678D01*
X2060230Y-46627677D01*
X2060228Y-46627676D01*
X1887253Y-46556028D01*
X1887254Y-46556028D01*
X1887251Y-46556027D01*
X1887247Y-46556026D01*
X1887243Y-46556025D01*
X1703619Y-46519500D01*
X1703616Y-46519500D01*
X1516384Y-46519500D01*
X1516381Y-46519500D01*
X1332756Y-46556025D01*
X1332746Y-46556028D01*
X1159771Y-46627676D01*
X1004090Y-46731699D01*
X871699Y-46864090D01*
X767676Y-47019771D01*
X696028Y-47192746D01*
X696025Y-47192756D01*
X659500Y-47376381D01*
X400000Y-47376381D01*
X400000Y-42296381D01*
X659500Y-42296381D01*
X659500Y-42483618D01*
X696025Y-42667243D01*
X696028Y-42667253D01*
X767676Y-42840228D01*
X767677Y-42840230D01*
X767678Y-42840231D01*
X871698Y-42995908D01*
X1004092Y-43128302D01*
X1159769Y-43232322D01*
X1332749Y-43303973D01*
X1405599Y-43318463D01*
X1516381Y-43340500D01*
X1516384Y-43340500D01*
X1703619Y-43340500D01*
X1795851Y-43322153D01*
X1887251Y-43303973D01*
X2060231Y-43232322D01*
X2215908Y-43128302D01*
X2348302Y-42995908D01*
X2452322Y-42840231D01*
X2523973Y-42667251D01*
X2524022Y-42667007D01*
X2524067Y-42666938D01*
X2524888Y-42664236D01*
X2525707Y-42664484D01*
X2551241Y-42626282D01*
X2586791Y-42615500D01*
X11557150Y-42615500D01*
X11602405Y-42634245D01*
X11612575Y-42647499D01*
X11623610Y-42666612D01*
X11623611Y-42666613D01*
X11707487Y-42750489D01*
X11810214Y-42809799D01*
X11810218Y-42809800D01*
X11857941Y-42822588D01*
X11896803Y-42852407D01*
X11903196Y-42900971D01*
X11886632Y-42929662D01*
X10929540Y-43886755D01*
X10884285Y-43905500D01*
X7807342Y-43905500D01*
X7724463Y-43939830D01*
X6676445Y-44987847D01*
X6631190Y-45006592D01*
X6614627Y-45004412D01*
X6593309Y-44998700D01*
X6474691Y-44998700D01*
X6474689Y-44998700D01*
X6474684Y-44998701D01*
X6360118Y-45029399D01*
X6360117Y-45029399D01*
X6257385Y-45088712D01*
X6173510Y-45172587D01*
X6162475Y-45191701D01*
X6123613Y-45221520D01*
X6107050Y-45223700D01*
X2598685Y-45223700D01*
X2553430Y-45204955D01*
X2534685Y-45159700D01*
X2535915Y-45147214D01*
X2560500Y-45023618D01*
X2560500Y-44836381D01*
X2523974Y-44652756D01*
X2523973Y-44652749D01*
X2452322Y-44479769D01*
X2348302Y-44324092D01*
X2215908Y-44191698D01*
X2060231Y-44087678D01*
X2060230Y-44087677D01*
X2060228Y-44087676D01*
X1887253Y-44016028D01*
X1887254Y-44016028D01*
X1887251Y-44016027D01*
X1887247Y-44016026D01*
X1887243Y-44016025D01*
X1703619Y-43979500D01*
X1703616Y-43979500D01*
X1516384Y-43979500D01*
X1516381Y-43979500D01*
X1332756Y-44016025D01*
X1332746Y-44016028D01*
X1159771Y-44087676D01*
X1004090Y-44191699D01*
X871699Y-44324090D01*
X767676Y-44479771D01*
X696028Y-44652746D01*
X696025Y-44652756D01*
X659500Y-44836381D01*
X659500Y-45023618D01*
X689737Y-45175633D01*
X696027Y-45207251D01*
X703116Y-45224366D01*
X767676Y-45380228D01*
X767677Y-45380230D01*
X767678Y-45380231D01*
X871698Y-45535908D01*
X1004092Y-45668302D01*
X1159769Y-45772322D01*
X1332749Y-45843973D01*
X1405599Y-45858463D01*
X1516381Y-45880500D01*
X1516384Y-45880500D01*
X1703619Y-45880500D01*
X1795851Y-45862153D01*
X1887251Y-45843973D01*
X2060231Y-45772322D01*
X2190191Y-45685486D01*
X2225747Y-45674700D01*
X6107050Y-45674700D01*
X6152305Y-45693445D01*
X6162475Y-45706699D01*
X6173510Y-45725812D01*
X6173511Y-45725813D01*
X6257387Y-45809689D01*
X6360114Y-45868999D01*
X6474691Y-45899700D01*
X6474694Y-45899700D01*
X6593306Y-45899700D01*
X6593309Y-45899700D01*
X6707886Y-45868999D01*
X6810613Y-45809689D01*
X6894489Y-45725813D01*
X6953799Y-45623086D01*
X6984500Y-45508509D01*
X6984500Y-45389891D01*
X6978787Y-45368571D01*
X6985179Y-45320010D01*
X6995347Y-45306757D01*
X7926861Y-44375245D01*
X7972116Y-44356500D01*
X10951889Y-44356500D01*
X10951897Y-44356501D01*
X10959345Y-44356501D01*
X11049053Y-44356501D01*
X11049055Y-44356501D01*
X11078357Y-44344363D01*
X11107659Y-44332226D01*
X11124824Y-44325115D01*
X11131936Y-44322170D01*
X11195370Y-44258736D01*
X11195370Y-44258734D01*
X11204369Y-44249736D01*
X11204370Y-44249733D01*
X14221170Y-41232936D01*
X14255500Y-41150055D01*
X14255500Y-41060346D01*
X14255500Y-40625849D01*
X14274245Y-40580594D01*
X14287501Y-40570423D01*
X14306613Y-40559389D01*
X14390489Y-40475513D01*
X14449799Y-40372786D01*
X14480500Y-40258209D01*
X14480500Y-40139591D01*
X14449799Y-40025014D01*
X14390489Y-39922287D01*
X14306613Y-39838411D01*
X14203886Y-39779101D01*
X14203883Y-39779100D01*
X14203881Y-39779099D01*
X14089315Y-39748401D01*
X14089311Y-39748400D01*
X14089309Y-39748400D01*
X13970691Y-39748400D01*
X13970689Y-39748400D01*
X13970684Y-39748401D01*
X13856118Y-39779099D01*
X13856117Y-39779099D01*
X13753385Y-39838412D01*
X13669512Y-39922285D01*
X13610199Y-40025017D01*
X13610199Y-40025018D01*
X13579501Y-40139584D01*
X13579500Y-40139593D01*
X13579500Y-40258206D01*
X13579501Y-40258215D01*
X13610199Y-40372781D01*
X13610199Y-40372782D01*
X13610200Y-40372784D01*
X13610201Y-40372786D01*
X13624993Y-40398407D01*
X13669512Y-40475514D01*
X13753387Y-40559389D01*
X13772499Y-40570423D01*
X13802319Y-40609284D01*
X13804500Y-40625849D01*
X13804500Y-40985284D01*
X13785755Y-41030539D01*
X12523762Y-42292531D01*
X12478507Y-42311276D01*
X12433252Y-42292531D01*
X12416688Y-42263841D01*
X12403900Y-42216117D01*
X12403899Y-42216116D01*
X12403899Y-42216114D01*
X12344589Y-42113387D01*
X12260713Y-42029511D01*
X12157986Y-41970201D01*
X12157983Y-41970200D01*
X12157981Y-41970199D01*
X12043415Y-41939501D01*
X12043411Y-41939500D01*
X12043409Y-41939500D01*
X11924791Y-41939500D01*
X11924789Y-41939500D01*
X11924784Y-41939501D01*
X11810218Y-41970199D01*
X11810217Y-41970199D01*
X11707485Y-42029512D01*
X11623610Y-42113387D01*
X11612575Y-42132501D01*
X11573713Y-42162320D01*
X11557150Y-42164500D01*
X2586791Y-42164500D01*
X2541536Y-42145755D01*
X2525417Y-42115603D01*
X2524888Y-42115764D01*
X2524080Y-42113101D01*
X2524022Y-42112993D01*
X2523974Y-42112752D01*
X2523973Y-42112751D01*
X2523973Y-42112749D01*
X2452322Y-41939769D01*
X2348302Y-41784092D01*
X2215908Y-41651698D01*
X2060231Y-41547678D01*
X2060230Y-41547677D01*
X2060228Y-41547676D01*
X1887253Y-41476028D01*
X1887254Y-41476028D01*
X1887251Y-41476027D01*
X1887247Y-41476026D01*
X1887243Y-41476025D01*
X1703619Y-41439500D01*
X1703616Y-41439500D01*
X1516384Y-41439500D01*
X1516381Y-41439500D01*
X1332756Y-41476025D01*
X1332746Y-41476028D01*
X1159771Y-41547676D01*
X1004090Y-41651699D01*
X871699Y-41784090D01*
X767676Y-41939771D01*
X696028Y-42112746D01*
X696025Y-42112756D01*
X659500Y-42296381D01*
X400000Y-42296381D01*
X400000Y-40080769D01*
X418745Y-40035514D01*
X464000Y-40016769D01*
X509255Y-40035514D01*
X526770Y-40068284D01*
X541597Y-40142829D01*
X541606Y-40142863D01*
X558955Y-40200057D01*
X558960Y-40200070D01*
X619261Y-40345650D01*
X619268Y-40345665D01*
X647445Y-40398381D01*
X647461Y-40398407D01*
X700047Y-40477107D01*
X700048Y-40477108D01*
X1141980Y-40035175D01*
X1144075Y-40042993D01*
X1209901Y-40157007D01*
X1302993Y-40250099D01*
X1417007Y-40315925D01*
X1424823Y-40318019D01*
X982891Y-40759950D01*
X1061601Y-40812543D01*
X1061618Y-40812554D01*
X1114334Y-40840731D01*
X1114349Y-40840738D01*
X1259929Y-40901039D01*
X1259942Y-40901044D01*
X1317136Y-40918393D01*
X1317166Y-40918401D01*
X1471695Y-40949138D01*
X1471703Y-40949139D01*
X1531207Y-40955000D01*
X2249765Y-40955000D01*
X2256824Y-40954919D01*
X2366503Y-40931782D01*
X2396509Y-40919353D01*
X2396509Y-40919352D01*
X1795176Y-40318019D01*
X1802993Y-40315925D01*
X1917007Y-40250099D01*
X2010099Y-40157007D01*
X2075925Y-40042993D01*
X2078019Y-40035176D01*
X2679352Y-40636509D01*
X2679353Y-40636509D01*
X2683916Y-40625493D01*
X7179500Y-40625493D01*
X7179500Y-40744106D01*
X7179501Y-40744115D01*
X7210199Y-40858681D01*
X7210199Y-40858682D01*
X7210200Y-40858684D01*
X7210201Y-40858686D01*
X7269511Y-40961413D01*
X7353387Y-41045289D01*
X7456114Y-41104599D01*
X7570691Y-41135300D01*
X7570694Y-41135300D01*
X7689306Y-41135300D01*
X7689309Y-41135300D01*
X7803886Y-41104599D01*
X7906613Y-41045289D01*
X7990489Y-40961413D01*
X8049799Y-40858686D01*
X8080500Y-40744109D01*
X8080500Y-40625493D01*
X12570600Y-40625493D01*
X12570600Y-40744106D01*
X12570601Y-40744115D01*
X12601299Y-40858681D01*
X12601299Y-40858682D01*
X12601300Y-40858684D01*
X12601301Y-40858686D01*
X12660611Y-40961413D01*
X12744487Y-41045289D01*
X12847214Y-41104599D01*
X12961791Y-41135300D01*
X12961794Y-41135300D01*
X13080406Y-41135300D01*
X13080409Y-41135300D01*
X13194986Y-41104599D01*
X13297713Y-41045289D01*
X13381589Y-40961413D01*
X13440899Y-40858686D01*
X13471600Y-40744109D01*
X13471600Y-40625491D01*
X13440899Y-40510914D01*
X13381589Y-40408187D01*
X13297713Y-40324311D01*
X13194986Y-40265001D01*
X13194983Y-40265000D01*
X13194981Y-40264999D01*
X13080415Y-40234301D01*
X13080411Y-40234300D01*
X13080409Y-40234300D01*
X12961791Y-40234300D01*
X12961789Y-40234300D01*
X12961784Y-40234301D01*
X12847218Y-40264999D01*
X12847217Y-40264999D01*
X12744485Y-40324312D01*
X12660612Y-40408185D01*
X12601299Y-40510917D01*
X12601299Y-40510918D01*
X12570601Y-40625484D01*
X12570600Y-40625493D01*
X8080500Y-40625493D01*
X8080500Y-40625491D01*
X8049799Y-40510914D01*
X7990489Y-40408187D01*
X7906613Y-40324311D01*
X7803886Y-40265001D01*
X7803883Y-40265000D01*
X7803881Y-40264999D01*
X7689315Y-40234301D01*
X7689311Y-40234300D01*
X7689309Y-40234300D01*
X7570691Y-40234300D01*
X7570689Y-40234300D01*
X7570684Y-40234301D01*
X7456118Y-40264999D01*
X7456117Y-40264999D01*
X7353385Y-40324312D01*
X7269512Y-40408185D01*
X7210199Y-40510917D01*
X7210199Y-40510918D01*
X7179501Y-40625484D01*
X7179500Y-40625493D01*
X2683916Y-40625493D01*
X2691769Y-40606534D01*
X2694404Y-40599958D01*
X2694405Y-40599956D01*
X2714999Y-40489784D01*
X2715000Y-40489782D01*
X2715000Y-39210235D01*
X2714919Y-39203175D01*
X2691782Y-39093494D01*
X2679353Y-39063489D01*
X2078019Y-39664822D01*
X2075925Y-39657007D01*
X2010099Y-39542993D01*
X1917007Y-39449901D01*
X1802993Y-39384075D01*
X1795174Y-39381980D01*
X2396509Y-38780645D01*
X2366538Y-38768232D01*
X2361950Y-38766393D01*
X3429500Y-38766393D01*
X3429500Y-38885006D01*
X3429501Y-38885015D01*
X3460199Y-38999581D01*
X3460199Y-38999582D01*
X3460200Y-38999584D01*
X3460201Y-38999586D01*
X3519511Y-39102313D01*
X3603387Y-39186189D01*
X3706114Y-39245499D01*
X3820691Y-39276200D01*
X3820694Y-39276200D01*
X3939306Y-39276200D01*
X3939309Y-39276200D01*
X4053886Y-39245499D01*
X4156613Y-39186189D01*
X4240489Y-39102313D01*
X4299799Y-38999586D01*
X4330500Y-38885009D01*
X4330500Y-38766391D01*
X4299799Y-38651814D01*
X4240489Y-38549087D01*
X4156613Y-38465211D01*
X4053886Y-38405901D01*
X4053883Y-38405900D01*
X4053881Y-38405899D01*
X3939315Y-38375201D01*
X3939311Y-38375200D01*
X3939309Y-38375200D01*
X3820691Y-38375200D01*
X3820689Y-38375200D01*
X3820684Y-38375201D01*
X3706118Y-38405899D01*
X3706117Y-38405899D01*
X3603385Y-38465212D01*
X3519512Y-38549085D01*
X3460199Y-38651817D01*
X3460199Y-38651818D01*
X3429501Y-38766384D01*
X3429500Y-38766393D01*
X2361950Y-38766393D01*
X2359957Y-38765594D01*
X2249784Y-38745000D01*
X1531207Y-38745000D01*
X1471703Y-38750860D01*
X1471695Y-38750861D01*
X1317166Y-38781598D01*
X1317136Y-38781606D01*
X1259942Y-38798955D01*
X1259929Y-38798960D01*
X1114349Y-38859261D01*
X1114334Y-38859268D01*
X1061618Y-38887445D01*
X1061592Y-38887461D01*
X982891Y-38940047D01*
X982891Y-38940048D01*
X1424823Y-39381980D01*
X1417007Y-39384075D01*
X1302993Y-39449901D01*
X1209901Y-39542993D01*
X1144075Y-39657007D01*
X1141980Y-39664823D01*
X700048Y-39222891D01*
X700047Y-39222891D01*
X647461Y-39301592D01*
X647445Y-39301618D01*
X619268Y-39354334D01*
X619261Y-39354349D01*
X558960Y-39499929D01*
X558955Y-39499942D01*
X541606Y-39557136D01*
X541598Y-39557166D01*
X526770Y-39631716D01*
X499557Y-39672444D01*
X451514Y-39682000D01*
X410786Y-39654787D01*
X400000Y-39619230D01*
X400000Y-38922843D01*
X400000Y-37216381D01*
X659500Y-37216381D01*
X659500Y-37403618D01*
X696025Y-37587243D01*
X696028Y-37587253D01*
X767676Y-37760228D01*
X767677Y-37760230D01*
X767678Y-37760231D01*
X871698Y-37915908D01*
X1004092Y-38048302D01*
X1159769Y-38152322D01*
X1332749Y-38223973D01*
X1403328Y-38238012D01*
X1516381Y-38260500D01*
X1516384Y-38260500D01*
X1703619Y-38260500D01*
X1795851Y-38242153D01*
X1887251Y-38223973D01*
X2060231Y-38152322D01*
X2215908Y-38048302D01*
X2348302Y-37915908D01*
X2452322Y-37760231D01*
X2523973Y-37587251D01*
X2560500Y-37403616D01*
X2560500Y-37216384D01*
X2560500Y-37216381D01*
X2523974Y-37032756D01*
X2523973Y-37032749D01*
X2465556Y-36891718D01*
X2452323Y-36859771D01*
X2452322Y-36859769D01*
X2348302Y-36704092D01*
X2215908Y-36571698D01*
X2060231Y-36467678D01*
X2060230Y-36467677D01*
X2060228Y-36467676D01*
X1887253Y-36396028D01*
X1887254Y-36396028D01*
X1887251Y-36396027D01*
X1887247Y-36396026D01*
X1887243Y-36396025D01*
X1703619Y-36359500D01*
X1703616Y-36359500D01*
X1516384Y-36359500D01*
X1516381Y-36359500D01*
X1332756Y-36396025D01*
X1332746Y-36396028D01*
X1159771Y-36467676D01*
X1004090Y-36571699D01*
X871699Y-36704090D01*
X767676Y-36859771D01*
X696028Y-37032746D01*
X696025Y-37032756D01*
X659500Y-37216381D01*
X400000Y-37216381D01*
X400000Y-34676381D01*
X659500Y-34676381D01*
X659500Y-34863618D01*
X689807Y-35015984D01*
X696027Y-35047251D01*
X709261Y-35079200D01*
X767676Y-35220228D01*
X767677Y-35220230D01*
X767678Y-35220231D01*
X871698Y-35375908D01*
X1004092Y-35508302D01*
X1159769Y-35612322D01*
X1332749Y-35683973D01*
X1405599Y-35698463D01*
X1516381Y-35720500D01*
X1516384Y-35720500D01*
X1703619Y-35720500D01*
X1795851Y-35702153D01*
X1887251Y-35683973D01*
X2060231Y-35612322D01*
X2215908Y-35508302D01*
X2348302Y-35375908D01*
X2452322Y-35220231D01*
X2523973Y-35047251D01*
X2560500Y-34863616D01*
X2560500Y-34676384D01*
X2560500Y-34676381D01*
X2538463Y-34565599D01*
X2523973Y-34492749D01*
X2452322Y-34319769D01*
X2348302Y-34164092D01*
X2215908Y-34031698D01*
X2060231Y-33927678D01*
X2060230Y-33927677D01*
X2060228Y-33927676D01*
X1887253Y-33856028D01*
X1887254Y-33856028D01*
X1887251Y-33856027D01*
X1887247Y-33856026D01*
X1887243Y-33856025D01*
X1703619Y-33819500D01*
X1703616Y-33819500D01*
X1516384Y-33819500D01*
X1516381Y-33819500D01*
X1332756Y-33856025D01*
X1332746Y-33856028D01*
X1159771Y-33927676D01*
X1004090Y-34031699D01*
X871699Y-34164090D01*
X767676Y-34319771D01*
X696028Y-34492746D01*
X696025Y-34492756D01*
X659500Y-34676381D01*
X400000Y-34676381D01*
X400000Y-33727193D01*
X5169400Y-33727193D01*
X5169400Y-33845806D01*
X5169401Y-33845815D01*
X5200099Y-33960381D01*
X5200099Y-33960382D01*
X5200100Y-33960384D01*
X5200101Y-33960386D01*
X5259411Y-34063113D01*
X5343287Y-34146989D01*
X5446014Y-34206299D01*
X5560591Y-34237000D01*
X5560594Y-34237000D01*
X5679206Y-34237000D01*
X5679209Y-34237000D01*
X5793786Y-34206299D01*
X5896513Y-34146989D01*
X5980389Y-34063113D01*
X5985961Y-34053460D01*
X5991425Y-34043999D01*
X6030287Y-34014180D01*
X6046850Y-34012000D01*
X6522785Y-34012000D01*
X6568040Y-34030745D01*
X7069678Y-34532383D01*
X7088423Y-34577638D01*
X7069678Y-34622893D01*
X7040988Y-34639457D01*
X6981117Y-34655499D01*
X6878385Y-34714812D01*
X6794512Y-34798685D01*
X6735199Y-34901417D01*
X6735199Y-34901418D01*
X6704501Y-35015984D01*
X6704500Y-35015993D01*
X6704500Y-35134606D01*
X6704501Y-35134615D01*
X6735199Y-35249181D01*
X6735199Y-35249182D01*
X6735200Y-35249184D01*
X6735201Y-35249186D01*
X6794511Y-35351913D01*
X6878387Y-35435789D01*
X6981114Y-35495099D01*
X7095691Y-35525800D01*
X7095694Y-35525800D01*
X7214306Y-35525800D01*
X7214309Y-35525800D01*
X7328886Y-35495099D01*
X7431613Y-35435789D01*
X7515489Y-35351913D01*
X7574799Y-35249186D01*
X7590842Y-35189311D01*
X7620660Y-35150451D01*
X7669225Y-35144057D01*
X7697916Y-35160621D01*
X10988154Y-38450859D01*
X11006899Y-38496114D01*
X11006899Y-38518956D01*
X11022739Y-38557197D01*
X11022741Y-38557199D01*
X11041230Y-38601836D01*
X11113665Y-38674271D01*
X11113666Y-38674271D01*
X11349829Y-38910435D01*
X11349830Y-38910436D01*
X11413264Y-38973870D01*
X11471868Y-38998144D01*
X11496142Y-39008199D01*
X11496145Y-39008200D01*
X15662785Y-39008200D01*
X15708040Y-39026945D01*
X18539852Y-41858757D01*
X18558597Y-41904012D01*
X18548673Y-41936737D01*
X18549159Y-41936997D01*
X18547855Y-41939435D01*
X18547819Y-41939556D01*
X18547679Y-41939765D01*
X18476028Y-42112746D01*
X18476025Y-42112756D01*
X18439500Y-42296381D01*
X18439500Y-42483618D01*
X18476025Y-42667243D01*
X18476028Y-42667253D01*
X18547676Y-42840228D01*
X18547677Y-42840230D01*
X18547678Y-42840231D01*
X18651698Y-42995908D01*
X18784092Y-43128302D01*
X18939769Y-43232322D01*
X19112749Y-43303973D01*
X19185599Y-43318463D01*
X19296381Y-43340500D01*
X19296384Y-43340500D01*
X19483619Y-43340500D01*
X19575851Y-43322153D01*
X19667251Y-43303973D01*
X19840231Y-43232322D01*
X19995908Y-43128302D01*
X20128302Y-42995908D01*
X20232322Y-42840231D01*
X20303973Y-42667251D01*
X20340500Y-42483616D01*
X20340500Y-42296384D01*
X20340500Y-42296381D01*
X20307902Y-42132501D01*
X20303973Y-42112749D01*
X20232322Y-41939769D01*
X20128302Y-41784092D01*
X19995908Y-41651698D01*
X19840231Y-41547678D01*
X19840230Y-41547677D01*
X19840228Y-41547676D01*
X19667253Y-41476028D01*
X19667254Y-41476028D01*
X19667251Y-41476027D01*
X19667247Y-41476026D01*
X19667243Y-41476025D01*
X19483619Y-41439500D01*
X19483616Y-41439500D01*
X19296384Y-41439500D01*
X19296381Y-41439500D01*
X19112756Y-41476025D01*
X19112746Y-41476028D01*
X18939765Y-41547679D01*
X18939556Y-41547819D01*
X18939473Y-41547835D01*
X18936997Y-41549159D01*
X18936595Y-41548407D01*
X18891512Y-41557364D01*
X18858757Y-41539852D01*
X16685760Y-39366855D01*
X16667015Y-39321600D01*
X16685760Y-39276345D01*
X16731015Y-39257600D01*
X16789306Y-39257600D01*
X16789309Y-39257600D01*
X16903886Y-39226899D01*
X17006613Y-39167589D01*
X17090489Y-39083713D01*
X17149799Y-38980986D01*
X17180500Y-38866409D01*
X17180500Y-38747791D01*
X17149799Y-38633214D01*
X17090489Y-38530487D01*
X17006613Y-38446611D01*
X16903886Y-38387301D01*
X16903883Y-38387300D01*
X16903881Y-38387299D01*
X16789315Y-38356601D01*
X16789311Y-38356600D01*
X16789309Y-38356600D01*
X16670691Y-38356600D01*
X16670689Y-38356600D01*
X16670684Y-38356601D01*
X16556118Y-38387299D01*
X16556117Y-38387299D01*
X16453385Y-38446612D01*
X16369512Y-38530485D01*
X16310199Y-38633217D01*
X16310199Y-38633218D01*
X16279501Y-38747784D01*
X16279500Y-38747793D01*
X16279500Y-38806085D01*
X16260755Y-38851340D01*
X16215500Y-38870085D01*
X16170245Y-38851340D01*
X15982872Y-38663967D01*
X15982872Y-38663966D01*
X15910436Y-38591530D01*
X15874102Y-38576480D01*
X15827556Y-38557199D01*
X15827555Y-38557199D01*
X15737845Y-38557199D01*
X15730397Y-38557199D01*
X15730389Y-38557200D01*
X12216245Y-38557200D01*
X12170990Y-38538455D01*
X12152245Y-38493200D01*
X12160820Y-38461200D01*
X12178898Y-38429888D01*
X12178900Y-38429881D01*
X12209600Y-38315309D01*
X12209600Y-38196691D01*
X12178899Y-38082114D01*
X12119589Y-37979387D01*
X12035713Y-37895511D01*
X11932986Y-37836201D01*
X11932983Y-37836200D01*
X11932981Y-37836199D01*
X11818415Y-37805501D01*
X11818411Y-37805500D01*
X11818409Y-37805500D01*
X11699791Y-37805500D01*
X11699789Y-37805500D01*
X11699784Y-37805501D01*
X11585218Y-37836199D01*
X11585217Y-37836199D01*
X11482485Y-37895512D01*
X11398610Y-37979387D01*
X11350959Y-38061920D01*
X11312098Y-38091738D01*
X11263533Y-38085344D01*
X11250279Y-38075174D01*
X10526411Y-37351306D01*
X14099500Y-37351306D01*
X14099500Y-37528693D01*
X14134105Y-37702663D01*
X14134107Y-37702672D01*
X14176701Y-37805501D01*
X14201987Y-37866547D01*
X14300536Y-38014035D01*
X14425965Y-38139464D01*
X14573453Y-38238013D01*
X14652022Y-38270557D01*
X14737327Y-38305892D01*
X14737331Y-38305893D01*
X14737334Y-38305894D01*
X14806924Y-38319736D01*
X14911306Y-38340500D01*
X14911309Y-38340500D01*
X15088694Y-38340500D01*
X15175678Y-38323197D01*
X15262666Y-38305894D01*
X15262669Y-38305892D01*
X15262672Y-38305892D01*
X15308693Y-38286829D01*
X15426547Y-38238013D01*
X15574035Y-38139464D01*
X15699464Y-38014035D01*
X15798013Y-37866547D01*
X15865894Y-37702666D01*
X15900500Y-37528691D01*
X15900500Y-37351309D01*
X15900500Y-37351306D01*
X15875520Y-37225726D01*
X15873661Y-37216381D01*
X18439500Y-37216381D01*
X18439500Y-37403618D01*
X18476025Y-37587243D01*
X18476028Y-37587253D01*
X18547676Y-37760228D01*
X18547677Y-37760230D01*
X18547678Y-37760231D01*
X18651698Y-37915908D01*
X18784092Y-38048302D01*
X18939769Y-38152322D01*
X19112749Y-38223973D01*
X19183328Y-38238012D01*
X19296381Y-38260500D01*
X19296384Y-38260500D01*
X19483619Y-38260500D01*
X19575851Y-38242153D01*
X19667251Y-38223973D01*
X19840231Y-38152322D01*
X19995908Y-38048302D01*
X20128302Y-37915908D01*
X20232322Y-37760231D01*
X20303973Y-37587251D01*
X20340500Y-37403616D01*
X20340500Y-37216384D01*
X20340500Y-37216381D01*
X20303974Y-37032756D01*
X20303973Y-37032749D01*
X20245556Y-36891718D01*
X20232323Y-36859771D01*
X20232322Y-36859769D01*
X20128302Y-36704092D01*
X19995908Y-36571698D01*
X19840231Y-36467678D01*
X19840230Y-36467677D01*
X19840228Y-36467676D01*
X19667253Y-36396028D01*
X19667254Y-36396028D01*
X19667251Y-36396027D01*
X19667247Y-36396026D01*
X19667243Y-36396025D01*
X19483619Y-36359500D01*
X19483616Y-36359500D01*
X19296384Y-36359500D01*
X19296381Y-36359500D01*
X19112756Y-36396025D01*
X19112746Y-36396028D01*
X18939771Y-36467676D01*
X18784090Y-36571699D01*
X18651699Y-36704090D01*
X18547676Y-36859771D01*
X18476028Y-37032746D01*
X18476025Y-37032756D01*
X18439500Y-37216381D01*
X15873661Y-37216381D01*
X15865894Y-37177336D01*
X15865892Y-37177327D01*
X15806008Y-37032756D01*
X15798013Y-37013453D01*
X15699464Y-36865965D01*
X15574035Y-36740536D01*
X15426547Y-36641987D01*
X15403533Y-36632454D01*
X15262672Y-36574107D01*
X15262663Y-36574105D01*
X15088694Y-36539500D01*
X15088691Y-36539500D01*
X14911309Y-36539500D01*
X14911306Y-36539500D01*
X14737336Y-36574105D01*
X14737327Y-36574107D01*
X14573455Y-36641986D01*
X14573452Y-36641987D01*
X14425963Y-36740537D01*
X14300537Y-36865963D01*
X14201987Y-37013452D01*
X14201986Y-37013455D01*
X14134107Y-37177327D01*
X14134105Y-37177336D01*
X14099500Y-37351306D01*
X10526411Y-37351306D01*
X9525098Y-36349993D01*
X10215700Y-36349993D01*
X10215700Y-36468606D01*
X10215701Y-36468615D01*
X10246399Y-36583181D01*
X10246399Y-36583182D01*
X10246400Y-36583184D01*
X10246401Y-36583186D01*
X10305711Y-36685913D01*
X10389587Y-36769789D01*
X10492314Y-36829099D01*
X10606891Y-36859800D01*
X10606894Y-36859800D01*
X10725506Y-36859800D01*
X10725509Y-36859800D01*
X10840086Y-36829099D01*
X10942813Y-36769789D01*
X11026689Y-36685913D01*
X11085999Y-36583186D01*
X11116700Y-36468609D01*
X11116700Y-36349991D01*
X11085999Y-36235414D01*
X11026689Y-36132687D01*
X10942813Y-36048811D01*
X10840086Y-35989501D01*
X10840083Y-35989500D01*
X10840081Y-35989499D01*
X10725515Y-35958801D01*
X10725511Y-35958800D01*
X10725509Y-35958800D01*
X10606891Y-35958800D01*
X10606889Y-35958800D01*
X10606884Y-35958801D01*
X10492318Y-35989499D01*
X10492317Y-35989499D01*
X10389585Y-36048812D01*
X10305712Y-36132685D01*
X10246399Y-36235417D01*
X10246399Y-36235418D01*
X10215701Y-36349984D01*
X10215700Y-36349993D01*
X9525098Y-36349993D01*
X7434998Y-34259893D01*
X8879500Y-34259893D01*
X8879500Y-34378506D01*
X8879501Y-34378515D01*
X8910199Y-34493081D01*
X8910199Y-34493082D01*
X8910200Y-34493084D01*
X8910201Y-34493086D01*
X8969511Y-34595813D01*
X9053387Y-34679689D01*
X9156114Y-34738999D01*
X9270691Y-34769700D01*
X9270694Y-34769700D01*
X9389306Y-34769700D01*
X9389309Y-34769700D01*
X9503886Y-34738999D01*
X9606613Y-34679689D01*
X9609921Y-34676381D01*
X18439500Y-34676381D01*
X18439500Y-34863618D01*
X18469807Y-35015984D01*
X18476027Y-35047251D01*
X18489261Y-35079200D01*
X18547676Y-35220228D01*
X18547677Y-35220230D01*
X18547678Y-35220231D01*
X18651698Y-35375908D01*
X18784092Y-35508302D01*
X18939769Y-35612322D01*
X19112749Y-35683973D01*
X19185599Y-35698463D01*
X19296381Y-35720500D01*
X19296384Y-35720500D01*
X19483619Y-35720500D01*
X19575851Y-35702153D01*
X19667251Y-35683973D01*
X19840231Y-35612322D01*
X19995908Y-35508302D01*
X20128302Y-35375908D01*
X20232322Y-35220231D01*
X20303973Y-35047251D01*
X20340500Y-34863616D01*
X20340500Y-34676384D01*
X20340500Y-34676381D01*
X20318463Y-34565599D01*
X20303973Y-34492749D01*
X20232322Y-34319769D01*
X20128302Y-34164092D01*
X19995908Y-34031698D01*
X19840231Y-33927678D01*
X19840230Y-33927677D01*
X19840228Y-33927676D01*
X19667253Y-33856028D01*
X19667254Y-33856028D01*
X19667251Y-33856027D01*
X19667247Y-33856026D01*
X19667243Y-33856025D01*
X19483619Y-33819500D01*
X19483616Y-33819500D01*
X19296384Y-33819500D01*
X19296381Y-33819500D01*
X19112756Y-33856025D01*
X19112746Y-33856028D01*
X18939771Y-33927676D01*
X18784090Y-34031699D01*
X18651699Y-34164090D01*
X18547676Y-34319771D01*
X18476028Y-34492746D01*
X18476025Y-34492756D01*
X18439500Y-34676381D01*
X9609921Y-34676381D01*
X9690489Y-34595813D01*
X9749799Y-34493086D01*
X9780500Y-34378509D01*
X9780500Y-34259891D01*
X9749799Y-34145314D01*
X9690489Y-34042587D01*
X9606613Y-33958711D01*
X9503886Y-33899401D01*
X9503883Y-33899400D01*
X9503881Y-33899399D01*
X9389315Y-33868701D01*
X9389311Y-33868700D01*
X9389309Y-33868700D01*
X9270691Y-33868700D01*
X9270689Y-33868700D01*
X9270684Y-33868701D01*
X9156118Y-33899399D01*
X9156117Y-33899399D01*
X9053385Y-33958712D01*
X8969512Y-34042585D01*
X8910199Y-34145317D01*
X8910199Y-34145318D01*
X8879501Y-34259884D01*
X8879500Y-34259893D01*
X7434998Y-34259893D01*
X6842872Y-33667767D01*
X6842872Y-33667766D01*
X6815099Y-33639993D01*
X7530900Y-33639993D01*
X7530900Y-33758606D01*
X7530901Y-33758615D01*
X7561599Y-33873181D01*
X7561599Y-33873182D01*
X7561600Y-33873184D01*
X7561601Y-33873186D01*
X7620911Y-33975913D01*
X7704787Y-34059789D01*
X7807514Y-34119099D01*
X7922091Y-34149800D01*
X7922094Y-34149800D01*
X8040706Y-34149800D01*
X8040709Y-34149800D01*
X8155286Y-34119099D01*
X8258013Y-34059789D01*
X8341889Y-33975913D01*
X8401199Y-33873186D01*
X8431900Y-33758609D01*
X8431900Y-33639991D01*
X8401199Y-33525414D01*
X8341889Y-33422687D01*
X8258013Y-33338811D01*
X8155286Y-33279501D01*
X8155283Y-33279500D01*
X8155281Y-33279499D01*
X8040715Y-33248801D01*
X8040711Y-33248800D01*
X8040709Y-33248800D01*
X7922091Y-33248800D01*
X7922089Y-33248800D01*
X7922084Y-33248801D01*
X7807518Y-33279499D01*
X7807517Y-33279499D01*
X7704785Y-33338812D01*
X7620912Y-33422685D01*
X7561599Y-33525417D01*
X7561599Y-33525418D01*
X7530901Y-33639984D01*
X7530900Y-33639993D01*
X6815099Y-33639993D01*
X6770434Y-33595328D01*
X6746160Y-33585274D01*
X6687557Y-33560999D01*
X6687555Y-33560999D01*
X6597845Y-33560999D01*
X6590397Y-33560999D01*
X6590389Y-33561000D01*
X6046850Y-33561000D01*
X6001595Y-33542255D01*
X5991425Y-33529001D01*
X5980389Y-33509887D01*
X5896514Y-33426012D01*
X5896513Y-33426011D01*
X5793786Y-33366701D01*
X5793783Y-33366700D01*
X5793781Y-33366699D01*
X5679215Y-33336001D01*
X5679211Y-33336000D01*
X5679209Y-33336000D01*
X5560591Y-33336000D01*
X5560589Y-33336000D01*
X5560584Y-33336001D01*
X5446018Y-33366699D01*
X5446017Y-33366699D01*
X5343285Y-33426012D01*
X5259412Y-33509885D01*
X5200099Y-33612617D01*
X5200099Y-33612618D01*
X5169401Y-33727184D01*
X5169400Y-33727193D01*
X400000Y-33727193D01*
X400000Y-32136381D01*
X659500Y-32136381D01*
X659500Y-32323618D01*
X696025Y-32507243D01*
X696028Y-32507253D01*
X767676Y-32680228D01*
X767677Y-32680230D01*
X767678Y-32680231D01*
X871698Y-32835908D01*
X1004092Y-32968302D01*
X1159769Y-33072322D01*
X1332749Y-33143973D01*
X1405599Y-33158463D01*
X1516381Y-33180500D01*
X1516384Y-33180500D01*
X1703619Y-33180500D01*
X1795851Y-33162153D01*
X1887251Y-33143973D01*
X2060231Y-33072322D01*
X2215908Y-32968302D01*
X2348302Y-32835908D01*
X2452322Y-32680231D01*
X2523973Y-32507251D01*
X2528436Y-32484811D01*
X2531123Y-32471306D01*
X14099500Y-32471306D01*
X14099500Y-32648693D01*
X14134105Y-32822663D01*
X14134107Y-32822672D01*
X14192454Y-32963533D01*
X14201987Y-32986547D01*
X14300536Y-33134035D01*
X14425965Y-33259464D01*
X14573453Y-33358013D01*
X14652022Y-33390557D01*
X14737327Y-33425892D01*
X14737331Y-33425893D01*
X14737334Y-33425894D01*
X14806924Y-33439736D01*
X14911306Y-33460500D01*
X14911309Y-33460500D01*
X15088694Y-33460500D01*
X15175678Y-33443197D01*
X15262666Y-33425894D01*
X15262669Y-33425892D01*
X15262672Y-33425892D01*
X15308693Y-33406829D01*
X15426547Y-33358013D01*
X15574035Y-33259464D01*
X15699464Y-33134035D01*
X15798013Y-32986547D01*
X15865894Y-32822666D01*
X15900500Y-32648691D01*
X15900500Y-32471309D01*
X15900500Y-32471306D01*
X15865894Y-32297336D01*
X15865892Y-32297327D01*
X15808070Y-32157732D01*
X15799227Y-32136384D01*
X15799226Y-32136381D01*
X18439500Y-32136381D01*
X18439500Y-32323618D01*
X18476025Y-32507243D01*
X18476028Y-32507253D01*
X18547676Y-32680228D01*
X18547677Y-32680230D01*
X18547678Y-32680231D01*
X18651698Y-32835908D01*
X18784092Y-32968302D01*
X18939769Y-33072322D01*
X19112749Y-33143973D01*
X19185599Y-33158463D01*
X19296381Y-33180500D01*
X19296384Y-33180500D01*
X19483619Y-33180500D01*
X19575851Y-33162153D01*
X19667251Y-33143973D01*
X19840231Y-33072322D01*
X19995908Y-32968302D01*
X20128302Y-32835908D01*
X20232322Y-32680231D01*
X20303973Y-32507251D01*
X20340500Y-32323616D01*
X20340500Y-32136384D01*
X20340500Y-32136381D01*
X20310580Y-31985965D01*
X20303973Y-31952749D01*
X20232322Y-31779769D01*
X20128302Y-31624092D01*
X19995908Y-31491698D01*
X19840231Y-31387678D01*
X19840230Y-31387677D01*
X19840228Y-31387676D01*
X19667253Y-31316028D01*
X19667254Y-31316028D01*
X19667251Y-31316027D01*
X19667247Y-31316026D01*
X19667243Y-31316025D01*
X19483619Y-31279500D01*
X19483616Y-31279500D01*
X19296384Y-31279500D01*
X19296381Y-31279500D01*
X19112756Y-31316025D01*
X19112746Y-31316028D01*
X18939771Y-31387676D01*
X18784090Y-31491699D01*
X18651699Y-31624090D01*
X18547676Y-31779771D01*
X18476028Y-31952746D01*
X18476025Y-31952756D01*
X18439500Y-32136381D01*
X15799226Y-32136381D01*
X15798013Y-32133453D01*
X15699464Y-31985965D01*
X15574035Y-31860536D01*
X15426547Y-31761987D01*
X15403533Y-31752454D01*
X15262672Y-31694107D01*
X15262663Y-31694105D01*
X15088694Y-31659500D01*
X15088691Y-31659500D01*
X14911309Y-31659500D01*
X14911306Y-31659500D01*
X14737336Y-31694105D01*
X14737327Y-31694107D01*
X14573455Y-31761986D01*
X14573452Y-31761987D01*
X14425963Y-31860537D01*
X14300537Y-31985963D01*
X14201987Y-32133452D01*
X14201986Y-32133455D01*
X14134107Y-32297327D01*
X14134105Y-32297336D01*
X14099500Y-32471306D01*
X2531123Y-32471306D01*
X2534232Y-32455679D01*
X2560500Y-32323618D01*
X2560500Y-32136381D01*
X2530580Y-31985965D01*
X2523973Y-31952749D01*
X2452322Y-31779769D01*
X2348302Y-31624092D01*
X2215908Y-31491698D01*
X2060231Y-31387678D01*
X2060230Y-31387677D01*
X2060228Y-31387676D01*
X1887253Y-31316028D01*
X1887254Y-31316028D01*
X1887251Y-31316027D01*
X1887247Y-31316026D01*
X1887243Y-31316025D01*
X1703619Y-31279500D01*
X1703616Y-31279500D01*
X1516384Y-31279500D01*
X1516381Y-31279500D01*
X1332756Y-31316025D01*
X1332746Y-31316028D01*
X1159771Y-31387676D01*
X1004090Y-31491699D01*
X871699Y-31624090D01*
X767676Y-31779771D01*
X696028Y-31952746D01*
X696025Y-31952756D01*
X659500Y-32136381D01*
X400000Y-32136381D01*
X400000Y-31165693D01*
X3328700Y-31165693D01*
X3328700Y-31284306D01*
X3328701Y-31284315D01*
X3359399Y-31398881D01*
X3359399Y-31398882D01*
X3359400Y-31398884D01*
X3359401Y-31398886D01*
X3418711Y-31501613D01*
X3502587Y-31585489D01*
X3605314Y-31644799D01*
X3719891Y-31675500D01*
X3719894Y-31675500D01*
X3838506Y-31675500D01*
X3838509Y-31675500D01*
X3953086Y-31644799D01*
X4055813Y-31585489D01*
X4108395Y-31532907D01*
X4153649Y-31514161D01*
X4198904Y-31532906D01*
X4215469Y-31561596D01*
X4234999Y-31634482D01*
X4235000Y-31634484D01*
X4235001Y-31634486D01*
X4294311Y-31737213D01*
X4378187Y-31821089D01*
X4480914Y-31880399D01*
X4595491Y-31911100D01*
X4595494Y-31911100D01*
X4714106Y-31911100D01*
X4714109Y-31911100D01*
X4828686Y-31880399D01*
X4931413Y-31821089D01*
X5015289Y-31737213D01*
X5074599Y-31634486D01*
X5105300Y-31519909D01*
X5105300Y-31401291D01*
X5074599Y-31286714D01*
X5015289Y-31183987D01*
X4931413Y-31100111D01*
X4854133Y-31055493D01*
X8023400Y-31055493D01*
X8023400Y-31174106D01*
X8023401Y-31174115D01*
X8054099Y-31288681D01*
X8054099Y-31288682D01*
X8054100Y-31288684D01*
X8054101Y-31288686D01*
X8113411Y-31391413D01*
X8197287Y-31475289D01*
X8300014Y-31534599D01*
X8414591Y-31565300D01*
X8414594Y-31565300D01*
X8533206Y-31565300D01*
X8533209Y-31565300D01*
X8647786Y-31534599D01*
X8750513Y-31475289D01*
X8834389Y-31391413D01*
X8893699Y-31288686D01*
X8924400Y-31174109D01*
X8924400Y-31055491D01*
X8893699Y-30940914D01*
X8834389Y-30838187D01*
X8750513Y-30754311D01*
X8647786Y-30695001D01*
X8647783Y-30695000D01*
X8647781Y-30694999D01*
X8533215Y-30664301D01*
X8533211Y-30664300D01*
X8533209Y-30664300D01*
X8414591Y-30664300D01*
X8414589Y-30664300D01*
X8414584Y-30664301D01*
X8300018Y-30694999D01*
X8300017Y-30694999D01*
X8197285Y-30754312D01*
X8113412Y-30838185D01*
X8054099Y-30940917D01*
X8054099Y-30940918D01*
X8023401Y-31055484D01*
X8023400Y-31055493D01*
X4854133Y-31055493D01*
X4828686Y-31040801D01*
X4828683Y-31040800D01*
X4828681Y-31040799D01*
X4714115Y-31010101D01*
X4714111Y-31010100D01*
X4714109Y-31010100D01*
X4595491Y-31010100D01*
X4595489Y-31010100D01*
X4595484Y-31010101D01*
X4480918Y-31040799D01*
X4480917Y-31040799D01*
X4378184Y-31100113D01*
X4378182Y-31100114D01*
X4325603Y-31152693D01*
X4280348Y-31171438D01*
X4235094Y-31152692D01*
X4218530Y-31124002D01*
X4199000Y-31051118D01*
X4199000Y-31051117D01*
X4198999Y-31051116D01*
X4198999Y-31051114D01*
X4139689Y-30948387D01*
X4055813Y-30864511D01*
X3953086Y-30805201D01*
X3953083Y-30805200D01*
X3953081Y-30805199D01*
X3838515Y-30774501D01*
X3838511Y-30774500D01*
X3838509Y-30774500D01*
X3719891Y-30774500D01*
X3719889Y-30774500D01*
X3719884Y-30774501D01*
X3605318Y-30805199D01*
X3605317Y-30805199D01*
X3502585Y-30864512D01*
X3418712Y-30948385D01*
X3359399Y-31051117D01*
X3359399Y-31051118D01*
X3328701Y-31165684D01*
X3328700Y-31165693D01*
X400000Y-31165693D01*
X400000Y-29596381D01*
X659500Y-29596381D01*
X659500Y-29783618D01*
X696025Y-29967243D01*
X696028Y-29967253D01*
X767676Y-30140228D01*
X767677Y-30140230D01*
X767678Y-30140231D01*
X871698Y-30295908D01*
X1004092Y-30428302D01*
X1159769Y-30532322D01*
X1332749Y-30603973D01*
X1405599Y-30618463D01*
X1516381Y-30640500D01*
X1516384Y-30640500D01*
X1703619Y-30640500D01*
X1795851Y-30622153D01*
X1887251Y-30603973D01*
X2060231Y-30532322D01*
X2215908Y-30428302D01*
X2348302Y-30295908D01*
X2452322Y-30140231D01*
X2523973Y-29967251D01*
X2524022Y-29967007D01*
X2524067Y-29966938D01*
X2524888Y-29964236D01*
X2525707Y-29964484D01*
X2551241Y-29926282D01*
X2586791Y-29915500D01*
X5092617Y-29915500D01*
X5137872Y-29934245D01*
X5156617Y-29979500D01*
X5148043Y-30011500D01*
X5118299Y-30063017D01*
X5118299Y-30063018D01*
X5087601Y-30177584D01*
X5087600Y-30177593D01*
X5087600Y-30296206D01*
X5087601Y-30296215D01*
X5118299Y-30410781D01*
X5118299Y-30410782D01*
X5118300Y-30410784D01*
X5118301Y-30410786D01*
X5177611Y-30513513D01*
X5261487Y-30597389D01*
X5364214Y-30656699D01*
X5478791Y-30687400D01*
X5478794Y-30687400D01*
X5597406Y-30687400D01*
X5597409Y-30687400D01*
X5711986Y-30656699D01*
X5814713Y-30597389D01*
X5898589Y-30513513D01*
X5957899Y-30410786D01*
X5988600Y-30296209D01*
X5988600Y-30177591D01*
X5957899Y-30063014D01*
X5928156Y-30011499D01*
X5921764Y-29962935D01*
X5951583Y-29924074D01*
X5983583Y-29915500D01*
X12338985Y-29915500D01*
X12384240Y-29934245D01*
X13435347Y-30985352D01*
X13454092Y-31030607D01*
X13451912Y-31047168D01*
X13446200Y-31068489D01*
X13446200Y-31187106D01*
X13446201Y-31187115D01*
X13476899Y-31301681D01*
X13476899Y-31301682D01*
X13476900Y-31301684D01*
X13476901Y-31301686D01*
X13536211Y-31404413D01*
X13620087Y-31488289D01*
X13722814Y-31547599D01*
X13837391Y-31578300D01*
X13837394Y-31578300D01*
X13956006Y-31578300D01*
X13956009Y-31578300D01*
X14070586Y-31547599D01*
X14173313Y-31488289D01*
X14257189Y-31404413D01*
X14316499Y-31301686D01*
X14347200Y-31187109D01*
X14347200Y-31068491D01*
X14316499Y-30953914D01*
X14257189Y-30851187D01*
X14173313Y-30767311D01*
X14070586Y-30708001D01*
X14070583Y-30708000D01*
X14070581Y-30707999D01*
X13956015Y-30677301D01*
X13956011Y-30677300D01*
X13956009Y-30677300D01*
X13837391Y-30677300D01*
X13837390Y-30677300D01*
X13816068Y-30683012D01*
X13767504Y-30676616D01*
X13754252Y-30666447D01*
X12684186Y-29596381D01*
X18439500Y-29596381D01*
X18439500Y-29783618D01*
X18476025Y-29967243D01*
X18476028Y-29967253D01*
X18547676Y-30140228D01*
X18547677Y-30140230D01*
X18547678Y-30140231D01*
X18651698Y-30295908D01*
X18784092Y-30428302D01*
X18939769Y-30532322D01*
X19112749Y-30603973D01*
X19185599Y-30618463D01*
X19296381Y-30640500D01*
X19296384Y-30640500D01*
X19483619Y-30640500D01*
X19575851Y-30622153D01*
X19667251Y-30603973D01*
X19840231Y-30532322D01*
X19995908Y-30428302D01*
X20128302Y-30295908D01*
X20232322Y-30140231D01*
X20303973Y-29967251D01*
X20340500Y-29783616D01*
X20340500Y-29596384D01*
X20340500Y-29596381D01*
X20310538Y-29445755D01*
X20303973Y-29412749D01*
X20232322Y-29239769D01*
X20128302Y-29084092D01*
X19995908Y-28951698D01*
X19840231Y-28847678D01*
X19840230Y-28847677D01*
X19840228Y-28847676D01*
X19667253Y-28776028D01*
X19667254Y-28776028D01*
X19667251Y-28776027D01*
X19667247Y-28776026D01*
X19667243Y-28776025D01*
X19483619Y-28739500D01*
X19483616Y-28739500D01*
X19296384Y-28739500D01*
X19296381Y-28739500D01*
X19112756Y-28776025D01*
X19112746Y-28776028D01*
X18939771Y-28847676D01*
X18784090Y-28951699D01*
X18651699Y-29084090D01*
X18547676Y-29239771D01*
X18476028Y-29412746D01*
X18476025Y-29412756D01*
X18439500Y-29596381D01*
X12684186Y-29596381D01*
X12659072Y-29571267D01*
X12659072Y-29571266D01*
X12586634Y-29498828D01*
X12562360Y-29488774D01*
X12503757Y-29464499D01*
X12503755Y-29464499D01*
X12414045Y-29464499D01*
X12406597Y-29464499D01*
X12406589Y-29464500D01*
X2586791Y-29464500D01*
X2541536Y-29445755D01*
X2525417Y-29415603D01*
X2524888Y-29415764D01*
X2524080Y-29413101D01*
X2524022Y-29412993D01*
X2523974Y-29412752D01*
X2523973Y-29412751D01*
X2523973Y-29412749D01*
X2452322Y-29239769D01*
X2348302Y-29084092D01*
X2215908Y-28951698D01*
X2060231Y-28847678D01*
X2060230Y-28847677D01*
X2060228Y-28847676D01*
X1887253Y-28776028D01*
X1887254Y-28776028D01*
X1887251Y-28776027D01*
X1887247Y-28776026D01*
X1887243Y-28776025D01*
X1703619Y-28739500D01*
X1703616Y-28739500D01*
X1516384Y-28739500D01*
X1516381Y-28739500D01*
X1332756Y-28776025D01*
X1332746Y-28776028D01*
X1159771Y-28847676D01*
X1004090Y-28951699D01*
X871699Y-29084090D01*
X767676Y-29239771D01*
X696028Y-29412746D01*
X696025Y-29412756D01*
X659500Y-29596381D01*
X400000Y-29596381D01*
X400000Y-27380769D01*
X418745Y-27335514D01*
X464000Y-27316769D01*
X509255Y-27335514D01*
X526770Y-27368284D01*
X541597Y-27442829D01*
X541606Y-27442863D01*
X558955Y-27500057D01*
X558960Y-27500070D01*
X619261Y-27645650D01*
X619268Y-27645665D01*
X647445Y-27698381D01*
X647461Y-27698407D01*
X700047Y-27777107D01*
X700048Y-27777108D01*
X1141980Y-27335175D01*
X1144075Y-27342993D01*
X1209901Y-27457007D01*
X1302993Y-27550099D01*
X1417007Y-27615925D01*
X1424823Y-27618019D01*
X982891Y-28059950D01*
X1061601Y-28112543D01*
X1061618Y-28112554D01*
X1114334Y-28140731D01*
X1114349Y-28140738D01*
X1259929Y-28201039D01*
X1259942Y-28201044D01*
X1317136Y-28218393D01*
X1317166Y-28218401D01*
X1471695Y-28249138D01*
X1471703Y-28249139D01*
X1531207Y-28255000D01*
X2249765Y-28255000D01*
X2256824Y-28254919D01*
X2366503Y-28231782D01*
X2396509Y-28219353D01*
X2396509Y-28219352D01*
X1795176Y-27618019D01*
X1802993Y-27615925D01*
X1917007Y-27550099D01*
X2010099Y-27457007D01*
X2075925Y-27342993D01*
X2078019Y-27335176D01*
X2679352Y-27936509D01*
X2679353Y-27936509D01*
X2691769Y-27906535D01*
X2694405Y-27899957D01*
X2694405Y-27899956D01*
X2714999Y-27789784D01*
X2715000Y-27789782D01*
X2715000Y-26510235D01*
X2714919Y-26503175D01*
X2691782Y-26393494D01*
X2661345Y-26320011D01*
X2658564Y-26313514D01*
X2658562Y-26313509D01*
X2595223Y-26221044D01*
X2595216Y-26221036D01*
X2539003Y-26164824D01*
X2533915Y-26159853D01*
X2533913Y-26159851D01*
X2440010Y-26098665D01*
X2366535Y-26068230D01*
X2359956Y-26065594D01*
X2249784Y-26045000D01*
X1531207Y-26045000D01*
X1471703Y-26050860D01*
X1471695Y-26050861D01*
X1317166Y-26081598D01*
X1317136Y-26081606D01*
X1259942Y-26098955D01*
X1259929Y-26098960D01*
X1114349Y-26159261D01*
X1114334Y-26159268D01*
X1061618Y-26187445D01*
X1061592Y-26187461D01*
X982891Y-26240047D01*
X982891Y-26240048D01*
X1424823Y-26681980D01*
X1417007Y-26684075D01*
X1302993Y-26749901D01*
X1209901Y-26842993D01*
X1144075Y-26957007D01*
X1141980Y-26964823D01*
X700048Y-26522891D01*
X700047Y-26522891D01*
X647461Y-26601592D01*
X647445Y-26601618D01*
X619268Y-26654334D01*
X619261Y-26654349D01*
X558960Y-26799929D01*
X558955Y-26799942D01*
X541606Y-26857136D01*
X541598Y-26857166D01*
X526770Y-26931716D01*
X499557Y-26972444D01*
X451514Y-26982000D01*
X410786Y-26954787D01*
X400000Y-26919230D01*
X400000Y-26222843D01*
X400000Y-24516381D01*
X659500Y-24516381D01*
X659500Y-24703618D01*
X696025Y-24887243D01*
X696028Y-24887253D01*
X767676Y-25060228D01*
X767677Y-25060230D01*
X767678Y-25060231D01*
X871698Y-25215908D01*
X1004092Y-25348302D01*
X1159769Y-25452322D01*
X1159770Y-25452322D01*
X1159771Y-25452323D01*
X1187274Y-25463715D01*
X1332749Y-25523973D01*
X1402489Y-25537845D01*
X1516381Y-25560500D01*
X1516384Y-25560500D01*
X1703619Y-25560500D01*
X1817511Y-25537845D01*
X1887251Y-25523973D01*
X2060231Y-25452322D01*
X2060425Y-25452191D01*
X2060504Y-25452176D01*
X2063000Y-25450842D01*
X2063404Y-25451598D01*
X2108466Y-25442630D01*
X2141242Y-25460147D01*
X4159779Y-27478684D01*
X4159782Y-27478688D01*
X4163430Y-27482336D01*
X4226864Y-27545770D01*
X4261195Y-27559990D01*
X4309746Y-27580101D01*
X4309748Y-27580101D01*
X4406903Y-27580101D01*
X4406911Y-27580100D01*
X14291350Y-27580100D01*
X14336605Y-27598845D01*
X14346775Y-27612099D01*
X14357810Y-27631212D01*
X14357811Y-27631213D01*
X14441687Y-27715089D01*
X14544414Y-27774399D01*
X14658991Y-27805100D01*
X14658994Y-27805100D01*
X14777606Y-27805100D01*
X14777609Y-27805100D01*
X14892186Y-27774399D01*
X14994913Y-27715089D01*
X15078789Y-27631213D01*
X15138099Y-27528486D01*
X15168800Y-27413909D01*
X15168800Y-27295291D01*
X15138099Y-27180714D01*
X15078789Y-27077987D01*
X14994913Y-26994111D01*
X14892186Y-26934801D01*
X14892183Y-26934800D01*
X14892181Y-26934799D01*
X14777615Y-26904101D01*
X14777611Y-26904100D01*
X14777609Y-26904100D01*
X14658991Y-26904100D01*
X14658989Y-26904100D01*
X14658984Y-26904101D01*
X14544418Y-26934799D01*
X14544417Y-26934799D01*
X14441685Y-26994112D01*
X14357810Y-27077987D01*
X14346775Y-27097101D01*
X14307913Y-27126920D01*
X14291350Y-27129100D01*
X4474515Y-27129100D01*
X4429260Y-27110355D01*
X2478298Y-25159393D01*
X4932300Y-25159393D01*
X4932300Y-25278006D01*
X4932301Y-25278015D01*
X4962999Y-25392581D01*
X4962999Y-25392582D01*
X4963000Y-25392584D01*
X4963001Y-25392586D01*
X5022311Y-25495313D01*
X5106187Y-25579189D01*
X5208914Y-25638499D01*
X5323491Y-25669200D01*
X5323494Y-25669200D01*
X5442106Y-25669200D01*
X5442109Y-25669200D01*
X5556686Y-25638499D01*
X5659413Y-25579189D01*
X5711409Y-25527193D01*
X6140200Y-25527193D01*
X6140200Y-25645806D01*
X6140201Y-25645815D01*
X6170899Y-25760381D01*
X6170899Y-25760382D01*
X6170900Y-25760384D01*
X6170901Y-25760386D01*
X6230211Y-25863113D01*
X6314087Y-25946989D01*
X6416814Y-26006299D01*
X6531391Y-26037000D01*
X6531394Y-26037000D01*
X6650006Y-26037000D01*
X6650009Y-26037000D01*
X6650017Y-26036998D01*
X6651673Y-26036554D01*
X6671325Y-26031288D01*
X6719888Y-26037679D01*
X6733146Y-26047851D01*
X6824179Y-26138884D01*
X6824182Y-26138888D01*
X6827830Y-26142536D01*
X6891264Y-26205970D01*
X6925595Y-26220190D01*
X6974146Y-26240301D01*
X6974148Y-26240301D01*
X7071303Y-26240301D01*
X7071311Y-26240300D01*
X10815889Y-26240300D01*
X10815897Y-26240301D01*
X10823345Y-26240301D01*
X10881142Y-26240301D01*
X10897707Y-26242482D01*
X11003386Y-26270799D01*
X11003388Y-26270799D01*
X11003391Y-26270800D01*
X11003394Y-26270800D01*
X11122006Y-26270800D01*
X11122009Y-26270800D01*
X11236586Y-26240099D01*
X11339313Y-26180789D01*
X11423189Y-26096913D01*
X11439758Y-26068216D01*
X11457780Y-26037000D01*
X11482499Y-25994186D01*
X11513200Y-25879609D01*
X11513200Y-25760991D01*
X11482499Y-25646414D01*
X11482498Y-25646413D01*
X11482498Y-25646411D01*
X11464420Y-25615100D01*
X11458026Y-25566536D01*
X11487845Y-25527675D01*
X11519845Y-25519100D01*
X16114089Y-25519100D01*
X16114097Y-25519101D01*
X16121545Y-25519101D01*
X16211253Y-25519101D01*
X16211255Y-25519101D01*
X16240557Y-25506963D01*
X16269859Y-25494826D01*
X16287024Y-25487715D01*
X16294136Y-25484770D01*
X16357570Y-25421336D01*
X16357570Y-25421334D01*
X16366569Y-25412336D01*
X16366571Y-25412333D01*
X17262523Y-24516381D01*
X18439500Y-24516381D01*
X18439500Y-24703618D01*
X18476025Y-24887243D01*
X18476028Y-24887253D01*
X18547676Y-25060228D01*
X18547677Y-25060230D01*
X18547678Y-25060231D01*
X18651698Y-25215908D01*
X18784092Y-25348302D01*
X18939769Y-25452322D01*
X18939770Y-25452322D01*
X18939771Y-25452323D01*
X18967274Y-25463715D01*
X19112749Y-25523973D01*
X19182489Y-25537845D01*
X19296381Y-25560500D01*
X19296384Y-25560500D01*
X19483619Y-25560500D01*
X19597511Y-25537845D01*
X19667251Y-25523973D01*
X19840231Y-25452322D01*
X19995908Y-25348302D01*
X20128302Y-25215908D01*
X20232322Y-25060231D01*
X20303973Y-24887251D01*
X20329812Y-24757347D01*
X20340500Y-24703618D01*
X20340500Y-24516381D01*
X20303974Y-24332756D01*
X20303973Y-24332749D01*
X20232322Y-24159769D01*
X20128302Y-24004092D01*
X19995908Y-23871698D01*
X19840231Y-23767678D01*
X19840230Y-23767677D01*
X19840228Y-23767676D01*
X19667253Y-23696028D01*
X19667254Y-23696028D01*
X19667251Y-23696027D01*
X19667247Y-23696026D01*
X19667243Y-23696025D01*
X19483619Y-23659500D01*
X19483616Y-23659500D01*
X19296384Y-23659500D01*
X19296381Y-23659500D01*
X19112756Y-23696025D01*
X19112746Y-23696028D01*
X18939771Y-23767676D01*
X18784090Y-23871699D01*
X18651699Y-24004090D01*
X18547676Y-24159771D01*
X18476028Y-24332746D01*
X18476025Y-24332756D01*
X18439500Y-24516381D01*
X17262523Y-24516381D01*
X18858757Y-22920146D01*
X18904011Y-22901402D01*
X18936730Y-22911327D01*
X18936992Y-22910838D01*
X18939455Y-22912154D01*
X18939569Y-22912189D01*
X18939765Y-22912320D01*
X18939767Y-22912321D01*
X18939769Y-22912322D01*
X19112749Y-22983973D01*
X19185599Y-22998463D01*
X19296381Y-23020500D01*
X19296384Y-23020500D01*
X19483619Y-23020500D01*
X19575851Y-23002153D01*
X19667251Y-22983973D01*
X19840231Y-22912322D01*
X19995908Y-22808302D01*
X20128302Y-22675908D01*
X20232322Y-22520231D01*
X20303973Y-22347251D01*
X20333714Y-22197734D01*
X20340500Y-22163618D01*
X20340500Y-21976381D01*
X20310538Y-21825755D01*
X20303973Y-21792749D01*
X20232322Y-21619769D01*
X20128302Y-21464092D01*
X19995908Y-21331698D01*
X19840231Y-21227678D01*
X19840230Y-21227677D01*
X19840228Y-21227676D01*
X19667253Y-21156028D01*
X19667254Y-21156028D01*
X19667251Y-21156027D01*
X19667247Y-21156026D01*
X19667243Y-21156025D01*
X19483619Y-21119500D01*
X19483616Y-21119500D01*
X19296384Y-21119500D01*
X19296381Y-21119500D01*
X19112756Y-21156025D01*
X19112746Y-21156028D01*
X18939771Y-21227676D01*
X18784090Y-21331699D01*
X18651699Y-21464090D01*
X18547676Y-21619771D01*
X18476028Y-21792746D01*
X18476025Y-21792756D01*
X18439500Y-21976381D01*
X18439500Y-22163618D01*
X18476025Y-22347243D01*
X18476028Y-22347253D01*
X18547677Y-22520229D01*
X18547807Y-22520424D01*
X18547822Y-22520503D01*
X18549159Y-22523003D01*
X18548400Y-22523408D01*
X18557369Y-22568465D01*
X18539852Y-22601241D01*
X16091740Y-25049355D01*
X16046485Y-25068100D01*
X9259112Y-25068100D01*
X9213857Y-25049355D01*
X9197714Y-25033212D01*
X9197713Y-25033211D01*
X9094986Y-24973901D01*
X9094983Y-24973900D01*
X9094981Y-24973899D01*
X8980415Y-24943201D01*
X8980411Y-24943200D01*
X8980409Y-24943200D01*
X8861791Y-24943200D01*
X8861789Y-24943200D01*
X8861784Y-24943201D01*
X8747218Y-24973899D01*
X8747217Y-24973899D01*
X8644485Y-25033212D01*
X8560612Y-25117085D01*
X8557092Y-25123182D01*
X8518228Y-25152998D01*
X8469664Y-25146602D01*
X8450892Y-25130136D01*
X8449092Y-25127790D01*
X8365214Y-25043912D01*
X8365213Y-25043911D01*
X8262486Y-24984601D01*
X8262483Y-24984600D01*
X8262481Y-24984599D01*
X8147915Y-24953901D01*
X8147911Y-24953900D01*
X8147909Y-24953900D01*
X8029291Y-24953900D01*
X8029289Y-24953900D01*
X8029284Y-24953901D01*
X7914718Y-24984599D01*
X7914717Y-24984599D01*
X7811985Y-25043912D01*
X7728112Y-25127785D01*
X7668799Y-25230517D01*
X7668799Y-25230518D01*
X7638101Y-25345084D01*
X7638100Y-25345093D01*
X7638100Y-25463706D01*
X7638101Y-25463715D01*
X7668799Y-25578281D01*
X7668799Y-25578282D01*
X7668800Y-25578284D01*
X7668801Y-25578286D01*
X7728111Y-25681013D01*
X7728113Y-25681015D01*
X7730666Y-25684343D01*
X7729343Y-25685357D01*
X7745888Y-25725300D01*
X7727143Y-25770555D01*
X7681888Y-25789300D01*
X7138915Y-25789300D01*
X7093660Y-25770555D01*
X7052051Y-25728946D01*
X7033306Y-25683691D01*
X7035487Y-25667129D01*
X7041200Y-25645809D01*
X7041200Y-25527191D01*
X7010499Y-25412614D01*
X6951189Y-25309887D01*
X6867313Y-25226011D01*
X6764586Y-25166701D01*
X6764583Y-25166700D01*
X6764581Y-25166699D01*
X6650015Y-25136001D01*
X6650011Y-25136000D01*
X6650009Y-25136000D01*
X6531391Y-25136000D01*
X6531389Y-25136000D01*
X6531384Y-25136001D01*
X6416818Y-25166699D01*
X6416817Y-25166699D01*
X6314085Y-25226012D01*
X6230212Y-25309885D01*
X6170899Y-25412617D01*
X6170899Y-25412618D01*
X6140201Y-25527184D01*
X6140200Y-25527193D01*
X5711409Y-25527193D01*
X5743289Y-25495313D01*
X5802599Y-25392586D01*
X5833300Y-25278009D01*
X5833300Y-25159391D01*
X5827587Y-25138071D01*
X5833979Y-25089510D01*
X5844147Y-25076257D01*
X6870361Y-24050045D01*
X6915616Y-24031300D01*
X10364085Y-24031300D01*
X10409340Y-24050045D01*
X10601347Y-24242053D01*
X10620092Y-24287308D01*
X10617912Y-24303870D01*
X10612200Y-24325191D01*
X10612200Y-24443806D01*
X10612201Y-24443815D01*
X10642899Y-24558381D01*
X10642899Y-24558382D01*
X10642900Y-24558384D01*
X10642901Y-24558386D01*
X10702211Y-24661113D01*
X10786087Y-24744989D01*
X10888814Y-24804299D01*
X11003391Y-24835000D01*
X11003394Y-24835000D01*
X11122006Y-24835000D01*
X11122009Y-24835000D01*
X11236586Y-24804299D01*
X11339313Y-24744989D01*
X11423189Y-24661113D01*
X11482499Y-24558386D01*
X11513200Y-24443809D01*
X11513200Y-24325191D01*
X11482499Y-24210614D01*
X11423189Y-24107887D01*
X11339313Y-24024011D01*
X11236586Y-23964701D01*
X11236583Y-23964700D01*
X11236581Y-23964699D01*
X11122015Y-23934001D01*
X11122011Y-23934000D01*
X11122009Y-23934000D01*
X11003391Y-23934000D01*
X10982070Y-23939712D01*
X10973496Y-23938582D01*
X10965508Y-23941892D01*
X10950070Y-23935497D01*
X10933506Y-23933316D01*
X10920253Y-23923147D01*
X10885357Y-23888251D01*
X10844299Y-23847193D01*
X11931300Y-23847193D01*
X11931300Y-23965806D01*
X11931301Y-23965815D01*
X11961999Y-24080381D01*
X11961999Y-24080382D01*
X11962000Y-24080384D01*
X11962001Y-24080386D01*
X12021311Y-24183113D01*
X12105187Y-24266989D01*
X12207914Y-24326299D01*
X12322491Y-24357000D01*
X12322494Y-24357000D01*
X12441106Y-24357000D01*
X12441109Y-24357000D01*
X12555686Y-24326299D01*
X12658413Y-24266989D01*
X12742289Y-24183113D01*
X12801599Y-24080386D01*
X12832300Y-23965809D01*
X12832300Y-23847191D01*
X12801599Y-23732614D01*
X12742289Y-23629887D01*
X12658413Y-23546011D01*
X12555686Y-23486701D01*
X12555683Y-23486700D01*
X12555681Y-23486699D01*
X12441115Y-23456001D01*
X12441111Y-23456000D01*
X12441109Y-23456000D01*
X12322491Y-23456000D01*
X12322489Y-23456000D01*
X12322484Y-23456001D01*
X12207918Y-23486699D01*
X12207917Y-23486699D01*
X12105185Y-23546012D01*
X12021312Y-23629885D01*
X11961999Y-23732617D01*
X11961999Y-23732618D01*
X11931301Y-23847184D01*
X11931300Y-23847193D01*
X10844299Y-23847193D01*
X10684172Y-23687067D01*
X10684172Y-23687066D01*
X10611734Y-23614628D01*
X10587460Y-23604574D01*
X10528857Y-23580299D01*
X10528855Y-23580299D01*
X10439145Y-23580299D01*
X10431697Y-23580299D01*
X10431689Y-23580300D01*
X6750842Y-23580300D01*
X6667963Y-23614630D01*
X5525245Y-24757347D01*
X5479990Y-24776092D01*
X5463427Y-24773912D01*
X5442109Y-24768200D01*
X5323491Y-24768200D01*
X5323489Y-24768200D01*
X5323484Y-24768201D01*
X5208918Y-24798899D01*
X5208917Y-24798899D01*
X5106185Y-24858212D01*
X5022312Y-24942085D01*
X4962999Y-25044817D01*
X4962999Y-25044818D01*
X4932301Y-25159384D01*
X4932300Y-25159393D01*
X2478298Y-25159393D01*
X2460147Y-25141242D01*
X2441402Y-25095987D01*
X2451331Y-25063261D01*
X2450842Y-25063000D01*
X2452157Y-25060540D01*
X2452192Y-25060425D01*
X2452322Y-25060231D01*
X2523973Y-24887251D01*
X2549812Y-24757347D01*
X2560500Y-24703618D01*
X2560500Y-24516381D01*
X2523974Y-24332756D01*
X2523973Y-24332749D01*
X2452322Y-24159769D01*
X2348302Y-24004092D01*
X2215908Y-23871698D01*
X2060231Y-23767678D01*
X2060230Y-23767677D01*
X2060228Y-23767676D01*
X1887253Y-23696028D01*
X1887254Y-23696028D01*
X1887251Y-23696027D01*
X1887247Y-23696026D01*
X1887243Y-23696025D01*
X1703619Y-23659500D01*
X1703616Y-23659500D01*
X1516384Y-23659500D01*
X1516381Y-23659500D01*
X1332756Y-23696025D01*
X1332746Y-23696028D01*
X1159771Y-23767676D01*
X1004090Y-23871699D01*
X871699Y-24004090D01*
X767676Y-24159771D01*
X696028Y-24332746D01*
X696025Y-24332756D01*
X659500Y-24516381D01*
X400000Y-24516381D01*
X400000Y-16896381D01*
X659500Y-16896381D01*
X659500Y-17083618D01*
X696025Y-17267243D01*
X696028Y-17267253D01*
X767676Y-17440228D01*
X767677Y-17440230D01*
X767678Y-17440231D01*
X871698Y-17595908D01*
X1004092Y-17728302D01*
X1159769Y-17832322D01*
X1332749Y-17903973D01*
X1405599Y-17918463D01*
X1516381Y-17940500D01*
X1516384Y-17940500D01*
X1703619Y-17940500D01*
X1795851Y-17922153D01*
X1887251Y-17903973D01*
X2060231Y-17832322D01*
X2060425Y-17832191D01*
X2060504Y-17832176D01*
X2063000Y-17830842D01*
X2063404Y-17831598D01*
X2108466Y-17822630D01*
X2141242Y-17840147D01*
X4219539Y-19918445D01*
X4238284Y-19963700D01*
X4219539Y-20008955D01*
X4174284Y-20027700D01*
X2528443Y-20027700D01*
X2483188Y-20008955D01*
X2464443Y-19963700D01*
X2469315Y-19939209D01*
X2498328Y-19869161D01*
X2523973Y-19807251D01*
X2560500Y-19623616D01*
X2560500Y-19436384D01*
X2560500Y-19436381D01*
X2523974Y-19252756D01*
X2523973Y-19252749D01*
X2452322Y-19079769D01*
X2348302Y-18924092D01*
X2215908Y-18791698D01*
X2060231Y-18687678D01*
X2060230Y-18687677D01*
X2060228Y-18687676D01*
X1919200Y-18629261D01*
X1887251Y-18616027D01*
X1887247Y-18616026D01*
X1887243Y-18616025D01*
X1703619Y-18579500D01*
X1703616Y-18579500D01*
X1516384Y-18579500D01*
X1516381Y-18579500D01*
X1332756Y-18616025D01*
X1332746Y-18616028D01*
X1159771Y-18687676D01*
X1004090Y-18791699D01*
X871699Y-18924090D01*
X767676Y-19079771D01*
X696028Y-19252746D01*
X696025Y-19252756D01*
X659500Y-19436381D01*
X659500Y-19623618D01*
X696025Y-19807243D01*
X696028Y-19807253D01*
X767676Y-19980228D01*
X767677Y-19980230D01*
X767678Y-19980231D01*
X871698Y-20135908D01*
X1004092Y-20268302D01*
X1159769Y-20372322D01*
X1332749Y-20443973D01*
X1405599Y-20458463D01*
X1516381Y-20480500D01*
X1516384Y-20480500D01*
X1703619Y-20480500D01*
X1795851Y-20462153D01*
X1887251Y-20443973D01*
X2060231Y-20372322D01*
X2060419Y-20372196D01*
X2060495Y-20372180D01*
X2063000Y-20370842D01*
X2063405Y-20371601D01*
X2108455Y-20362628D01*
X2141241Y-20380147D01*
X2142030Y-20380936D01*
X2205464Y-20444370D01*
X2252578Y-20463885D01*
X2288342Y-20478699D01*
X2288345Y-20478700D01*
X2378054Y-20478700D01*
X3427358Y-20478700D01*
X3472613Y-20497445D01*
X3491358Y-20542700D01*
X3482784Y-20574700D01*
X3460199Y-20613817D01*
X3460199Y-20613818D01*
X3429501Y-20728384D01*
X3429500Y-20728393D01*
X3429500Y-20847006D01*
X3429501Y-20847015D01*
X3460199Y-20961581D01*
X3460199Y-20961582D01*
X3460200Y-20961584D01*
X3460201Y-20961586D01*
X3519511Y-21064313D01*
X3603387Y-21148189D01*
X3706114Y-21207499D01*
X3820691Y-21238200D01*
X3820694Y-21238200D01*
X3939306Y-21238200D01*
X3939309Y-21238200D01*
X4053886Y-21207499D01*
X4156613Y-21148189D01*
X4240489Y-21064313D01*
X4299799Y-20961586D01*
X4330500Y-20847009D01*
X4330500Y-20728391D01*
X4299799Y-20613814D01*
X4277215Y-20574699D01*
X4270823Y-20526136D01*
X4300642Y-20487274D01*
X4332642Y-20478700D01*
X9561385Y-20478700D01*
X9606640Y-20497445D01*
X9745555Y-20636360D01*
X9764300Y-20681615D01*
X9764300Y-20948279D01*
X9764299Y-20948293D01*
X9764299Y-21043155D01*
X9786150Y-21095907D01*
X9786150Y-21095908D01*
X9798628Y-21126033D01*
X9798630Y-21126036D01*
X9871065Y-21198471D01*
X9871067Y-21198472D01*
X10065779Y-21393184D01*
X10065782Y-21393188D01*
X10069430Y-21396836D01*
X10132864Y-21460270D01*
X10157139Y-21470325D01*
X10215745Y-21494601D01*
X10215747Y-21494601D01*
X10312903Y-21494601D01*
X10312911Y-21494600D01*
X14084189Y-21494600D01*
X14084197Y-21494601D01*
X14091645Y-21494601D01*
X14113267Y-21494601D01*
X14145267Y-21503175D01*
X14147214Y-21504299D01*
X14213360Y-21522023D01*
X14261786Y-21534999D01*
X14261788Y-21534999D01*
X14261791Y-21535000D01*
X14261794Y-21535000D01*
X14380406Y-21535000D01*
X14380409Y-21535000D01*
X14494986Y-21504299D01*
X14597713Y-21444989D01*
X14681589Y-21361113D01*
X14700592Y-21328197D01*
X14739451Y-21298379D01*
X14788016Y-21304772D01*
X14817836Y-21343632D01*
X14817836Y-21343634D01*
X14824211Y-21367427D01*
X14817817Y-21415992D01*
X14807647Y-21429246D01*
X14411140Y-21825755D01*
X14365885Y-21844500D01*
X2586791Y-21844500D01*
X2541536Y-21825755D01*
X2525417Y-21795603D01*
X2524888Y-21795764D01*
X2524080Y-21793101D01*
X2524022Y-21792993D01*
X2523974Y-21792752D01*
X2523973Y-21792751D01*
X2523973Y-21792749D01*
X2452322Y-21619769D01*
X2348302Y-21464092D01*
X2215908Y-21331698D01*
X2060231Y-21227678D01*
X2060230Y-21227677D01*
X2060228Y-21227676D01*
X1887253Y-21156028D01*
X1887254Y-21156028D01*
X1887251Y-21156027D01*
X1887247Y-21156026D01*
X1887243Y-21156025D01*
X1703619Y-21119500D01*
X1703616Y-21119500D01*
X1516384Y-21119500D01*
X1516381Y-21119500D01*
X1332756Y-21156025D01*
X1332746Y-21156028D01*
X1159771Y-21227676D01*
X1004090Y-21331699D01*
X871699Y-21464090D01*
X767676Y-21619771D01*
X696028Y-21792746D01*
X696025Y-21792756D01*
X659500Y-21976381D01*
X659500Y-22163618D01*
X696025Y-22347243D01*
X696028Y-22347253D01*
X767676Y-22520228D01*
X767677Y-22520229D01*
X767678Y-22520231D01*
X871698Y-22675908D01*
X1004092Y-22808302D01*
X1159769Y-22912322D01*
X1332749Y-22983973D01*
X1405599Y-22998463D01*
X1516381Y-23020500D01*
X1516384Y-23020500D01*
X1703619Y-23020500D01*
X1795851Y-23002153D01*
X1887251Y-22983973D01*
X2060231Y-22912322D01*
X2215908Y-22808302D01*
X2348302Y-22675908D01*
X2452322Y-22520231D01*
X2523973Y-22347251D01*
X2524022Y-22347007D01*
X2524067Y-22346938D01*
X2524888Y-22344236D01*
X2525707Y-22344484D01*
X2551241Y-22306282D01*
X2586791Y-22295500D01*
X14433489Y-22295500D01*
X14433497Y-22295501D01*
X14440945Y-22295501D01*
X14530653Y-22295501D01*
X14530655Y-22295501D01*
X14559957Y-22283363D01*
X14589259Y-22271226D01*
X14606424Y-22264115D01*
X14613536Y-22261170D01*
X14676970Y-22197736D01*
X14676970Y-22197734D01*
X14685969Y-22188736D01*
X14685971Y-22188733D01*
X15126553Y-21748150D01*
X15171807Y-21729406D01*
X15188366Y-21731586D01*
X15209691Y-21737300D01*
X15209694Y-21737300D01*
X15328306Y-21737300D01*
X15328309Y-21737300D01*
X15442886Y-21706599D01*
X15545613Y-21647289D01*
X15629489Y-21563413D01*
X15688799Y-21460686D01*
X15719500Y-21346109D01*
X15719500Y-21227491D01*
X15688799Y-21112914D01*
X15629489Y-21010187D01*
X15545613Y-20926311D01*
X15442886Y-20867001D01*
X15442883Y-20867000D01*
X15442881Y-20866999D01*
X15328315Y-20836301D01*
X15328311Y-20836300D01*
X15328309Y-20836300D01*
X15209691Y-20836300D01*
X15209689Y-20836300D01*
X15209684Y-20836301D01*
X15095118Y-20866999D01*
X15095117Y-20866999D01*
X14992385Y-20926312D01*
X14908510Y-21010187D01*
X14889507Y-21043101D01*
X14850645Y-21072920D01*
X14802081Y-21066525D01*
X14772263Y-21027664D01*
X14740900Y-20910618D01*
X14740900Y-20910617D01*
X14740899Y-20910616D01*
X14740899Y-20910614D01*
X14681589Y-20807887D01*
X14597713Y-20724011D01*
X14494986Y-20664701D01*
X14494983Y-20664700D01*
X14494981Y-20664699D01*
X14380415Y-20634001D01*
X14380411Y-20634000D01*
X14380409Y-20634000D01*
X14261791Y-20634000D01*
X14261789Y-20634000D01*
X14261784Y-20634001D01*
X14147218Y-20664699D01*
X14147217Y-20664699D01*
X14044485Y-20724012D01*
X13960612Y-20807885D01*
X13901299Y-20910617D01*
X13878377Y-20996165D01*
X13848558Y-21035026D01*
X13816558Y-21043600D01*
X13717971Y-21043600D01*
X13672716Y-21024855D01*
X13653971Y-20979600D01*
X13662546Y-20947600D01*
X13691998Y-20896588D01*
X13692000Y-20896581D01*
X13699927Y-20866999D01*
X13722700Y-20782009D01*
X13722700Y-20663391D01*
X13691999Y-20548814D01*
X13632689Y-20446087D01*
X13548813Y-20362211D01*
X13446086Y-20302901D01*
X13446083Y-20302900D01*
X13446081Y-20302899D01*
X13331515Y-20272201D01*
X13331511Y-20272200D01*
X13331509Y-20272200D01*
X13212891Y-20272200D01*
X13191570Y-20277912D01*
X13143006Y-20271516D01*
X13129753Y-20261347D01*
X12701172Y-19832767D01*
X12701172Y-19832766D01*
X12628736Y-19760330D01*
X12601173Y-19748913D01*
X12545855Y-19725999D01*
X12456145Y-19725999D01*
X12448697Y-19725999D01*
X12448689Y-19726000D01*
X4691416Y-19726000D01*
X4646161Y-19707255D01*
X4417401Y-19478495D01*
X4375287Y-19436381D01*
X18439500Y-19436381D01*
X18439500Y-19623618D01*
X18476025Y-19807243D01*
X18476028Y-19807253D01*
X18547676Y-19980228D01*
X18547677Y-19980230D01*
X18547678Y-19980231D01*
X18651698Y-20135908D01*
X18784092Y-20268302D01*
X18939769Y-20372322D01*
X19112749Y-20443973D01*
X19185599Y-20458463D01*
X19296381Y-20480500D01*
X19296384Y-20480500D01*
X19483619Y-20480500D01*
X19575851Y-20462153D01*
X19667251Y-20443973D01*
X19840231Y-20372322D01*
X19995908Y-20268302D01*
X20128302Y-20135908D01*
X20232322Y-19980231D01*
X20303973Y-19807251D01*
X20340500Y-19623616D01*
X20340500Y-19436384D01*
X20340500Y-19436381D01*
X20303974Y-19252756D01*
X20303973Y-19252749D01*
X20232322Y-19079769D01*
X20128302Y-18924092D01*
X19995908Y-18791698D01*
X19840231Y-18687678D01*
X19840230Y-18687677D01*
X19840228Y-18687676D01*
X19699200Y-18629261D01*
X19667251Y-18616027D01*
X19667247Y-18616026D01*
X19667243Y-18616025D01*
X19483619Y-18579500D01*
X19483616Y-18579500D01*
X19296384Y-18579500D01*
X19296381Y-18579500D01*
X19112756Y-18616025D01*
X19112746Y-18616028D01*
X18939771Y-18687676D01*
X18784090Y-18791699D01*
X18651699Y-18924090D01*
X18547676Y-19079771D01*
X18476028Y-19252746D01*
X18476025Y-19252756D01*
X18439500Y-19436381D01*
X4375287Y-19436381D01*
X3862996Y-18924090D01*
X3669599Y-18730693D01*
X15075600Y-18730693D01*
X15075600Y-18849306D01*
X15075601Y-18849315D01*
X15106299Y-18963881D01*
X15106299Y-18963882D01*
X15106300Y-18963884D01*
X15106301Y-18963886D01*
X15165611Y-19066613D01*
X15249487Y-19150489D01*
X15352214Y-19209799D01*
X15466791Y-19240500D01*
X15466794Y-19240500D01*
X15585406Y-19240500D01*
X15585409Y-19240500D01*
X15699986Y-19209799D01*
X15802713Y-19150489D01*
X15886589Y-19066613D01*
X15945899Y-18963886D01*
X15976600Y-18849309D01*
X15976600Y-18730691D01*
X15945899Y-18616114D01*
X15886589Y-18513387D01*
X15802713Y-18429511D01*
X15699986Y-18370201D01*
X15699983Y-18370200D01*
X15699981Y-18370199D01*
X15585415Y-18339501D01*
X15585411Y-18339500D01*
X15585409Y-18339500D01*
X15466791Y-18339500D01*
X15466789Y-18339500D01*
X15466784Y-18339501D01*
X15352218Y-18370199D01*
X15352217Y-18370199D01*
X15249485Y-18429512D01*
X15165612Y-18513385D01*
X15106299Y-18616117D01*
X15106299Y-18616118D01*
X15075601Y-18730684D01*
X15075600Y-18730693D01*
X3669599Y-18730693D01*
X3128798Y-18189893D01*
X13862400Y-18189893D01*
X13862400Y-18308506D01*
X13862401Y-18308515D01*
X13893099Y-18423081D01*
X13893099Y-18423082D01*
X13893100Y-18423084D01*
X13893101Y-18423086D01*
X13952411Y-18525813D01*
X14036287Y-18609689D01*
X14139014Y-18668999D01*
X14253591Y-18699700D01*
X14253594Y-18699700D01*
X14372206Y-18699700D01*
X14372209Y-18699700D01*
X14486786Y-18668999D01*
X14589513Y-18609689D01*
X14673389Y-18525813D01*
X14732699Y-18423086D01*
X14763400Y-18308509D01*
X14763400Y-18189891D01*
X14732699Y-18075314D01*
X14673389Y-17972587D01*
X14589513Y-17888711D01*
X14486786Y-17829401D01*
X14486783Y-17829400D01*
X14486781Y-17829399D01*
X14372215Y-17798701D01*
X14372211Y-17798700D01*
X14372209Y-17798700D01*
X14253591Y-17798700D01*
X14253589Y-17798700D01*
X14253584Y-17798701D01*
X14139018Y-17829399D01*
X14139017Y-17829399D01*
X14036285Y-17888712D01*
X13952412Y-17972585D01*
X13893099Y-18075317D01*
X13893099Y-18075318D01*
X13862401Y-18189884D01*
X13862400Y-18189893D01*
X3128798Y-18189893D01*
X2460146Y-17521241D01*
X2441402Y-17475987D01*
X2451331Y-17443261D01*
X2450842Y-17443000D01*
X2452157Y-17440540D01*
X2452192Y-17440425D01*
X2452322Y-17440231D01*
X2523973Y-17267251D01*
X2560500Y-17083616D01*
X2560500Y-16896384D01*
X2560500Y-16896381D01*
X2523974Y-16712756D01*
X2523973Y-16712749D01*
X2452322Y-16539769D01*
X2420132Y-16491593D01*
X16779500Y-16491593D01*
X16779500Y-16610206D01*
X16779501Y-16610215D01*
X16810199Y-16724781D01*
X16810199Y-16724782D01*
X16810200Y-16724784D01*
X16810201Y-16724786D01*
X16869511Y-16827513D01*
X16953387Y-16911389D01*
X17056114Y-16970699D01*
X17170691Y-17001400D01*
X17170694Y-17001400D01*
X17289306Y-17001400D01*
X17289309Y-17001400D01*
X17403886Y-16970699D01*
X17506613Y-16911389D01*
X17521621Y-16896381D01*
X18439500Y-16896381D01*
X18439500Y-17083618D01*
X18476025Y-17267243D01*
X18476028Y-17267253D01*
X18547676Y-17440228D01*
X18547677Y-17440230D01*
X18547678Y-17440231D01*
X18651698Y-17595908D01*
X18784092Y-17728302D01*
X18939769Y-17832322D01*
X19112749Y-17903973D01*
X19185599Y-17918463D01*
X19296381Y-17940500D01*
X19296384Y-17940500D01*
X19483619Y-17940500D01*
X19575851Y-17922153D01*
X19667251Y-17903973D01*
X19840231Y-17832322D01*
X19995908Y-17728302D01*
X20128302Y-17595908D01*
X20232322Y-17440231D01*
X20303973Y-17267251D01*
X20340500Y-17083616D01*
X20340500Y-16896384D01*
X20340500Y-16896381D01*
X20303974Y-16712756D01*
X20303973Y-16712749D01*
X20232322Y-16539769D01*
X20128302Y-16384092D01*
X19995908Y-16251698D01*
X19840231Y-16147678D01*
X19840230Y-16147677D01*
X19840228Y-16147676D01*
X19667253Y-16076028D01*
X19667254Y-16076028D01*
X19667251Y-16076027D01*
X19667247Y-16076026D01*
X19667243Y-16076025D01*
X19483619Y-16039500D01*
X19483616Y-16039500D01*
X19296384Y-16039500D01*
X19296381Y-16039500D01*
X19112756Y-16076025D01*
X19112746Y-16076028D01*
X18939771Y-16147676D01*
X18784090Y-16251699D01*
X18651699Y-16384090D01*
X18547676Y-16539771D01*
X18476028Y-16712746D01*
X18476025Y-16712756D01*
X18439500Y-16896381D01*
X17521621Y-16896381D01*
X17590489Y-16827513D01*
X17649799Y-16724786D01*
X17680500Y-16610209D01*
X17680500Y-16491591D01*
X17649799Y-16377014D01*
X17590489Y-16274287D01*
X17506613Y-16190411D01*
X17403886Y-16131101D01*
X17403883Y-16131100D01*
X17403881Y-16131099D01*
X17289315Y-16100401D01*
X17289311Y-16100400D01*
X17289309Y-16100400D01*
X17170691Y-16100400D01*
X17170689Y-16100400D01*
X17170684Y-16100401D01*
X17056118Y-16131099D01*
X17056117Y-16131099D01*
X16953385Y-16190412D01*
X16869512Y-16274285D01*
X16810199Y-16377017D01*
X16810199Y-16377018D01*
X16779501Y-16491584D01*
X16779500Y-16491593D01*
X2420132Y-16491593D01*
X2348302Y-16384092D01*
X2215908Y-16251698D01*
X2060231Y-16147678D01*
X2060230Y-16147677D01*
X2060228Y-16147676D01*
X1887253Y-16076028D01*
X1887254Y-16076028D01*
X1887251Y-16076027D01*
X1887247Y-16076026D01*
X1887243Y-16076025D01*
X1703619Y-16039500D01*
X1703616Y-16039500D01*
X1516384Y-16039500D01*
X1516381Y-16039500D01*
X1332756Y-16076025D01*
X1332746Y-16076028D01*
X1159771Y-16147676D01*
X1004090Y-16251699D01*
X871699Y-16384090D01*
X767676Y-16539771D01*
X696028Y-16712746D01*
X696025Y-16712756D01*
X659500Y-16896381D01*
X400000Y-16896381D01*
X400000Y-14680769D01*
X418745Y-14635514D01*
X464000Y-14616769D01*
X509255Y-14635514D01*
X526770Y-14668284D01*
X541597Y-14742829D01*
X541606Y-14742863D01*
X558955Y-14800057D01*
X558960Y-14800070D01*
X619261Y-14945650D01*
X619268Y-14945665D01*
X647445Y-14998381D01*
X647461Y-14998407D01*
X700047Y-15077107D01*
X700048Y-15077108D01*
X1141980Y-14635175D01*
X1144075Y-14642993D01*
X1209901Y-14757007D01*
X1302993Y-14850099D01*
X1417007Y-14915925D01*
X1424823Y-14918019D01*
X982891Y-15359950D01*
X1061601Y-15412543D01*
X1061618Y-15412554D01*
X1114334Y-15440731D01*
X1114349Y-15440738D01*
X1259929Y-15501039D01*
X1259942Y-15501044D01*
X1317136Y-15518393D01*
X1317166Y-15518401D01*
X1471695Y-15549138D01*
X1471703Y-15549139D01*
X1531207Y-15555000D01*
X2249765Y-15555000D01*
X2256824Y-15554919D01*
X2366503Y-15531782D01*
X2396509Y-15519353D01*
X2396509Y-15519352D01*
X1795176Y-14918019D01*
X1802993Y-14915925D01*
X1917007Y-14850099D01*
X2010099Y-14757007D01*
X2075925Y-14642993D01*
X2078019Y-14635176D01*
X2679352Y-15236509D01*
X2679353Y-15236509D01*
X2691769Y-15206535D01*
X2694405Y-15199957D01*
X2694405Y-15199956D01*
X2714999Y-15089784D01*
X2715000Y-15089782D01*
X2715000Y-13810235D01*
X2714919Y-13803175D01*
X2691782Y-13693494D01*
X2679353Y-13663489D01*
X2078019Y-14264822D01*
X2075925Y-14257007D01*
X2010099Y-14142993D01*
X1917007Y-14049901D01*
X1802993Y-13984075D01*
X1795174Y-13981980D01*
X2396510Y-13380645D01*
X2366538Y-13368232D01*
X2359957Y-13365594D01*
X2249784Y-13345000D01*
X1531207Y-13345000D01*
X1471703Y-13350860D01*
X1471695Y-13350861D01*
X1317166Y-13381598D01*
X1317136Y-13381606D01*
X1259942Y-13398955D01*
X1259929Y-13398960D01*
X1114349Y-13459261D01*
X1114334Y-13459268D01*
X1061618Y-13487445D01*
X1061592Y-13487461D01*
X982891Y-13540047D01*
X982891Y-13540048D01*
X1424823Y-13981980D01*
X1417007Y-13984075D01*
X1302993Y-14049901D01*
X1209901Y-14142993D01*
X1144075Y-14257007D01*
X1141980Y-14264823D01*
X700048Y-13822891D01*
X700047Y-13822891D01*
X647461Y-13901592D01*
X647445Y-13901618D01*
X619268Y-13954334D01*
X619261Y-13954349D01*
X558960Y-14099929D01*
X558955Y-14099942D01*
X541606Y-14157136D01*
X541598Y-14157166D01*
X526770Y-14231716D01*
X499557Y-14272444D01*
X451514Y-14282000D01*
X410786Y-14254787D01*
X400000Y-14219230D01*
X400000Y-13522843D01*
X400000Y-11816381D01*
X659500Y-11816381D01*
X659500Y-12003618D01*
X696025Y-12187243D01*
X696028Y-12187253D01*
X767676Y-12360228D01*
X767677Y-12360230D01*
X767678Y-12360231D01*
X871698Y-12515908D01*
X1004092Y-12648302D01*
X1159769Y-12752322D01*
X1332749Y-12823973D01*
X1405599Y-12838463D01*
X1516381Y-12860500D01*
X1516384Y-12860500D01*
X1703619Y-12860500D01*
X1795851Y-12842153D01*
X1887251Y-12823973D01*
X2060231Y-12752322D01*
X2215908Y-12648302D01*
X2348302Y-12515908D01*
X2452322Y-12360231D01*
X2523973Y-12187251D01*
X2560500Y-12003616D01*
X2560500Y-11816384D01*
X2560500Y-11816381D01*
X2528558Y-11655799D01*
X2523973Y-11632749D01*
X2452322Y-11459769D01*
X2348302Y-11304092D01*
X2215908Y-11171698D01*
X2177438Y-11145993D01*
X3141900Y-11145993D01*
X3141900Y-11264606D01*
X3141901Y-11264615D01*
X3172599Y-11379181D01*
X3172599Y-11379182D01*
X3172600Y-11379184D01*
X3172601Y-11379186D01*
X3231911Y-11481913D01*
X3315787Y-11565789D01*
X3418514Y-11625099D01*
X3533091Y-11655800D01*
X3533094Y-11655800D01*
X3651706Y-11655800D01*
X3651709Y-11655800D01*
X3651717Y-11655798D01*
X3653373Y-11655354D01*
X3673025Y-11650088D01*
X3721588Y-11656479D01*
X3734846Y-11666651D01*
X5827579Y-13759384D01*
X5827582Y-13759388D01*
X5831230Y-13763036D01*
X5894664Y-13826470D01*
X5918939Y-13836525D01*
X5977545Y-13860801D01*
X5977547Y-13860801D01*
X6074703Y-13860801D01*
X6074711Y-13860800D01*
X8753050Y-13860800D01*
X8798305Y-13879545D01*
X8808475Y-13892799D01*
X8819510Y-13911913D01*
X8819513Y-13911916D01*
X8854692Y-13947094D01*
X8873438Y-13992348D01*
X8854693Y-14037603D01*
X8854693Y-14037604D01*
X8779412Y-14112885D01*
X8720099Y-14215617D01*
X8720099Y-14215618D01*
X8689401Y-14330184D01*
X8689400Y-14330193D01*
X8689400Y-14448806D01*
X8689401Y-14448815D01*
X8720099Y-14563381D01*
X8720099Y-14563382D01*
X8720100Y-14563384D01*
X8720101Y-14563386D01*
X8779411Y-14666113D01*
X8863287Y-14749989D01*
X8966014Y-14809299D01*
X9080591Y-14840000D01*
X9080594Y-14840000D01*
X9199206Y-14840000D01*
X9199209Y-14840000D01*
X9313786Y-14809299D01*
X9416513Y-14749989D01*
X9500389Y-14666113D01*
X9559699Y-14563386D01*
X9590400Y-14448809D01*
X9590400Y-14330191D01*
X9559699Y-14215614D01*
X9500389Y-14112887D01*
X9465207Y-14077705D01*
X9446462Y-14032450D01*
X9465207Y-13987195D01*
X9502402Y-13950000D01*
X9540489Y-13911913D01*
X9599799Y-13809186D01*
X9612165Y-13763036D01*
X9630499Y-13694613D01*
X9630500Y-13694606D01*
X9630500Y-13575993D01*
X9630498Y-13575984D01*
X9599800Y-13461418D01*
X9599800Y-13461417D01*
X9599799Y-13461416D01*
X9599799Y-13461414D01*
X9540489Y-13358687D01*
X9456613Y-13274811D01*
X9353886Y-13215501D01*
X9353883Y-13215500D01*
X9353881Y-13215499D01*
X9239315Y-13184801D01*
X9239311Y-13184800D01*
X9239309Y-13184800D01*
X9120691Y-13184800D01*
X9120689Y-13184800D01*
X9120684Y-13184801D01*
X9006118Y-13215499D01*
X9006117Y-13215499D01*
X8903385Y-13274812D01*
X8819510Y-13358687D01*
X8808475Y-13377801D01*
X8769613Y-13407620D01*
X8753050Y-13409800D01*
X6142315Y-13409800D01*
X6097060Y-13391055D01*
X4522386Y-11816381D01*
X18439500Y-11816381D01*
X18439500Y-12003618D01*
X18476025Y-12187243D01*
X18476028Y-12187253D01*
X18547676Y-12360228D01*
X18547677Y-12360230D01*
X18547678Y-12360231D01*
X18651698Y-12515908D01*
X18784092Y-12648302D01*
X18939769Y-12752322D01*
X19112749Y-12823973D01*
X19185599Y-12838463D01*
X19296381Y-12860500D01*
X19296384Y-12860500D01*
X19483619Y-12860500D01*
X19575851Y-12842153D01*
X19667251Y-12823973D01*
X19840231Y-12752322D01*
X19995908Y-12648302D01*
X20128302Y-12515908D01*
X20232322Y-12360231D01*
X20303973Y-12187251D01*
X20340500Y-12003616D01*
X20340500Y-11816384D01*
X20340500Y-11816381D01*
X20308558Y-11655799D01*
X20303973Y-11632749D01*
X20232322Y-11459769D01*
X20128302Y-11304092D01*
X19995908Y-11171698D01*
X19840231Y-11067678D01*
X19840230Y-11067677D01*
X19840228Y-11067676D01*
X19667253Y-10996028D01*
X19667254Y-10996028D01*
X19667251Y-10996027D01*
X19667247Y-10996026D01*
X19667243Y-10996025D01*
X19483619Y-10959500D01*
X19483616Y-10959500D01*
X19296384Y-10959500D01*
X19296381Y-10959500D01*
X19112756Y-10996025D01*
X19112746Y-10996028D01*
X18939771Y-11067676D01*
X18784090Y-11171699D01*
X18651699Y-11304090D01*
X18547676Y-11459771D01*
X18476028Y-11632746D01*
X18476025Y-11632756D01*
X18439500Y-11816381D01*
X4522386Y-11816381D01*
X4053751Y-11347746D01*
X4035006Y-11302491D01*
X4037187Y-11285929D01*
X4042900Y-11264609D01*
X4042900Y-11145993D01*
X5348500Y-11145993D01*
X5348500Y-11264606D01*
X5348501Y-11264615D01*
X5379199Y-11379181D01*
X5379199Y-11379182D01*
X5379200Y-11379184D01*
X5379201Y-11379186D01*
X5438511Y-11481913D01*
X5522387Y-11565789D01*
X5625114Y-11625099D01*
X5739691Y-11655800D01*
X5739694Y-11655800D01*
X5858306Y-11655800D01*
X5858309Y-11655800D01*
X5972886Y-11625099D01*
X6075613Y-11565789D01*
X6159489Y-11481913D01*
X6218799Y-11379186D01*
X6249500Y-11264609D01*
X6249500Y-11145991D01*
X6247429Y-11138261D01*
X6247429Y-11138260D01*
X6244115Y-11125893D01*
X15597000Y-11125893D01*
X15597000Y-11244506D01*
X15597001Y-11244515D01*
X15627699Y-11359081D01*
X15627699Y-11359082D01*
X15627700Y-11359084D01*
X15627701Y-11359086D01*
X15687011Y-11461813D01*
X15770887Y-11545689D01*
X15873614Y-11604999D01*
X15988191Y-11635700D01*
X15988194Y-11635700D01*
X16106806Y-11635700D01*
X16106809Y-11635700D01*
X16221386Y-11604999D01*
X16324113Y-11545689D01*
X16407989Y-11461813D01*
X16467299Y-11359086D01*
X16498000Y-11244509D01*
X16498000Y-11125891D01*
X16467299Y-11011314D01*
X16407989Y-10908587D01*
X16324113Y-10824711D01*
X16221386Y-10765401D01*
X16221383Y-10765400D01*
X16221381Y-10765399D01*
X16106815Y-10734701D01*
X16106811Y-10734700D01*
X16106809Y-10734700D01*
X15988191Y-10734700D01*
X15988189Y-10734700D01*
X15988184Y-10734701D01*
X15873618Y-10765399D01*
X15873617Y-10765399D01*
X15770885Y-10824712D01*
X15687012Y-10908585D01*
X15627699Y-11011317D01*
X15627699Y-11011318D01*
X15597001Y-11125884D01*
X15597000Y-11125893D01*
X6244115Y-11125893D01*
X6218800Y-11031418D01*
X6218800Y-11031417D01*
X6218799Y-11031416D01*
X6218799Y-11031414D01*
X6159489Y-10928687D01*
X6075613Y-10844811D01*
X5972886Y-10785501D01*
X5972883Y-10785500D01*
X5972881Y-10785499D01*
X5858315Y-10754801D01*
X5858311Y-10754800D01*
X5858309Y-10754800D01*
X5739691Y-10754800D01*
X5739689Y-10754800D01*
X5739684Y-10754801D01*
X5625118Y-10785499D01*
X5625117Y-10785499D01*
X5522385Y-10844812D01*
X5438512Y-10928685D01*
X5379199Y-11031417D01*
X5379199Y-11031418D01*
X5348501Y-11145984D01*
X5348500Y-11145993D01*
X4042900Y-11145993D01*
X4042900Y-11145991D01*
X4012199Y-11031414D01*
X3952889Y-10928687D01*
X3869013Y-10844811D01*
X3766286Y-10785501D01*
X3766283Y-10785500D01*
X3766281Y-10785499D01*
X3651715Y-10754801D01*
X3651711Y-10754800D01*
X3651709Y-10754800D01*
X3533091Y-10754800D01*
X3533089Y-10754800D01*
X3533084Y-10754801D01*
X3418518Y-10785499D01*
X3418517Y-10785499D01*
X3315785Y-10844812D01*
X3231912Y-10928685D01*
X3172599Y-11031417D01*
X3172599Y-11031418D01*
X3141901Y-11145984D01*
X3141900Y-11145993D01*
X2177438Y-11145993D01*
X2060231Y-11067678D01*
X2060230Y-11067677D01*
X2060228Y-11067676D01*
X1887253Y-10996028D01*
X1887254Y-10996028D01*
X1887251Y-10996027D01*
X1887247Y-10996026D01*
X1887243Y-10996025D01*
X1703619Y-10959500D01*
X1703616Y-10959500D01*
X1516384Y-10959500D01*
X1516381Y-10959500D01*
X1332756Y-10996025D01*
X1332746Y-10996028D01*
X1159771Y-11067676D01*
X1004090Y-11171699D01*
X871699Y-11304090D01*
X767676Y-11459771D01*
X696028Y-11632746D01*
X696025Y-11632756D01*
X659500Y-11816381D01*
X400000Y-11816381D01*
X400000Y-9276381D01*
X659500Y-9276381D01*
X659500Y-9463618D01*
X696025Y-9647243D01*
X696028Y-9647253D01*
X767676Y-9820228D01*
X767677Y-9820230D01*
X767678Y-9820231D01*
X871698Y-9975908D01*
X1004092Y-10108302D01*
X1159769Y-10212322D01*
X1332749Y-10283973D01*
X1405599Y-10298463D01*
X1516381Y-10320500D01*
X1516384Y-10320500D01*
X1703619Y-10320500D01*
X1795851Y-10302153D01*
X1887251Y-10283973D01*
X2060231Y-10212322D01*
X2215908Y-10108302D01*
X2348302Y-9975908D01*
X2452322Y-9820231D01*
X2523973Y-9647251D01*
X2560500Y-9463616D01*
X2560500Y-9276384D01*
X2560500Y-9276381D01*
X18439500Y-9276381D01*
X18439500Y-9463618D01*
X18476025Y-9647243D01*
X18476028Y-9647253D01*
X18547676Y-9820228D01*
X18547677Y-9820230D01*
X18547678Y-9820231D01*
X18651698Y-9975908D01*
X18784092Y-10108302D01*
X18939769Y-10212322D01*
X19112749Y-10283973D01*
X19185599Y-10298463D01*
X19296381Y-10320500D01*
X19296384Y-10320500D01*
X19483619Y-10320500D01*
X19575851Y-10302153D01*
X19667251Y-10283973D01*
X19840231Y-10212322D01*
X19995908Y-10108302D01*
X20128302Y-9975908D01*
X20232322Y-9820231D01*
X20303973Y-9647251D01*
X20340500Y-9463616D01*
X20340500Y-9276384D01*
X20340500Y-9276381D01*
X20303974Y-9092756D01*
X20303973Y-9092749D01*
X20232322Y-8919769D01*
X20128302Y-8764092D01*
X19995908Y-8631698D01*
X19840231Y-8527678D01*
X19840230Y-8527677D01*
X19840228Y-8527676D01*
X19667253Y-8456028D01*
X19667254Y-8456028D01*
X19667251Y-8456027D01*
X19667247Y-8456026D01*
X19667243Y-8456025D01*
X19483619Y-8419500D01*
X19483616Y-8419500D01*
X19296384Y-8419500D01*
X19296381Y-8419500D01*
X19112756Y-8456025D01*
X19112746Y-8456028D01*
X18939771Y-8527676D01*
X18784090Y-8631699D01*
X18651699Y-8764090D01*
X18547676Y-8919771D01*
X18476028Y-9092746D01*
X18476025Y-9092756D01*
X18439500Y-9276381D01*
X2560500Y-9276381D01*
X2523974Y-9092756D01*
X2523973Y-9092749D01*
X2452322Y-8919769D01*
X2348302Y-8764092D01*
X2215908Y-8631698D01*
X2060231Y-8527678D01*
X2060230Y-8527677D01*
X2060228Y-8527676D01*
X1887253Y-8456028D01*
X1887254Y-8456028D01*
X1887251Y-8456027D01*
X1887247Y-8456026D01*
X1887243Y-8456025D01*
X1703619Y-8419500D01*
X1703616Y-8419500D01*
X1516384Y-8419500D01*
X1516381Y-8419500D01*
X1332756Y-8456025D01*
X1332746Y-8456028D01*
X1159771Y-8527676D01*
X1004090Y-8631699D01*
X871699Y-8764090D01*
X767676Y-8919771D01*
X696028Y-9092746D01*
X696025Y-9092756D01*
X659500Y-9276381D01*
X400000Y-9276381D01*
X400000Y-6196532D01*
X2449500Y-6196532D01*
X2449500Y-6403467D01*
X2489868Y-6606412D01*
X2489871Y-6606422D01*
X2569058Y-6797598D01*
X2684022Y-6969654D01*
X2830345Y-7115977D01*
X3002401Y-7230941D01*
X3069992Y-7258938D01*
X3193580Y-7310130D01*
X3274094Y-7326145D01*
X3396532Y-7350500D01*
X3396535Y-7350500D01*
X3603468Y-7350500D01*
X3705405Y-7330222D01*
X3806420Y-7310130D01*
X3997598Y-7230941D01*
X4169655Y-7115977D01*
X4315977Y-6969655D01*
X4430941Y-6797598D01*
X4510130Y-6606420D01*
X4550500Y-6403465D01*
X4550500Y-6196535D01*
X4550500Y-6196532D01*
X6449500Y-6196532D01*
X6449500Y-6403467D01*
X6489868Y-6606412D01*
X6489871Y-6606422D01*
X6569058Y-6797598D01*
X6684022Y-6969654D01*
X6830345Y-7115977D01*
X7002401Y-7230941D01*
X7069992Y-7258938D01*
X7193580Y-7310130D01*
X7274094Y-7326145D01*
X7396532Y-7350500D01*
X7396535Y-7350500D01*
X7603468Y-7350500D01*
X7705405Y-7330222D01*
X7806420Y-7310130D01*
X7997598Y-7230941D01*
X8169655Y-7115977D01*
X8315977Y-6969655D01*
X8430941Y-6797598D01*
X8510130Y-6606420D01*
X8550500Y-6403465D01*
X8550500Y-6196535D01*
X8550500Y-6196532D01*
X10449500Y-6196532D01*
X10449500Y-6403467D01*
X10489868Y-6606412D01*
X10489871Y-6606422D01*
X10569058Y-6797598D01*
X10684022Y-6969654D01*
X10830345Y-7115977D01*
X11002401Y-7230941D01*
X11069992Y-7258938D01*
X11193580Y-7310130D01*
X11274094Y-7326145D01*
X11396532Y-7350500D01*
X11396535Y-7350500D01*
X11603468Y-7350500D01*
X11705405Y-7330222D01*
X11806420Y-7310130D01*
X11997598Y-7230941D01*
X12169655Y-7115977D01*
X12315977Y-6969655D01*
X12430941Y-6797598D01*
X12510130Y-6606420D01*
X12550500Y-6403465D01*
X12550500Y-6196535D01*
X12550500Y-6196532D01*
X14449500Y-6196532D01*
X14449500Y-6403467D01*
X14489868Y-6606412D01*
X14489871Y-6606422D01*
X14569058Y-6797598D01*
X14684022Y-6969654D01*
X14830345Y-7115977D01*
X15002401Y-7230941D01*
X15069992Y-7258938D01*
X15193580Y-7310130D01*
X15274094Y-7326145D01*
X15396532Y-7350500D01*
X15396535Y-7350500D01*
X15603468Y-7350500D01*
X15705405Y-7330222D01*
X15806420Y-7310130D01*
X15997598Y-7230941D01*
X16169655Y-7115977D01*
X16315977Y-6969655D01*
X16430941Y-6797598D01*
X16510130Y-6606420D01*
X16550500Y-6403465D01*
X16550500Y-6196535D01*
X16550500Y-6196532D01*
X16510131Y-5993587D01*
X16510130Y-5993580D01*
X16430941Y-5802402D01*
X16430941Y-5802401D01*
X16315977Y-5630345D01*
X16169654Y-5484022D01*
X15997598Y-5369058D01*
X15806422Y-5289871D01*
X15806423Y-5289871D01*
X15806420Y-5289870D01*
X15806416Y-5289869D01*
X15806412Y-5289868D01*
X15603468Y-5249500D01*
X15603465Y-5249500D01*
X15396535Y-5249500D01*
X15396532Y-5249500D01*
X15193587Y-5289868D01*
X15193577Y-5289871D01*
X15002401Y-5369058D01*
X14830345Y-5484022D01*
X14684022Y-5630345D01*
X14569058Y-5802401D01*
X14489871Y-5993577D01*
X14489868Y-5993587D01*
X14449500Y-6196532D01*
X12550500Y-6196532D01*
X12510131Y-5993587D01*
X12510130Y-5993580D01*
X12430941Y-5802402D01*
X12430941Y-5802401D01*
X12315977Y-5630345D01*
X12169654Y-5484022D01*
X11997598Y-5369058D01*
X11806422Y-5289871D01*
X11806423Y-5289871D01*
X11806420Y-5289870D01*
X11806416Y-5289869D01*
X11806412Y-5289868D01*
X11603468Y-5249500D01*
X11603465Y-5249500D01*
X11396535Y-5249500D01*
X11396532Y-5249500D01*
X11193587Y-5289868D01*
X11193577Y-5289871D01*
X11002401Y-5369058D01*
X10830345Y-5484022D01*
X10684022Y-5630345D01*
X10569058Y-5802401D01*
X10489871Y-5993577D01*
X10489868Y-5993587D01*
X10449500Y-6196532D01*
X8550500Y-6196532D01*
X8510131Y-5993587D01*
X8510130Y-5993580D01*
X8430941Y-5802402D01*
X8430941Y-5802401D01*
X8315977Y-5630345D01*
X8169654Y-5484022D01*
X7997598Y-5369058D01*
X7806422Y-5289871D01*
X7806423Y-5289871D01*
X7806420Y-5289870D01*
X7806416Y-5289869D01*
X7806412Y-5289868D01*
X7603468Y-5249500D01*
X7603465Y-5249500D01*
X7396535Y-5249500D01*
X7396532Y-5249500D01*
X7193587Y-5289868D01*
X7193577Y-5289871D01*
X7002401Y-5369058D01*
X6830345Y-5484022D01*
X6684022Y-5630345D01*
X6569058Y-5802401D01*
X6489871Y-5993577D01*
X6489868Y-5993587D01*
X6449500Y-6196532D01*
X4550500Y-6196532D01*
X4510131Y-5993587D01*
X4510130Y-5993580D01*
X4430941Y-5802402D01*
X4430941Y-5802401D01*
X4315977Y-5630345D01*
X4169654Y-5484022D01*
X3997598Y-5369058D01*
X3806422Y-5289871D01*
X3806423Y-5289871D01*
X3806420Y-5289870D01*
X3806416Y-5289869D01*
X3806412Y-5289868D01*
X3603468Y-5249500D01*
X3603465Y-5249500D01*
X3396535Y-5249500D01*
X3396532Y-5249500D01*
X3193587Y-5289868D01*
X3193577Y-5289871D01*
X3002401Y-5369058D01*
X2830345Y-5484022D01*
X2684022Y-5630345D01*
X2569058Y-5802401D01*
X2489871Y-5993577D01*
X2489868Y-5993587D01*
X2449500Y-6196532D01*
X400000Y-6196532D01*
X400000Y-3665560D01*
X4300000Y-3665560D01*
X4300000Y-3854439D01*
X4329547Y-4041000D01*
X4387915Y-4220637D01*
X4387918Y-4220646D01*
X4473663Y-4388930D01*
X4473668Y-4388937D01*
X4521871Y-4455283D01*
X4521872Y-4455283D01*
X4993843Y-3983311D01*
X5059890Y-4097708D01*
X5162292Y-4200110D01*
X5276686Y-4266154D01*
X4804715Y-4738126D01*
X4804715Y-4738127D01*
X4871062Y-4786331D01*
X4871069Y-4786336D01*
X5039353Y-4872081D01*
X5039362Y-4872084D01*
X5218999Y-4930452D01*
X5405561Y-4960000D01*
X5594439Y-4960000D01*
X5781000Y-4930452D01*
X5960637Y-4872084D01*
X5960646Y-4872081D01*
X6128930Y-4786336D01*
X6195283Y-4738126D01*
X5723312Y-4266155D01*
X5837708Y-4200110D01*
X5940110Y-4097708D01*
X6006155Y-3983312D01*
X6478126Y-4455282D01*
X6526336Y-4388930D01*
X6612081Y-4220646D01*
X6612084Y-4220637D01*
X6670452Y-4041000D01*
X6700000Y-3854439D01*
X6700000Y-3665564D01*
X6699658Y-3663406D01*
X6699658Y-3663402D01*
X6698570Y-3656532D01*
X8449500Y-3656532D01*
X8449500Y-3863467D01*
X8489868Y-4066412D01*
X8489871Y-4066422D01*
X8569058Y-4257598D01*
X8684022Y-4429654D01*
X8830345Y-4575977D01*
X9002401Y-4690941D01*
X9069471Y-4718722D01*
X9193580Y-4770130D01*
X9274094Y-4786145D01*
X9396532Y-4810500D01*
X9396535Y-4810500D01*
X9603468Y-4810500D01*
X9724946Y-4786336D01*
X9806420Y-4770130D01*
X9997598Y-4690941D01*
X10169655Y-4575977D01*
X10315977Y-4429655D01*
X10430941Y-4257598D01*
X10510130Y-4066420D01*
X10550500Y-3863465D01*
X10550500Y-3656535D01*
X10550500Y-3656532D01*
X12449500Y-3656532D01*
X12449500Y-3863467D01*
X12489868Y-4066412D01*
X12489871Y-4066422D01*
X12569058Y-4257598D01*
X12684022Y-4429654D01*
X12830345Y-4575977D01*
X13002401Y-4690941D01*
X13069471Y-4718722D01*
X13193580Y-4770130D01*
X13274094Y-4786145D01*
X13396532Y-4810500D01*
X13396535Y-4810500D01*
X13603468Y-4810500D01*
X13724946Y-4786336D01*
X13806420Y-4770130D01*
X13997598Y-4690941D01*
X14169655Y-4575977D01*
X14315977Y-4429655D01*
X14430941Y-4257598D01*
X14510130Y-4066420D01*
X14550500Y-3863465D01*
X14550500Y-3656535D01*
X14550500Y-3656532D01*
X14515186Y-3478999D01*
X14510130Y-3453580D01*
X14458938Y-3329992D01*
X14430941Y-3262401D01*
X14315977Y-3090345D01*
X14169654Y-2944022D01*
X14096661Y-2895250D01*
X14021723Y-2845178D01*
X16449500Y-2845178D01*
X16449500Y-4674821D01*
X16458233Y-4718722D01*
X16458234Y-4718724D01*
X16491494Y-4768502D01*
X16491497Y-4768505D01*
X16541275Y-4801765D01*
X16541278Y-4801767D01*
X16576446Y-4808762D01*
X16585179Y-4810500D01*
X16585180Y-4810500D01*
X18414821Y-4810500D01*
X18422104Y-4809050D01*
X18458722Y-4801767D01*
X18508504Y-4768504D01*
X18541767Y-4718722D01*
X18550500Y-4674820D01*
X18550500Y-2845180D01*
X18541767Y-2801278D01*
X18541765Y-2801275D01*
X18508505Y-2751497D01*
X18508502Y-2751494D01*
X18458724Y-2718234D01*
X18458722Y-2718233D01*
X18414821Y-2709500D01*
X18414820Y-2709500D01*
X16585180Y-2709500D01*
X16585179Y-2709500D01*
X16541277Y-2718233D01*
X16541275Y-2718234D01*
X16491497Y-2751494D01*
X16491494Y-2751497D01*
X16458234Y-2801275D01*
X16458233Y-2801277D01*
X16449500Y-2845178D01*
X14021723Y-2845178D01*
X13997598Y-2829058D01*
X13810345Y-2751496D01*
X13806420Y-2749870D01*
X13806416Y-2749869D01*
X13806412Y-2749868D01*
X13603468Y-2709500D01*
X13603465Y-2709500D01*
X13396535Y-2709500D01*
X13396532Y-2709500D01*
X13193587Y-2749868D01*
X13193577Y-2749871D01*
X13002401Y-2829058D01*
X12830345Y-2944022D01*
X12684022Y-3090345D01*
X12569058Y-3262401D01*
X12489871Y-3453577D01*
X12489868Y-3453587D01*
X12449500Y-3656532D01*
X10550500Y-3656532D01*
X10515186Y-3478999D01*
X10510130Y-3453580D01*
X10458938Y-3329992D01*
X10430941Y-3262401D01*
X10315977Y-3090345D01*
X10169654Y-2944022D01*
X9997598Y-2829058D01*
X9810345Y-2751496D01*
X9806420Y-2749870D01*
X9806416Y-2749869D01*
X9806412Y-2749868D01*
X9603468Y-2709500D01*
X9603465Y-2709500D01*
X9396535Y-2709500D01*
X9396532Y-2709500D01*
X9193587Y-2749868D01*
X9193577Y-2749871D01*
X9002401Y-2829058D01*
X8830345Y-2944022D01*
X8684022Y-3090345D01*
X8569058Y-3262401D01*
X8489871Y-3453577D01*
X8489868Y-3453587D01*
X8449500Y-3656532D01*
X6698570Y-3656532D01*
X6670452Y-3479000D01*
X6612084Y-3299362D01*
X6612081Y-3299353D01*
X6526336Y-3131069D01*
X6526331Y-3131062D01*
X6478127Y-3064715D01*
X6478126Y-3064715D01*
X6006154Y-3536686D01*
X5940110Y-3422292D01*
X5837708Y-3319890D01*
X5723311Y-3253843D01*
X6195283Y-2781872D01*
X6195283Y-2781871D01*
X6128937Y-2733668D01*
X6128930Y-2733663D01*
X5960646Y-2647918D01*
X5960637Y-2647915D01*
X5781000Y-2589547D01*
X5594439Y-2560000D01*
X5405561Y-2560000D01*
X5218999Y-2589547D01*
X5039362Y-2647915D01*
X5039353Y-2647918D01*
X4871069Y-2733663D01*
X4871062Y-2733668D01*
X4804715Y-2781871D01*
X4804715Y-2781872D01*
X5276687Y-3253844D01*
X5162292Y-3319890D01*
X5059890Y-3422292D01*
X4993844Y-3536687D01*
X4521872Y-3064715D01*
X4521871Y-3064715D01*
X4473668Y-3131062D01*
X4473663Y-3131069D01*
X4387918Y-3299353D01*
X4387915Y-3299362D01*
X4329547Y-3478999D01*
X4300000Y-3665560D01*
X400000Y-3665560D01*
X400000Y-464000D01*
X418745Y-418745D01*
X464000Y-400000D01*
X20536000Y-400000D01*
X20581255Y-418745D01*
G37*
%TD.AperFunction*%
%TD*%
M02*
