%TF.GenerationSoftware,KiCad,Pcbnew,10.0.5*%
%TF.CreationDate,2026-08-23T13:32:25+09:00*%
%TF.ProjectId,MotoRecoPico,4d6f746f-5265-4636-9f50-69636f2e6b69,rev?*%
%TF.SameCoordinates,Original*%
%TF.FileFunction,Legend,Top*%
%TF.FilePolarity,Positive*%
%FSLAX46Y46*%
G04 Gerber Fmt 4.6, Leading zero omitted, Abs format (unit mm)*
G04 Created by KiCad (PCBNEW 10.0.5) date 2026-08-23 13:32:25*
%MOMM*%
%LPD*%
G01*
G04 APERTURE LIST*
%ADD10C,0.120000*%
G04 APERTURE END LIST*
%TO.C,R3*%
D10*
X8167742Y-9732500D02*
X8642258Y-9732500D01*
X8167742Y-10777500D02*
X8642258Y-10777500D01*
%TO.C,J2*%
X3525000Y-43715000D02*
X3525000Y-47325000D01*
X3525000Y-49025000D02*
X3525000Y-53725000D01*
X3525000Y-55025000D02*
X3525000Y-56825000D01*
X3975000Y-43715000D02*
X3525000Y-43715000D01*
X4555000Y-59985000D02*
X4355000Y-59785000D01*
X4555000Y-59985000D02*
X6415000Y-59985000D01*
X6415000Y-59985000D02*
X6625000Y-59785000D01*
X6625000Y-59635000D02*
X6625000Y-59785000D01*
X6625000Y-59635000D02*
X12995000Y-59635000D01*
X13505000Y-59985000D02*
X12995000Y-59635000D01*
X15575000Y-43715000D02*
X17495000Y-43715000D01*
X15815000Y-59985000D02*
X13505000Y-59985000D01*
X15815000Y-59985000D02*
X16015000Y-59785000D01*
X16015000Y-59785000D02*
X16275000Y-59785000D01*
X17495000Y-43715000D02*
X17495000Y-57725000D01*
%TO.C,J1*%
X800000Y-200000D02*
X20200000Y-200000D01*
X800000Y-8000000D02*
X800000Y-200000D01*
X19100000Y-2400000D02*
X19900000Y-2400000D01*
X20200000Y-200000D02*
X20200000Y-8000000D01*
X20200000Y-8000000D02*
X800000Y-8000000D01*
%TO.C,C8*%
X16340000Y-35259420D02*
X16340000Y-35540580D01*
X17360000Y-35259420D02*
X17360000Y-35540580D01*
%TO.C,U2*%
X5290000Y-23240000D02*
X5815000Y-23240000D01*
X5290000Y-28760000D02*
X5290000Y-23240000D01*
X5815000Y-28760000D02*
X5290000Y-28760000D01*
X15185000Y-23240000D02*
X15710000Y-23240000D01*
X15710000Y-23240000D02*
X15710000Y-28760000D01*
X15710000Y-28760000D02*
X15185000Y-28760000D01*
X5810000Y-29500000D02*
X5340000Y-29840000D01*
X5340000Y-29160000D01*
X5810000Y-29500000D01*
G36*
X5810000Y-29500000D02*
G01*
X5340000Y-29840000D01*
X5340000Y-29160000D01*
X5810000Y-29500000D01*
G37*
%TO.C,C13*%
X8264420Y-11995000D02*
X8545580Y-11995000D01*
X8264420Y-13015000D02*
X8545580Y-13015000D01*
%TO.C,C11*%
X4514420Y-39245000D02*
X4795580Y-39245000D01*
X4514420Y-40265000D02*
X4795580Y-40265000D01*
%TO.C,C10*%
X8264420Y-39245000D02*
X8545580Y-39245000D01*
X8264420Y-40265000D02*
X8545580Y-40265000D01*
%TO.C,R15*%
X4417742Y-31732500D02*
X4892258Y-31732500D01*
X4417742Y-32777500D02*
X4892258Y-32777500D01*
%TO.C,R7*%
X12417742Y-16982500D02*
X12892258Y-16982500D01*
X12417742Y-18027500D02*
X12892258Y-18027500D01*
%TO.C,C2*%
X16545000Y-11145580D02*
X16545000Y-10864420D01*
X17565000Y-11145580D02*
X17565000Y-10864420D01*
%TO.C,R2*%
X4417742Y-11982500D02*
X4892258Y-11982500D01*
X4417742Y-13027500D02*
X4892258Y-13027500D01*
%TO.C,R11*%
X15667742Y-39232500D02*
X16142258Y-39232500D01*
X15667742Y-40277500D02*
X16142258Y-40277500D01*
%TO.C,R12*%
X9917742Y-36982500D02*
X10392258Y-36982500D01*
X9917742Y-38027500D02*
X10392258Y-38027500D01*
%TO.C,R13*%
X6632500Y-36992258D02*
X6632500Y-36517742D01*
X7677500Y-36992258D02*
X7677500Y-36517742D01*
%TO.C,C7*%
X12640000Y-35540580D02*
X12640000Y-35259420D01*
X13660000Y-35540580D02*
X13660000Y-35259420D01*
%TO.C,R4*%
X11917742Y-9732500D02*
X12392258Y-9732500D01*
X11917742Y-10777500D02*
X12392258Y-10777500D01*
%TO.C,C4*%
X16264420Y-19245000D02*
X16545580Y-19245000D01*
X16264420Y-20265000D02*
X16545580Y-20265000D01*
%TO.C,R10*%
X11917742Y-39232500D02*
X12392258Y-39232500D01*
X11917742Y-40277500D02*
X12392258Y-40277500D01*
%TO.C,R1*%
X4417742Y-9732500D02*
X4892258Y-9732500D01*
X4417742Y-10777500D02*
X4892258Y-10777500D01*
%TO.C,C5*%
X12514420Y-19245000D02*
X12795580Y-19245000D01*
X12514420Y-20265000D02*
X12795580Y-20265000D01*
%TO.C,C3*%
X4514420Y-19245000D02*
X4795580Y-19245000D01*
X4514420Y-20265000D02*
X4795580Y-20265000D01*
%TO.C,C6*%
X9145000Y-19145580D02*
X9145000Y-18864420D01*
X10165000Y-19145580D02*
X10165000Y-18864420D01*
%TO.C,R14*%
X9917742Y-34732500D02*
X10392258Y-34732500D01*
X9917742Y-35777500D02*
X10392258Y-35777500D01*
%TO.C,R6*%
X16167742Y-16982500D02*
X16642258Y-16982500D01*
X16167742Y-18027500D02*
X16642258Y-18027500D01*
%TO.C,R8*%
X8167742Y-31732500D02*
X8642258Y-31732500D01*
X8167742Y-32777500D02*
X8642258Y-32777500D01*
%TD*%
M02*
