%TF.GenerationSoftware,KiCad,Pcbnew,10.0.5*%
%TF.CreationDate,2026-08-23T13:32:25+09:00*%
%TF.ProjectId,MotoRecoPico,4d6f746f-5265-4636-9f50-69636f2e6b69,rev?*%
%TF.SameCoordinates,Original*%
%TF.FileFunction,Copper,L4,Bot*%
%TF.FilePolarity,Positive*%
%FSLAX46Y46*%
G04 Gerber Fmt 4.6, Leading zero omitted, Abs format (unit mm)*
G04 Created by KiCad (PCBNEW 10.0.5) date 2026-08-23 13:32:25*
%MOMM*%
%LPD*%
G01*
G04 APERTURE LIST*
G04 Aperture macros list*
%AMRoundRect*
0 Rectangle with rounded corners*
0 $1 Rounding radius*
0 $2 $3 $4 $5 $6 $7 $8 $9 X,Y pos of 4 corners*
0 Add a 4 corners polygon primitive as box body*
4,1,4,$2,$3,$4,$5,$6,$7,$8,$9,$2,$3,0*
0 Add four circle primitives for the rounded corners*
1,1,$1+$1,$2,$3*
1,1,$1+$1,$4,$5*
1,1,$1+$1,$6,$7*
1,1,$1+$1,$8,$9*
0 Add four rect primitives between the rounded corners*
20,1,$1+$1,$2,$3,$4,$5,0*
20,1,$1+$1,$4,$5,$6,$7,0*
20,1,$1+$1,$6,$7,$8,$9,0*
20,1,$1+$1,$8,$9,$2,$3,0*%
%AMFreePoly0*
4,1,37,0.603843,0.796157,0.639018,0.796157,0.711114,0.766294,0.766294,0.711114,0.796157,0.639018,0.796157,0.603843,0.800000,0.600000,0.800000,-0.600000,0.796157,-0.603843,0.796157,-0.639018,0.766294,-0.711114,0.711114,-0.766294,0.639018,-0.796157,0.603843,-0.796157,0.600000,-0.800000,0.000000,-0.800000,0.000000,-0.796148,-0.078414,-0.796148,-0.232228,-0.765552,-0.377117,-0.705537,
-0.507515,-0.618408,-0.618408,-0.507515,-0.705537,-0.377117,-0.765552,-0.232228,-0.796148,-0.078414,-0.796148,0.078414,-0.765552,0.232228,-0.705537,0.377117,-0.618408,0.507515,-0.507515,0.618408,-0.377117,0.705537,-0.232228,0.765552,-0.078414,0.796148,0.000000,0.796148,0.000000,0.800000,0.600000,0.800000,0.603843,0.796157,0.603843,0.796157,$1*%
%AMFreePoly1*
4,1,37,0.000000,0.796148,0.078414,0.796148,0.232228,0.765552,0.377117,0.705537,0.507515,0.618408,0.618408,0.507515,0.705537,0.377117,0.765552,0.232228,0.796148,0.078414,0.796148,-0.078414,0.765552,-0.232228,0.705537,-0.377117,0.618408,-0.507515,0.507515,-0.618408,0.377117,-0.705537,0.232228,-0.765552,0.078414,-0.796148,0.000000,-0.796148,0.000000,-0.800000,-0.600000,-0.800000,
-0.603843,-0.796157,-0.639018,-0.796157,-0.711114,-0.766294,-0.766294,-0.711114,-0.796157,-0.639018,-0.796157,-0.603843,-0.800000,-0.600000,-0.800000,0.600000,-0.796157,0.603843,-0.796157,0.639018,-0.766294,0.711114,-0.711114,0.766294,-0.639018,0.796157,-0.603843,0.796157,-0.600000,0.800000,0.000000,0.800000,0.000000,0.796148,0.000000,0.796148,$1*%
G04 Aperture macros list end*
%TA.AperFunction,ComponentPad*%
%ADD10R,1.800000X1.800000*%
%TD*%
%TA.AperFunction,ComponentPad*%
%ADD11C,1.800000*%
%TD*%
%TA.AperFunction,SMDPad,CuDef*%
%ADD12RoundRect,0.250000X1.000000X0.650000X-1.000000X0.650000X-1.000000X-0.650000X1.000000X-0.650000X0*%
%TD*%
%TA.AperFunction,SMDPad,CuDef*%
%ADD13RoundRect,0.250000X0.250000X0.475000X-0.250000X0.475000X-0.250000X-0.475000X0.250000X-0.475000X0*%
%TD*%
%TA.AperFunction,SMDPad,CuDef*%
%ADD14R,3.000000X2.000000*%
%TD*%
%TA.AperFunction,SMDPad,CuDef*%
%ADD15RoundRect,0.225000X0.225000X0.375000X-0.225000X0.375000X-0.225000X-0.375000X0.225000X-0.375000X0*%
%TD*%
%TA.AperFunction,ComponentPad*%
%ADD16RoundRect,0.200000X-0.600000X-0.600000X0.600000X-0.600000X0.600000X0.600000X-0.600000X0.600000X0*%
%TD*%
%TA.AperFunction,ComponentPad*%
%ADD17C,1.600000*%
%TD*%
%TA.AperFunction,ComponentPad*%
%ADD18FreePoly0,0.000000*%
%TD*%
%TA.AperFunction,ComponentPad*%
%ADD19FreePoly1,0.000000*%
%TD*%
%TA.AperFunction,SMDPad,CuDef*%
%ADD20RoundRect,0.162500X0.162500X-0.837500X0.162500X0.837500X-0.162500X0.837500X-0.162500X-0.837500X0*%
%TD*%
%TA.AperFunction,SMDPad,CuDef*%
%ADD21RoundRect,0.150000X0.587500X0.150000X-0.587500X0.150000X-0.587500X-0.150000X0.587500X-0.150000X0*%
%TD*%
%TA.AperFunction,SMDPad,CuDef*%
%ADD22RoundRect,0.250000X-0.650000X0.325000X-0.650000X-0.325000X0.650000X-0.325000X0.650000X0.325000X0*%
%TD*%
%TA.AperFunction,SMDPad,CuDef*%
%ADD23R,1.400000X0.900000*%
%TD*%
%TA.AperFunction,SMDPad,CuDef*%
%ADD24RoundRect,0.162500X0.837500X0.162500X-0.837500X0.162500X-0.837500X-0.162500X0.837500X-0.162500X0*%
%TD*%
%TA.AperFunction,SMDPad,CuDef*%
%ADD25R,3.400000X2.100000*%
%TD*%
%TA.AperFunction,SMDPad,CuDef*%
%ADD26RoundRect,0.250000X-0.375000X-0.625000X0.375000X-0.625000X0.375000X0.625000X-0.375000X0.625000X0*%
%TD*%
%TA.AperFunction,SMDPad,CuDef*%
%ADD27RoundRect,0.250000X0.475000X-0.250000X0.475000X0.250000X-0.475000X0.250000X-0.475000X-0.250000X0*%
%TD*%
%TA.AperFunction,ComponentPad*%
%ADD28C,1.500000*%
%TD*%
%TA.AperFunction,ViaPad*%
%ADD29C,0.600000*%
%TD*%
%TA.AperFunction,Conductor*%
%ADD30C,0.150000*%
%TD*%
G04 APERTURE END LIST*
D10*
%TO.P,J1,1*%
%TO.N,N/C*%
X17500000Y-3760000D03*
D11*
%TO.P,J1,2*%
X13500000Y-3760000D03*
%TO.P,J1,3*%
%TO.N,IG_RAW*%
X9500000Y-3760000D03*
%TO.P,J1,4*%
%TO.N,GND*%
X5500000Y-3760000D03*
%TO.P,J1,5*%
%TO.N,CANL*%
X15500000Y-6300000D03*
%TO.P,J1,6*%
%TO.N,CANH*%
X11500000Y-6300000D03*
%TO.P,J1,7*%
%TO.N,N/C*%
X7500000Y-6300000D03*
%TO.P,J1,8*%
%TO.N,V12_RAW*%
X3500000Y-6300000D03*
%TD*%
D12*
%TO.P,D2,1*%
%TO.N,V12P*%
X9525000Y-27075000D03*
%TO.P,D2,2*%
%TO.N,GND*%
X5525000Y-27075000D03*
%TD*%
D13*
%TO.P,C15,1*%
%TO.N,V5*%
X6875000Y-23555000D03*
%TO.P,C15,2*%
%TO.N,GND*%
X4975000Y-23555000D03*
%TD*%
D14*
%TO.P,J3,1*%
%TO.N,V3V3*%
X15000000Y-55080000D03*
%TO.P,J3,2*%
%TO.N,GND*%
X15000000Y-52540000D03*
%TO.P,J3,3*%
%TO.N,GPS_TX*%
X15000000Y-50000000D03*
%TO.P,J3,4*%
%TO.N,GPS_RX*%
X15000000Y-47460000D03*
%TO.P,J3,5*%
%TO.N,GPS_PPS*%
X15000000Y-44920000D03*
%TD*%
D15*
%TO.P,D1,1*%
%TO.N,V12P*%
X11850000Y-9750000D03*
%TO.P,D1,2*%
%TO.N,V12_FUSED*%
X8550000Y-9750000D03*
%TD*%
%TO.P,D3,1*%
%TO.N,VSYS*%
X8025000Y-35925000D03*
%TO.P,D3,2*%
%TO.N,V5*%
X4725000Y-35925000D03*
%TD*%
D16*
%TO.P,U3,1*%
%TO.N,GPS_TX*%
X1610000Y-57630000D03*
D17*
%TO.P,U3,2*%
%TO.N,GPS_RX*%
X1610000Y-55090000D03*
D18*
%TO.P,U3,3*%
%TO.N,GND*%
X1610000Y-52550000D03*
D17*
%TO.P,U3,4*%
%TO.N,SD_SCK*%
X1610000Y-50010000D03*
%TO.P,U3,5*%
%TO.N,SD_MOSI*%
X1610000Y-47470000D03*
%TO.P,U3,6*%
%TO.N,SD_MISO*%
X1610000Y-44930000D03*
%TO.P,U3,7*%
%TO.N,SD_CS*%
X1610000Y-42390000D03*
D18*
%TO.P,U3,8*%
%TO.N,GND*%
X1610000Y-39850000D03*
D17*
%TO.P,U3,9*%
%TO.N,GPS_PPS*%
X1610000Y-37310000D03*
%TO.P,U3,10*%
%TO.N,SD_CD*%
X1610000Y-34770000D03*
%TO.P,U3,11*%
%TO.N,LED_STATUS*%
X1610000Y-32230000D03*
%TO.P,U3,12*%
%TO.N,CAN_INT*%
X1610000Y-29690000D03*
D18*
%TO.P,U3,13*%
%TO.N,GND*%
X1610000Y-27150000D03*
D17*
%TO.P,U3,14*%
%TO.N,CAN_SCK*%
X1610000Y-24610000D03*
%TO.P,U3,15*%
%TO.N,CAN_MOSI*%
X1610000Y-22070000D03*
%TO.P,U3,16*%
%TO.N,CAN_MISO*%
X1610000Y-19530000D03*
%TO.P,U3,17*%
%TO.N,CAN_CS*%
X1610000Y-16990000D03*
D18*
%TO.P,U3,18*%
%TO.N,GND*%
X1610000Y-14450000D03*
D17*
%TO.P,U3,19*%
%TO.N,N/C*%
X1610000Y-11910000D03*
%TO.P,U3,20*%
X1610000Y-9370000D03*
%TO.P,U3,21*%
X19390000Y-9370000D03*
%TO.P,U3,22*%
X19390000Y-11910000D03*
D19*
%TO.P,U3,23*%
%TO.N,GND*%
X19390000Y-14450000D03*
D17*
%TO.P,U3,24*%
%TO.N,N/C*%
X19390000Y-16990000D03*
%TO.P,U3,25*%
X19390000Y-19530000D03*
%TO.P,U3,26*%
%TO.N,CAN_STBY*%
X19390000Y-22070000D03*
%TO.P,U3,27*%
%TO.N,CAN_RESET*%
X19390000Y-24610000D03*
D19*
%TO.P,U3,28*%
%TO.N,GND*%
X19390000Y-27150000D03*
D17*
%TO.P,U3,29*%
%TO.N,N/C*%
X19390000Y-29690000D03*
%TO.P,U3,30*%
X19390000Y-32230000D03*
%TO.P,U3,31*%
X19390000Y-34770000D03*
%TO.P,U3,32*%
X19390000Y-37310000D03*
D19*
%TO.P,U3,33*%
%TO.N,GND*%
X19390000Y-39850000D03*
D17*
%TO.P,U3,34*%
%TO.N,IG_SENSE*%
X19390000Y-42390000D03*
%TO.P,U3,35*%
%TO.N,N/C*%
X19390000Y-44930000D03*
%TO.P,U3,36*%
%TO.N,V3V3*%
X19390000Y-47470000D03*
%TO.P,U3,37*%
%TO.N,N/C*%
X19390000Y-50010000D03*
D19*
%TO.P,U3,38*%
%TO.N,GND*%
X19390000Y-52550000D03*
D17*
%TO.P,U3,39*%
%TO.N,VSYS*%
X19390000Y-55090000D03*
%TO.P,U3,40*%
%TO.N,N/C*%
X19390000Y-57630000D03*
%TD*%
D20*
%TO.P,Q2,1*%
%TO.N,V12_SW*%
X17150000Y-13110000D03*
%TO.P,Q2,2*%
X16200000Y-13110000D03*
%TO.P,Q2,3*%
%TO.N,Q2_G*%
X15250000Y-13110000D03*
%TO.P,Q2,4*%
%TO.N,V12P*%
X15250000Y-9690000D03*
%TO.P,Q2,5*%
%TO.N,V12_SW*%
X16200000Y-9690000D03*
%TO.P,Q2,6*%
X17150000Y-9690000D03*
%TD*%
D21*
%TO.P,Q1,1*%
%TO.N,Q1_B*%
X6892500Y-31275000D03*
%TO.P,Q1,2*%
%TO.N,GND*%
X6892500Y-33175000D03*
%TO.P,Q1,3*%
%TO.N,Q1_C*%
X5017500Y-32225000D03*
%TD*%
D22*
%TO.P,C14,1*%
%TO.N,V12_SW*%
X16900000Y-19225000D03*
%TO.P,C14,2*%
%TO.N,GND*%
X16900000Y-22175000D03*
%TD*%
D23*
%TO.P,D6,1*%
%TO.N,LED_STATUS*%
X11700000Y-59800000D03*
%TO.P,D6,2*%
%TO.N,LED_A*%
X9300000Y-59800000D03*
%TD*%
D24*
%TO.P,U4,1*%
%TO.N,V5*%
X14610000Y-15550000D03*
%TO.P,U4,2*%
%TO.N,V12_SW*%
X14610000Y-16500000D03*
%TO.P,U4,3*%
X14610000Y-17450000D03*
%TO.P,U4,4*%
%TO.N,GND*%
X11190000Y-17450000D03*
%TO.P,U4,5*%
%TO.N,SW_5V*%
X11190000Y-16500000D03*
%TO.P,U4,6*%
%TO.N,BST_5V*%
X11190000Y-15550000D03*
%TD*%
D25*
%TO.P,L1,1*%
%TO.N,SW_5V*%
X7200000Y-16500000D03*
%TO.P,L1,2*%
%TO.N,V5*%
X7200000Y-20500000D03*
%TD*%
D26*
%TO.P,F1,1*%
%TO.N,V12_RAW*%
X3900000Y-9750000D03*
%TO.P,F1,2*%
%TO.N,V12_FUSED*%
X6700000Y-9750000D03*
%TD*%
D27*
%TO.P,C16,1*%
%TO.N,SW_5V*%
X11700000Y-21450000D03*
%TO.P,C16,2*%
%TO.N,BST_5V*%
X11700000Y-19550000D03*
%TD*%
D28*
%TO.P,Y1,1*%
%TO.N,XTAL1*%
X15000000Y-37440000D03*
%TO.P,Y1,2*%
%TO.N,XTAL2*%
X15000000Y-32560000D03*
%TD*%
D29*
%TO.N,Q1_B*%
X5799000Y-11205300D03*
X3779200Y-31225000D03*
%TO.N,SD_CS*%
X11984100Y-42390000D03*
%TO.N,SD_MOSI*%
X10605500Y-45449200D03*
%TO.N,V3V3*%
X17230000Y-16550900D03*
X13021100Y-40684800D03*
X5538100Y-30236900D03*
X11759100Y-38256000D03*
X7155000Y-35075300D03*
X3880000Y-20787700D03*
X12381800Y-23906500D03*
X9725900Y-44950800D03*
X14312900Y-18249200D03*
X13048000Y-54324700D03*
X7630000Y-40684800D03*
X15526100Y-18790000D03*
X16730000Y-38807100D03*
X3880000Y-38825700D03*
%TO.N,SD_SCK*%
X8509700Y-48412300D03*
%TO.N,GND*%
X14600000Y-41600000D03*
X10959400Y-18233000D03*
X17600000Y-28600000D03*
X5600000Y-56600000D03*
X17600000Y-45600000D03*
X19600000Y-59600000D03*
X6600000Y-2600000D03*
X13043000Y-52877000D03*
X17600000Y-37600000D03*
X17600000Y-29600000D03*
X12600000Y-46600000D03*
X16900000Y-21147100D03*
X19600000Y-7600000D03*
X5600000Y-52600000D03*
X3600000Y-28600000D03*
X16600000Y-14600000D03*
X6600000Y-46600000D03*
X5600000Y-57600000D03*
X6600000Y-54600000D03*
X12600000Y-51600000D03*
X17600000Y-44600000D03*
X12600000Y-33600000D03*
X17600000Y-33600000D03*
X5600000Y-54600000D03*
X3675000Y-53517800D03*
X16850000Y-37081700D03*
X15600000Y-41600000D03*
X13150000Y-33715100D03*
X17600000Y-50600000D03*
X5430000Y-18818400D03*
X17175000Y-57563500D03*
X14825000Y-42803400D03*
X9180000Y-38804700D03*
X15600000Y-24600000D03*
X12600000Y-55600000D03*
X10600000Y-11600000D03*
X16600000Y-28600000D03*
X10600000Y-8600000D03*
X3600000Y-14600000D03*
X5600000Y-600000D03*
X7775000Y-44955100D03*
X6600000Y-4600000D03*
X5600000Y-46600000D03*
X8600000Y-38600000D03*
X15600000Y-57600000D03*
X13430000Y-18811200D03*
X16600000Y-27600000D03*
X4600000Y-33600000D03*
X6611100Y-32410700D03*
X3600000Y-600000D03*
X18600000Y-10600000D03*
X3600000Y-13600000D03*
X7600000Y-45600000D03*
X5600000Y-1600000D03*
X2717200Y-48466500D03*
X18600000Y-28600000D03*
X7600000Y-54600000D03*
X6600000Y-600000D03*
X17055000Y-8209400D03*
X3600000Y-2600000D03*
X16600000Y-26600000D03*
X9420000Y-17245100D03*
X1600000Y-3600000D03*
X4607400Y-60151700D03*
X17600000Y-38600000D03*
X10600000Y-40600000D03*
X6600000Y-40600000D03*
X2600000Y-1600000D03*
X8600000Y-41600000D03*
X17600000Y-56600000D03*
X17600000Y-51600000D03*
X18600000Y-7600000D03*
X600000Y-10600000D03*
X12600000Y-31600000D03*
X6600000Y-56600000D03*
X15600000Y-26600000D03*
X5600000Y-5600000D03*
X16600000Y-29600000D03*
X3600000Y-15600000D03*
X12600000Y-12600000D03*
X6600000Y-1600000D03*
X10600000Y-46600000D03*
X10600000Y-32600000D03*
X4600000Y-600000D03*
X12600000Y-45600000D03*
X2600000Y-3600000D03*
X12125000Y-30908600D03*
X18600000Y-33600000D03*
X12980000Y-11187900D03*
X7600000Y-46600000D03*
X600000Y-59600000D03*
X12600000Y-53600000D03*
X12600000Y-32600000D03*
X14600000Y-57600000D03*
X9600000Y-15600000D03*
X17600000Y-32600000D03*
X6600000Y-55600000D03*
X7600000Y-1600000D03*
X6600000Y-57600000D03*
X17600000Y-49600000D03*
X10600000Y-12600000D03*
X6600000Y-53600000D03*
X10600000Y-33600000D03*
X7600000Y-600000D03*
X13600000Y-57600000D03*
X2600000Y-10600000D03*
X5525000Y-28435900D03*
X9375200Y-20779900D03*
X1600000Y-4600000D03*
X13600000Y-11600000D03*
X5600000Y-7600000D03*
X4600000Y-1600000D03*
X3600000Y-3600000D03*
X4600000Y-2600000D03*
X12600000Y-11600000D03*
X3600000Y-25600000D03*
X15600000Y-42600000D03*
X10600000Y-31600000D03*
X5600000Y-55600000D03*
X3600000Y-27600000D03*
X7600000Y-41600000D03*
X6600000Y-41600000D03*
X3600000Y-1600000D03*
X5600000Y-51600000D03*
X4019400Y-23771000D03*
X17600000Y-27600000D03*
X5430000Y-38821600D03*
X8600000Y-1600000D03*
X14600000Y-24600000D03*
X9600000Y-33600000D03*
X7600000Y-2600000D03*
X17600000Y-30600000D03*
X17600000Y-7600000D03*
X6600000Y-7600000D03*
X17600000Y-26600000D03*
X2600000Y-2600000D03*
X18600000Y-6600000D03*
%TO.N,SD_MISO*%
X14030000Y-40198900D03*
X6534000Y-45449200D03*
%TO.N,CANL*%
X8473900Y-31114800D03*
%TO.N,CANH*%
X7981400Y-33699300D03*
X8088600Y-25404400D03*
%TO.N,CAN_STBY*%
X8921100Y-25393700D03*
%TO.N,CAN_INT*%
X13896700Y-31127800D03*
%TO.N,CAN_SCK*%
X14718300Y-27354600D03*
%TO.N,CAN_MOSI*%
X15269000Y-21286800D03*
%TO.N,CAN_MISO*%
X14321100Y-21084500D03*
%TO.N,CAN_CS*%
X13272200Y-20722700D03*
%TO.N,TXCAN*%
X6590700Y-25586500D03*
X11062700Y-25820300D03*
%TO.N,RXCAN*%
X5382800Y-25218700D03*
X11062700Y-24384500D03*
%TO.N,V5*%
X9330000Y-34319200D03*
X10525600Y-20740500D03*
%TO.N,Q2_G*%
X9139900Y-14389500D03*
%TO.N,V12P*%
X3592400Y-11205300D03*
X9180000Y-13635300D03*
X16047500Y-11185200D03*
%TO.N,IG_SENSE*%
X5619900Y-33786500D03*
%TO.N,Q1_C*%
X4654800Y-31460600D03*
%TO.N,LED_A*%
X10544900Y-60025100D03*
X10666200Y-36409300D03*
%TO.N,LED_STATUS*%
X4873900Y-58693100D03*
%TD*%
%TO.N,Q1_B*%
D30*
X3779200Y-31225000D02*
X4126400Y-30877800D01*
X4126400Y-30877800D02*
X6495300Y-30877800D01*
X6495300Y-30877800D02*
X6892500Y-31275000D01*
%TO.N,V3V3*%
X13048000Y-54324700D02*
X13273300Y-54550000D01*
X15000000Y-55080000D02*
X13273300Y-55080000D01*
X13273300Y-54550000D02*
X13273300Y-55080000D01*
%TO.N,GND*%
X13273300Y-52646700D02*
X13273300Y-52540000D01*
X11190000Y-18002400D02*
X10959400Y-18233000D01*
X4759000Y-23771000D02*
X4975000Y-23555000D01*
X6611100Y-32410700D02*
X6892500Y-32692100D01*
X15000000Y-52540000D02*
X13273300Y-52540000D01*
X16900000Y-22175000D02*
X16900000Y-21147100D01*
X5525000Y-27075000D02*
X5525000Y-28435900D01*
X6892500Y-32692100D02*
X6892500Y-33175000D01*
X11190000Y-17450000D02*
X11190000Y-18002400D01*
X13043000Y-52877000D02*
X13273300Y-52646700D01*
X4019400Y-23771000D02*
X4759000Y-23771000D01*
%TO.N,V12_RAW*%
X3900000Y-9750000D02*
X3900000Y-6700000D01*
X3900000Y-6700000D02*
X3500000Y-6300000D01*
%TO.N,V5*%
X12794500Y-20455600D02*
X12745500Y-20504600D01*
X4725000Y-35925000D02*
X6330800Y-34319200D01*
X7200000Y-22272900D02*
X7200000Y-23230000D01*
X14610000Y-15550000D02*
X13988700Y-15550000D01*
X7200000Y-23230000D02*
X6875000Y-23555000D01*
X10525600Y-22272900D02*
X7200000Y-22272900D01*
X12745500Y-20504600D02*
X12745500Y-21876000D01*
X10525600Y-22272900D02*
X10525600Y-20740500D01*
X12745500Y-21876000D02*
X12348600Y-22272900D01*
X7200000Y-20500000D02*
X7200000Y-21776700D01*
X12794500Y-16744200D02*
X12794500Y-20455600D01*
X6330800Y-34319200D02*
X9330000Y-34319200D01*
X7200000Y-21776700D02*
X7200000Y-22272900D01*
X12348600Y-22272900D02*
X10525600Y-22272900D01*
X13988700Y-15550000D02*
X12794500Y-16744200D01*
%TO.N,Q2_G*%
X13970500Y-14389500D02*
X9139900Y-14389500D01*
X15250000Y-13110000D02*
X13970500Y-14389500D01*
%TO.N,V12P*%
X16047500Y-11185200D02*
X15336300Y-11185200D01*
X15250000Y-10387700D02*
X16047500Y-11185200D01*
X4898200Y-21951000D02*
X5925000Y-22977800D01*
X5925000Y-22977800D02*
X5925000Y-24010000D01*
X9180000Y-13635300D02*
X6961300Y-13635300D01*
X12886200Y-13635300D02*
X9180000Y-13635300D01*
X4898200Y-15698400D02*
X4898200Y-21951000D01*
X11910000Y-9690000D02*
X11850000Y-9750000D01*
X5925000Y-24010000D02*
X8990000Y-27075000D01*
X15250000Y-9690000D02*
X11910000Y-9690000D01*
X6961300Y-13635300D02*
X4898200Y-15698400D01*
X15336300Y-11185200D02*
X12886200Y-13635300D01*
X15250000Y-9690000D02*
X15250000Y-10387700D01*
X8990000Y-27075000D02*
X9525000Y-27075000D01*
%TO.N,Q1_C*%
X5017500Y-32225000D02*
X4654900Y-31862400D01*
X4654900Y-31862400D02*
X4654900Y-31460600D01*
X4654900Y-31460600D02*
X4654800Y-31460600D01*
%TO.N,LED_A*%
X10451800Y-60025100D02*
X10544900Y-60025100D01*
X10226700Y-59800000D02*
X10451800Y-60025100D01*
X9300000Y-59800000D02*
X10226700Y-59800000D01*
%TO.N,GPS_TX*%
X1610000Y-57630000D02*
X9240000Y-50000000D01*
X9240000Y-50000000D02*
X15000000Y-50000000D01*
%TO.N,GPS_RX*%
X8717200Y-47460000D02*
X1610000Y-54567200D01*
X15000000Y-47460000D02*
X8717200Y-47460000D01*
X1610000Y-54567200D02*
X1610000Y-55090000D01*
%TO.N,GPS_PPS*%
X1610000Y-37310000D02*
X5663300Y-37310000D01*
X5663300Y-37310000D02*
X13273300Y-44920000D01*
X15000000Y-44920000D02*
X13273300Y-44920000D01*
%TO.N,V12_FUSED*%
X6700000Y-9750000D02*
X8550000Y-9750000D01*
%TO.N,VSYS*%
X17006900Y-41462500D02*
X11167500Y-35623100D01*
X19390000Y-55090000D02*
X17006900Y-52706900D01*
X11167500Y-35623100D02*
X8326900Y-35623100D01*
X17006900Y-52706900D02*
X17006900Y-41462500D01*
X8326900Y-35623100D02*
X8025000Y-35925000D01*
%TO.N,LED_STATUS*%
X11700000Y-59123300D02*
X5304100Y-59123300D01*
X11700000Y-59800000D02*
X11700000Y-59123300D01*
X5304100Y-59123300D02*
X4873900Y-58693100D01*
%TO.N,V12_SW*%
X16200000Y-13110000D02*
X17150000Y-13110000D01*
X17150000Y-15425000D02*
X17150000Y-13110000D01*
X16574200Y-10064200D02*
X16200000Y-9690000D01*
X15125000Y-17450000D02*
X16900000Y-19225000D01*
X16574200Y-12735800D02*
X16574200Y-10064200D01*
X17150000Y-9690000D02*
X16200000Y-9690000D01*
X14610000Y-17450000D02*
X14610000Y-16500000D01*
X14610000Y-17450000D02*
X15125000Y-17450000D01*
X15125000Y-17450000D02*
X17150000Y-15425000D01*
X16200000Y-13110000D02*
X16574200Y-12735800D01*
%TO.N,SW_5V*%
X9962700Y-17042900D02*
X10505600Y-16500000D01*
X9962700Y-19217800D02*
X9962700Y-17042900D01*
X9419800Y-16500000D02*
X7200000Y-16500000D01*
X10505600Y-16500000D02*
X11190000Y-16500000D01*
X9962700Y-17042900D02*
X9419800Y-16500000D01*
X11700000Y-21450000D02*
X11700000Y-20955100D01*
X11700000Y-20955100D02*
X9962700Y-19217800D01*
%TO.N,BST_5V*%
X11828600Y-15550000D02*
X11190000Y-15550000D01*
X11700000Y-19550000D02*
X12467100Y-18782900D01*
X12467100Y-16188500D02*
X11828600Y-15550000D01*
X12467100Y-18782900D02*
X12467100Y-16188500D01*
%TD*%
%TA.AperFunction,Conductor*%
%TO.N,GND*%
G36*
X5330755Y-15675260D02*
G01*
X5349500Y-15720515D01*
X5349500Y-17564821D01*
X5358233Y-17608722D01*
X5358234Y-17608724D01*
X5391494Y-17658502D01*
X5391496Y-17658504D01*
X5441278Y-17691767D01*
X5476446Y-17698762D01*
X5485179Y-17700500D01*
X5485180Y-17700500D01*
X8914821Y-17700500D01*
X8922180Y-17699036D01*
X8958722Y-17691767D01*
X9008504Y-17658504D01*
X9041767Y-17608722D01*
X9050500Y-17564820D01*
X9050500Y-16789500D01*
X9069245Y-16744245D01*
X9114500Y-16725500D01*
X9299885Y-16725500D01*
X9345140Y-16744245D01*
X9718455Y-17117560D01*
X9737200Y-17162815D01*
X9737200Y-19167779D01*
X9737199Y-19167793D01*
X9737199Y-19172945D01*
X9737199Y-19262655D01*
X9756078Y-19308230D01*
X9756078Y-19308232D01*
X9771530Y-19345536D01*
X9843965Y-19417971D01*
X9843967Y-19417972D01*
X10606740Y-20180745D01*
X10625485Y-20226000D01*
X10606740Y-20271255D01*
X10561485Y-20290000D01*
X10466291Y-20290000D01*
X10466289Y-20290000D01*
X10466284Y-20290001D01*
X10351718Y-20320699D01*
X10351717Y-20320699D01*
X10248985Y-20380012D01*
X10165112Y-20463885D01*
X10105799Y-20566617D01*
X10105799Y-20566618D01*
X10075101Y-20681184D01*
X10075100Y-20681193D01*
X10075100Y-20799806D01*
X10075101Y-20799815D01*
X10105799Y-20914381D01*
X10105799Y-20914382D01*
X10105800Y-20914384D01*
X10105801Y-20914386D01*
X10161112Y-21010187D01*
X10165112Y-21017114D01*
X10248987Y-21100989D01*
X10268099Y-21112023D01*
X10297919Y-21150884D01*
X10300100Y-21167449D01*
X10300100Y-21983400D01*
X10281355Y-22028655D01*
X10236100Y-22047400D01*
X7489500Y-22047400D01*
X7444245Y-22028655D01*
X7425500Y-21983400D01*
X7425500Y-21764500D01*
X7444245Y-21719245D01*
X7489500Y-21700500D01*
X8914821Y-21700500D01*
X8922104Y-21699050D01*
X8958722Y-21691767D01*
X9008504Y-21658504D01*
X9041767Y-21608722D01*
X9050500Y-21564820D01*
X9050500Y-19435180D01*
X9041767Y-19391278D01*
X9041765Y-19391275D01*
X9008505Y-19341497D01*
X9008502Y-19341494D01*
X8958724Y-19308234D01*
X8958722Y-19308233D01*
X8914821Y-19299500D01*
X8914820Y-19299500D01*
X5485180Y-19299500D01*
X5485179Y-19299500D01*
X5441277Y-19308233D01*
X5441275Y-19308234D01*
X5391497Y-19341494D01*
X5391494Y-19341497D01*
X5358234Y-19391275D01*
X5358233Y-19391277D01*
X5349500Y-19435178D01*
X5349500Y-21564821D01*
X5358233Y-21608722D01*
X5358234Y-21608724D01*
X5391494Y-21658502D01*
X5391496Y-21658504D01*
X5441278Y-21691767D01*
X5476446Y-21698762D01*
X5485179Y-21700500D01*
X5485180Y-21700500D01*
X6910500Y-21700500D01*
X6955755Y-21719245D01*
X6974500Y-21764500D01*
X6974500Y-22615500D01*
X6955755Y-22660755D01*
X6910500Y-22679500D01*
X6593483Y-22679500D01*
X6499699Y-22694353D01*
X6499691Y-22694356D01*
X6386662Y-22751947D01*
X6386661Y-22751948D01*
X6386660Y-22751948D01*
X6386658Y-22751950D01*
X6330704Y-22807904D01*
X6296948Y-22841660D01*
X6258338Y-22917436D01*
X6221091Y-22949248D01*
X6172258Y-22945404D01*
X6142186Y-22912872D01*
X6131571Y-22887248D01*
X6116170Y-22850064D01*
X6052736Y-22786630D01*
X6052735Y-22786629D01*
X5142445Y-21876339D01*
X5123700Y-21831084D01*
X5123700Y-15818315D01*
X5142445Y-15773060D01*
X5240245Y-15675260D01*
X5285500Y-15656515D01*
X5330755Y-15675260D01*
G37*
%TD.AperFunction*%
%TA.AperFunction,Conductor*%
G36*
X11371255Y-17468745D02*
G01*
X11390000Y-17514000D01*
X11390000Y-18074999D01*
X12083202Y-18074999D01*
X12114458Y-18072069D01*
X12156462Y-18057371D01*
X12205368Y-18060117D01*
X12238008Y-18096641D01*
X12241600Y-18117779D01*
X12241600Y-18662984D01*
X12222855Y-18708239D01*
X12050339Y-18880755D01*
X12005084Y-18899500D01*
X11193483Y-18899500D01*
X11099699Y-18914353D01*
X11099691Y-18914356D01*
X10986662Y-18971947D01*
X10986660Y-18971948D01*
X10986658Y-18971950D01*
X10896950Y-19061658D01*
X10896948Y-19061660D01*
X10896947Y-19061662D01*
X10839356Y-19174690D01*
X10839353Y-19174697D01*
X10824500Y-19268483D01*
X10824500Y-19606185D01*
X10805755Y-19651440D01*
X10760500Y-19670185D01*
X10715245Y-19651440D01*
X10206945Y-19143140D01*
X10188200Y-19097885D01*
X10188200Y-18134664D01*
X10206945Y-18089409D01*
X10252200Y-18070664D01*
X10263068Y-18071837D01*
X10296798Y-18074999D01*
X10990000Y-18074999D01*
X10990000Y-17514000D01*
X11008745Y-17468745D01*
X11054000Y-17450000D01*
X11326000Y-17450000D01*
X11371255Y-17468745D01*
G37*
%TD.AperFunction*%
%TA.AperFunction,Conductor*%
G36*
X8798305Y-13879545D02*
G01*
X8808475Y-13892799D01*
X8819510Y-13911913D01*
X8819513Y-13911916D01*
X8854692Y-13947094D01*
X8873438Y-13992348D01*
X8854693Y-14037603D01*
X8854693Y-14037604D01*
X8779412Y-14112885D01*
X8720099Y-14215617D01*
X8720099Y-14215618D01*
X8689401Y-14330184D01*
X8689400Y-14330193D01*
X8689400Y-14448806D01*
X8689401Y-14448815D01*
X8720099Y-14563381D01*
X8720099Y-14563382D01*
X8720100Y-14563384D01*
X8720101Y-14563386D01*
X8779411Y-14666113D01*
X8863287Y-14749989D01*
X8966014Y-14809299D01*
X9080591Y-14840000D01*
X9080594Y-14840000D01*
X9199206Y-14840000D01*
X9199209Y-14840000D01*
X9313786Y-14809299D01*
X9416513Y-14749989D01*
X9500389Y-14666113D01*
X9505961Y-14656460D01*
X9511425Y-14646999D01*
X9550287Y-14617180D01*
X9566850Y-14615000D01*
X13918189Y-14615000D01*
X13918197Y-14615001D01*
X13925645Y-14615001D01*
X14015353Y-14615001D01*
X14015355Y-14615001D01*
X14044657Y-14602863D01*
X14073959Y-14590726D01*
X14091124Y-14583615D01*
X14098236Y-14580670D01*
X14161670Y-14517236D01*
X14161670Y-14517234D01*
X14170669Y-14508236D01*
X14170671Y-14508233D01*
X14674410Y-14004493D01*
X14719664Y-13985749D01*
X14764919Y-14004494D01*
X14777504Y-14025754D01*
X14778432Y-14025322D01*
X14780500Y-14029758D01*
X14780501Y-14029760D01*
X14827150Y-14129799D01*
X14827151Y-14129800D01*
X14905199Y-14207848D01*
X14905201Y-14207850D01*
X15005240Y-14254499D01*
X15050821Y-14260500D01*
X15449178Y-14260499D01*
X15494760Y-14254499D01*
X15594799Y-14207850D01*
X15672850Y-14129799D01*
X15672850Y-14129798D01*
X15676809Y-14125840D01*
X15677820Y-14126851D01*
X15713880Y-14103874D01*
X15761703Y-14114471D01*
X15773131Y-14125899D01*
X15773191Y-14125840D01*
X15855199Y-14207848D01*
X15855201Y-14207850D01*
X15955240Y-14254499D01*
X16000821Y-14260500D01*
X16399178Y-14260499D01*
X16444760Y-14254499D01*
X16544799Y-14207850D01*
X16622850Y-14129799D01*
X16622850Y-14129798D01*
X16626809Y-14125840D01*
X16627820Y-14126851D01*
X16663880Y-14103874D01*
X16711703Y-14114471D01*
X16723131Y-14125899D01*
X16723191Y-14125840D01*
X16727150Y-14129799D01*
X16805201Y-14207850D01*
X16887549Y-14246249D01*
X16920640Y-14282363D01*
X16924500Y-14304252D01*
X16924500Y-15305084D01*
X16905755Y-15350339D01*
X15869754Y-16386340D01*
X15824499Y-16405085D01*
X15779244Y-16386340D01*
X15760499Y-16341085D01*
X15760499Y-16300824D01*
X15754499Y-16255241D01*
X15754499Y-16255240D01*
X15707850Y-16155201D01*
X15629799Y-16077150D01*
X15625840Y-16073191D01*
X15626851Y-16072179D01*
X15603874Y-16036120D01*
X15614471Y-15988297D01*
X15625899Y-15976868D01*
X15625840Y-15976809D01*
X15629799Y-15972850D01*
X15707850Y-15894799D01*
X15754499Y-15794760D01*
X15760500Y-15749179D01*
X15760499Y-15350822D01*
X15754499Y-15305240D01*
X15707850Y-15205201D01*
X15629800Y-15127151D01*
X15629801Y-15127151D01*
X15629799Y-15127150D01*
X15529760Y-15080501D01*
X15529758Y-15080500D01*
X15484183Y-15074500D01*
X13735824Y-15074500D01*
X13690241Y-15080500D01*
X13590199Y-15127151D01*
X13512151Y-15205199D01*
X13465500Y-15305241D01*
X13459500Y-15350814D01*
X13459500Y-15733783D01*
X13440755Y-15779038D01*
X12801855Y-16417939D01*
X12756600Y-16436684D01*
X12711345Y-16417939D01*
X12692600Y-16372684D01*
X12692600Y-16143645D01*
X12692599Y-16143642D01*
X12674688Y-16100401D01*
X12658270Y-16060764D01*
X12594836Y-15997330D01*
X12594835Y-15997329D01*
X12492305Y-15894799D01*
X12359244Y-15761738D01*
X12340499Y-15716483D01*
X12340499Y-15350824D01*
X12339271Y-15341497D01*
X12334499Y-15305240D01*
X12287850Y-15205201D01*
X12209800Y-15127151D01*
X12209801Y-15127151D01*
X12209799Y-15127150D01*
X12109760Y-15080501D01*
X12109758Y-15080500D01*
X12064183Y-15074500D01*
X10315824Y-15074500D01*
X10270241Y-15080500D01*
X10170199Y-15127151D01*
X10092151Y-15205199D01*
X10045500Y-15305241D01*
X10039500Y-15350814D01*
X10039500Y-15749175D01*
X10045500Y-15794758D01*
X10045501Y-15794760D01*
X10092150Y-15894799D01*
X10092151Y-15894800D01*
X10174160Y-15976809D01*
X10173149Y-15977819D01*
X10196126Y-16013887D01*
X10185524Y-16061709D01*
X10174101Y-16073132D01*
X10174160Y-16073191D01*
X10092151Y-16155199D01*
X10045500Y-16255241D01*
X10039500Y-16300814D01*
X10039500Y-16620684D01*
X10020755Y-16665939D01*
X10020753Y-16665941D01*
X10007952Y-16678741D01*
X9962697Y-16697484D01*
X9917444Y-16678739D01*
X9619972Y-16381267D01*
X9619972Y-16381266D01*
X9547534Y-16308828D01*
X9523260Y-16298774D01*
X9464657Y-16274499D01*
X9464655Y-16274499D01*
X9374945Y-16274499D01*
X9367497Y-16274499D01*
X9367489Y-16274500D01*
X9114500Y-16274500D01*
X9069245Y-16255755D01*
X9050500Y-16210500D01*
X9050500Y-15435178D01*
X9045997Y-15412543D01*
X9041767Y-15391278D01*
X9020835Y-15359951D01*
X9008505Y-15341497D01*
X9008502Y-15341494D01*
X8958724Y-15308234D01*
X8958722Y-15308233D01*
X8914821Y-15299500D01*
X8914820Y-15299500D01*
X5770515Y-15299500D01*
X5725260Y-15280755D01*
X5706515Y-15235500D01*
X5725260Y-15190245D01*
X7035960Y-13879545D01*
X7081215Y-13860800D01*
X8753050Y-13860800D01*
X8798305Y-13879545D01*
G37*
%TD.AperFunction*%
%TA.AperFunction,Conductor*%
G36*
X20581255Y-418745D02*
G01*
X20600000Y-464000D01*
X20600000Y-13522842D01*
X20600000Y-14219230D01*
X20581255Y-14264485D01*
X20536000Y-14283230D01*
X20490745Y-14264485D01*
X20473230Y-14231716D01*
X20458401Y-14157166D01*
X20458393Y-14157136D01*
X20441044Y-14099942D01*
X20441039Y-14099929D01*
X20380738Y-13954349D01*
X20380731Y-13954334D01*
X20352554Y-13901618D01*
X20352543Y-13901601D01*
X20299950Y-13822891D01*
X19858019Y-14264822D01*
X19855925Y-14257007D01*
X19790099Y-14142993D01*
X19697007Y-14049901D01*
X19582993Y-13984075D01*
X19575175Y-13981980D01*
X20017108Y-13540048D01*
X20017107Y-13540047D01*
X19938407Y-13487461D01*
X19938381Y-13487445D01*
X19885665Y-13459268D01*
X19885650Y-13459261D01*
X19740070Y-13398960D01*
X19740057Y-13398955D01*
X19682863Y-13381606D01*
X19682833Y-13381598D01*
X19528304Y-13350861D01*
X19528296Y-13350860D01*
X19468793Y-13345000D01*
X18750235Y-13345000D01*
X18743175Y-13345080D01*
X18633502Y-13368216D01*
X18633493Y-13368218D01*
X18603489Y-13380645D01*
X18603489Y-13380646D01*
X19204823Y-13981980D01*
X19197007Y-13984075D01*
X19082993Y-14049901D01*
X18989901Y-14142993D01*
X18924075Y-14257007D01*
X18921980Y-14264823D01*
X18320646Y-13663489D01*
X18320645Y-13663489D01*
X18308232Y-13693461D01*
X18305594Y-13700042D01*
X18305594Y-13700043D01*
X18285000Y-13810215D01*
X18285000Y-15089764D01*
X18285080Y-15096824D01*
X18308217Y-15206501D01*
X18320645Y-15236509D01*
X18921980Y-14635174D01*
X18924075Y-14642993D01*
X18989901Y-14757007D01*
X19082993Y-14850099D01*
X19197007Y-14915925D01*
X19204823Y-14918019D01*
X18603489Y-15519352D01*
X18633507Y-15531786D01*
X18640043Y-15534405D01*
X18750215Y-15554999D01*
X18750218Y-15555000D01*
X19468793Y-15555000D01*
X19528296Y-15549139D01*
X19528304Y-15549138D01*
X19682833Y-15518401D01*
X19682863Y-15518393D01*
X19740057Y-15501044D01*
X19740070Y-15501039D01*
X19885650Y-15440738D01*
X19885665Y-15440731D01*
X19938391Y-15412548D01*
X19938397Y-15412544D01*
X20017107Y-15359951D01*
X20017108Y-15359951D01*
X19575176Y-14918019D01*
X19582993Y-14915925D01*
X19697007Y-14850099D01*
X19790099Y-14757007D01*
X19855925Y-14642993D01*
X19858019Y-14635176D01*
X20299951Y-15077108D01*
X20299951Y-15077107D01*
X20352544Y-14998397D01*
X20352548Y-14998391D01*
X20380731Y-14945665D01*
X20380738Y-14945650D01*
X20441039Y-14800070D01*
X20441044Y-14800057D01*
X20458393Y-14742863D01*
X20458402Y-14742829D01*
X20473230Y-14668284D01*
X20500443Y-14627555D01*
X20548485Y-14617999D01*
X20589214Y-14645212D01*
X20600000Y-14680769D01*
X20600000Y-26222842D01*
X20600000Y-26919230D01*
X20581255Y-26964485D01*
X20536000Y-26983230D01*
X20490745Y-26964485D01*
X20473230Y-26931716D01*
X20458401Y-26857166D01*
X20458393Y-26857136D01*
X20441044Y-26799942D01*
X20441039Y-26799929D01*
X20380738Y-26654349D01*
X20380731Y-26654334D01*
X20352554Y-26601618D01*
X20352543Y-26601601D01*
X20299950Y-26522891D01*
X19858019Y-26964822D01*
X19855925Y-26957007D01*
X19790099Y-26842993D01*
X19697007Y-26749901D01*
X19582993Y-26684075D01*
X19575175Y-26681980D01*
X20017108Y-26240048D01*
X20017107Y-26240047D01*
X19938407Y-26187461D01*
X19938381Y-26187445D01*
X19885665Y-26159268D01*
X19885650Y-26159261D01*
X19740070Y-26098960D01*
X19740057Y-26098955D01*
X19682863Y-26081606D01*
X19682833Y-26081598D01*
X19528304Y-26050861D01*
X19528296Y-26050860D01*
X19468793Y-26045000D01*
X18750235Y-26045000D01*
X18743175Y-26045080D01*
X18633502Y-26068216D01*
X18633493Y-26068218D01*
X18603489Y-26080645D01*
X18603489Y-26080646D01*
X19204823Y-26681980D01*
X19197007Y-26684075D01*
X19082993Y-26749901D01*
X18989901Y-26842993D01*
X18924075Y-26957007D01*
X18921980Y-26964823D01*
X18320646Y-26363489D01*
X18320645Y-26363489D01*
X18308232Y-26393461D01*
X18305594Y-26400042D01*
X18305594Y-26400043D01*
X18285000Y-26510215D01*
X18285000Y-27789764D01*
X18285080Y-27796824D01*
X18308217Y-27906501D01*
X18320645Y-27936509D01*
X18921980Y-27335174D01*
X18924075Y-27342993D01*
X18989901Y-27457007D01*
X19082993Y-27550099D01*
X19197007Y-27615925D01*
X19204823Y-27618019D01*
X18603489Y-28219352D01*
X18633507Y-28231786D01*
X18640043Y-28234405D01*
X18750215Y-28254999D01*
X18750218Y-28255000D01*
X19468793Y-28255000D01*
X19528296Y-28249139D01*
X19528304Y-28249138D01*
X19682833Y-28218401D01*
X19682863Y-28218393D01*
X19740057Y-28201044D01*
X19740070Y-28201039D01*
X19885650Y-28140738D01*
X19885665Y-28140731D01*
X19938391Y-28112548D01*
X19938397Y-28112544D01*
X20017107Y-28059951D01*
X20017108Y-28059951D01*
X19575176Y-27618019D01*
X19582993Y-27615925D01*
X19697007Y-27550099D01*
X19790099Y-27457007D01*
X19855925Y-27342993D01*
X19858019Y-27335176D01*
X20299951Y-27777108D01*
X20299951Y-27777107D01*
X20352544Y-27698397D01*
X20352548Y-27698391D01*
X20380731Y-27645665D01*
X20380738Y-27645650D01*
X20441039Y-27500070D01*
X20441044Y-27500057D01*
X20458393Y-27442863D01*
X20458402Y-27442829D01*
X20473230Y-27368284D01*
X20500443Y-27327555D01*
X20548485Y-27317999D01*
X20589214Y-27345212D01*
X20600000Y-27380769D01*
X20600000Y-38922842D01*
X20600000Y-39619230D01*
X20581255Y-39664485D01*
X20536000Y-39683230D01*
X20490745Y-39664485D01*
X20473230Y-39631716D01*
X20458401Y-39557166D01*
X20458393Y-39557136D01*
X20441044Y-39499942D01*
X20441039Y-39499929D01*
X20380738Y-39354349D01*
X20380731Y-39354334D01*
X20352554Y-39301618D01*
X20352543Y-39301601D01*
X20299950Y-39222891D01*
X19858019Y-39664822D01*
X19855925Y-39657007D01*
X19790099Y-39542993D01*
X19697007Y-39449901D01*
X19582993Y-39384075D01*
X19575175Y-39381980D01*
X20017108Y-38940048D01*
X20017107Y-38940047D01*
X19938407Y-38887461D01*
X19938381Y-38887445D01*
X19885665Y-38859268D01*
X19885650Y-38859261D01*
X19740070Y-38798960D01*
X19740057Y-38798955D01*
X19682863Y-38781606D01*
X19682833Y-38781598D01*
X19528304Y-38750861D01*
X19528296Y-38750860D01*
X19468793Y-38745000D01*
X18750235Y-38745000D01*
X18743175Y-38745080D01*
X18633502Y-38768216D01*
X18633493Y-38768218D01*
X18603489Y-38780645D01*
X18603489Y-38780646D01*
X19204823Y-39381980D01*
X19197007Y-39384075D01*
X19082993Y-39449901D01*
X18989901Y-39542993D01*
X18924075Y-39657007D01*
X18921980Y-39664823D01*
X18320646Y-39063489D01*
X18320645Y-39063489D01*
X18308232Y-39093461D01*
X18305594Y-39100042D01*
X18305594Y-39100043D01*
X18285000Y-39210215D01*
X18285000Y-40489764D01*
X18285080Y-40496824D01*
X18308217Y-40606501D01*
X18320645Y-40636509D01*
X18921980Y-40035174D01*
X18924075Y-40042993D01*
X18989901Y-40157007D01*
X19082993Y-40250099D01*
X19197007Y-40315925D01*
X19204823Y-40318019D01*
X18603489Y-40919352D01*
X18633507Y-40931786D01*
X18640043Y-40934405D01*
X18750215Y-40954999D01*
X18750218Y-40955000D01*
X19468793Y-40955000D01*
X19528296Y-40949139D01*
X19528304Y-40949138D01*
X19682833Y-40918401D01*
X19682863Y-40918393D01*
X19740057Y-40901044D01*
X19740070Y-40901039D01*
X19885650Y-40840738D01*
X19885665Y-40840731D01*
X19938391Y-40812548D01*
X19938397Y-40812544D01*
X20017107Y-40759951D01*
X20017108Y-40759951D01*
X19575176Y-40318019D01*
X19582993Y-40315925D01*
X19697007Y-40250099D01*
X19790099Y-40157007D01*
X19855925Y-40042993D01*
X19858019Y-40035176D01*
X20299951Y-40477108D01*
X20299951Y-40477107D01*
X20352544Y-40398397D01*
X20352548Y-40398391D01*
X20380731Y-40345665D01*
X20380738Y-40345650D01*
X20441039Y-40200070D01*
X20441044Y-40200057D01*
X20458393Y-40142863D01*
X20458402Y-40142829D01*
X20473230Y-40068284D01*
X20500443Y-40027555D01*
X20548485Y-40017999D01*
X20589214Y-40045212D01*
X20600000Y-40080769D01*
X20600000Y-51622842D01*
X20600000Y-52319230D01*
X20581255Y-52364485D01*
X20536000Y-52383230D01*
X20490745Y-52364485D01*
X20473230Y-52331716D01*
X20458401Y-52257166D01*
X20458393Y-52257136D01*
X20441044Y-52199942D01*
X20441039Y-52199929D01*
X20380738Y-52054349D01*
X20380731Y-52054334D01*
X20352554Y-52001618D01*
X20352543Y-52001601D01*
X20299950Y-51922891D01*
X19858019Y-52364822D01*
X19855925Y-52357007D01*
X19790099Y-52242993D01*
X19697007Y-52149901D01*
X19582993Y-52084075D01*
X19575175Y-52081980D01*
X20017108Y-51640048D01*
X20017107Y-51640047D01*
X19938407Y-51587461D01*
X19938381Y-51587445D01*
X19885665Y-51559268D01*
X19885650Y-51559261D01*
X19740070Y-51498960D01*
X19740057Y-51498955D01*
X19682863Y-51481606D01*
X19682833Y-51481598D01*
X19528304Y-51450861D01*
X19528296Y-51450860D01*
X19468793Y-51445000D01*
X18750235Y-51445000D01*
X18743175Y-51445080D01*
X18633502Y-51468216D01*
X18633493Y-51468218D01*
X18603489Y-51480645D01*
X18603489Y-51480646D01*
X19204823Y-52081980D01*
X19197007Y-52084075D01*
X19082993Y-52149901D01*
X18989901Y-52242993D01*
X18924075Y-52357007D01*
X18921980Y-52364823D01*
X18320646Y-51763489D01*
X18320645Y-51763489D01*
X18308232Y-51793461D01*
X18305594Y-51800042D01*
X18305594Y-51800043D01*
X18285000Y-51910215D01*
X18285000Y-53189764D01*
X18285080Y-53196824D01*
X18308217Y-53306505D01*
X18338654Y-53379988D01*
X18341435Y-53386485D01*
X18341437Y-53386490D01*
X18404776Y-53478955D01*
X18404783Y-53478963D01*
X18460996Y-53535175D01*
X18466084Y-53540146D01*
X18466086Y-53540148D01*
X18559989Y-53601334D01*
X18633464Y-53631769D01*
X18640043Y-53634405D01*
X18750215Y-53654999D01*
X18750218Y-53655000D01*
X19468793Y-53655000D01*
X19528296Y-53649139D01*
X19528304Y-53649138D01*
X19682833Y-53618401D01*
X19682863Y-53618393D01*
X19740057Y-53601044D01*
X19740070Y-53601039D01*
X19885650Y-53540738D01*
X19885665Y-53540731D01*
X19938391Y-53512548D01*
X19938397Y-53512544D01*
X20017107Y-53459951D01*
X20017108Y-53459951D01*
X19575176Y-53018019D01*
X19582993Y-53015925D01*
X19697007Y-52950099D01*
X19790099Y-52857007D01*
X19855925Y-52742993D01*
X19858019Y-52735176D01*
X20299951Y-53177108D01*
X20299951Y-53177107D01*
X20352544Y-53098397D01*
X20352548Y-53098391D01*
X20380731Y-53045665D01*
X20380738Y-53045650D01*
X20441039Y-52900070D01*
X20441044Y-52900057D01*
X20458393Y-52842863D01*
X20458402Y-52842829D01*
X20473230Y-52768284D01*
X20500443Y-52727555D01*
X20548485Y-52717999D01*
X20589214Y-52745212D01*
X20600000Y-52780769D01*
X20600000Y-53720000D01*
X20600000Y-60536000D01*
X20581255Y-60581255D01*
X20536000Y-60600000D01*
X10626071Y-60600000D01*
X10580816Y-60581255D01*
X10562071Y-60536000D01*
X10580816Y-60490745D01*
X10609507Y-60474181D01*
X10679416Y-60455448D01*
X10718786Y-60444899D01*
X10821513Y-60385589D01*
X10828637Y-60378464D01*
X10873889Y-60359715D01*
X10909450Y-60370500D01*
X10941278Y-60391767D01*
X10976446Y-60398762D01*
X10985179Y-60400500D01*
X10985180Y-60400500D01*
X12414821Y-60400500D01*
X12422104Y-60399050D01*
X12458722Y-60391767D01*
X12508504Y-60358504D01*
X12541767Y-60308722D01*
X12550500Y-60264820D01*
X12550500Y-59335180D01*
X12541767Y-59291278D01*
X12541765Y-59291275D01*
X12508505Y-59241497D01*
X12508502Y-59241494D01*
X12458724Y-59208234D01*
X12458722Y-59208233D01*
X12414821Y-59199500D01*
X12414820Y-59199500D01*
X11989500Y-59199500D01*
X11944245Y-59180755D01*
X11925500Y-59135500D01*
X11925500Y-59078445D01*
X11925499Y-59078442D01*
X11915204Y-59053587D01*
X11891170Y-58995564D01*
X11827736Y-58932130D01*
X11744857Y-58897800D01*
X11744855Y-58897800D01*
X5424015Y-58897800D01*
X5378760Y-58879055D01*
X5335251Y-58835546D01*
X5316506Y-58790291D01*
X5318687Y-58773729D01*
X5324400Y-58752409D01*
X5324400Y-58633791D01*
X5293699Y-58519214D01*
X5234389Y-58416487D01*
X5150513Y-58332611D01*
X5047786Y-58273301D01*
X5047783Y-58273300D01*
X5047781Y-58273299D01*
X4933215Y-58242601D01*
X4933211Y-58242600D01*
X4933209Y-58242600D01*
X4814591Y-58242600D01*
X4814589Y-58242600D01*
X4814584Y-58242601D01*
X4700018Y-58273299D01*
X4700017Y-58273299D01*
X4597285Y-58332612D01*
X4513412Y-58416485D01*
X4454099Y-58519217D01*
X4454099Y-58519218D01*
X4423401Y-58633784D01*
X4423400Y-58633793D01*
X4423400Y-58752406D01*
X4423401Y-58752415D01*
X4454099Y-58866981D01*
X4454099Y-58866982D01*
X4454100Y-58866984D01*
X4454101Y-58866986D01*
X4513411Y-58969713D01*
X4597287Y-59053589D01*
X4700014Y-59112899D01*
X4814591Y-59143600D01*
X4814594Y-59143600D01*
X4933206Y-59143600D01*
X4933209Y-59143600D01*
X4933217Y-59143598D01*
X4934873Y-59143154D01*
X4954525Y-59137888D01*
X5003088Y-59144279D01*
X5016346Y-59154451D01*
X5109279Y-59247384D01*
X5109282Y-59247388D01*
X5112930Y-59251036D01*
X5176364Y-59314470D01*
X5210695Y-59328690D01*
X5259246Y-59348801D01*
X5259248Y-59348801D01*
X5356403Y-59348801D01*
X5356411Y-59348800D01*
X8385500Y-59348800D01*
X8430755Y-59367545D01*
X8449500Y-59412800D01*
X8449500Y-60264821D01*
X8458233Y-60308722D01*
X8458234Y-60308724D01*
X8491494Y-60358502D01*
X8491496Y-60358504D01*
X8541278Y-60391767D01*
X8576446Y-60398762D01*
X8585179Y-60400500D01*
X8585180Y-60400500D01*
X10014821Y-60400500D01*
X10022104Y-60399050D01*
X10058722Y-60391767D01*
X10108504Y-60358504D01*
X10118328Y-60343800D01*
X10159055Y-60316585D01*
X10207097Y-60326140D01*
X10216798Y-60334100D01*
X10268287Y-60385589D01*
X10371014Y-60444899D01*
X10371018Y-60444900D01*
X10480293Y-60474181D01*
X10519155Y-60504000D01*
X10525548Y-60552564D01*
X10495729Y-60591426D01*
X10463729Y-60600000D01*
X464000Y-60600000D01*
X418745Y-60581255D01*
X400000Y-60536000D01*
X400000Y-56996738D01*
X659500Y-56996738D01*
X659500Y-58263261D01*
X669425Y-58331387D01*
X669428Y-58331395D01*
X720801Y-58436481D01*
X720801Y-58436482D01*
X720802Y-58436483D01*
X803517Y-58519198D01*
X908607Y-58570573D01*
X908610Y-58570573D01*
X908612Y-58570574D01*
X976739Y-58580500D01*
X976740Y-58580500D01*
X2243261Y-58580500D01*
X2311387Y-58570574D01*
X2311387Y-58570573D01*
X2311393Y-58570573D01*
X2416483Y-58519198D01*
X2499198Y-58436483D01*
X2550573Y-58331393D01*
X2560500Y-58263260D01*
X2560500Y-57536381D01*
X18439500Y-57536381D01*
X18439500Y-57723618D01*
X18476025Y-57907243D01*
X18476028Y-57907253D01*
X18547676Y-58080228D01*
X18547677Y-58080230D01*
X18547678Y-58080231D01*
X18651698Y-58235908D01*
X18784092Y-58368302D01*
X18939769Y-58472322D01*
X19112749Y-58543973D01*
X19185599Y-58558463D01*
X19296381Y-58580500D01*
X19296384Y-58580500D01*
X19483619Y-58580500D01*
X19575851Y-58562153D01*
X19667251Y-58543973D01*
X19840231Y-58472322D01*
X19995908Y-58368302D01*
X20128302Y-58235908D01*
X20232322Y-58080231D01*
X20303973Y-57907251D01*
X20340500Y-57723616D01*
X20340500Y-57536384D01*
X20340500Y-57536381D01*
X20303974Y-57352756D01*
X20303973Y-57352749D01*
X20232322Y-57179769D01*
X20128302Y-57024092D01*
X19995908Y-56891698D01*
X19840231Y-56787678D01*
X19840230Y-56787677D01*
X19840228Y-56787676D01*
X19667253Y-56716028D01*
X19667254Y-56716028D01*
X19667251Y-56716027D01*
X19667247Y-56716026D01*
X19667243Y-56716025D01*
X19483619Y-56679500D01*
X19483616Y-56679500D01*
X19296384Y-56679500D01*
X19296381Y-56679500D01*
X19112756Y-56716025D01*
X19112746Y-56716028D01*
X18939771Y-56787676D01*
X18784090Y-56891699D01*
X18651699Y-57024090D01*
X18547676Y-57179771D01*
X18476028Y-57352746D01*
X18476025Y-57352756D01*
X18439500Y-57536381D01*
X2560500Y-57536381D01*
X2560500Y-57024915D01*
X2579245Y-56979660D01*
X9314661Y-50244245D01*
X9359916Y-50225500D01*
X13285500Y-50225500D01*
X13330755Y-50244245D01*
X13349500Y-50289500D01*
X13349500Y-51014821D01*
X13358233Y-51058722D01*
X13358234Y-51058724D01*
X13391494Y-51108502D01*
X13391495Y-51108502D01*
X13391496Y-51108504D01*
X13431134Y-51134989D01*
X13458347Y-51175715D01*
X13448792Y-51223758D01*
X13421428Y-51246749D01*
X13327523Y-51288213D01*
X13327522Y-51288213D01*
X13248213Y-51367522D01*
X13202908Y-51470128D01*
X13200001Y-51495189D01*
X13200000Y-51495208D01*
X13200000Y-53584786D01*
X13200001Y-53584795D01*
X13202910Y-53609874D01*
X13202911Y-53609878D01*
X13248213Y-53712477D01*
X13327522Y-53791786D01*
X13327524Y-53791787D01*
X13421428Y-53833249D01*
X13455256Y-53868676D01*
X13454125Y-53917646D01*
X13431134Y-53945010D01*
X13398951Y-53966514D01*
X13350911Y-53976070D01*
X13328478Y-53965906D01*
X13328246Y-53966309D01*
X13324614Y-53964212D01*
X13324613Y-53964211D01*
X13221886Y-53904901D01*
X13221883Y-53904900D01*
X13221881Y-53904899D01*
X13107315Y-53874201D01*
X13107311Y-53874200D01*
X13107309Y-53874200D01*
X12988691Y-53874200D01*
X12988689Y-53874200D01*
X12988684Y-53874201D01*
X12874118Y-53904899D01*
X12874117Y-53904899D01*
X12771385Y-53964212D01*
X12687512Y-54048085D01*
X12628199Y-54150817D01*
X12628199Y-54150818D01*
X12597501Y-54265384D01*
X12597500Y-54265393D01*
X12597500Y-54384006D01*
X12597501Y-54384015D01*
X12628199Y-54498581D01*
X12628199Y-54498582D01*
X12628200Y-54498584D01*
X12628201Y-54498586D01*
X12687511Y-54601313D01*
X12771387Y-54685189D01*
X12874114Y-54744499D01*
X12874118Y-54744500D01*
X12988685Y-54775199D01*
X12988689Y-54775199D01*
X12988691Y-54775200D01*
X12988693Y-54775200D01*
X12992150Y-54775655D01*
X13034572Y-54800144D01*
X13047800Y-54839108D01*
X13047800Y-55124857D01*
X13072139Y-55183616D01*
X13082130Y-55207736D01*
X13145564Y-55271170D01*
X13204168Y-55295444D01*
X13228442Y-55305499D01*
X13228445Y-55305500D01*
X13285500Y-55305500D01*
X13330755Y-55324245D01*
X13349500Y-55369500D01*
X13349500Y-56094821D01*
X13358233Y-56138722D01*
X13358234Y-56138724D01*
X13391494Y-56188502D01*
X13391496Y-56188504D01*
X13441278Y-56221767D01*
X13476446Y-56228762D01*
X13485179Y-56230500D01*
X13485180Y-56230500D01*
X16514821Y-56230500D01*
X16522104Y-56229050D01*
X16558722Y-56221767D01*
X16608504Y-56188504D01*
X16641767Y-56138722D01*
X16650500Y-56094820D01*
X16650500Y-54065180D01*
X16641767Y-54021278D01*
X16632375Y-54007222D01*
X16608505Y-53971497D01*
X16608504Y-53971496D01*
X16568864Y-53945010D01*
X16541652Y-53904284D01*
X16551207Y-53856241D01*
X16578571Y-53833250D01*
X16672477Y-53791786D01*
X16751786Y-53712477D01*
X16797091Y-53609871D01*
X16799998Y-53584810D01*
X16799999Y-53584791D01*
X16799999Y-52973414D01*
X16818744Y-52928159D01*
X16863999Y-52909414D01*
X16909254Y-52928159D01*
X18539852Y-54558758D01*
X18558597Y-54604013D01*
X18548673Y-54636738D01*
X18549159Y-54636998D01*
X18547855Y-54639436D01*
X18547819Y-54639557D01*
X18547679Y-54639766D01*
X18476028Y-54812746D01*
X18476025Y-54812756D01*
X18439500Y-54996381D01*
X18439500Y-55183618D01*
X18476025Y-55367243D01*
X18476028Y-55367253D01*
X18547676Y-55540228D01*
X18547677Y-55540230D01*
X18547678Y-55540231D01*
X18651698Y-55695908D01*
X18784092Y-55828302D01*
X18939769Y-55932322D01*
X19112749Y-56003973D01*
X19185599Y-56018463D01*
X19296381Y-56040500D01*
X19296384Y-56040500D01*
X19483619Y-56040500D01*
X19575851Y-56022153D01*
X19667251Y-56003973D01*
X19840231Y-55932322D01*
X19995908Y-55828302D01*
X20128302Y-55695908D01*
X20232322Y-55540231D01*
X20303973Y-55367251D01*
X20325809Y-55257472D01*
X20340500Y-55183618D01*
X20340500Y-54996381D01*
X20303974Y-54812756D01*
X20303973Y-54812749D01*
X20232322Y-54639769D01*
X20128302Y-54484092D01*
X19995908Y-54351698D01*
X19840231Y-54247678D01*
X19840230Y-54247677D01*
X19840228Y-54247676D01*
X19667253Y-54176028D01*
X19667254Y-54176028D01*
X19667251Y-54176027D01*
X19667247Y-54176026D01*
X19667243Y-54176025D01*
X19483619Y-54139500D01*
X19483616Y-54139500D01*
X19296384Y-54139500D01*
X19296381Y-54139500D01*
X19112756Y-54176025D01*
X19112746Y-54176028D01*
X18939766Y-54247679D01*
X18939557Y-54247819D01*
X18939474Y-54247835D01*
X18936998Y-54249159D01*
X18936596Y-54248407D01*
X18891513Y-54257364D01*
X18858758Y-54239852D01*
X17251145Y-52632239D01*
X17232400Y-52586984D01*
X17232400Y-49916381D01*
X18439500Y-49916381D01*
X18439500Y-50103618D01*
X18476025Y-50287243D01*
X18476028Y-50287253D01*
X18547676Y-50460228D01*
X18547677Y-50460230D01*
X18547678Y-50460231D01*
X18651698Y-50615908D01*
X18784092Y-50748302D01*
X18939769Y-50852322D01*
X19112749Y-50923973D01*
X19185599Y-50938463D01*
X19296381Y-50960500D01*
X19296384Y-50960500D01*
X19483619Y-50960500D01*
X19575851Y-50942153D01*
X19667251Y-50923973D01*
X19840231Y-50852322D01*
X19995908Y-50748302D01*
X20128302Y-50615908D01*
X20232322Y-50460231D01*
X20303973Y-50287251D01*
X20340500Y-50103616D01*
X20340500Y-49916384D01*
X20340500Y-49916381D01*
X20303974Y-49732756D01*
X20303973Y-49732749D01*
X20232322Y-49559769D01*
X20128302Y-49404092D01*
X19995908Y-49271698D01*
X19840231Y-49167678D01*
X19840230Y-49167677D01*
X19840228Y-49167676D01*
X19667253Y-49096028D01*
X19667254Y-49096028D01*
X19667251Y-49096027D01*
X19667247Y-49096026D01*
X19667243Y-49096025D01*
X19483619Y-49059500D01*
X19483616Y-49059500D01*
X19296384Y-49059500D01*
X19296381Y-49059500D01*
X19112756Y-49096025D01*
X19112746Y-49096028D01*
X18939771Y-49167676D01*
X18784090Y-49271699D01*
X18651699Y-49404090D01*
X18547676Y-49559771D01*
X18476028Y-49732746D01*
X18476025Y-49732756D01*
X18439500Y-49916381D01*
X17232400Y-49916381D01*
X17232400Y-47376381D01*
X18439500Y-47376381D01*
X18439500Y-47563618D01*
X18476025Y-47747243D01*
X18476028Y-47747253D01*
X18547676Y-47920228D01*
X18547677Y-47920230D01*
X18547678Y-47920231D01*
X18651698Y-48075908D01*
X18784092Y-48208302D01*
X18939769Y-48312322D01*
X19112749Y-48383973D01*
X19185599Y-48398463D01*
X19296381Y-48420500D01*
X19296384Y-48420500D01*
X19483619Y-48420500D01*
X19575851Y-48402153D01*
X19667251Y-48383973D01*
X19840231Y-48312322D01*
X19995908Y-48208302D01*
X20128302Y-48075908D01*
X20232322Y-47920231D01*
X20303973Y-47747251D01*
X20340500Y-47563616D01*
X20340500Y-47376384D01*
X20340500Y-47376381D01*
X20312278Y-47234500D01*
X20303973Y-47192749D01*
X20232322Y-47019769D01*
X20128302Y-46864092D01*
X19995908Y-46731698D01*
X19840231Y-46627678D01*
X19840230Y-46627677D01*
X19840228Y-46627676D01*
X19667253Y-46556028D01*
X19667254Y-46556028D01*
X19667251Y-46556027D01*
X19667247Y-46556026D01*
X19667243Y-46556025D01*
X19483619Y-46519500D01*
X19483616Y-46519500D01*
X19296384Y-46519500D01*
X19296381Y-46519500D01*
X19112756Y-46556025D01*
X19112746Y-46556028D01*
X18939771Y-46627676D01*
X18784090Y-46731699D01*
X18651699Y-46864090D01*
X18547676Y-47019771D01*
X18476028Y-47192746D01*
X18476025Y-47192756D01*
X18439500Y-47376381D01*
X17232400Y-47376381D01*
X17232400Y-44836381D01*
X18439500Y-44836381D01*
X18439500Y-45023618D01*
X18476025Y-45207243D01*
X18476028Y-45207253D01*
X18547676Y-45380228D01*
X18547677Y-45380230D01*
X18547678Y-45380231D01*
X18651698Y-45535908D01*
X18784092Y-45668302D01*
X18939769Y-45772322D01*
X19112749Y-45843973D01*
X19185599Y-45858463D01*
X19296381Y-45880500D01*
X19296384Y-45880500D01*
X19483619Y-45880500D01*
X19575851Y-45862153D01*
X19667251Y-45843973D01*
X19840231Y-45772322D01*
X19995908Y-45668302D01*
X20128302Y-45535908D01*
X20232322Y-45380231D01*
X20303973Y-45207251D01*
X20327552Y-45088711D01*
X20340500Y-45023618D01*
X20340500Y-44836381D01*
X20303974Y-44652756D01*
X20303973Y-44652749D01*
X20232322Y-44479769D01*
X20128302Y-44324092D01*
X19995908Y-44191698D01*
X19840231Y-44087678D01*
X19840230Y-44087677D01*
X19840228Y-44087676D01*
X19667253Y-44016028D01*
X19667254Y-44016028D01*
X19667251Y-44016027D01*
X19667247Y-44016026D01*
X19667243Y-44016025D01*
X19483619Y-43979500D01*
X19483616Y-43979500D01*
X19296384Y-43979500D01*
X19296381Y-43979500D01*
X19112756Y-44016025D01*
X19112746Y-44016028D01*
X18939771Y-44087676D01*
X18784090Y-44191699D01*
X18651699Y-44324090D01*
X18547676Y-44479771D01*
X18476028Y-44652746D01*
X18476025Y-44652756D01*
X18439500Y-44836381D01*
X17232400Y-44836381D01*
X17232400Y-42296381D01*
X18439500Y-42296381D01*
X18439500Y-42483618D01*
X18476025Y-42667243D01*
X18476028Y-42667253D01*
X18547676Y-42840228D01*
X18547677Y-42840230D01*
X18547678Y-42840231D01*
X18651698Y-42995908D01*
X18784092Y-43128302D01*
X18939769Y-43232322D01*
X19112749Y-43303973D01*
X19185599Y-43318463D01*
X19296381Y-43340500D01*
X19296384Y-43340500D01*
X19483619Y-43340500D01*
X19575851Y-43322153D01*
X19667251Y-43303973D01*
X19840231Y-43232322D01*
X19995908Y-43128302D01*
X20128302Y-42995908D01*
X20232322Y-42840231D01*
X20303973Y-42667251D01*
X20340500Y-42483616D01*
X20340500Y-42296384D01*
X20340500Y-42296381D01*
X20304100Y-42113387D01*
X20303973Y-42112749D01*
X20232322Y-41939769D01*
X20128302Y-41784092D01*
X19995908Y-41651698D01*
X19840231Y-41547678D01*
X19840230Y-41547677D01*
X19840228Y-41547676D01*
X19667253Y-41476028D01*
X19667254Y-41476028D01*
X19667251Y-41476027D01*
X19667247Y-41476026D01*
X19667243Y-41476025D01*
X19483619Y-41439500D01*
X19483616Y-41439500D01*
X19296384Y-41439500D01*
X19296381Y-41439500D01*
X19112756Y-41476025D01*
X19112746Y-41476028D01*
X18939771Y-41547676D01*
X18784090Y-41651699D01*
X18651699Y-41784090D01*
X18547676Y-41939771D01*
X18476028Y-42112746D01*
X18476025Y-42112756D01*
X18439500Y-42296381D01*
X17232400Y-42296381D01*
X17232400Y-41514811D01*
X17232401Y-41514802D01*
X17232401Y-41417649D01*
X17232401Y-41417646D01*
X17198070Y-41334765D01*
X17198070Y-41334764D01*
X17134636Y-41271330D01*
X17130991Y-41267685D01*
X17130984Y-41267679D01*
X14611098Y-38747793D01*
X16279500Y-38747793D01*
X16279500Y-38866406D01*
X16279501Y-38866415D01*
X16310199Y-38980981D01*
X16310199Y-38980982D01*
X16310200Y-38980984D01*
X16310201Y-38980986D01*
X16369511Y-39083713D01*
X16453387Y-39167589D01*
X16556114Y-39226899D01*
X16670691Y-39257600D01*
X16670694Y-39257600D01*
X16789306Y-39257600D01*
X16789309Y-39257600D01*
X16903886Y-39226899D01*
X17006613Y-39167589D01*
X17090489Y-39083713D01*
X17149799Y-38980986D01*
X17180500Y-38866409D01*
X17180500Y-38747791D01*
X17149799Y-38633214D01*
X17090489Y-38530487D01*
X17006613Y-38446611D01*
X16903886Y-38387301D01*
X16903883Y-38387300D01*
X16903881Y-38387299D01*
X16789315Y-38356601D01*
X16789311Y-38356600D01*
X16789309Y-38356600D01*
X16670691Y-38356600D01*
X16670689Y-38356600D01*
X16670684Y-38356601D01*
X16556118Y-38387299D01*
X16556117Y-38387299D01*
X16453385Y-38446612D01*
X16369512Y-38530485D01*
X16310199Y-38633217D01*
X16310199Y-38633218D01*
X16279501Y-38747784D01*
X16279500Y-38747793D01*
X14611098Y-38747793D01*
X13214611Y-37351306D01*
X14099500Y-37351306D01*
X14099500Y-37528693D01*
X14134105Y-37702663D01*
X14134107Y-37702672D01*
X14176701Y-37805501D01*
X14201987Y-37866547D01*
X14300536Y-38014035D01*
X14425965Y-38139464D01*
X14573453Y-38238013D01*
X14652022Y-38270557D01*
X14737327Y-38305892D01*
X14737331Y-38305893D01*
X14737334Y-38305894D01*
X14806924Y-38319736D01*
X14911306Y-38340500D01*
X14911309Y-38340500D01*
X15088694Y-38340500D01*
X15175678Y-38323197D01*
X15262666Y-38305894D01*
X15262669Y-38305892D01*
X15262672Y-38305892D01*
X15308693Y-38286829D01*
X15426547Y-38238013D01*
X15574035Y-38139464D01*
X15699464Y-38014035D01*
X15798013Y-37866547D01*
X15865894Y-37702666D01*
X15900500Y-37528691D01*
X15900500Y-37351309D01*
X15900500Y-37351306D01*
X15875520Y-37225726D01*
X15873661Y-37216381D01*
X18439500Y-37216381D01*
X18439500Y-37403618D01*
X18476025Y-37587243D01*
X18476028Y-37587253D01*
X18547676Y-37760228D01*
X18547677Y-37760230D01*
X18547678Y-37760231D01*
X18651698Y-37915908D01*
X18784092Y-38048302D01*
X18939769Y-38152322D01*
X19112749Y-38223973D01*
X19183328Y-38238012D01*
X19296381Y-38260500D01*
X19296384Y-38260500D01*
X19483619Y-38260500D01*
X19575851Y-38242153D01*
X19667251Y-38223973D01*
X19840231Y-38152322D01*
X19995908Y-38048302D01*
X20128302Y-37915908D01*
X20232322Y-37760231D01*
X20303973Y-37587251D01*
X20340500Y-37403616D01*
X20340500Y-37216384D01*
X20340500Y-37216381D01*
X20310538Y-37065755D01*
X20303973Y-37032749D01*
X20245556Y-36891718D01*
X20232323Y-36859771D01*
X20232322Y-36859769D01*
X20128302Y-36704092D01*
X19995908Y-36571698D01*
X19840231Y-36467678D01*
X19840230Y-36467677D01*
X19840228Y-36467676D01*
X19667253Y-36396028D01*
X19667254Y-36396028D01*
X19667251Y-36396027D01*
X19667247Y-36396026D01*
X19667243Y-36396025D01*
X19483619Y-36359500D01*
X19483616Y-36359500D01*
X19296384Y-36359500D01*
X19296381Y-36359500D01*
X19112756Y-36396025D01*
X19112746Y-36396028D01*
X18939771Y-36467676D01*
X18784090Y-36571699D01*
X18651699Y-36704090D01*
X18547676Y-36859771D01*
X18476028Y-37032746D01*
X18476025Y-37032756D01*
X18439500Y-37216381D01*
X15873661Y-37216381D01*
X15866875Y-37182265D01*
X15865894Y-37177334D01*
X15865893Y-37177331D01*
X15865892Y-37177327D01*
X15807254Y-37035764D01*
X15798013Y-37013453D01*
X15699464Y-36865965D01*
X15574035Y-36740536D01*
X15426547Y-36641987D01*
X15403533Y-36632454D01*
X15262672Y-36574107D01*
X15262663Y-36574105D01*
X15088694Y-36539500D01*
X15088691Y-36539500D01*
X14911309Y-36539500D01*
X14911306Y-36539500D01*
X14737336Y-36574105D01*
X14737327Y-36574107D01*
X14573455Y-36641986D01*
X14573452Y-36641987D01*
X14425963Y-36740537D01*
X14300537Y-36865963D01*
X14201987Y-37013452D01*
X14201986Y-37013455D01*
X14134107Y-37177327D01*
X14134105Y-37177336D01*
X14099500Y-37351306D01*
X13214611Y-37351306D01*
X11367672Y-35504367D01*
X11367672Y-35504366D01*
X11295234Y-35431928D01*
X11270960Y-35421874D01*
X11212357Y-35397599D01*
X11212355Y-35397599D01*
X11122645Y-35397599D01*
X11115197Y-35397599D01*
X11115189Y-35397600D01*
X8633417Y-35397600D01*
X8588162Y-35378855D01*
X8575920Y-35361709D01*
X8559826Y-35328789D01*
X8471211Y-35240174D01*
X8430411Y-35220228D01*
X8358625Y-35185134D01*
X8358623Y-35185133D01*
X8358622Y-35185133D01*
X8285637Y-35174500D01*
X8285636Y-35174500D01*
X7764364Y-35174500D01*
X7764363Y-35174500D01*
X7691377Y-35185133D01*
X7688390Y-35186056D01*
X7639619Y-35181503D01*
X7608351Y-35143797D01*
X7605500Y-35124907D01*
X7605500Y-35015993D01*
X7605498Y-35015984D01*
X7574800Y-34901418D01*
X7574800Y-34901417D01*
X7574799Y-34901416D01*
X7574799Y-34901414D01*
X7515489Y-34798687D01*
X7431613Y-34714811D01*
X7431610Y-34714808D01*
X7343824Y-34664125D01*
X7314005Y-34625264D01*
X7320399Y-34576700D01*
X7359260Y-34546881D01*
X7375824Y-34544700D01*
X8903050Y-34544700D01*
X8948305Y-34563445D01*
X8958475Y-34576699D01*
X8958476Y-34576700D01*
X8969511Y-34595813D01*
X9053387Y-34679689D01*
X9156114Y-34738999D01*
X9270691Y-34769700D01*
X9270694Y-34769700D01*
X9389306Y-34769700D01*
X9389309Y-34769700D01*
X9503886Y-34738999D01*
X9606613Y-34679689D01*
X9609921Y-34676381D01*
X18439500Y-34676381D01*
X18439500Y-34863618D01*
X18476025Y-35047243D01*
X18476028Y-35047253D01*
X18547676Y-35220228D01*
X18547677Y-35220230D01*
X18547678Y-35220231D01*
X18651698Y-35375908D01*
X18784092Y-35508302D01*
X18939769Y-35612322D01*
X19112749Y-35683973D01*
X19185599Y-35698463D01*
X19296381Y-35720500D01*
X19296384Y-35720500D01*
X19483619Y-35720500D01*
X19575851Y-35702153D01*
X19667251Y-35683973D01*
X19840231Y-35612322D01*
X19995908Y-35508302D01*
X20128302Y-35375908D01*
X20232322Y-35220231D01*
X20303973Y-35047251D01*
X20340500Y-34863616D01*
X20340500Y-34676384D01*
X20340500Y-34676381D01*
X20303974Y-34492756D01*
X20303973Y-34492749D01*
X20232322Y-34319769D01*
X20128302Y-34164092D01*
X19995908Y-34031698D01*
X19840231Y-33927678D01*
X19840230Y-33927677D01*
X19840228Y-33927676D01*
X19667253Y-33856028D01*
X19667254Y-33856028D01*
X19667251Y-33856027D01*
X19667247Y-33856026D01*
X19667243Y-33856025D01*
X19483619Y-33819500D01*
X19483616Y-33819500D01*
X19296384Y-33819500D01*
X19296381Y-33819500D01*
X19112756Y-33856025D01*
X19112746Y-33856028D01*
X18939771Y-33927676D01*
X18784090Y-34031699D01*
X18651699Y-34164090D01*
X18547676Y-34319771D01*
X18476028Y-34492746D01*
X18476025Y-34492756D01*
X18439500Y-34676381D01*
X9609921Y-34676381D01*
X9690489Y-34595813D01*
X9749799Y-34493086D01*
X9780500Y-34378509D01*
X9780500Y-34259891D01*
X9749799Y-34145314D01*
X9690489Y-34042587D01*
X9606613Y-33958711D01*
X9503886Y-33899401D01*
X9503883Y-33899400D01*
X9503881Y-33899399D01*
X9389315Y-33868701D01*
X9389311Y-33868700D01*
X9389309Y-33868700D01*
X9270691Y-33868700D01*
X9270689Y-33868700D01*
X9270684Y-33868701D01*
X9156118Y-33899399D01*
X9156117Y-33899399D01*
X9053385Y-33958712D01*
X8969510Y-34042587D01*
X8958475Y-34061701D01*
X8919613Y-34091520D01*
X8903050Y-34093700D01*
X8378612Y-34093700D01*
X8333357Y-34074955D01*
X8314612Y-34029700D01*
X8333357Y-33984445D01*
X8341889Y-33975913D01*
X8401199Y-33873186D01*
X8431900Y-33758609D01*
X8431900Y-33639991D01*
X8401199Y-33525414D01*
X8341889Y-33422687D01*
X8258013Y-33338811D01*
X8155286Y-33279501D01*
X8155283Y-33279500D01*
X8155281Y-33279499D01*
X8040715Y-33248801D01*
X8040711Y-33248800D01*
X8040709Y-33248800D01*
X7922091Y-33248800D01*
X7922089Y-33248800D01*
X7922084Y-33248801D01*
X7807518Y-33279499D01*
X7807517Y-33279499D01*
X7704785Y-33338812D01*
X7687343Y-33356255D01*
X7642088Y-33375000D01*
X7092500Y-33375000D01*
X7092500Y-33774999D01*
X7486183Y-33774999D01*
X7531438Y-33793744D01*
X7548002Y-33822435D01*
X7561599Y-33873181D01*
X7561599Y-33873182D01*
X7561600Y-33873184D01*
X7561601Y-33873186D01*
X7611946Y-33960386D01*
X7620912Y-33975914D01*
X7629443Y-33984445D01*
X7648188Y-34029700D01*
X7629443Y-34074955D01*
X7584188Y-34093700D01*
X6285942Y-34093700D01*
X6203063Y-34128030D01*
X6139629Y-34191465D01*
X5149594Y-35181499D01*
X5104339Y-35200244D01*
X5076232Y-35193741D01*
X5058625Y-35185134D01*
X5058623Y-35185133D01*
X5058622Y-35185133D01*
X4985637Y-35174500D01*
X4985636Y-35174500D01*
X4464364Y-35174500D01*
X4464363Y-35174500D01*
X4391377Y-35185133D01*
X4278788Y-35240174D01*
X4190174Y-35328788D01*
X4135133Y-35441377D01*
X4124500Y-35514363D01*
X4124500Y-36335636D01*
X4135133Y-36408622D01*
X4135133Y-36408623D01*
X4135134Y-36408625D01*
X4190174Y-36521211D01*
X4278789Y-36609826D01*
X4391375Y-36664866D01*
X4440034Y-36671955D01*
X4464363Y-36675500D01*
X4464364Y-36675500D01*
X4985637Y-36675500D01*
X5003883Y-36672841D01*
X5058625Y-36664866D01*
X5171211Y-36609826D01*
X5259826Y-36521211D01*
X5314866Y-36408625D01*
X5325500Y-36335636D01*
X5325500Y-35669915D01*
X5344245Y-35624660D01*
X6405460Y-34563445D01*
X6450715Y-34544700D01*
X6934176Y-34544700D01*
X6979431Y-34563445D01*
X6998176Y-34608700D01*
X6979431Y-34653955D01*
X6966176Y-34664125D01*
X6878389Y-34714808D01*
X6794512Y-34798685D01*
X6735199Y-34901417D01*
X6735199Y-34901418D01*
X6704501Y-35015984D01*
X6704500Y-35015993D01*
X6704500Y-35134606D01*
X6704501Y-35134615D01*
X6735199Y-35249181D01*
X6735199Y-35249182D01*
X6735200Y-35249184D01*
X6735201Y-35249186D01*
X6794511Y-35351913D01*
X6878387Y-35435789D01*
X6981114Y-35495099D01*
X7095691Y-35525800D01*
X7095694Y-35525800D01*
X7214306Y-35525800D01*
X7214309Y-35525800D01*
X7328886Y-35495099D01*
X7328892Y-35495095D01*
X7332758Y-35493495D01*
X7333255Y-35494696D01*
X7377060Y-35488926D01*
X7415923Y-35518743D01*
X7424500Y-35550747D01*
X7424500Y-36335636D01*
X7435133Y-36408622D01*
X7435133Y-36408623D01*
X7435134Y-36408625D01*
X7490174Y-36521211D01*
X7578789Y-36609826D01*
X7691375Y-36664866D01*
X7740034Y-36671955D01*
X7764363Y-36675500D01*
X7764364Y-36675500D01*
X8285637Y-36675500D01*
X8303883Y-36672841D01*
X8358625Y-36664866D01*
X8471211Y-36609826D01*
X8559826Y-36521211D01*
X8614866Y-36408625D01*
X8625500Y-36335636D01*
X8625500Y-35912600D01*
X8644245Y-35867345D01*
X8689500Y-35848600D01*
X10532034Y-35848600D01*
X10577289Y-35867345D01*
X10596034Y-35912600D01*
X10577289Y-35957855D01*
X10548598Y-35974419D01*
X10492318Y-35989499D01*
X10492317Y-35989499D01*
X10389585Y-36048812D01*
X10305712Y-36132685D01*
X10246399Y-36235417D01*
X10246399Y-36235418D01*
X10215701Y-36349984D01*
X10215700Y-36349993D01*
X10215700Y-36468606D01*
X10215701Y-36468615D01*
X10246399Y-36583181D01*
X10246399Y-36583182D01*
X10246400Y-36583184D01*
X10246401Y-36583186D01*
X10305711Y-36685913D01*
X10389587Y-36769789D01*
X10492314Y-36829099D01*
X10606891Y-36859800D01*
X10606894Y-36859800D01*
X10725506Y-36859800D01*
X10725509Y-36859800D01*
X10840086Y-36829099D01*
X10942813Y-36769789D01*
X11026689Y-36685913D01*
X11085999Y-36583186D01*
X11116700Y-36468609D01*
X11116700Y-36349991D01*
X11085999Y-36235414D01*
X11026689Y-36132687D01*
X10942813Y-36048811D01*
X10840086Y-35989501D01*
X10840083Y-35989500D01*
X10840081Y-35989499D01*
X10783802Y-35974419D01*
X10744940Y-35944600D01*
X10738547Y-35896036D01*
X10768366Y-35857174D01*
X10800366Y-35848600D01*
X11047585Y-35848600D01*
X11092840Y-35867345D01*
X16762655Y-41537160D01*
X16781400Y-41582415D01*
X16781400Y-51242626D01*
X16762655Y-51287881D01*
X16717400Y-51306626D01*
X16678180Y-51290381D01*
X16677370Y-51291565D01*
X16672477Y-51288213D01*
X16578571Y-51246750D01*
X16544744Y-51211323D01*
X16545875Y-51162352D01*
X16568863Y-51134990D01*
X16608504Y-51108504D01*
X16641767Y-51058722D01*
X16650500Y-51014820D01*
X16650500Y-48985180D01*
X16641767Y-48941278D01*
X16608504Y-48891496D01*
X16608502Y-48891494D01*
X16558724Y-48858234D01*
X16558722Y-48858233D01*
X16514821Y-48849500D01*
X16514820Y-48849500D01*
X13485180Y-48849500D01*
X13485179Y-48849500D01*
X13441277Y-48858233D01*
X13441275Y-48858234D01*
X13391497Y-48891494D01*
X13391494Y-48891497D01*
X13358234Y-48941275D01*
X13358233Y-48941277D01*
X13349500Y-48985178D01*
X13349500Y-49710500D01*
X13330755Y-49755755D01*
X13285500Y-49774500D01*
X9195142Y-49774500D01*
X9112263Y-49808830D01*
X2260340Y-56660755D01*
X2215085Y-56679500D01*
X976739Y-56679500D01*
X908612Y-56689425D01*
X908604Y-56689428D01*
X803518Y-56740801D01*
X803517Y-56740801D01*
X720801Y-56823517D01*
X720801Y-56823518D01*
X669428Y-56928604D01*
X669425Y-56928612D01*
X659500Y-56996738D01*
X400000Y-56996738D01*
X400000Y-53720000D01*
X400000Y-52780769D01*
X418745Y-52735514D01*
X464000Y-52716769D01*
X509255Y-52735514D01*
X526770Y-52768284D01*
X541597Y-52842829D01*
X541606Y-52842863D01*
X558955Y-52900057D01*
X558960Y-52900070D01*
X619261Y-53045650D01*
X619268Y-53045665D01*
X647445Y-53098381D01*
X647461Y-53098407D01*
X700047Y-53177107D01*
X700048Y-53177108D01*
X1141980Y-52735175D01*
X1144075Y-52742993D01*
X1209901Y-52857007D01*
X1302993Y-52950099D01*
X1417007Y-53015925D01*
X1424823Y-53018019D01*
X982891Y-53459950D01*
X1061601Y-53512543D01*
X1061618Y-53512554D01*
X1114334Y-53540731D01*
X1114349Y-53540738D01*
X1259929Y-53601039D01*
X1259942Y-53601044D01*
X1317136Y-53618393D01*
X1317166Y-53618401D01*
X1471695Y-53649138D01*
X1471703Y-53649139D01*
X1531207Y-53655000D01*
X2048784Y-53655000D01*
X2094039Y-53673745D01*
X2112784Y-53719000D01*
X2094039Y-53764255D01*
X1737539Y-54120755D01*
X1692284Y-54139500D01*
X1516381Y-54139500D01*
X1332756Y-54176025D01*
X1332746Y-54176028D01*
X1159771Y-54247676D01*
X1004090Y-54351699D01*
X871699Y-54484090D01*
X767676Y-54639771D01*
X696028Y-54812746D01*
X696025Y-54812756D01*
X659500Y-54996381D01*
X659500Y-55183618D01*
X696025Y-55367243D01*
X696028Y-55367253D01*
X767676Y-55540228D01*
X767677Y-55540230D01*
X767678Y-55540231D01*
X871698Y-55695908D01*
X1004092Y-55828302D01*
X1159769Y-55932322D01*
X1332749Y-56003973D01*
X1405599Y-56018463D01*
X1516381Y-56040500D01*
X1516384Y-56040500D01*
X1703619Y-56040500D01*
X1795851Y-56022153D01*
X1887251Y-56003973D01*
X2060231Y-55932322D01*
X2215908Y-55828302D01*
X2348302Y-55695908D01*
X2452322Y-55540231D01*
X2523973Y-55367251D01*
X2545809Y-55257472D01*
X2560500Y-55183618D01*
X2560500Y-54996381D01*
X2523974Y-54812756D01*
X2523973Y-54812749D01*
X2452322Y-54639769D01*
X2348302Y-54484092D01*
X2225412Y-54361202D01*
X2206667Y-54315947D01*
X2225412Y-54270692D01*
X5051104Y-51445000D01*
X7973483Y-48522621D01*
X8018737Y-48503877D01*
X8063992Y-48522622D01*
X8080556Y-48551312D01*
X8089899Y-48586182D01*
X8089900Y-48586184D01*
X8089901Y-48586186D01*
X8149211Y-48688913D01*
X8233087Y-48772789D01*
X8335814Y-48832099D01*
X8450391Y-48862800D01*
X8450394Y-48862800D01*
X8569006Y-48862800D01*
X8569009Y-48862800D01*
X8683586Y-48832099D01*
X8786313Y-48772789D01*
X8870189Y-48688913D01*
X8929499Y-48586186D01*
X8960200Y-48471609D01*
X8960200Y-48352991D01*
X8929499Y-48238414D01*
X8870189Y-48135687D01*
X8786313Y-48051811D01*
X8683586Y-47992501D01*
X8683584Y-47992500D01*
X8683582Y-47992499D01*
X8683583Y-47992499D01*
X8648712Y-47983156D01*
X8609851Y-47953337D01*
X8603458Y-47904772D01*
X8620020Y-47876084D01*
X8791860Y-47704245D01*
X8837115Y-47685500D01*
X13285500Y-47685500D01*
X13330755Y-47704245D01*
X13349500Y-47749500D01*
X13349500Y-48474821D01*
X13358233Y-48518722D01*
X13358234Y-48518724D01*
X13391494Y-48568502D01*
X13391497Y-48568505D01*
X13417953Y-48586182D01*
X13441278Y-48601767D01*
X13476446Y-48608762D01*
X13485179Y-48610500D01*
X13485180Y-48610500D01*
X16514821Y-48610500D01*
X16522104Y-48609050D01*
X16558722Y-48601767D01*
X16608504Y-48568504D01*
X16641767Y-48518722D01*
X16650500Y-48474820D01*
X16650500Y-46445180D01*
X16641767Y-46401278D01*
X16608504Y-46351496D01*
X16608502Y-46351494D01*
X16558724Y-46318234D01*
X16558722Y-46318233D01*
X16514821Y-46309500D01*
X16514820Y-46309500D01*
X13485180Y-46309500D01*
X13485179Y-46309500D01*
X13441277Y-46318233D01*
X13441275Y-46318234D01*
X13391497Y-46351494D01*
X13391494Y-46351497D01*
X13358234Y-46401275D01*
X13358233Y-46401277D01*
X13349500Y-46445178D01*
X13349500Y-47170500D01*
X13330755Y-47215755D01*
X13285500Y-47234500D01*
X8769511Y-47234500D01*
X8769503Y-47234499D01*
X8762055Y-47234499D01*
X8672346Y-47234499D01*
X8672344Y-47234499D01*
X8632300Y-47251087D01*
X8589463Y-47268830D01*
X2824255Y-53034039D01*
X2779000Y-53052784D01*
X2733745Y-53034039D01*
X2715000Y-52988784D01*
X2715000Y-51910235D01*
X2714919Y-51903175D01*
X2691782Y-51793494D01*
X2679353Y-51763489D01*
X2078019Y-52364822D01*
X2075925Y-52357007D01*
X2010099Y-52242993D01*
X1917007Y-52149901D01*
X1802993Y-52084075D01*
X1795174Y-52081980D01*
X2396510Y-51480645D01*
X2366538Y-51468232D01*
X2359957Y-51465594D01*
X2249784Y-51445000D01*
X1531207Y-51445000D01*
X1471703Y-51450860D01*
X1471695Y-51450861D01*
X1317166Y-51481598D01*
X1317136Y-51481606D01*
X1259942Y-51498955D01*
X1259929Y-51498960D01*
X1114349Y-51559261D01*
X1114334Y-51559268D01*
X1061618Y-51587445D01*
X1061592Y-51587461D01*
X982891Y-51640047D01*
X982891Y-51640048D01*
X1424823Y-52081980D01*
X1417007Y-52084075D01*
X1302993Y-52149901D01*
X1209901Y-52242993D01*
X1144075Y-52357007D01*
X1141980Y-52364823D01*
X700048Y-51922891D01*
X700047Y-51922891D01*
X647461Y-52001592D01*
X647445Y-52001618D01*
X619268Y-52054334D01*
X619261Y-52054349D01*
X558960Y-52199929D01*
X558955Y-52199942D01*
X541606Y-52257136D01*
X541598Y-52257166D01*
X526770Y-52331716D01*
X499557Y-52372444D01*
X451514Y-52382000D01*
X410786Y-52354787D01*
X400000Y-52319230D01*
X400000Y-51622843D01*
X400000Y-49916381D01*
X659500Y-49916381D01*
X659500Y-50103618D01*
X696025Y-50287243D01*
X696028Y-50287253D01*
X767676Y-50460228D01*
X767677Y-50460230D01*
X767678Y-50460231D01*
X871698Y-50615908D01*
X1004092Y-50748302D01*
X1159769Y-50852322D01*
X1332749Y-50923973D01*
X1405599Y-50938463D01*
X1516381Y-50960500D01*
X1516384Y-50960500D01*
X1703619Y-50960500D01*
X1795851Y-50942153D01*
X1887251Y-50923973D01*
X2060231Y-50852322D01*
X2215908Y-50748302D01*
X2348302Y-50615908D01*
X2452322Y-50460231D01*
X2523973Y-50287251D01*
X2560500Y-50103616D01*
X2560500Y-49916384D01*
X2560500Y-49916381D01*
X2523974Y-49732756D01*
X2523973Y-49732749D01*
X2452322Y-49559769D01*
X2348302Y-49404092D01*
X2215908Y-49271698D01*
X2060231Y-49167678D01*
X2060230Y-49167677D01*
X2060228Y-49167676D01*
X1887253Y-49096028D01*
X1887254Y-49096028D01*
X1887251Y-49096027D01*
X1887247Y-49096026D01*
X1887243Y-49096025D01*
X1703619Y-49059500D01*
X1703616Y-49059500D01*
X1516384Y-49059500D01*
X1516381Y-49059500D01*
X1332756Y-49096025D01*
X1332746Y-49096028D01*
X1159771Y-49167676D01*
X1004090Y-49271699D01*
X871699Y-49404090D01*
X767676Y-49559771D01*
X696028Y-49732746D01*
X696025Y-49732756D01*
X659500Y-49916381D01*
X400000Y-49916381D01*
X400000Y-47376381D01*
X659500Y-47376381D01*
X659500Y-47563618D01*
X696025Y-47747243D01*
X696028Y-47747253D01*
X767676Y-47920228D01*
X767677Y-47920230D01*
X767678Y-47920231D01*
X871698Y-48075908D01*
X1004092Y-48208302D01*
X1159769Y-48312322D01*
X1332749Y-48383973D01*
X1405599Y-48398463D01*
X1516381Y-48420500D01*
X1516384Y-48420500D01*
X1703619Y-48420500D01*
X1795851Y-48402153D01*
X1887251Y-48383973D01*
X2060231Y-48312322D01*
X2215908Y-48208302D01*
X2348302Y-48075908D01*
X2452322Y-47920231D01*
X2523973Y-47747251D01*
X2560500Y-47563616D01*
X2560500Y-47376384D01*
X2560500Y-47376381D01*
X2532278Y-47234500D01*
X2523973Y-47192749D01*
X2452322Y-47019769D01*
X2348302Y-46864092D01*
X2215908Y-46731698D01*
X2060231Y-46627678D01*
X2060230Y-46627677D01*
X2060228Y-46627676D01*
X1887253Y-46556028D01*
X1887254Y-46556028D01*
X1887251Y-46556027D01*
X1887247Y-46556026D01*
X1887243Y-46556025D01*
X1703619Y-46519500D01*
X1703616Y-46519500D01*
X1516384Y-46519500D01*
X1516381Y-46519500D01*
X1332756Y-46556025D01*
X1332746Y-46556028D01*
X1159771Y-46627676D01*
X1004090Y-46731699D01*
X871699Y-46864090D01*
X767676Y-47019771D01*
X696028Y-47192746D01*
X696025Y-47192756D01*
X659500Y-47376381D01*
X400000Y-47376381D01*
X400000Y-44836381D01*
X659500Y-44836381D01*
X659500Y-45023618D01*
X696025Y-45207243D01*
X696028Y-45207253D01*
X767676Y-45380228D01*
X767677Y-45380230D01*
X767678Y-45380231D01*
X871698Y-45535908D01*
X1004092Y-45668302D01*
X1159769Y-45772322D01*
X1332749Y-45843973D01*
X1405599Y-45858463D01*
X1516381Y-45880500D01*
X1516384Y-45880500D01*
X1703619Y-45880500D01*
X1795851Y-45862153D01*
X1887251Y-45843973D01*
X2060231Y-45772322D01*
X2215908Y-45668302D01*
X2348302Y-45535908D01*
X2445866Y-45389893D01*
X6083500Y-45389893D01*
X6083500Y-45508506D01*
X6083501Y-45508515D01*
X6114199Y-45623081D01*
X6114199Y-45623082D01*
X6114200Y-45623084D01*
X6114201Y-45623086D01*
X6173511Y-45725813D01*
X6257387Y-45809689D01*
X6360114Y-45868999D01*
X6474691Y-45899700D01*
X6474694Y-45899700D01*
X6593306Y-45899700D01*
X6593309Y-45899700D01*
X6707886Y-45868999D01*
X6810613Y-45809689D01*
X6894489Y-45725813D01*
X6953799Y-45623086D01*
X6984500Y-45508509D01*
X6984500Y-45389891D01*
X6953799Y-45275314D01*
X6894489Y-45172587D01*
X6810613Y-45088711D01*
X6707886Y-45029401D01*
X6707883Y-45029400D01*
X6707881Y-45029399D01*
X6593315Y-44998701D01*
X6593311Y-44998700D01*
X6593309Y-44998700D01*
X6474691Y-44998700D01*
X6474689Y-44998700D01*
X6474684Y-44998701D01*
X6360118Y-45029399D01*
X6360117Y-45029399D01*
X6257385Y-45088712D01*
X6173512Y-45172585D01*
X6114199Y-45275317D01*
X6114199Y-45275318D01*
X6083501Y-45389884D01*
X6083500Y-45389893D01*
X2445866Y-45389893D01*
X2452322Y-45380231D01*
X2523973Y-45207251D01*
X2547552Y-45088711D01*
X2560500Y-45023618D01*
X2560500Y-44891493D01*
X9275400Y-44891493D01*
X9275400Y-45010106D01*
X9275401Y-45010115D01*
X9306099Y-45124681D01*
X9306099Y-45124682D01*
X9306100Y-45124684D01*
X9306101Y-45124686D01*
X9365411Y-45227413D01*
X9449287Y-45311289D01*
X9552014Y-45370599D01*
X9666591Y-45401300D01*
X9666594Y-45401300D01*
X9785206Y-45401300D01*
X9785209Y-45401300D01*
X9899786Y-45370599D01*
X10002513Y-45311289D01*
X10070691Y-45243110D01*
X10115945Y-45224366D01*
X10161200Y-45243111D01*
X10179945Y-45288366D01*
X10177764Y-45304930D01*
X10155001Y-45389884D01*
X10155000Y-45389893D01*
X10155000Y-45508506D01*
X10155001Y-45508515D01*
X10185699Y-45623081D01*
X10185699Y-45623082D01*
X10185700Y-45623084D01*
X10185701Y-45623086D01*
X10245011Y-45725813D01*
X10328887Y-45809689D01*
X10431614Y-45868999D01*
X10546191Y-45899700D01*
X10546194Y-45899700D01*
X10664806Y-45899700D01*
X10664809Y-45899700D01*
X10779386Y-45868999D01*
X10882113Y-45809689D01*
X10965989Y-45725813D01*
X11025299Y-45623086D01*
X11056000Y-45508509D01*
X11056000Y-45389891D01*
X11025299Y-45275314D01*
X10965989Y-45172587D01*
X10882113Y-45088711D01*
X10779386Y-45029401D01*
X10779383Y-45029400D01*
X10779381Y-45029399D01*
X10664815Y-44998701D01*
X10664811Y-44998700D01*
X10664809Y-44998700D01*
X10546191Y-44998700D01*
X10546189Y-44998700D01*
X10546184Y-44998701D01*
X10431618Y-45029399D01*
X10431617Y-45029399D01*
X10328885Y-45088712D01*
X10260709Y-45156888D01*
X10215454Y-45175633D01*
X10170199Y-45156888D01*
X10151454Y-45111633D01*
X10153635Y-45095068D01*
X10155339Y-45088711D01*
X10176400Y-45010109D01*
X10176400Y-44891491D01*
X10145699Y-44776914D01*
X10086389Y-44674187D01*
X10002513Y-44590311D01*
X9899786Y-44531001D01*
X9899783Y-44531000D01*
X9899781Y-44530999D01*
X9785215Y-44500301D01*
X9785211Y-44500300D01*
X9785209Y-44500300D01*
X9666591Y-44500300D01*
X9666589Y-44500300D01*
X9666584Y-44500301D01*
X9552018Y-44530999D01*
X9552017Y-44530999D01*
X9449285Y-44590312D01*
X9365412Y-44674185D01*
X9306099Y-44776917D01*
X9306099Y-44776918D01*
X9275401Y-44891484D01*
X9275400Y-44891493D01*
X2560500Y-44891493D01*
X2560500Y-44836381D01*
X2523974Y-44652756D01*
X2523973Y-44652749D01*
X2452322Y-44479769D01*
X2348302Y-44324092D01*
X2215908Y-44191698D01*
X2060231Y-44087678D01*
X2060230Y-44087677D01*
X2060228Y-44087676D01*
X1887253Y-44016028D01*
X1887254Y-44016028D01*
X1887251Y-44016027D01*
X1887247Y-44016026D01*
X1887243Y-44016025D01*
X1703619Y-43979500D01*
X1703616Y-43979500D01*
X1516384Y-43979500D01*
X1516381Y-43979500D01*
X1332756Y-44016025D01*
X1332746Y-44016028D01*
X1159771Y-44087676D01*
X1004090Y-44191699D01*
X871699Y-44324090D01*
X767676Y-44479771D01*
X696028Y-44652746D01*
X696025Y-44652756D01*
X659500Y-44836381D01*
X400000Y-44836381D01*
X400000Y-42296381D01*
X659500Y-42296381D01*
X659500Y-42483618D01*
X696025Y-42667243D01*
X696028Y-42667253D01*
X767676Y-42840228D01*
X767677Y-42840230D01*
X767678Y-42840231D01*
X871698Y-42995908D01*
X1004092Y-43128302D01*
X1159769Y-43232322D01*
X1332749Y-43303973D01*
X1405599Y-43318463D01*
X1516381Y-43340500D01*
X1516384Y-43340500D01*
X1703619Y-43340500D01*
X1795851Y-43322153D01*
X1887251Y-43303973D01*
X2060231Y-43232322D01*
X2215908Y-43128302D01*
X2348302Y-42995908D01*
X2452322Y-42840231D01*
X2523973Y-42667251D01*
X2560500Y-42483616D01*
X2560500Y-42296384D01*
X2560500Y-42296381D01*
X2524100Y-42113387D01*
X2523973Y-42112749D01*
X2452322Y-41939769D01*
X2348302Y-41784092D01*
X2215908Y-41651698D01*
X2060231Y-41547678D01*
X2060230Y-41547677D01*
X2060228Y-41547676D01*
X1887253Y-41476028D01*
X1887254Y-41476028D01*
X1887251Y-41476027D01*
X1887247Y-41476026D01*
X1887243Y-41476025D01*
X1703619Y-41439500D01*
X1703616Y-41439500D01*
X1516384Y-41439500D01*
X1516381Y-41439500D01*
X1332756Y-41476025D01*
X1332746Y-41476028D01*
X1159771Y-41547676D01*
X1004090Y-41651699D01*
X871699Y-41784090D01*
X767676Y-41939771D01*
X696028Y-42112746D01*
X696025Y-42112756D01*
X659500Y-42296381D01*
X400000Y-42296381D01*
X400000Y-40080769D01*
X418745Y-40035514D01*
X464000Y-40016769D01*
X509255Y-40035514D01*
X526770Y-40068284D01*
X541597Y-40142829D01*
X541606Y-40142863D01*
X558955Y-40200057D01*
X558960Y-40200070D01*
X619261Y-40345650D01*
X619268Y-40345665D01*
X647445Y-40398381D01*
X647461Y-40398407D01*
X700047Y-40477107D01*
X700048Y-40477108D01*
X1141980Y-40035175D01*
X1144075Y-40042993D01*
X1209901Y-40157007D01*
X1302993Y-40250099D01*
X1417007Y-40315925D01*
X1424823Y-40318019D01*
X982891Y-40759950D01*
X1061601Y-40812543D01*
X1061618Y-40812554D01*
X1114334Y-40840731D01*
X1114349Y-40840738D01*
X1259929Y-40901039D01*
X1259942Y-40901044D01*
X1317136Y-40918393D01*
X1317166Y-40918401D01*
X1471695Y-40949138D01*
X1471703Y-40949139D01*
X1531207Y-40955000D01*
X2249765Y-40955000D01*
X2256824Y-40954919D01*
X2366503Y-40931782D01*
X2396509Y-40919353D01*
X2396509Y-40919352D01*
X1795176Y-40318019D01*
X1802993Y-40315925D01*
X1917007Y-40250099D01*
X2010099Y-40157007D01*
X2075925Y-40042993D01*
X2078019Y-40035176D01*
X2679352Y-40636509D01*
X2679353Y-40636509D01*
X2683916Y-40625493D01*
X7179500Y-40625493D01*
X7179500Y-40744106D01*
X7179501Y-40744115D01*
X7210199Y-40858681D01*
X7210199Y-40858682D01*
X7210200Y-40858684D01*
X7210201Y-40858686D01*
X7269511Y-40961413D01*
X7353387Y-41045289D01*
X7456114Y-41104599D01*
X7570691Y-41135300D01*
X7570694Y-41135300D01*
X7689306Y-41135300D01*
X7689309Y-41135300D01*
X7803886Y-41104599D01*
X7906613Y-41045289D01*
X7990489Y-40961413D01*
X8049799Y-40858686D01*
X8080500Y-40744109D01*
X8080500Y-40625491D01*
X8049799Y-40510914D01*
X7990489Y-40408187D01*
X7906613Y-40324311D01*
X7803886Y-40265001D01*
X7803883Y-40265000D01*
X7803881Y-40264999D01*
X7689315Y-40234301D01*
X7689311Y-40234300D01*
X7689309Y-40234300D01*
X7570691Y-40234300D01*
X7570689Y-40234300D01*
X7570684Y-40234301D01*
X7456118Y-40264999D01*
X7456117Y-40264999D01*
X7353385Y-40324312D01*
X7269512Y-40408185D01*
X7210199Y-40510917D01*
X7210199Y-40510918D01*
X7179501Y-40625484D01*
X7179500Y-40625493D01*
X2683916Y-40625493D01*
X2691769Y-40606534D01*
X2694404Y-40599958D01*
X2694405Y-40599956D01*
X2714999Y-40489784D01*
X2715000Y-40489782D01*
X2715000Y-39210235D01*
X2714919Y-39203175D01*
X2691782Y-39093494D01*
X2679353Y-39063489D01*
X2078019Y-39664822D01*
X2075925Y-39657007D01*
X2010099Y-39542993D01*
X1917007Y-39449901D01*
X1802993Y-39384075D01*
X1795174Y-39381980D01*
X2396509Y-38780645D01*
X2366538Y-38768232D01*
X2361950Y-38766393D01*
X3429500Y-38766393D01*
X3429500Y-38885006D01*
X3429501Y-38885015D01*
X3460199Y-38999581D01*
X3460199Y-38999582D01*
X3460200Y-38999584D01*
X3460201Y-38999586D01*
X3519511Y-39102313D01*
X3603387Y-39186189D01*
X3706114Y-39245499D01*
X3820691Y-39276200D01*
X3820694Y-39276200D01*
X3939306Y-39276200D01*
X3939309Y-39276200D01*
X4053886Y-39245499D01*
X4156613Y-39186189D01*
X4240489Y-39102313D01*
X4299799Y-38999586D01*
X4330500Y-38885009D01*
X4330500Y-38766391D01*
X4299799Y-38651814D01*
X4240489Y-38549087D01*
X4156613Y-38465211D01*
X4053886Y-38405901D01*
X4053883Y-38405900D01*
X4053881Y-38405899D01*
X3939315Y-38375201D01*
X3939311Y-38375200D01*
X3939309Y-38375200D01*
X3820691Y-38375200D01*
X3820689Y-38375200D01*
X3820684Y-38375201D01*
X3706118Y-38405899D01*
X3706117Y-38405899D01*
X3603385Y-38465212D01*
X3519512Y-38549085D01*
X3460199Y-38651817D01*
X3460199Y-38651818D01*
X3429501Y-38766384D01*
X3429500Y-38766393D01*
X2361950Y-38766393D01*
X2359957Y-38765594D01*
X2249784Y-38745000D01*
X1531207Y-38745000D01*
X1471703Y-38750860D01*
X1471695Y-38750861D01*
X1317166Y-38781598D01*
X1317136Y-38781606D01*
X1259942Y-38798955D01*
X1259929Y-38798960D01*
X1114349Y-38859261D01*
X1114334Y-38859268D01*
X1061618Y-38887445D01*
X1061592Y-38887461D01*
X982891Y-38940047D01*
X982891Y-38940048D01*
X1424823Y-39381980D01*
X1417007Y-39384075D01*
X1302993Y-39449901D01*
X1209901Y-39542993D01*
X1144075Y-39657007D01*
X1141980Y-39664823D01*
X700048Y-39222891D01*
X700047Y-39222891D01*
X647461Y-39301592D01*
X647445Y-39301618D01*
X619268Y-39354334D01*
X619261Y-39354349D01*
X558960Y-39499929D01*
X558955Y-39499942D01*
X541606Y-39557136D01*
X541598Y-39557166D01*
X526770Y-39631716D01*
X499557Y-39672444D01*
X451514Y-39682000D01*
X410786Y-39654787D01*
X400000Y-39619230D01*
X400000Y-38922843D01*
X400000Y-37216381D01*
X659500Y-37216381D01*
X659500Y-37403618D01*
X696025Y-37587243D01*
X696028Y-37587253D01*
X767676Y-37760228D01*
X767677Y-37760230D01*
X767678Y-37760231D01*
X871698Y-37915908D01*
X1004092Y-38048302D01*
X1159769Y-38152322D01*
X1332749Y-38223973D01*
X1403328Y-38238012D01*
X1516381Y-38260500D01*
X1516384Y-38260500D01*
X1703619Y-38260500D01*
X1795851Y-38242153D01*
X1887251Y-38223973D01*
X2060231Y-38152322D01*
X2215908Y-38048302D01*
X2348302Y-37915908D01*
X2452322Y-37760231D01*
X2523973Y-37587251D01*
X2524022Y-37587007D01*
X2524067Y-37586938D01*
X2524888Y-37584236D01*
X2525707Y-37584484D01*
X2551241Y-37546282D01*
X2586791Y-37535500D01*
X5543385Y-37535500D01*
X5588640Y-37554245D01*
X13078479Y-45044084D01*
X13078482Y-45044088D01*
X13082130Y-45047736D01*
X13145564Y-45111170D01*
X13204168Y-45135444D01*
X13228442Y-45145499D01*
X13228445Y-45145500D01*
X13285500Y-45145500D01*
X13330755Y-45164245D01*
X13349500Y-45209500D01*
X13349500Y-45934821D01*
X13358233Y-45978722D01*
X13358234Y-45978724D01*
X13391494Y-46028502D01*
X13391496Y-46028504D01*
X13441278Y-46061767D01*
X13476446Y-46068762D01*
X13485179Y-46070500D01*
X13485180Y-46070500D01*
X16514821Y-46070500D01*
X16522104Y-46069050D01*
X16558722Y-46061767D01*
X16608504Y-46028504D01*
X16641767Y-45978722D01*
X16650500Y-45934820D01*
X16650500Y-43905180D01*
X16641767Y-43861278D01*
X16608504Y-43811496D01*
X16608502Y-43811494D01*
X16558724Y-43778234D01*
X16558722Y-43778233D01*
X16514821Y-43769500D01*
X16514820Y-43769500D01*
X13485180Y-43769500D01*
X13485179Y-43769500D01*
X13441277Y-43778233D01*
X13441275Y-43778234D01*
X13391497Y-43811494D01*
X13391494Y-43811497D01*
X13358234Y-43861275D01*
X13358233Y-43861277D01*
X13349500Y-43905178D01*
X13349500Y-44522785D01*
X13330755Y-44568040D01*
X13285500Y-44586785D01*
X13240245Y-44568040D01*
X11002898Y-42330693D01*
X11533600Y-42330693D01*
X11533600Y-42449306D01*
X11533601Y-42449315D01*
X11564299Y-42563881D01*
X11564299Y-42563882D01*
X11564300Y-42563884D01*
X11564301Y-42563886D01*
X11623611Y-42666613D01*
X11707487Y-42750489D01*
X11810214Y-42809799D01*
X11924791Y-42840500D01*
X11924794Y-42840500D01*
X12043406Y-42840500D01*
X12043409Y-42840500D01*
X12157986Y-42809799D01*
X12260713Y-42750489D01*
X12344589Y-42666613D01*
X12403899Y-42563886D01*
X12434600Y-42449309D01*
X12434600Y-42330691D01*
X12403899Y-42216114D01*
X12344589Y-42113387D01*
X12260713Y-42029511D01*
X12157986Y-41970201D01*
X12157983Y-41970200D01*
X12157981Y-41970199D01*
X12043415Y-41939501D01*
X12043411Y-41939500D01*
X12043409Y-41939500D01*
X11924791Y-41939500D01*
X11924789Y-41939500D01*
X11924784Y-41939501D01*
X11810218Y-41970199D01*
X11810217Y-41970199D01*
X11707485Y-42029512D01*
X11623612Y-42113385D01*
X11564299Y-42216117D01*
X11564299Y-42216118D01*
X11533601Y-42330684D01*
X11533600Y-42330693D01*
X11002898Y-42330693D01*
X9297698Y-40625493D01*
X12570600Y-40625493D01*
X12570600Y-40744106D01*
X12570601Y-40744115D01*
X12601299Y-40858681D01*
X12601299Y-40858682D01*
X12601300Y-40858684D01*
X12601301Y-40858686D01*
X12660611Y-40961413D01*
X12744487Y-41045289D01*
X12847214Y-41104599D01*
X12961791Y-41135300D01*
X12961794Y-41135300D01*
X13080406Y-41135300D01*
X13080409Y-41135300D01*
X13194986Y-41104599D01*
X13297713Y-41045289D01*
X13381589Y-40961413D01*
X13440899Y-40858686D01*
X13471600Y-40744109D01*
X13471600Y-40625491D01*
X13440899Y-40510914D01*
X13381589Y-40408187D01*
X13297713Y-40324311D01*
X13194986Y-40265001D01*
X13194983Y-40265000D01*
X13194981Y-40264999D01*
X13080415Y-40234301D01*
X13080411Y-40234300D01*
X13080409Y-40234300D01*
X12961791Y-40234300D01*
X12961789Y-40234300D01*
X12961784Y-40234301D01*
X12847218Y-40264999D01*
X12847217Y-40264999D01*
X12744485Y-40324312D01*
X12660612Y-40408185D01*
X12601299Y-40510917D01*
X12601299Y-40510918D01*
X12570601Y-40625484D01*
X12570600Y-40625493D01*
X9297698Y-40625493D01*
X8811798Y-40139593D01*
X13579500Y-40139593D01*
X13579500Y-40258206D01*
X13579501Y-40258215D01*
X13610199Y-40372781D01*
X13610199Y-40372782D01*
X13610200Y-40372784D01*
X13610201Y-40372786D01*
X13669511Y-40475513D01*
X13753387Y-40559389D01*
X13856114Y-40618699D01*
X13970691Y-40649400D01*
X13970694Y-40649400D01*
X14089306Y-40649400D01*
X14089309Y-40649400D01*
X14203886Y-40618699D01*
X14306613Y-40559389D01*
X14390489Y-40475513D01*
X14449799Y-40372786D01*
X14480500Y-40258209D01*
X14480500Y-40139591D01*
X14449799Y-40025014D01*
X14390489Y-39922287D01*
X14306613Y-39838411D01*
X14203886Y-39779101D01*
X14203883Y-39779100D01*
X14203881Y-39779099D01*
X14089315Y-39748401D01*
X14089311Y-39748400D01*
X14089309Y-39748400D01*
X13970691Y-39748400D01*
X13970689Y-39748400D01*
X13970684Y-39748401D01*
X13856118Y-39779099D01*
X13856117Y-39779099D01*
X13753385Y-39838412D01*
X13669512Y-39922285D01*
X13610199Y-40025017D01*
X13610199Y-40025018D01*
X13579501Y-40139584D01*
X13579500Y-40139593D01*
X8811798Y-40139593D01*
X6868898Y-38196693D01*
X11308600Y-38196693D01*
X11308600Y-38315306D01*
X11308601Y-38315315D01*
X11339299Y-38429881D01*
X11339299Y-38429882D01*
X11339300Y-38429884D01*
X11339301Y-38429886D01*
X11398611Y-38532613D01*
X11482487Y-38616489D01*
X11585214Y-38675799D01*
X11699791Y-38706500D01*
X11699794Y-38706500D01*
X11818406Y-38706500D01*
X11818409Y-38706500D01*
X11932986Y-38675799D01*
X12035713Y-38616489D01*
X12119589Y-38532613D01*
X12178899Y-38429886D01*
X12209600Y-38315309D01*
X12209600Y-38196691D01*
X12178899Y-38082114D01*
X12119589Y-37979387D01*
X12035713Y-37895511D01*
X11932986Y-37836201D01*
X11932983Y-37836200D01*
X11932981Y-37836199D01*
X11818415Y-37805501D01*
X11818411Y-37805500D01*
X11818409Y-37805500D01*
X11699791Y-37805500D01*
X11699789Y-37805500D01*
X11699784Y-37805501D01*
X11585218Y-37836199D01*
X11585217Y-37836199D01*
X11482485Y-37895512D01*
X11398612Y-37979385D01*
X11339299Y-38082117D01*
X11339299Y-38082118D01*
X11308601Y-38196684D01*
X11308600Y-38196693D01*
X6868898Y-38196693D01*
X5863472Y-37191267D01*
X5863472Y-37191266D01*
X5791034Y-37118828D01*
X5766760Y-37108774D01*
X5708157Y-37084499D01*
X5708155Y-37084499D01*
X5618445Y-37084499D01*
X5610997Y-37084499D01*
X5610989Y-37084500D01*
X2586791Y-37084500D01*
X2541536Y-37065755D01*
X2525417Y-37035603D01*
X2524888Y-37035764D01*
X2524080Y-37033101D01*
X2524022Y-37032993D01*
X2523974Y-37032752D01*
X2523973Y-37032751D01*
X2523973Y-37032749D01*
X2464615Y-36889449D01*
X2452323Y-36859771D01*
X2452322Y-36859769D01*
X2348302Y-36704092D01*
X2215908Y-36571698D01*
X2060231Y-36467678D01*
X2060230Y-36467677D01*
X2060228Y-36467676D01*
X1887253Y-36396028D01*
X1887254Y-36396028D01*
X1887251Y-36396027D01*
X1887247Y-36396026D01*
X1887243Y-36396025D01*
X1703619Y-36359500D01*
X1703616Y-36359500D01*
X1516384Y-36359500D01*
X1516381Y-36359500D01*
X1332756Y-36396025D01*
X1332746Y-36396028D01*
X1159771Y-36467676D01*
X1004090Y-36571699D01*
X871699Y-36704090D01*
X767676Y-36859771D01*
X696028Y-37032746D01*
X696025Y-37032756D01*
X659500Y-37216381D01*
X400000Y-37216381D01*
X400000Y-34676381D01*
X659500Y-34676381D01*
X659500Y-34863618D01*
X696025Y-35047243D01*
X696028Y-35047253D01*
X767676Y-35220228D01*
X767677Y-35220230D01*
X767678Y-35220231D01*
X871698Y-35375908D01*
X1004092Y-35508302D01*
X1159769Y-35612322D01*
X1332749Y-35683973D01*
X1405599Y-35698463D01*
X1516381Y-35720500D01*
X1516384Y-35720500D01*
X1703619Y-35720500D01*
X1795851Y-35702153D01*
X1887251Y-35683973D01*
X2060231Y-35612322D01*
X2215908Y-35508302D01*
X2348302Y-35375908D01*
X2452322Y-35220231D01*
X2523973Y-35047251D01*
X2560500Y-34863616D01*
X2560500Y-34676384D01*
X2560500Y-34676381D01*
X2523974Y-34492756D01*
X2523973Y-34492749D01*
X2452322Y-34319769D01*
X2348302Y-34164092D01*
X2215908Y-34031698D01*
X2060231Y-33927678D01*
X2060230Y-33927677D01*
X2060228Y-33927676D01*
X1887253Y-33856028D01*
X1887254Y-33856028D01*
X1887251Y-33856027D01*
X1887247Y-33856026D01*
X1887243Y-33856025D01*
X1703619Y-33819500D01*
X1703616Y-33819500D01*
X1516384Y-33819500D01*
X1516381Y-33819500D01*
X1332756Y-33856025D01*
X1332746Y-33856028D01*
X1159771Y-33927676D01*
X1004090Y-34031699D01*
X871699Y-34164090D01*
X767676Y-34319771D01*
X696028Y-34492746D01*
X696025Y-34492756D01*
X659500Y-34676381D01*
X400000Y-34676381D01*
X400000Y-33727193D01*
X5169400Y-33727193D01*
X5169400Y-33845806D01*
X5169401Y-33845815D01*
X5200099Y-33960381D01*
X5200099Y-33960382D01*
X5200100Y-33960384D01*
X5200101Y-33960386D01*
X5259411Y-34063113D01*
X5343287Y-34146989D01*
X5446014Y-34206299D01*
X5560591Y-34237000D01*
X5560594Y-34237000D01*
X5679206Y-34237000D01*
X5679209Y-34237000D01*
X5793786Y-34206299D01*
X5896513Y-34146989D01*
X5980389Y-34063113D01*
X6039699Y-33960386D01*
X6070400Y-33845809D01*
X6070400Y-33809863D01*
X6089145Y-33764608D01*
X6134400Y-33745863D01*
X6155538Y-33749455D01*
X6220390Y-33772148D01*
X6220399Y-33772150D01*
X6250792Y-33774999D01*
X6692500Y-33774999D01*
X6692500Y-33375000D01*
X5830112Y-33375000D01*
X5827299Y-33376164D01*
X5797690Y-33368225D01*
X5797658Y-33368305D01*
X5797055Y-33368055D01*
X5795331Y-33367593D01*
X5793784Y-33366700D01*
X5793781Y-33366699D01*
X5679215Y-33336001D01*
X5679211Y-33336000D01*
X5679209Y-33336000D01*
X5560591Y-33336000D01*
X5560589Y-33336000D01*
X5560584Y-33336001D01*
X5446018Y-33366699D01*
X5446017Y-33366699D01*
X5343285Y-33426012D01*
X5259412Y-33509885D01*
X5200099Y-33612617D01*
X5200099Y-33612618D01*
X5169401Y-33727184D01*
X5169400Y-33727193D01*
X400000Y-33727193D01*
X400000Y-32136381D01*
X659500Y-32136381D01*
X659500Y-32323618D01*
X696025Y-32507243D01*
X696028Y-32507253D01*
X767676Y-32680228D01*
X767677Y-32680230D01*
X767678Y-32680231D01*
X871698Y-32835908D01*
X1004092Y-32968302D01*
X1159769Y-33072322D01*
X1332749Y-33143973D01*
X1405599Y-33158463D01*
X1516381Y-33180500D01*
X1516384Y-33180500D01*
X1703619Y-33180500D01*
X1795851Y-33162153D01*
X1887251Y-33143973D01*
X2060231Y-33072322D01*
X2212190Y-32970786D01*
X5855000Y-32970786D01*
X5855000Y-32975000D01*
X6692500Y-32975000D01*
X7092500Y-32975000D01*
X7929999Y-32975000D01*
X7929999Y-32970804D01*
X7927148Y-32940394D01*
X7882347Y-32812358D01*
X7882344Y-32812352D01*
X7801792Y-32703208D01*
X7801791Y-32703207D01*
X7692647Y-32622655D01*
X7692643Y-32622653D01*
X7564602Y-32577850D01*
X7564600Y-32577849D01*
X7534213Y-32575000D01*
X7092500Y-32575000D01*
X7092500Y-32975000D01*
X6692500Y-32975000D01*
X6692500Y-32575000D01*
X6250804Y-32575000D01*
X6220394Y-32577851D01*
X6092358Y-32622652D01*
X6092352Y-32622655D01*
X5983208Y-32703207D01*
X5983207Y-32703208D01*
X5902655Y-32812352D01*
X5902653Y-32812356D01*
X5857850Y-32940397D01*
X5857849Y-32940399D01*
X5855000Y-32970786D01*
X2212190Y-32970786D01*
X2215908Y-32968302D01*
X2348302Y-32835908D01*
X2452322Y-32680231D01*
X2523973Y-32507251D01*
X2560500Y-32323616D01*
X2560500Y-32136384D01*
X2560500Y-32136381D01*
X2530580Y-31985965D01*
X2523973Y-31952749D01*
X2452322Y-31779769D01*
X2348302Y-31624092D01*
X2215908Y-31491698D01*
X2060231Y-31387678D01*
X2060230Y-31387677D01*
X2060228Y-31387676D01*
X1887253Y-31316028D01*
X1887254Y-31316028D01*
X1887251Y-31316027D01*
X1887247Y-31316026D01*
X1887243Y-31316025D01*
X1703619Y-31279500D01*
X1703616Y-31279500D01*
X1516384Y-31279500D01*
X1516381Y-31279500D01*
X1332756Y-31316025D01*
X1332746Y-31316028D01*
X1159771Y-31387676D01*
X1004090Y-31491699D01*
X871699Y-31624090D01*
X767676Y-31779771D01*
X696028Y-31952746D01*
X696025Y-31952756D01*
X659500Y-32136381D01*
X400000Y-32136381D01*
X400000Y-31165693D01*
X3328700Y-31165693D01*
X3328700Y-31284306D01*
X3328701Y-31284315D01*
X3359399Y-31398881D01*
X3359399Y-31398882D01*
X3359400Y-31398884D01*
X3359401Y-31398886D01*
X3418711Y-31501613D01*
X3502587Y-31585489D01*
X3605314Y-31644799D01*
X3719891Y-31675500D01*
X3719894Y-31675500D01*
X3838506Y-31675500D01*
X3838509Y-31675500D01*
X3953086Y-31644799D01*
X4055813Y-31585489D01*
X4108395Y-31532907D01*
X4153649Y-31514161D01*
X4198904Y-31532906D01*
X4215469Y-31561596D01*
X4234999Y-31634482D01*
X4235001Y-31634488D01*
X4290502Y-31730616D01*
X4296896Y-31779180D01*
X4267077Y-31818041D01*
X4260933Y-31821160D01*
X4257241Y-31822790D01*
X4257235Y-31822794D01*
X4177794Y-31902235D01*
X4132415Y-32005009D01*
X4129500Y-32030135D01*
X4129500Y-32419858D01*
X4129501Y-32419867D01*
X4132415Y-32444993D01*
X4144034Y-32471306D01*
X4177794Y-32547765D01*
X4257235Y-32627206D01*
X4360009Y-32672585D01*
X4385135Y-32675500D01*
X5649864Y-32675499D01*
X5674991Y-32672585D01*
X5777765Y-32627206D01*
X5857206Y-32547765D01*
X5890966Y-32471306D01*
X14099500Y-32471306D01*
X14099500Y-32648693D01*
X14134105Y-32822663D01*
X14134107Y-32822672D01*
X14182870Y-32940394D01*
X14201987Y-32986547D01*
X14300536Y-33134035D01*
X14425965Y-33259464D01*
X14573453Y-33358013D01*
X14652022Y-33390557D01*
X14737327Y-33425892D01*
X14737331Y-33425893D01*
X14737334Y-33425894D01*
X14806924Y-33439736D01*
X14911306Y-33460500D01*
X14911309Y-33460500D01*
X15088694Y-33460500D01*
X15175678Y-33443197D01*
X15262666Y-33425894D01*
X15262669Y-33425892D01*
X15262672Y-33425892D01*
X15308693Y-33406829D01*
X15426547Y-33358013D01*
X15574035Y-33259464D01*
X15699464Y-33134035D01*
X15798013Y-32986547D01*
X15865894Y-32822666D01*
X15894227Y-32680228D01*
X15900500Y-32648693D01*
X15900500Y-32471306D01*
X15865894Y-32297336D01*
X15865892Y-32297327D01*
X15808070Y-32157732D01*
X15799227Y-32136384D01*
X15799226Y-32136381D01*
X18439500Y-32136381D01*
X18439500Y-32323618D01*
X18476025Y-32507243D01*
X18476028Y-32507253D01*
X18547676Y-32680228D01*
X18547677Y-32680230D01*
X18547678Y-32680231D01*
X18651698Y-32835908D01*
X18784092Y-32968302D01*
X18939769Y-33072322D01*
X19112749Y-33143973D01*
X19185599Y-33158463D01*
X19296381Y-33180500D01*
X19296384Y-33180500D01*
X19483619Y-33180500D01*
X19575851Y-33162153D01*
X19667251Y-33143973D01*
X19840231Y-33072322D01*
X19995908Y-32968302D01*
X20128302Y-32835908D01*
X20232322Y-32680231D01*
X20303973Y-32507251D01*
X20340500Y-32323616D01*
X20340500Y-32136384D01*
X20340500Y-32136381D01*
X20310580Y-31985965D01*
X20303973Y-31952749D01*
X20232322Y-31779769D01*
X20128302Y-31624092D01*
X19995908Y-31491698D01*
X19840231Y-31387678D01*
X19840230Y-31387677D01*
X19840228Y-31387676D01*
X19667253Y-31316028D01*
X19667254Y-31316028D01*
X19667251Y-31316027D01*
X19667247Y-31316026D01*
X19667243Y-31316025D01*
X19483619Y-31279500D01*
X19483616Y-31279500D01*
X19296384Y-31279500D01*
X19296381Y-31279500D01*
X19112756Y-31316025D01*
X19112746Y-31316028D01*
X18939771Y-31387676D01*
X18784090Y-31491699D01*
X18651699Y-31624090D01*
X18547676Y-31779771D01*
X18476028Y-31952746D01*
X18476025Y-31952756D01*
X18439500Y-32136381D01*
X15799226Y-32136381D01*
X15798013Y-32133453D01*
X15699464Y-31985965D01*
X15574035Y-31860536D01*
X15426547Y-31761987D01*
X15403533Y-31752454D01*
X15262672Y-31694107D01*
X15262663Y-31694105D01*
X15088694Y-31659500D01*
X15088691Y-31659500D01*
X14911309Y-31659500D01*
X14911306Y-31659500D01*
X14737336Y-31694105D01*
X14737327Y-31694107D01*
X14573455Y-31761986D01*
X14573452Y-31761987D01*
X14425963Y-31860537D01*
X14300537Y-31985963D01*
X14201987Y-32133452D01*
X14201986Y-32133455D01*
X14134107Y-32297327D01*
X14134105Y-32297336D01*
X14099500Y-32471306D01*
X5890966Y-32471306D01*
X5902585Y-32444991D01*
X5905500Y-32419865D01*
X5905499Y-32030136D01*
X5902585Y-32005009D01*
X5857206Y-31902235D01*
X5777765Y-31822794D01*
X5674991Y-31777415D01*
X5649865Y-31774500D01*
X5649864Y-31774500D01*
X5104613Y-31774500D01*
X5059358Y-31755755D01*
X5040613Y-31710500D01*
X5049187Y-31678500D01*
X5050920Y-31675498D01*
X5074599Y-31634486D01*
X5105300Y-31519909D01*
X5105300Y-31401291D01*
X5074599Y-31286714D01*
X5024129Y-31199299D01*
X5017737Y-31150736D01*
X5047556Y-31111874D01*
X5079556Y-31103300D01*
X5940500Y-31103300D01*
X5985755Y-31122045D01*
X6004500Y-31167300D01*
X6004500Y-31469858D01*
X6004501Y-31469867D01*
X6007415Y-31494993D01*
X6024904Y-31534600D01*
X6052794Y-31597765D01*
X6132235Y-31677206D01*
X6235009Y-31722585D01*
X6260135Y-31725500D01*
X7524864Y-31725499D01*
X7549991Y-31722585D01*
X7652765Y-31677206D01*
X7732206Y-31597765D01*
X7777585Y-31494991D01*
X7780500Y-31469865D01*
X7780499Y-31080136D01*
X7777641Y-31055493D01*
X8023400Y-31055493D01*
X8023400Y-31174106D01*
X8023401Y-31174115D01*
X8054099Y-31288681D01*
X8054099Y-31288682D01*
X8054100Y-31288684D01*
X8054101Y-31288686D01*
X8113411Y-31391413D01*
X8197287Y-31475289D01*
X8300014Y-31534599D01*
X8414591Y-31565300D01*
X8414594Y-31565300D01*
X8533206Y-31565300D01*
X8533209Y-31565300D01*
X8647786Y-31534599D01*
X8750513Y-31475289D01*
X8834389Y-31391413D01*
X8893699Y-31288686D01*
X8924400Y-31174109D01*
X8924400Y-31068493D01*
X13446200Y-31068493D01*
X13446200Y-31187106D01*
X13446201Y-31187115D01*
X13476899Y-31301681D01*
X13476899Y-31301682D01*
X13476900Y-31301684D01*
X13476901Y-31301686D01*
X13536211Y-31404413D01*
X13620087Y-31488289D01*
X13722814Y-31547599D01*
X13837391Y-31578300D01*
X13837394Y-31578300D01*
X13956006Y-31578300D01*
X13956009Y-31578300D01*
X14070586Y-31547599D01*
X14173313Y-31488289D01*
X14257189Y-31404413D01*
X14316499Y-31301686D01*
X14347200Y-31187109D01*
X14347200Y-31068491D01*
X14316499Y-30953914D01*
X14257189Y-30851187D01*
X14173313Y-30767311D01*
X14070586Y-30708001D01*
X14070583Y-30708000D01*
X14070581Y-30707999D01*
X13956015Y-30677301D01*
X13956011Y-30677300D01*
X13956009Y-30677300D01*
X13837391Y-30677300D01*
X13837389Y-30677300D01*
X13837384Y-30677301D01*
X13722818Y-30707999D01*
X13722817Y-30707999D01*
X13620085Y-30767312D01*
X13536212Y-30851185D01*
X13476899Y-30953917D01*
X13476899Y-30953918D01*
X13446201Y-31068484D01*
X13446200Y-31068493D01*
X8924400Y-31068493D01*
X8924400Y-31055491D01*
X8893699Y-30940914D01*
X8834389Y-30838187D01*
X8750513Y-30754311D01*
X8647786Y-30695001D01*
X8647783Y-30695000D01*
X8647781Y-30694999D01*
X8533215Y-30664301D01*
X8533211Y-30664300D01*
X8533209Y-30664300D01*
X8414591Y-30664300D01*
X8414589Y-30664300D01*
X8414584Y-30664301D01*
X8300018Y-30694999D01*
X8300017Y-30694999D01*
X8197285Y-30754312D01*
X8113412Y-30838185D01*
X8054099Y-30940917D01*
X8054099Y-30940918D01*
X8023401Y-31055484D01*
X8023400Y-31055493D01*
X7777641Y-31055493D01*
X7777585Y-31055009D01*
X7732206Y-30952235D01*
X7652765Y-30872794D01*
X7549991Y-30827415D01*
X7524865Y-30824500D01*
X7524864Y-30824500D01*
X6787415Y-30824500D01*
X6742160Y-30805755D01*
X6695472Y-30759067D01*
X6695472Y-30759066D01*
X6623034Y-30686628D01*
X6598760Y-30676574D01*
X6540157Y-30652299D01*
X6540155Y-30652299D01*
X6450445Y-30652299D01*
X6442997Y-30652299D01*
X6442989Y-30652300D01*
X5914312Y-30652300D01*
X5869057Y-30633555D01*
X5850312Y-30588300D01*
X5869057Y-30543045D01*
X5879780Y-30532322D01*
X5898589Y-30513513D01*
X5957899Y-30410786D01*
X5988600Y-30296209D01*
X5988600Y-30177591D01*
X5957899Y-30063014D01*
X5898589Y-29960287D01*
X5814713Y-29876411D01*
X5711986Y-29817101D01*
X5711983Y-29817100D01*
X5711981Y-29817099D01*
X5597415Y-29786401D01*
X5597411Y-29786400D01*
X5597409Y-29786400D01*
X5478791Y-29786400D01*
X5478789Y-29786400D01*
X5478784Y-29786401D01*
X5364218Y-29817099D01*
X5364217Y-29817099D01*
X5261485Y-29876412D01*
X5177612Y-29960285D01*
X5118299Y-30063017D01*
X5118299Y-30063018D01*
X5087601Y-30177584D01*
X5087600Y-30177593D01*
X5087600Y-30296206D01*
X5087601Y-30296215D01*
X5118299Y-30410781D01*
X5118299Y-30410782D01*
X5177612Y-30513514D01*
X5207143Y-30543045D01*
X5225888Y-30588300D01*
X5207143Y-30633555D01*
X5161888Y-30652300D01*
X4178711Y-30652300D01*
X4178703Y-30652299D01*
X4171255Y-30652299D01*
X4081545Y-30652299D01*
X4081542Y-30652299D01*
X4022938Y-30676574D01*
X3998664Y-30686629D01*
X3935229Y-30750065D01*
X3935227Y-30750066D01*
X3921644Y-30763648D01*
X3876389Y-30782392D01*
X3859829Y-30780212D01*
X3838509Y-30774500D01*
X3719891Y-30774500D01*
X3719889Y-30774500D01*
X3719884Y-30774501D01*
X3605318Y-30805199D01*
X3605317Y-30805199D01*
X3502585Y-30864512D01*
X3418712Y-30948385D01*
X3359399Y-31051117D01*
X3359399Y-31051118D01*
X3328701Y-31165684D01*
X3328700Y-31165693D01*
X400000Y-31165693D01*
X400000Y-29596381D01*
X659500Y-29596381D01*
X659500Y-29783618D01*
X696025Y-29967243D01*
X696028Y-29967253D01*
X767676Y-30140228D01*
X767677Y-30140230D01*
X767678Y-30140231D01*
X871698Y-30295908D01*
X1004092Y-30428302D01*
X1159769Y-30532322D01*
X1332749Y-30603973D01*
X1405599Y-30618463D01*
X1516381Y-30640500D01*
X1516384Y-30640500D01*
X1703619Y-30640500D01*
X1795851Y-30622153D01*
X1887251Y-30603973D01*
X2060231Y-30532322D01*
X2215908Y-30428302D01*
X2348302Y-30295908D01*
X2452322Y-30140231D01*
X2523973Y-29967251D01*
X2545809Y-29857472D01*
X2560500Y-29783618D01*
X2560500Y-29596381D01*
X18439500Y-29596381D01*
X18439500Y-29783618D01*
X18476025Y-29967243D01*
X18476028Y-29967253D01*
X18547676Y-30140228D01*
X18547677Y-30140230D01*
X18547678Y-30140231D01*
X18651698Y-30295908D01*
X18784092Y-30428302D01*
X18939769Y-30532322D01*
X19112749Y-30603973D01*
X19185599Y-30618463D01*
X19296381Y-30640500D01*
X19296384Y-30640500D01*
X19483619Y-30640500D01*
X19575851Y-30622153D01*
X19667251Y-30603973D01*
X19840231Y-30532322D01*
X19995908Y-30428302D01*
X20128302Y-30295908D01*
X20232322Y-30140231D01*
X20303973Y-29967251D01*
X20325809Y-29857472D01*
X20340500Y-29783618D01*
X20340500Y-29596381D01*
X20303974Y-29412756D01*
X20303973Y-29412749D01*
X20232322Y-29239769D01*
X20128302Y-29084092D01*
X19995908Y-28951698D01*
X19840231Y-28847678D01*
X19840230Y-28847677D01*
X19840228Y-28847676D01*
X19667253Y-28776028D01*
X19667254Y-28776028D01*
X19667251Y-28776027D01*
X19667247Y-28776026D01*
X19667243Y-28776025D01*
X19483619Y-28739500D01*
X19483616Y-28739500D01*
X19296384Y-28739500D01*
X19296381Y-28739500D01*
X19112756Y-28776025D01*
X19112746Y-28776028D01*
X18939771Y-28847676D01*
X18784090Y-28951699D01*
X18651699Y-29084090D01*
X18547676Y-29239771D01*
X18476028Y-29412746D01*
X18476025Y-29412756D01*
X18439500Y-29596381D01*
X2560500Y-29596381D01*
X2523974Y-29412756D01*
X2523973Y-29412749D01*
X2452322Y-29239769D01*
X2348302Y-29084092D01*
X2215908Y-28951698D01*
X2060231Y-28847678D01*
X2060230Y-28847677D01*
X2060228Y-28847676D01*
X1887253Y-28776028D01*
X1887254Y-28776028D01*
X1887251Y-28776027D01*
X1887247Y-28776026D01*
X1887243Y-28776025D01*
X1703619Y-28739500D01*
X1703616Y-28739500D01*
X1516384Y-28739500D01*
X1516381Y-28739500D01*
X1332756Y-28776025D01*
X1332746Y-28776028D01*
X1159771Y-28847676D01*
X1004090Y-28951699D01*
X871699Y-29084090D01*
X767676Y-29239771D01*
X696028Y-29412746D01*
X696025Y-29412756D01*
X659500Y-29596381D01*
X400000Y-29596381D01*
X400000Y-27380769D01*
X418745Y-27335514D01*
X464000Y-27316769D01*
X509255Y-27335514D01*
X526770Y-27368284D01*
X541597Y-27442829D01*
X541606Y-27442863D01*
X558955Y-27500057D01*
X558960Y-27500070D01*
X619261Y-27645650D01*
X619268Y-27645665D01*
X647445Y-27698381D01*
X647461Y-27698407D01*
X700047Y-27777107D01*
X700048Y-27777108D01*
X1141980Y-27335175D01*
X1144075Y-27342993D01*
X1209901Y-27457007D01*
X1302993Y-27550099D01*
X1417007Y-27615925D01*
X1424823Y-27618019D01*
X982891Y-28059950D01*
X1061601Y-28112543D01*
X1061618Y-28112554D01*
X1114334Y-28140731D01*
X1114349Y-28140738D01*
X1259929Y-28201039D01*
X1259942Y-28201044D01*
X1317136Y-28218393D01*
X1317166Y-28218401D01*
X1471695Y-28249138D01*
X1471703Y-28249139D01*
X1531207Y-28255000D01*
X2249765Y-28255000D01*
X2256824Y-28254919D01*
X2366503Y-28231782D01*
X2396509Y-28219353D01*
X2396509Y-28219352D01*
X1795176Y-27618019D01*
X1802993Y-27615925D01*
X1917007Y-27550099D01*
X2010099Y-27457007D01*
X2075925Y-27342993D01*
X2078019Y-27335176D01*
X2679352Y-27936509D01*
X2679353Y-27936509D01*
X2691769Y-27906535D01*
X2694405Y-27899957D01*
X2694405Y-27899956D01*
X2714999Y-27789784D01*
X2715000Y-27789782D01*
X2715000Y-27768067D01*
X3975000Y-27768067D01*
X3985612Y-27856437D01*
X3985615Y-27856448D01*
X4041078Y-27997094D01*
X4041079Y-27997095D01*
X4132434Y-28117563D01*
X4132436Y-28117565D01*
X4252904Y-28208920D01*
X4252905Y-28208921D01*
X4393551Y-28264384D01*
X4393562Y-28264387D01*
X4481932Y-28275000D01*
X5325000Y-28275000D01*
X5725000Y-28275000D01*
X6568068Y-28275000D01*
X6656437Y-28264387D01*
X6656448Y-28264384D01*
X6797094Y-28208921D01*
X6797095Y-28208920D01*
X6878364Y-28147292D01*
X6917563Y-28117565D01*
X6917565Y-28117563D01*
X7008920Y-27997095D01*
X7008921Y-27997094D01*
X7064384Y-27856448D01*
X7064387Y-27856437D01*
X7075000Y-27768067D01*
X7075000Y-27275000D01*
X5725000Y-27275000D01*
X5725000Y-28275000D01*
X5325000Y-28275000D01*
X5325000Y-27275000D01*
X3975000Y-27275000D01*
X3975000Y-27768067D01*
X2715000Y-27768067D01*
X2715000Y-26510235D01*
X2714919Y-26503175D01*
X2691782Y-26393494D01*
X2686993Y-26381932D01*
X3975000Y-26381932D01*
X3975000Y-26875000D01*
X5325000Y-26875000D01*
X5325000Y-25875000D01*
X4481932Y-25875000D01*
X4393562Y-25885612D01*
X4393551Y-25885615D01*
X4252905Y-25941078D01*
X4252904Y-25941079D01*
X4132436Y-26032434D01*
X4132434Y-26032436D01*
X4041079Y-26152904D01*
X4041078Y-26152905D01*
X3985615Y-26293551D01*
X3985612Y-26293562D01*
X3975000Y-26381932D01*
X2686993Y-26381932D01*
X2679353Y-26363489D01*
X2078019Y-26964822D01*
X2075925Y-26957007D01*
X2010099Y-26842993D01*
X1917007Y-26749901D01*
X1802993Y-26684075D01*
X1795174Y-26681980D01*
X2396510Y-26080645D01*
X2366538Y-26068232D01*
X2359957Y-26065594D01*
X2249784Y-26045000D01*
X1531207Y-26045000D01*
X1471703Y-26050860D01*
X1471695Y-26050861D01*
X1317166Y-26081598D01*
X1317136Y-26081606D01*
X1259942Y-26098955D01*
X1259929Y-26098960D01*
X1114349Y-26159261D01*
X1114334Y-26159268D01*
X1061618Y-26187445D01*
X1061592Y-26187461D01*
X982891Y-26240047D01*
X982891Y-26240048D01*
X1424823Y-26681980D01*
X1417007Y-26684075D01*
X1302993Y-26749901D01*
X1209901Y-26842993D01*
X1144075Y-26957007D01*
X1141980Y-26964823D01*
X700048Y-26522891D01*
X700047Y-26522891D01*
X647461Y-26601592D01*
X647445Y-26601618D01*
X619268Y-26654334D01*
X619261Y-26654349D01*
X558960Y-26799929D01*
X558955Y-26799942D01*
X541606Y-26857136D01*
X541598Y-26857166D01*
X526770Y-26931716D01*
X499557Y-26972444D01*
X451514Y-26982000D01*
X410786Y-26954787D01*
X400000Y-26919230D01*
X400000Y-26222843D01*
X400000Y-24516381D01*
X659500Y-24516381D01*
X659500Y-24703618D01*
X696025Y-24887243D01*
X696028Y-24887253D01*
X767676Y-25060228D01*
X767677Y-25060230D01*
X767678Y-25060231D01*
X871698Y-25215908D01*
X1004092Y-25348302D01*
X1159769Y-25452322D01*
X1159770Y-25452322D01*
X1159771Y-25452323D01*
X1161442Y-25453015D01*
X1332749Y-25523973D01*
X1391278Y-25535615D01*
X1516381Y-25560500D01*
X1516384Y-25560500D01*
X1703619Y-25560500D01*
X1795851Y-25542153D01*
X1887251Y-25523973D01*
X2060231Y-25452322D01*
X2215908Y-25348302D01*
X2348302Y-25215908D01*
X2386065Y-25159393D01*
X4932300Y-25159393D01*
X4932300Y-25278006D01*
X4932301Y-25278015D01*
X4962999Y-25392581D01*
X4962999Y-25392582D01*
X4963000Y-25392584D01*
X4963001Y-25392586D01*
X5022311Y-25495313D01*
X5106187Y-25579189D01*
X5208914Y-25638499D01*
X5323491Y-25669200D01*
X5323494Y-25669200D01*
X5442106Y-25669200D01*
X5442109Y-25669200D01*
X5556686Y-25638499D01*
X5659413Y-25579189D01*
X5743289Y-25495313D01*
X5802599Y-25392586D01*
X5833300Y-25278009D01*
X5833300Y-25159391D01*
X5802599Y-25044814D01*
X5743289Y-24942087D01*
X5659413Y-24858211D01*
X5556686Y-24798901D01*
X5556683Y-24798900D01*
X5556681Y-24798899D01*
X5442115Y-24768201D01*
X5442111Y-24768200D01*
X5442109Y-24768200D01*
X5323491Y-24768200D01*
X5323489Y-24768200D01*
X5323484Y-24768201D01*
X5208918Y-24798899D01*
X5208917Y-24798899D01*
X5106185Y-24858212D01*
X5022312Y-24942085D01*
X4962999Y-25044817D01*
X4962999Y-25044818D01*
X4932301Y-25159384D01*
X4932300Y-25159393D01*
X2386065Y-25159393D01*
X2414333Y-25117087D01*
X2452322Y-25060231D01*
X2458708Y-25044814D01*
X2523973Y-24887251D01*
X2547654Y-24768200D01*
X2560500Y-24703618D01*
X2560500Y-24516381D01*
X2529006Y-24358052D01*
X2523973Y-24332749D01*
X2461991Y-24183113D01*
X2452323Y-24159771D01*
X2449342Y-24155309D01*
X2394390Y-24073067D01*
X4175000Y-24073067D01*
X4185612Y-24161437D01*
X4185615Y-24161448D01*
X4241078Y-24302094D01*
X4241079Y-24302095D01*
X4332434Y-24422563D01*
X4332436Y-24422565D01*
X4452904Y-24513920D01*
X4452905Y-24513921D01*
X4593551Y-24569384D01*
X4593562Y-24569387D01*
X4681932Y-24580000D01*
X4775000Y-24580000D01*
X4775000Y-23755000D01*
X4175000Y-23755000D01*
X4175000Y-24073067D01*
X2394390Y-24073067D01*
X2348302Y-24004092D01*
X2215908Y-23871698D01*
X2081221Y-23781703D01*
X2081221Y-23781702D01*
X2060231Y-23767677D01*
X1887253Y-23696028D01*
X1887254Y-23696028D01*
X1887251Y-23696027D01*
X1887247Y-23696026D01*
X1887243Y-23696025D01*
X1703619Y-23659500D01*
X1703616Y-23659500D01*
X1516384Y-23659500D01*
X1516381Y-23659500D01*
X1332756Y-23696025D01*
X1332746Y-23696028D01*
X1159771Y-23767676D01*
X1004090Y-23871699D01*
X871699Y-24004090D01*
X767676Y-24159771D01*
X696028Y-24332746D01*
X696025Y-24332756D01*
X659500Y-24516381D01*
X400000Y-24516381D01*
X400000Y-23036932D01*
X4175000Y-23036932D01*
X4175000Y-23355000D01*
X4775000Y-23355000D01*
X4775000Y-22530000D01*
X4681932Y-22530000D01*
X4593562Y-22540612D01*
X4593551Y-22540615D01*
X4452905Y-22596078D01*
X4452904Y-22596079D01*
X4332436Y-22687434D01*
X4332434Y-22687436D01*
X4241079Y-22807904D01*
X4241078Y-22807905D01*
X4185615Y-22948551D01*
X4185612Y-22948562D01*
X4175000Y-23036932D01*
X400000Y-23036932D01*
X400000Y-21976381D01*
X659500Y-21976381D01*
X659500Y-22163618D01*
X696025Y-22347243D01*
X696028Y-22347253D01*
X767676Y-22520228D01*
X767677Y-22520230D01*
X767678Y-22520231D01*
X871698Y-22675908D01*
X1004092Y-22808302D01*
X1159769Y-22912322D01*
X1159770Y-22912322D01*
X1159771Y-22912323D01*
X1172115Y-22917436D01*
X1332749Y-22983973D01*
X1405599Y-22998463D01*
X1516381Y-23020500D01*
X1516384Y-23020500D01*
X1703619Y-23020500D01*
X1795851Y-23002153D01*
X1887251Y-22983973D01*
X2060231Y-22912322D01*
X2215908Y-22808302D01*
X2348302Y-22675908D01*
X2452322Y-22520231D01*
X2523973Y-22347251D01*
X2560500Y-22163616D01*
X2560500Y-21976384D01*
X2560500Y-21976381D01*
X2536871Y-21857594D01*
X2523973Y-21792749D01*
X2452322Y-21619769D01*
X2348302Y-21464092D01*
X2215908Y-21331698D01*
X2060231Y-21227678D01*
X2060230Y-21227677D01*
X2060228Y-21227676D01*
X1887253Y-21156028D01*
X1887254Y-21156028D01*
X1887251Y-21156027D01*
X1887247Y-21156026D01*
X1887243Y-21156025D01*
X1703619Y-21119500D01*
X1703616Y-21119500D01*
X1516384Y-21119500D01*
X1516381Y-21119500D01*
X1332756Y-21156025D01*
X1332746Y-21156028D01*
X1159771Y-21227676D01*
X1004090Y-21331699D01*
X871699Y-21464090D01*
X767676Y-21619771D01*
X696028Y-21792746D01*
X696025Y-21792756D01*
X659500Y-21976381D01*
X400000Y-21976381D01*
X400000Y-20728393D01*
X3429500Y-20728393D01*
X3429500Y-20847006D01*
X3429501Y-20847015D01*
X3460199Y-20961581D01*
X3460199Y-20961582D01*
X3460200Y-20961584D01*
X3460201Y-20961586D01*
X3519511Y-21064313D01*
X3603387Y-21148189D01*
X3706114Y-21207499D01*
X3820691Y-21238200D01*
X3820694Y-21238200D01*
X3939306Y-21238200D01*
X3939309Y-21238200D01*
X4053886Y-21207499D01*
X4156613Y-21148189D01*
X4240489Y-21064313D01*
X4299799Y-20961586D01*
X4330500Y-20847009D01*
X4330500Y-20728391D01*
X4299799Y-20613814D01*
X4240489Y-20511087D01*
X4156613Y-20427211D01*
X4053886Y-20367901D01*
X4053883Y-20367900D01*
X4053881Y-20367899D01*
X3939315Y-20337201D01*
X3939311Y-20337200D01*
X3939309Y-20337200D01*
X3820691Y-20337200D01*
X3820689Y-20337200D01*
X3820684Y-20337201D01*
X3706118Y-20367899D01*
X3706117Y-20367899D01*
X3603385Y-20427212D01*
X3519512Y-20511085D01*
X3460199Y-20613817D01*
X3460199Y-20613818D01*
X3429501Y-20728384D01*
X3429500Y-20728393D01*
X400000Y-20728393D01*
X400000Y-19436381D01*
X659500Y-19436381D01*
X659500Y-19623618D01*
X696025Y-19807243D01*
X696028Y-19807253D01*
X767676Y-19980228D01*
X767677Y-19980230D01*
X767678Y-19980231D01*
X871698Y-20135908D01*
X1004092Y-20268302D01*
X1159769Y-20372322D01*
X1332749Y-20443973D01*
X1405599Y-20458463D01*
X1516381Y-20480500D01*
X1516384Y-20480500D01*
X1703619Y-20480500D01*
X1807969Y-20459743D01*
X1887251Y-20443973D01*
X2060231Y-20372322D01*
X2215908Y-20268302D01*
X2348302Y-20135908D01*
X2452322Y-19980231D01*
X2523973Y-19807251D01*
X2550219Y-19675302D01*
X2560500Y-19623618D01*
X2560500Y-19436381D01*
X2538463Y-19325599D01*
X2523973Y-19252749D01*
X2452322Y-19079769D01*
X2348302Y-18924092D01*
X2215908Y-18791698D01*
X2060231Y-18687678D01*
X2060230Y-18687677D01*
X2060228Y-18687676D01*
X1919200Y-18629261D01*
X1887251Y-18616027D01*
X1887247Y-18616026D01*
X1887243Y-18616025D01*
X1703619Y-18579500D01*
X1703616Y-18579500D01*
X1516384Y-18579500D01*
X1516381Y-18579500D01*
X1332756Y-18616025D01*
X1332746Y-18616028D01*
X1159771Y-18687676D01*
X1004090Y-18791699D01*
X871699Y-18924090D01*
X767676Y-19079771D01*
X696028Y-19252746D01*
X696025Y-19252756D01*
X659500Y-19436381D01*
X400000Y-19436381D01*
X400000Y-16896381D01*
X659500Y-16896381D01*
X659500Y-17083618D01*
X696025Y-17267243D01*
X696028Y-17267253D01*
X767676Y-17440228D01*
X767677Y-17440230D01*
X767678Y-17440231D01*
X871698Y-17595908D01*
X1004092Y-17728302D01*
X1159769Y-17832322D01*
X1332749Y-17903973D01*
X1405599Y-17918463D01*
X1516381Y-17940500D01*
X1516384Y-17940500D01*
X1703619Y-17940500D01*
X1809196Y-17919499D01*
X1887251Y-17903973D01*
X2060231Y-17832322D01*
X2215908Y-17728302D01*
X2348302Y-17595908D01*
X2452322Y-17440231D01*
X2523973Y-17267251D01*
X2560500Y-17083616D01*
X2560500Y-16896384D01*
X2560500Y-16896381D01*
X2523974Y-16712756D01*
X2523973Y-16712749D01*
X2452322Y-16539769D01*
X2348302Y-16384092D01*
X2215908Y-16251698D01*
X2060231Y-16147678D01*
X2060230Y-16147677D01*
X2060228Y-16147676D01*
X1887253Y-16076028D01*
X1887254Y-16076028D01*
X1887251Y-16076027D01*
X1887247Y-16076026D01*
X1887243Y-16076025D01*
X1703619Y-16039500D01*
X1703616Y-16039500D01*
X1516384Y-16039500D01*
X1516381Y-16039500D01*
X1332756Y-16076025D01*
X1332746Y-16076028D01*
X1159771Y-16147676D01*
X1004090Y-16251699D01*
X871699Y-16384090D01*
X767676Y-16539771D01*
X696028Y-16712746D01*
X696025Y-16712756D01*
X659500Y-16896381D01*
X400000Y-16896381D01*
X400000Y-15653545D01*
X4672699Y-15653545D01*
X4672699Y-15659135D01*
X4672699Y-15750702D01*
X4672700Y-15750711D01*
X4672700Y-21900979D01*
X4672699Y-21900993D01*
X4672699Y-21995856D01*
X4675963Y-22003735D01*
X4675965Y-22003739D01*
X4707030Y-22078736D01*
X4779465Y-22151171D01*
X4779467Y-22151172D01*
X5156255Y-22527960D01*
X5175000Y-22573215D01*
X5175000Y-24580000D01*
X5268068Y-24580000D01*
X5356437Y-24569387D01*
X5356448Y-24569384D01*
X5497094Y-24513921D01*
X5497095Y-24513920D01*
X5617563Y-24422565D01*
X5617565Y-24422563D01*
X5708920Y-24302095D01*
X5708921Y-24302094D01*
X5726653Y-24257128D01*
X5760692Y-24221905D01*
X5809669Y-24221068D01*
X5831446Y-24235351D01*
X6622840Y-25026745D01*
X6641585Y-25072000D01*
X6622840Y-25117255D01*
X6577585Y-25136000D01*
X6531391Y-25136000D01*
X6531389Y-25136000D01*
X6531384Y-25136001D01*
X6416818Y-25166699D01*
X6416817Y-25166699D01*
X6314085Y-25226012D01*
X6230212Y-25309885D01*
X6170899Y-25412617D01*
X6170899Y-25412618D01*
X6140201Y-25527184D01*
X6140200Y-25527193D01*
X6140200Y-25645806D01*
X6140201Y-25645815D01*
X6170899Y-25760381D01*
X6170901Y-25760386D01*
X6181648Y-25779001D01*
X6188041Y-25827565D01*
X6158221Y-25866426D01*
X6126222Y-25875000D01*
X5725000Y-25875000D01*
X5725000Y-26875000D01*
X7075000Y-26875000D01*
X7075000Y-26381932D01*
X7064387Y-26293562D01*
X7064384Y-26293551D01*
X7008921Y-26152905D01*
X7008920Y-26152904D01*
X6917565Y-26032436D01*
X6917560Y-26032431D01*
X6898874Y-26018261D01*
X6874141Y-25975980D01*
X6886550Y-25928595D01*
X6892291Y-25922011D01*
X6951186Y-25863116D01*
X6951189Y-25863113D01*
X7010499Y-25760386D01*
X7041200Y-25645809D01*
X7041200Y-25599615D01*
X7059945Y-25554360D01*
X7105200Y-25535615D01*
X7150455Y-25554360D01*
X8105755Y-26509660D01*
X8124500Y-26554915D01*
X8124500Y-27756516D01*
X8139353Y-27850300D01*
X8139356Y-27850308D01*
X8183277Y-27936509D01*
X8196950Y-27963342D01*
X8286658Y-28053050D01*
X8286660Y-28053051D01*
X8286661Y-28053052D01*
X8399690Y-28110643D01*
X8399696Y-28110646D01*
X8493481Y-28125500D01*
X10556518Y-28125499D01*
X10650304Y-28110646D01*
X10763338Y-28053052D01*
X10763339Y-28053052D01*
X10763339Y-28053051D01*
X10763342Y-28053050D01*
X10853050Y-27963342D01*
X10910646Y-27850304D01*
X10925500Y-27756519D01*
X10925499Y-27295293D01*
X14267800Y-27295293D01*
X14267800Y-27413906D01*
X14267801Y-27413915D01*
X14298499Y-27528481D01*
X14298499Y-27528482D01*
X14298500Y-27528484D01*
X14298501Y-27528486D01*
X14357811Y-27631213D01*
X14441687Y-27715089D01*
X14544414Y-27774399D01*
X14658991Y-27805100D01*
X14658994Y-27805100D01*
X14777606Y-27805100D01*
X14777609Y-27805100D01*
X14892186Y-27774399D01*
X14994913Y-27715089D01*
X15078789Y-27631213D01*
X15138099Y-27528486D01*
X15168800Y-27413909D01*
X15168800Y-27295291D01*
X15138099Y-27180714D01*
X15078789Y-27077987D01*
X14994913Y-26994111D01*
X14892186Y-26934801D01*
X14892183Y-26934800D01*
X14892181Y-26934799D01*
X14777615Y-26904101D01*
X14777611Y-26904100D01*
X14777609Y-26904100D01*
X14658991Y-26904100D01*
X14658989Y-26904100D01*
X14658984Y-26904101D01*
X14544418Y-26934799D01*
X14544417Y-26934799D01*
X14441685Y-26994112D01*
X14357812Y-27077985D01*
X14298499Y-27180717D01*
X14298499Y-27180718D01*
X14267801Y-27295284D01*
X14267800Y-27295293D01*
X10925499Y-27295293D01*
X10925499Y-26994112D01*
X10925499Y-26507259D01*
X10925499Y-26393483D01*
X10917172Y-26340904D01*
X10928607Y-26293274D01*
X10970373Y-26267681D01*
X10996949Y-26269074D01*
X11003386Y-26270799D01*
X11003388Y-26270799D01*
X11003391Y-26270800D01*
X11003394Y-26270800D01*
X11122006Y-26270800D01*
X11122009Y-26270800D01*
X11236586Y-26240099D01*
X11339313Y-26180789D01*
X11423189Y-26096913D01*
X11439758Y-26068216D01*
X11449778Y-26050860D01*
X11482499Y-25994186D01*
X11513200Y-25879609D01*
X11513200Y-25760991D01*
X11482499Y-25646414D01*
X11423189Y-25543687D01*
X11339313Y-25459811D01*
X11236586Y-25400501D01*
X11236583Y-25400500D01*
X11236581Y-25400499D01*
X11122015Y-25369801D01*
X11122011Y-25369800D01*
X11122009Y-25369800D01*
X11003391Y-25369800D01*
X11003389Y-25369800D01*
X11003384Y-25369801D01*
X10888818Y-25400499D01*
X10888817Y-25400499D01*
X10786085Y-25459812D01*
X10702212Y-25543685D01*
X10642899Y-25646417D01*
X10642899Y-25646418D01*
X10612201Y-25760984D01*
X10612200Y-25760993D01*
X10612200Y-25879606D01*
X10612201Y-25879615D01*
X10629704Y-25944938D01*
X10623310Y-25993502D01*
X10584449Y-26023321D01*
X10559023Y-26024656D01*
X10559020Y-26024697D01*
X10558711Y-26024672D01*
X10557887Y-26024716D01*
X10556521Y-26024500D01*
X8493483Y-26024500D01*
X8399699Y-26039353D01*
X8399689Y-26039356D01*
X8357364Y-26060921D01*
X8308532Y-26064763D01*
X8283056Y-26049151D01*
X8179679Y-25945774D01*
X8160934Y-25900519D01*
X8179679Y-25855264D01*
X8208370Y-25838700D01*
X8249924Y-25827565D01*
X8262486Y-25824199D01*
X8365213Y-25764889D01*
X8449089Y-25681013D01*
X8452604Y-25674923D01*
X8491463Y-25645103D01*
X8540028Y-25651494D01*
X8558806Y-25667961D01*
X8560609Y-25670311D01*
X8560611Y-25670313D01*
X8644487Y-25754189D01*
X8747214Y-25813499D01*
X8861791Y-25844200D01*
X8861794Y-25844200D01*
X8980406Y-25844200D01*
X8980409Y-25844200D01*
X9094986Y-25813499D01*
X9197713Y-25754189D01*
X9281589Y-25670313D01*
X9340899Y-25567586D01*
X9371600Y-25453009D01*
X9371600Y-25334391D01*
X9340899Y-25219814D01*
X9281589Y-25117087D01*
X9197713Y-25033211D01*
X9094986Y-24973901D01*
X9094983Y-24973900D01*
X9094981Y-24973899D01*
X8980415Y-24943201D01*
X8980411Y-24943200D01*
X8980409Y-24943200D01*
X8861791Y-24943200D01*
X8861789Y-24943200D01*
X8861784Y-24943201D01*
X8747218Y-24973899D01*
X8747217Y-24973899D01*
X8644485Y-25033212D01*
X8560612Y-25117085D01*
X8557092Y-25123182D01*
X8518228Y-25152998D01*
X8469664Y-25146602D01*
X8450892Y-25130136D01*
X8449092Y-25127790D01*
X8365214Y-25043912D01*
X8365213Y-25043911D01*
X8262486Y-24984601D01*
X8262483Y-24984600D01*
X8262481Y-24984599D01*
X8147915Y-24953901D01*
X8147911Y-24953900D01*
X8147909Y-24953900D01*
X8029291Y-24953900D01*
X8029289Y-24953900D01*
X8029284Y-24953901D01*
X7914718Y-24984599D01*
X7914717Y-24984599D01*
X7811985Y-25043912D01*
X7728112Y-25127785D01*
X7705645Y-25166699D01*
X7674977Y-25219818D01*
X7668800Y-25230516D01*
X7654299Y-25284631D01*
X7624479Y-25323491D01*
X7575914Y-25329884D01*
X7547225Y-25313320D01*
X6773659Y-24539754D01*
X6754914Y-24494499D01*
X6773659Y-24449244D01*
X6818914Y-24430499D01*
X7156517Y-24430499D01*
X7156518Y-24430499D01*
X7250304Y-24415646D01*
X7363338Y-24358052D01*
X7363339Y-24358052D01*
X7363339Y-24358051D01*
X7363342Y-24358050D01*
X7396199Y-24325193D01*
X10612200Y-24325193D01*
X10612200Y-24443806D01*
X10612201Y-24443815D01*
X10642899Y-24558381D01*
X10642899Y-24558382D01*
X10642900Y-24558384D01*
X10642901Y-24558386D01*
X10702211Y-24661113D01*
X10786087Y-24744989D01*
X10888814Y-24804299D01*
X11003391Y-24835000D01*
X11003394Y-24835000D01*
X11122006Y-24835000D01*
X11122009Y-24835000D01*
X11236586Y-24804299D01*
X11339313Y-24744989D01*
X11423189Y-24661113D01*
X11482499Y-24558386D01*
X11484622Y-24550460D01*
X11493754Y-24516381D01*
X18439500Y-24516381D01*
X18439500Y-24703618D01*
X18476025Y-24887243D01*
X18476028Y-24887253D01*
X18547676Y-25060228D01*
X18547677Y-25060230D01*
X18547678Y-25060231D01*
X18651698Y-25215908D01*
X18784092Y-25348302D01*
X18939769Y-25452322D01*
X18939770Y-25452322D01*
X18939771Y-25452323D01*
X18941442Y-25453015D01*
X19112749Y-25523973D01*
X19171278Y-25535615D01*
X19296381Y-25560500D01*
X19296384Y-25560500D01*
X19483619Y-25560500D01*
X19575851Y-25542153D01*
X19667251Y-25523973D01*
X19840231Y-25452322D01*
X19995908Y-25348302D01*
X20128302Y-25215908D01*
X20232322Y-25060231D01*
X20303973Y-24887251D01*
X20327654Y-24768200D01*
X20340500Y-24703618D01*
X20340500Y-24516381D01*
X20309006Y-24358052D01*
X20303973Y-24332749D01*
X20241991Y-24183113D01*
X20232323Y-24159771D01*
X20229342Y-24155309D01*
X20128302Y-24004092D01*
X19995908Y-23871698D01*
X19840231Y-23767678D01*
X19840230Y-23767677D01*
X19840228Y-23767676D01*
X19667253Y-23696028D01*
X19667254Y-23696028D01*
X19667251Y-23696027D01*
X19667247Y-23696026D01*
X19667243Y-23696025D01*
X19483619Y-23659500D01*
X19483616Y-23659500D01*
X19296384Y-23659500D01*
X19296381Y-23659500D01*
X19112756Y-23696025D01*
X19112746Y-23696028D01*
X18939771Y-23767676D01*
X18784090Y-23871699D01*
X18651699Y-24004090D01*
X18547676Y-24159771D01*
X18476028Y-24332746D01*
X18476025Y-24332756D01*
X18439500Y-24516381D01*
X11493754Y-24516381D01*
X11499035Y-24496675D01*
X11499035Y-24496674D01*
X11504117Y-24477704D01*
X11513200Y-24443809D01*
X11513200Y-24325191D01*
X11482499Y-24210614D01*
X11423189Y-24107887D01*
X11339313Y-24024011D01*
X11236586Y-23964701D01*
X11236583Y-23964700D01*
X11236581Y-23964699D01*
X11122015Y-23934001D01*
X11122011Y-23934000D01*
X11122009Y-23934000D01*
X11003391Y-23934000D01*
X11003389Y-23934000D01*
X11003384Y-23934001D01*
X10888818Y-23964699D01*
X10888817Y-23964699D01*
X10786085Y-24024012D01*
X10702212Y-24107885D01*
X10642899Y-24210617D01*
X10642899Y-24210618D01*
X10612201Y-24325184D01*
X10612200Y-24325193D01*
X7396199Y-24325193D01*
X7453050Y-24268342D01*
X7510646Y-24155304D01*
X7525500Y-24061519D01*
X7525500Y-23847193D01*
X11931300Y-23847193D01*
X11931300Y-23965806D01*
X11931301Y-23965815D01*
X11961999Y-24080381D01*
X11961999Y-24080382D01*
X11962000Y-24080384D01*
X11962001Y-24080386D01*
X12021311Y-24183113D01*
X12105187Y-24266989D01*
X12207914Y-24326299D01*
X12322491Y-24357000D01*
X12322494Y-24357000D01*
X12441106Y-24357000D01*
X12441109Y-24357000D01*
X12555686Y-24326299D01*
X12658413Y-24266989D01*
X12742289Y-24183113D01*
X12801599Y-24080386D01*
X12832300Y-23965809D01*
X12832300Y-23847191D01*
X12801599Y-23732614D01*
X12742289Y-23629887D01*
X12658413Y-23546011D01*
X12555686Y-23486701D01*
X12555683Y-23486700D01*
X12555681Y-23486699D01*
X12441115Y-23456001D01*
X12441111Y-23456000D01*
X12441109Y-23456000D01*
X12322491Y-23456000D01*
X12322489Y-23456000D01*
X12322484Y-23456001D01*
X12207918Y-23486699D01*
X12207917Y-23486699D01*
X12105185Y-23546012D01*
X12021312Y-23629885D01*
X11961999Y-23732617D01*
X11961999Y-23732618D01*
X11931301Y-23847184D01*
X11931300Y-23847193D01*
X7525500Y-23847193D01*
X7525499Y-23546012D01*
X7525499Y-23048483D01*
X7525499Y-23048481D01*
X7510646Y-22954696D01*
X7453050Y-22841658D01*
X7444243Y-22832851D01*
X7425500Y-22787598D01*
X7425500Y-22562400D01*
X7433508Y-22543067D01*
X15700000Y-22543067D01*
X15710612Y-22631437D01*
X15710615Y-22631448D01*
X15766078Y-22772094D01*
X15766079Y-22772095D01*
X15857434Y-22892563D01*
X15857436Y-22892565D01*
X15977904Y-22983920D01*
X15977905Y-22983921D01*
X16118551Y-23039384D01*
X16118562Y-23039387D01*
X16206932Y-23050000D01*
X16700000Y-23050000D01*
X17100000Y-23050000D01*
X17593068Y-23050000D01*
X17681437Y-23039387D01*
X17681448Y-23039384D01*
X17822094Y-22983921D01*
X17822095Y-22983920D01*
X17942563Y-22892565D01*
X17942565Y-22892563D01*
X18033920Y-22772095D01*
X18033921Y-22772094D01*
X18089384Y-22631448D01*
X18089387Y-22631437D01*
X18100000Y-22543067D01*
X18100000Y-22375000D01*
X17100000Y-22375000D01*
X17100000Y-23050000D01*
X16700000Y-23050000D01*
X16700000Y-22375000D01*
X15700000Y-22375000D01*
X15700000Y-22543067D01*
X7433508Y-22543067D01*
X7444245Y-22517145D01*
X7489500Y-22498400D01*
X10480745Y-22498400D01*
X12296289Y-22498400D01*
X12296297Y-22498401D01*
X12303745Y-22498401D01*
X12393453Y-22498401D01*
X12393455Y-22498401D01*
X12422757Y-22486263D01*
X12452059Y-22474126D01*
X12469224Y-22467015D01*
X12476336Y-22464070D01*
X12539770Y-22400636D01*
X12539770Y-22400634D01*
X12548769Y-22391636D01*
X12548770Y-22391633D01*
X12936670Y-22003736D01*
X12948001Y-21976381D01*
X18439500Y-21976381D01*
X18439500Y-22163618D01*
X18476025Y-22347243D01*
X18476028Y-22347253D01*
X18547676Y-22520228D01*
X18547677Y-22520230D01*
X18547678Y-22520231D01*
X18651698Y-22675908D01*
X18784092Y-22808302D01*
X18939769Y-22912322D01*
X18939770Y-22912322D01*
X18939771Y-22912323D01*
X18952115Y-22917436D01*
X19112749Y-22983973D01*
X19185599Y-22998463D01*
X19296381Y-23020500D01*
X19296384Y-23020500D01*
X19483619Y-23020500D01*
X19575851Y-23002153D01*
X19667251Y-22983973D01*
X19840231Y-22912322D01*
X19995908Y-22808302D01*
X20128302Y-22675908D01*
X20232322Y-22520231D01*
X20303973Y-22347251D01*
X20340500Y-22163616D01*
X20340500Y-21976384D01*
X20340500Y-21976381D01*
X20316871Y-21857594D01*
X20303973Y-21792749D01*
X20232322Y-21619769D01*
X20128302Y-21464092D01*
X19995908Y-21331698D01*
X19840231Y-21227678D01*
X19840230Y-21227677D01*
X19840228Y-21227676D01*
X19667253Y-21156028D01*
X19667254Y-21156028D01*
X19667251Y-21156027D01*
X19667247Y-21156026D01*
X19667243Y-21156025D01*
X19483619Y-21119500D01*
X19483616Y-21119500D01*
X19296384Y-21119500D01*
X19296381Y-21119500D01*
X19112756Y-21156025D01*
X19112746Y-21156028D01*
X18939771Y-21227676D01*
X18784090Y-21331699D01*
X18651699Y-21464090D01*
X18547676Y-21619771D01*
X18476028Y-21792746D01*
X18476025Y-21792756D01*
X18439500Y-21976381D01*
X12948001Y-21976381D01*
X12971000Y-21920855D01*
X12971000Y-21831146D01*
X12971000Y-21806932D01*
X15700000Y-21806932D01*
X15700000Y-21975000D01*
X16700000Y-21975000D01*
X17100000Y-21975000D01*
X18100000Y-21975000D01*
X18100000Y-21806932D01*
X18089387Y-21718562D01*
X18089384Y-21718551D01*
X18033921Y-21577905D01*
X18033920Y-21577904D01*
X17942565Y-21457436D01*
X17942563Y-21457434D01*
X17822095Y-21366079D01*
X17822094Y-21366078D01*
X17681448Y-21310615D01*
X17681437Y-21310612D01*
X17593068Y-21300000D01*
X17100000Y-21300000D01*
X17100000Y-21975000D01*
X16700000Y-21975000D01*
X16700000Y-21300000D01*
X16206932Y-21300000D01*
X16118562Y-21310612D01*
X16118551Y-21310615D01*
X15977905Y-21366078D01*
X15977904Y-21366079D01*
X15857436Y-21457434D01*
X15857434Y-21457436D01*
X15777998Y-21562185D01*
X15759948Y-21593448D01*
X15710615Y-21718551D01*
X15710612Y-21718562D01*
X15700000Y-21806932D01*
X12971000Y-21806932D01*
X12971000Y-21179845D01*
X12989745Y-21134590D01*
X13035000Y-21115845D01*
X13067000Y-21124420D01*
X13098311Y-21142498D01*
X13098313Y-21142498D01*
X13098314Y-21142499D01*
X13212891Y-21173200D01*
X13212894Y-21173200D01*
X13331506Y-21173200D01*
X13331509Y-21173200D01*
X13446086Y-21142499D01*
X13548813Y-21083189D01*
X13606809Y-21025193D01*
X13870600Y-21025193D01*
X13870600Y-21143806D01*
X13870601Y-21143815D01*
X13901299Y-21258381D01*
X13901299Y-21258382D01*
X13901300Y-21258384D01*
X13901301Y-21258386D01*
X13960611Y-21361113D01*
X14044487Y-21444989D01*
X14147214Y-21504299D01*
X14261791Y-21535000D01*
X14261794Y-21535000D01*
X14380406Y-21535000D01*
X14380409Y-21535000D01*
X14494986Y-21504299D01*
X14597713Y-21444989D01*
X14681589Y-21361113D01*
X14700592Y-21328197D01*
X14739452Y-21298380D01*
X14788017Y-21304773D01*
X14817836Y-21343634D01*
X14849199Y-21460682D01*
X14849200Y-21460684D01*
X14849201Y-21460686D01*
X14908511Y-21563413D01*
X14992387Y-21647289D01*
X15095114Y-21706599D01*
X15209691Y-21737300D01*
X15209694Y-21737300D01*
X15328306Y-21737300D01*
X15328309Y-21737300D01*
X15442886Y-21706599D01*
X15545613Y-21647289D01*
X15629489Y-21563413D01*
X15688799Y-21460686D01*
X15719500Y-21346109D01*
X15719500Y-21227491D01*
X15688799Y-21112914D01*
X15629489Y-21010187D01*
X15545613Y-20926311D01*
X15442886Y-20867001D01*
X15442883Y-20867000D01*
X15442881Y-20866999D01*
X15328315Y-20836301D01*
X15328311Y-20836300D01*
X15328309Y-20836300D01*
X15209691Y-20836300D01*
X15209689Y-20836300D01*
X15209684Y-20836301D01*
X15095118Y-20866999D01*
X15095117Y-20866999D01*
X14992385Y-20926312D01*
X14908510Y-21010187D01*
X14889507Y-21043101D01*
X14850645Y-21072920D01*
X14802081Y-21066525D01*
X14772263Y-21027664D01*
X14740900Y-20910618D01*
X14740900Y-20910617D01*
X14740899Y-20910616D01*
X14740899Y-20910614D01*
X14681589Y-20807887D01*
X14597713Y-20724011D01*
X14494986Y-20664701D01*
X14494983Y-20664700D01*
X14494981Y-20664699D01*
X14380415Y-20634001D01*
X14380411Y-20634000D01*
X14380409Y-20634000D01*
X14261791Y-20634000D01*
X14261789Y-20634000D01*
X14261784Y-20634001D01*
X14147218Y-20664699D01*
X14147217Y-20664699D01*
X14044485Y-20724012D01*
X13960612Y-20807885D01*
X13901299Y-20910617D01*
X13901299Y-20910618D01*
X13870601Y-21025184D01*
X13870600Y-21025193D01*
X13606809Y-21025193D01*
X13632689Y-20999313D01*
X13691999Y-20896586D01*
X13722700Y-20782009D01*
X13722700Y-20663391D01*
X13691999Y-20548814D01*
X13632689Y-20446087D01*
X13548813Y-20362211D01*
X13446086Y-20302901D01*
X13446083Y-20302900D01*
X13446081Y-20302899D01*
X13331515Y-20272201D01*
X13331511Y-20272200D01*
X13331509Y-20272200D01*
X13212891Y-20272200D01*
X13212889Y-20272200D01*
X13212884Y-20272201D01*
X13100564Y-20302297D01*
X13052000Y-20295904D01*
X13022181Y-20257042D01*
X13020000Y-20240478D01*
X13020000Y-16864114D01*
X13038744Y-16818860D01*
X13350247Y-16507357D01*
X13395500Y-16488613D01*
X13440755Y-16507358D01*
X13459500Y-16552613D01*
X13459500Y-16699175D01*
X13465500Y-16744758D01*
X13465501Y-16744760D01*
X13512150Y-16844799D01*
X13512151Y-16844800D01*
X13594160Y-16926809D01*
X13593149Y-16927819D01*
X13616126Y-16963887D01*
X13605524Y-17011709D01*
X13594101Y-17023132D01*
X13594160Y-17023191D01*
X13512151Y-17105199D01*
X13465500Y-17205241D01*
X13459500Y-17250814D01*
X13459500Y-17649175D01*
X13465500Y-17694758D01*
X13465501Y-17694760D01*
X13512150Y-17794799D01*
X13512151Y-17794800D01*
X13590199Y-17872848D01*
X13590201Y-17872850D01*
X13690240Y-17919499D01*
X13735821Y-17925500D01*
X13868746Y-17925499D01*
X13913999Y-17944244D01*
X13932745Y-17989499D01*
X13924171Y-18021499D01*
X13893099Y-18075317D01*
X13893099Y-18075318D01*
X13862401Y-18189884D01*
X13862400Y-18189893D01*
X13862400Y-18308506D01*
X13862401Y-18308515D01*
X13893099Y-18423081D01*
X13893099Y-18423082D01*
X13893100Y-18423084D01*
X13893101Y-18423086D01*
X13952411Y-18525813D01*
X14036287Y-18609689D01*
X14139014Y-18668999D01*
X14253591Y-18699700D01*
X14253594Y-18699700D01*
X14372206Y-18699700D01*
X14372209Y-18699700D01*
X14486786Y-18668999D01*
X14589513Y-18609689D01*
X14673389Y-18525813D01*
X14732699Y-18423086D01*
X14763400Y-18308509D01*
X14763400Y-18189891D01*
X14732699Y-18075314D01*
X14732698Y-18075313D01*
X14732698Y-18075311D01*
X14701629Y-18021499D01*
X14695235Y-17972935D01*
X14725054Y-17934074D01*
X14757054Y-17925499D01*
X15255084Y-17925499D01*
X15300339Y-17944244D01*
X15586340Y-18230245D01*
X15605085Y-18275500D01*
X15586340Y-18320755D01*
X15541085Y-18339500D01*
X15466791Y-18339500D01*
X15466789Y-18339500D01*
X15466784Y-18339501D01*
X15352218Y-18370199D01*
X15352217Y-18370199D01*
X15249485Y-18429512D01*
X15165612Y-18513385D01*
X15106299Y-18616117D01*
X15106299Y-18616118D01*
X15075601Y-18730684D01*
X15075600Y-18730693D01*
X15075600Y-18849306D01*
X15075601Y-18849315D01*
X15106299Y-18963881D01*
X15106299Y-18963882D01*
X15106300Y-18963884D01*
X15106301Y-18963886D01*
X15165611Y-19066613D01*
X15249487Y-19150489D01*
X15352214Y-19209799D01*
X15466791Y-19240500D01*
X15466794Y-19240500D01*
X15585406Y-19240500D01*
X15585409Y-19240500D01*
X15699986Y-19209799D01*
X15753501Y-19178901D01*
X15802063Y-19172507D01*
X15840925Y-19202326D01*
X15849500Y-19234327D01*
X15849500Y-19581516D01*
X15863543Y-19670185D01*
X15864354Y-19675304D01*
X15921950Y-19788342D01*
X16011658Y-19878050D01*
X16011660Y-19878051D01*
X16011661Y-19878052D01*
X16104399Y-19925304D01*
X16124696Y-19935646D01*
X16218481Y-19950500D01*
X17581518Y-19950499D01*
X17675304Y-19935646D01*
X17788338Y-19878052D01*
X17788339Y-19878052D01*
X17788339Y-19878051D01*
X17788342Y-19878050D01*
X17878050Y-19788342D01*
X17935646Y-19675304D01*
X17950500Y-19581519D01*
X17950500Y-19436381D01*
X18439500Y-19436381D01*
X18439500Y-19623618D01*
X18476025Y-19807243D01*
X18476028Y-19807253D01*
X18547676Y-19980228D01*
X18547677Y-19980230D01*
X18547678Y-19980231D01*
X18651698Y-20135908D01*
X18784092Y-20268302D01*
X18939769Y-20372322D01*
X19112749Y-20443973D01*
X19185599Y-20458463D01*
X19296381Y-20480500D01*
X19296384Y-20480500D01*
X19483619Y-20480500D01*
X19587969Y-20459743D01*
X19667251Y-20443973D01*
X19840231Y-20372322D01*
X19995908Y-20268302D01*
X20128302Y-20135908D01*
X20232322Y-19980231D01*
X20303973Y-19807251D01*
X20330219Y-19675302D01*
X20340500Y-19623618D01*
X20340500Y-19436381D01*
X20318463Y-19325599D01*
X20303973Y-19252749D01*
X20232322Y-19079769D01*
X20128302Y-18924092D01*
X19995908Y-18791698D01*
X19840231Y-18687678D01*
X19840230Y-18687677D01*
X19840228Y-18687676D01*
X19699200Y-18629261D01*
X19667251Y-18616027D01*
X19667247Y-18616026D01*
X19667243Y-18616025D01*
X19483619Y-18579500D01*
X19483616Y-18579500D01*
X19296384Y-18579500D01*
X19296381Y-18579500D01*
X19112756Y-18616025D01*
X19112746Y-18616028D01*
X18939771Y-18687676D01*
X18784090Y-18791699D01*
X18651699Y-18924090D01*
X18547676Y-19079771D01*
X18476028Y-19252746D01*
X18476025Y-19252756D01*
X18439500Y-19436381D01*
X17950500Y-19436381D01*
X17950499Y-19209800D01*
X17950499Y-18868483D01*
X17947463Y-18849315D01*
X17935646Y-18774696D01*
X17878050Y-18661658D01*
X17788342Y-18571950D01*
X17788339Y-18571948D01*
X17788337Y-18571947D01*
X17675309Y-18514356D01*
X17675302Y-18514353D01*
X17619985Y-18505592D01*
X17581519Y-18499500D01*
X17581516Y-18499500D01*
X16519915Y-18499500D01*
X16474660Y-18480755D01*
X15765250Y-17771345D01*
X15746505Y-17726090D01*
X15752505Y-17699036D01*
X15754498Y-17694762D01*
X15754499Y-17694759D01*
X15759272Y-17658504D01*
X15760500Y-17649179D01*
X15760499Y-17250822D01*
X15754499Y-17205240D01*
X15752501Y-17200955D01*
X15750365Y-17152018D01*
X15765248Y-17128655D01*
X16402311Y-16491593D01*
X16779500Y-16491593D01*
X16779500Y-16610206D01*
X16779501Y-16610215D01*
X16810199Y-16724781D01*
X16810199Y-16724782D01*
X16810200Y-16724784D01*
X16810201Y-16724786D01*
X16869511Y-16827513D01*
X16953387Y-16911389D01*
X17056114Y-16970699D01*
X17170691Y-17001400D01*
X17170694Y-17001400D01*
X17289306Y-17001400D01*
X17289309Y-17001400D01*
X17403886Y-16970699D01*
X17506613Y-16911389D01*
X17521621Y-16896381D01*
X18439500Y-16896381D01*
X18439500Y-17083618D01*
X18476025Y-17267243D01*
X18476028Y-17267253D01*
X18547676Y-17440228D01*
X18547677Y-17440230D01*
X18547678Y-17440231D01*
X18651698Y-17595908D01*
X18784092Y-17728302D01*
X18939769Y-17832322D01*
X19112749Y-17903973D01*
X19185599Y-17918463D01*
X19296381Y-17940500D01*
X19296384Y-17940500D01*
X19483619Y-17940500D01*
X19589196Y-17919499D01*
X19667251Y-17903973D01*
X19840231Y-17832322D01*
X19995908Y-17728302D01*
X20128302Y-17595908D01*
X20232322Y-17440231D01*
X20303973Y-17267251D01*
X20340500Y-17083616D01*
X20340500Y-16896384D01*
X20340500Y-16896381D01*
X20303974Y-16712756D01*
X20303973Y-16712749D01*
X20232322Y-16539769D01*
X20128302Y-16384092D01*
X19995908Y-16251698D01*
X19840231Y-16147678D01*
X19840230Y-16147677D01*
X19840228Y-16147676D01*
X19667253Y-16076028D01*
X19667254Y-16076028D01*
X19667251Y-16076027D01*
X19667247Y-16076026D01*
X19667243Y-16076025D01*
X19483619Y-16039500D01*
X19483616Y-16039500D01*
X19296384Y-16039500D01*
X19296381Y-16039500D01*
X19112756Y-16076025D01*
X19112746Y-16076028D01*
X18939771Y-16147676D01*
X18784090Y-16251699D01*
X18651699Y-16384090D01*
X18547676Y-16539771D01*
X18476028Y-16712746D01*
X18476025Y-16712756D01*
X18439500Y-16896381D01*
X17521621Y-16896381D01*
X17590489Y-16827513D01*
X17649799Y-16724786D01*
X17680500Y-16610209D01*
X17680500Y-16491591D01*
X17649799Y-16377014D01*
X17590489Y-16274287D01*
X17506613Y-16190411D01*
X17403886Y-16131101D01*
X17403883Y-16131100D01*
X17403881Y-16131099D01*
X17289315Y-16100401D01*
X17289311Y-16100400D01*
X17289309Y-16100400D01*
X17170691Y-16100400D01*
X17170689Y-16100400D01*
X17170684Y-16100401D01*
X17056118Y-16131099D01*
X17056117Y-16131099D01*
X16953385Y-16190412D01*
X16869512Y-16274285D01*
X16810199Y-16377017D01*
X16810199Y-16377018D01*
X16779501Y-16491584D01*
X16779500Y-16491593D01*
X16402311Y-16491593D01*
X17341170Y-15552736D01*
X17360019Y-15507230D01*
X17373869Y-15473795D01*
X17375499Y-15469858D01*
X17375500Y-15469854D01*
X17375500Y-14304252D01*
X17394245Y-14258997D01*
X17412447Y-14246251D01*
X17494799Y-14207850D01*
X17572850Y-14129799D01*
X17619499Y-14029760D01*
X17625500Y-13984179D01*
X17625499Y-12860500D01*
X17625499Y-12235824D01*
X17619499Y-12190241D01*
X17618101Y-12187243D01*
X17572850Y-12090201D01*
X17494800Y-12012151D01*
X17494801Y-12012151D01*
X17476498Y-12003616D01*
X17394760Y-11965501D01*
X17394758Y-11965500D01*
X17349183Y-11959500D01*
X16950824Y-11959500D01*
X16905241Y-11965500D01*
X16905238Y-11965501D01*
X16890747Y-11972259D01*
X16876695Y-11972872D01*
X16863700Y-11978255D01*
X16853182Y-11973898D01*
X16841810Y-11974395D01*
X16831440Y-11964892D01*
X16818445Y-11959510D01*
X16814088Y-11948992D01*
X16805696Y-11941302D01*
X16799700Y-11914255D01*
X16799700Y-11816381D01*
X18439500Y-11816381D01*
X18439500Y-12003618D01*
X18476025Y-12187243D01*
X18476028Y-12187253D01*
X18547676Y-12360228D01*
X18547677Y-12360230D01*
X18547678Y-12360231D01*
X18651698Y-12515908D01*
X18784092Y-12648302D01*
X18939769Y-12752322D01*
X19112749Y-12823973D01*
X19185599Y-12838463D01*
X19296381Y-12860500D01*
X19296384Y-12860500D01*
X19483619Y-12860500D01*
X19575851Y-12842153D01*
X19667251Y-12823973D01*
X19840231Y-12752322D01*
X19995908Y-12648302D01*
X20128302Y-12515908D01*
X20232322Y-12360231D01*
X20303973Y-12187251D01*
X20325809Y-12077472D01*
X20340500Y-12003618D01*
X20340500Y-11816381D01*
X20308558Y-11655800D01*
X20303973Y-11632749D01*
X20232322Y-11459769D01*
X20128302Y-11304092D01*
X19995908Y-11171698D01*
X19840231Y-11067678D01*
X19840230Y-11067677D01*
X19840228Y-11067676D01*
X19667253Y-10996028D01*
X19667254Y-10996028D01*
X19667251Y-10996027D01*
X19667247Y-10996026D01*
X19667243Y-10996025D01*
X19483619Y-10959500D01*
X19483616Y-10959500D01*
X19296384Y-10959500D01*
X19296381Y-10959500D01*
X19112756Y-10996025D01*
X19112746Y-10996028D01*
X18939771Y-11067676D01*
X18784090Y-11171699D01*
X18651699Y-11304090D01*
X18547676Y-11459771D01*
X18476028Y-11632746D01*
X18476025Y-11632756D01*
X18439500Y-11816381D01*
X16799700Y-11816381D01*
X16799700Y-10885744D01*
X16818445Y-10840489D01*
X16863700Y-10821744D01*
X16890745Y-10827739D01*
X16905240Y-10834499D01*
X16950821Y-10840500D01*
X17349178Y-10840499D01*
X17394760Y-10834499D01*
X17494799Y-10787850D01*
X17572850Y-10709799D01*
X17619499Y-10609760D01*
X17625500Y-10564179D01*
X17625499Y-9276381D01*
X18439500Y-9276381D01*
X18439500Y-9463618D01*
X18476025Y-9647243D01*
X18476028Y-9647253D01*
X18547676Y-9820228D01*
X18547677Y-9820230D01*
X18547678Y-9820231D01*
X18651698Y-9975908D01*
X18784092Y-10108302D01*
X18939769Y-10212322D01*
X19112749Y-10283973D01*
X19185599Y-10298463D01*
X19296381Y-10320500D01*
X19296384Y-10320500D01*
X19483619Y-10320500D01*
X19575851Y-10302153D01*
X19667251Y-10283973D01*
X19840231Y-10212322D01*
X19995908Y-10108302D01*
X20128302Y-9975908D01*
X20232322Y-9820231D01*
X20303973Y-9647251D01*
X20332118Y-9505755D01*
X20340500Y-9463618D01*
X20340500Y-9276381D01*
X20318463Y-9165599D01*
X20303973Y-9092749D01*
X20232322Y-8919769D01*
X20128302Y-8764092D01*
X19995908Y-8631698D01*
X19840231Y-8527678D01*
X19840230Y-8527677D01*
X19840228Y-8527676D01*
X19667253Y-8456028D01*
X19667254Y-8456028D01*
X19667251Y-8456027D01*
X19667247Y-8456026D01*
X19667243Y-8456025D01*
X19483619Y-8419500D01*
X19483616Y-8419500D01*
X19296384Y-8419500D01*
X19296381Y-8419500D01*
X19112756Y-8456025D01*
X19112746Y-8456028D01*
X18939771Y-8527676D01*
X18784090Y-8631699D01*
X18651699Y-8764090D01*
X18547676Y-8919771D01*
X18476028Y-9092746D01*
X18476025Y-9092756D01*
X18439500Y-9276381D01*
X17625499Y-9276381D01*
X17625499Y-8815822D01*
X17619499Y-8770240D01*
X17572850Y-8670201D01*
X17494800Y-8592151D01*
X17494801Y-8592151D01*
X17494799Y-8592150D01*
X17394760Y-8545501D01*
X17394758Y-8545500D01*
X17349183Y-8539500D01*
X16950824Y-8539500D01*
X16905241Y-8545500D01*
X16805199Y-8592151D01*
X16723191Y-8674160D01*
X16722180Y-8673149D01*
X16686113Y-8696126D01*
X16638291Y-8685524D01*
X16626868Y-8674101D01*
X16626809Y-8674160D01*
X16544800Y-8592151D01*
X16544801Y-8592151D01*
X16544799Y-8592150D01*
X16444760Y-8545501D01*
X16444758Y-8545500D01*
X16399183Y-8539500D01*
X16000824Y-8539500D01*
X15955241Y-8545500D01*
X15855199Y-8592151D01*
X15773191Y-8674160D01*
X15772180Y-8673149D01*
X15736113Y-8696126D01*
X15688291Y-8685524D01*
X15676868Y-8674101D01*
X15676809Y-8674160D01*
X15594800Y-8592151D01*
X15594801Y-8592151D01*
X15594799Y-8592150D01*
X15494760Y-8545501D01*
X15494758Y-8545500D01*
X15449183Y-8539500D01*
X15050824Y-8539500D01*
X15005241Y-8545500D01*
X14905199Y-8592151D01*
X14827151Y-8670199D01*
X14780500Y-8770241D01*
X14774500Y-8815814D01*
X14774500Y-9400500D01*
X14755755Y-9445755D01*
X14710500Y-9464500D01*
X12514500Y-9464500D01*
X12469245Y-9445755D01*
X12450500Y-9400500D01*
X12450500Y-9339363D01*
X12439866Y-9266377D01*
X12439866Y-9266375D01*
X12384826Y-9153789D01*
X12296211Y-9065174D01*
X12183625Y-9010134D01*
X12183623Y-9010133D01*
X12183622Y-9010133D01*
X12110637Y-8999500D01*
X12110636Y-8999500D01*
X11589364Y-8999500D01*
X11589363Y-8999500D01*
X11516377Y-9010133D01*
X11403788Y-9065174D01*
X11315174Y-9153788D01*
X11260133Y-9266377D01*
X11249500Y-9339363D01*
X11249500Y-10160636D01*
X11260133Y-10233622D01*
X11260133Y-10233623D01*
X11260134Y-10233625D01*
X11315174Y-10346211D01*
X11403789Y-10434826D01*
X11516375Y-10489866D01*
X11565034Y-10496955D01*
X11589363Y-10500500D01*
X11589364Y-10500500D01*
X12110637Y-10500500D01*
X12128883Y-10497841D01*
X12183625Y-10489866D01*
X12296211Y-10434826D01*
X12384826Y-10346211D01*
X12439866Y-10233625D01*
X12450500Y-10160636D01*
X12450500Y-9979500D01*
X12469245Y-9934245D01*
X12514500Y-9915500D01*
X14710501Y-9915500D01*
X14755756Y-9934245D01*
X14774501Y-9979500D01*
X14774501Y-10564178D01*
X14774502Y-10564185D01*
X14780500Y-10609758D01*
X14780501Y-10609760D01*
X14827150Y-10709799D01*
X14827151Y-10709800D01*
X14905199Y-10787848D01*
X14905201Y-10787850D01*
X15005240Y-10834499D01*
X15050821Y-10840500D01*
X15257468Y-10840499D01*
X15302723Y-10859244D01*
X15321468Y-10904499D01*
X15302723Y-10949754D01*
X15281961Y-10963627D01*
X15257145Y-10973906D01*
X15242895Y-10979809D01*
X15208565Y-10994028D01*
X15208564Y-10994030D01*
X15145130Y-11057464D01*
X15145129Y-11057465D01*
X13970568Y-12232027D01*
X12811540Y-13391055D01*
X12766285Y-13409800D01*
X9606950Y-13409800D01*
X9561695Y-13391055D01*
X9551525Y-13377801D01*
X9540489Y-13358687D01*
X9456614Y-13274812D01*
X9456613Y-13274811D01*
X9353886Y-13215501D01*
X9353883Y-13215500D01*
X9353881Y-13215499D01*
X9239315Y-13184801D01*
X9239311Y-13184800D01*
X9239309Y-13184800D01*
X9120691Y-13184800D01*
X9120689Y-13184800D01*
X9120684Y-13184801D01*
X9006118Y-13215499D01*
X9006117Y-13215499D01*
X8903385Y-13274812D01*
X8819510Y-13358687D01*
X8808475Y-13377801D01*
X8769613Y-13407620D01*
X8753050Y-13409800D01*
X7013611Y-13409800D01*
X7013603Y-13409799D01*
X7006155Y-13409799D01*
X6916445Y-13409799D01*
X6916442Y-13409799D01*
X6857838Y-13434074D01*
X6833564Y-13444129D01*
X4707030Y-15570663D01*
X4703254Y-15579779D01*
X4703244Y-15579804D01*
X4672699Y-15653545D01*
X400000Y-15653545D01*
X400000Y-14680769D01*
X418745Y-14635514D01*
X464000Y-14616769D01*
X509255Y-14635514D01*
X526770Y-14668284D01*
X541597Y-14742829D01*
X541606Y-14742863D01*
X558955Y-14800057D01*
X558960Y-14800070D01*
X619261Y-14945650D01*
X619268Y-14945665D01*
X647445Y-14998381D01*
X647461Y-14998407D01*
X700047Y-15077107D01*
X700048Y-15077108D01*
X1141980Y-14635175D01*
X1144075Y-14642993D01*
X1209901Y-14757007D01*
X1302993Y-14850099D01*
X1417007Y-14915925D01*
X1424823Y-14918019D01*
X982891Y-15359950D01*
X1061601Y-15412543D01*
X1061618Y-15412554D01*
X1114334Y-15440731D01*
X1114349Y-15440738D01*
X1259929Y-15501039D01*
X1259942Y-15501044D01*
X1317136Y-15518393D01*
X1317166Y-15518401D01*
X1471695Y-15549138D01*
X1471703Y-15549139D01*
X1531207Y-15555000D01*
X2249765Y-15555000D01*
X2256824Y-15554919D01*
X2366503Y-15531782D01*
X2396509Y-15519353D01*
X2396509Y-15519352D01*
X1795176Y-14918019D01*
X1802993Y-14915925D01*
X1917007Y-14850099D01*
X2010099Y-14757007D01*
X2075925Y-14642993D01*
X2078019Y-14635176D01*
X2679352Y-15236509D01*
X2679353Y-15236509D01*
X2691769Y-15206535D01*
X2694405Y-15199957D01*
X2694405Y-15199956D01*
X2714999Y-15089784D01*
X2715000Y-15089782D01*
X2715000Y-13810235D01*
X2714919Y-13803175D01*
X2691782Y-13693494D01*
X2679353Y-13663489D01*
X2078019Y-14264822D01*
X2075925Y-14257007D01*
X2010099Y-14142993D01*
X1917007Y-14049901D01*
X1802993Y-13984075D01*
X1795174Y-13981980D01*
X2396510Y-13380645D01*
X2366538Y-13368232D01*
X2359957Y-13365594D01*
X2249784Y-13345000D01*
X1531207Y-13345000D01*
X1471703Y-13350860D01*
X1471695Y-13350861D01*
X1317166Y-13381598D01*
X1317136Y-13381606D01*
X1259942Y-13398955D01*
X1259929Y-13398960D01*
X1114349Y-13459261D01*
X1114334Y-13459268D01*
X1061618Y-13487445D01*
X1061592Y-13487461D01*
X982891Y-13540047D01*
X982891Y-13540048D01*
X1424823Y-13981980D01*
X1417007Y-13984075D01*
X1302993Y-14049901D01*
X1209901Y-14142993D01*
X1144075Y-14257007D01*
X1141980Y-14264823D01*
X700048Y-13822891D01*
X700047Y-13822891D01*
X647461Y-13901592D01*
X647445Y-13901618D01*
X619268Y-13954334D01*
X619261Y-13954349D01*
X558960Y-14099929D01*
X558955Y-14099942D01*
X541606Y-14157136D01*
X541598Y-14157166D01*
X526770Y-14231716D01*
X499557Y-14272444D01*
X451514Y-14282000D01*
X410786Y-14254787D01*
X400000Y-14219230D01*
X400000Y-13522843D01*
X400000Y-11816381D01*
X659500Y-11816381D01*
X659500Y-12003618D01*
X696025Y-12187243D01*
X696028Y-12187253D01*
X767676Y-12360228D01*
X767677Y-12360230D01*
X767678Y-12360231D01*
X871698Y-12515908D01*
X1004092Y-12648302D01*
X1159769Y-12752322D01*
X1332749Y-12823973D01*
X1405599Y-12838463D01*
X1516381Y-12860500D01*
X1516384Y-12860500D01*
X1703619Y-12860500D01*
X1795851Y-12842153D01*
X1887251Y-12823973D01*
X2060231Y-12752322D01*
X2215908Y-12648302D01*
X2348302Y-12515908D01*
X2452322Y-12360231D01*
X2523973Y-12187251D01*
X2545809Y-12077472D01*
X2560500Y-12003618D01*
X2560500Y-11816381D01*
X2528558Y-11655800D01*
X2523973Y-11632749D01*
X2452322Y-11459769D01*
X2348302Y-11304092D01*
X2215908Y-11171698D01*
X2060231Y-11067678D01*
X2060230Y-11067677D01*
X2060228Y-11067676D01*
X1887253Y-10996028D01*
X1887254Y-10996028D01*
X1887251Y-10996027D01*
X1887247Y-10996026D01*
X1887243Y-10996025D01*
X1703619Y-10959500D01*
X1703616Y-10959500D01*
X1516384Y-10959500D01*
X1516381Y-10959500D01*
X1332756Y-10996025D01*
X1332746Y-10996028D01*
X1159771Y-11067676D01*
X1004090Y-11171699D01*
X871699Y-11304090D01*
X767676Y-11459771D01*
X696028Y-11632746D01*
X696025Y-11632756D01*
X659500Y-11816381D01*
X400000Y-11816381D01*
X400000Y-9276381D01*
X659500Y-9276381D01*
X659500Y-9463618D01*
X696025Y-9647243D01*
X696028Y-9647253D01*
X767676Y-9820228D01*
X767677Y-9820230D01*
X767678Y-9820231D01*
X871698Y-9975908D01*
X1004092Y-10108302D01*
X1159769Y-10212322D01*
X1332749Y-10283973D01*
X1405599Y-10298463D01*
X1516381Y-10320500D01*
X1516384Y-10320500D01*
X1703619Y-10320500D01*
X1795851Y-10302153D01*
X1887251Y-10283973D01*
X2060231Y-10212322D01*
X2215908Y-10108302D01*
X2348302Y-9975908D01*
X2452322Y-9820231D01*
X2523973Y-9647251D01*
X2552118Y-9505755D01*
X2560500Y-9463618D01*
X2560500Y-9276381D01*
X2538463Y-9165599D01*
X2523973Y-9092749D01*
X2452322Y-8919769D01*
X2348302Y-8764092D01*
X2215908Y-8631698D01*
X2060231Y-8527678D01*
X2060230Y-8527677D01*
X2060228Y-8527676D01*
X1887253Y-8456028D01*
X1887254Y-8456028D01*
X1887251Y-8456027D01*
X1887247Y-8456026D01*
X1887243Y-8456025D01*
X1703619Y-8419500D01*
X1703616Y-8419500D01*
X1516384Y-8419500D01*
X1516381Y-8419500D01*
X1332756Y-8456025D01*
X1332746Y-8456028D01*
X1159771Y-8527676D01*
X1004090Y-8631699D01*
X871699Y-8764090D01*
X767676Y-8919771D01*
X696028Y-9092746D01*
X696025Y-9092756D01*
X659500Y-9276381D01*
X400000Y-9276381D01*
X400000Y-6196532D01*
X2449500Y-6196532D01*
X2449500Y-6403467D01*
X2489868Y-6606412D01*
X2489871Y-6606422D01*
X2569058Y-6797598D01*
X2684022Y-6969654D01*
X2830345Y-7115977D01*
X3002401Y-7230941D01*
X3069992Y-7258938D01*
X3193580Y-7310130D01*
X3274094Y-7326145D01*
X3396532Y-7350500D01*
X3396535Y-7350500D01*
X3603454Y-7350500D01*
X3603465Y-7350500D01*
X3603475Y-7350497D01*
X3604214Y-7350425D01*
X3604461Y-7350500D01*
X3606609Y-7350500D01*
X3606609Y-7351151D01*
X3651091Y-7364635D01*
X3674191Y-7407830D01*
X3674500Y-7414116D01*
X3674500Y-8660500D01*
X3655755Y-8705755D01*
X3610501Y-8724500D01*
X3493483Y-8724500D01*
X3399699Y-8739353D01*
X3399691Y-8739356D01*
X3286662Y-8796947D01*
X3286660Y-8796948D01*
X3286658Y-8796950D01*
X3196950Y-8886658D01*
X3196948Y-8886660D01*
X3196947Y-8886662D01*
X3139356Y-8999690D01*
X3139353Y-8999697D01*
X3128983Y-9065174D01*
X3124617Y-9092746D01*
X3124500Y-9093483D01*
X3124500Y-10406516D01*
X3139353Y-10500300D01*
X3139356Y-10500308D01*
X3195124Y-10609760D01*
X3196950Y-10613342D01*
X3286658Y-10703050D01*
X3286660Y-10703051D01*
X3286661Y-10703052D01*
X3327534Y-10723878D01*
X3359347Y-10761125D01*
X3355503Y-10809957D01*
X3330481Y-10836326D01*
X3315789Y-10844808D01*
X3231912Y-10928685D01*
X3172599Y-11031417D01*
X3172599Y-11031418D01*
X3141901Y-11145984D01*
X3141900Y-11145993D01*
X3141900Y-11264606D01*
X3141901Y-11264615D01*
X3172599Y-11379181D01*
X3172599Y-11379182D01*
X3172600Y-11379184D01*
X3172601Y-11379186D01*
X3231911Y-11481913D01*
X3315787Y-11565789D01*
X3418514Y-11625099D01*
X3533091Y-11655800D01*
X3533094Y-11655800D01*
X3651706Y-11655800D01*
X3651709Y-11655800D01*
X3766286Y-11625099D01*
X3869013Y-11565789D01*
X3952889Y-11481913D01*
X4012199Y-11379186D01*
X4042900Y-11264609D01*
X4042900Y-11145993D01*
X5348500Y-11145993D01*
X5348500Y-11264606D01*
X5348501Y-11264615D01*
X5379199Y-11379181D01*
X5379199Y-11379182D01*
X5379200Y-11379184D01*
X5379201Y-11379186D01*
X5438511Y-11481913D01*
X5522387Y-11565789D01*
X5625114Y-11625099D01*
X5739691Y-11655800D01*
X5739694Y-11655800D01*
X5858306Y-11655800D01*
X5858309Y-11655800D01*
X5972886Y-11625099D01*
X6075613Y-11565789D01*
X6159489Y-11481913D01*
X6218799Y-11379186D01*
X6249500Y-11264609D01*
X6249500Y-11145991D01*
X6218799Y-11031414D01*
X6159489Y-10928687D01*
X6075613Y-10844811D01*
X5972886Y-10785501D01*
X5972883Y-10785500D01*
X5972881Y-10785499D01*
X5858315Y-10754801D01*
X5858311Y-10754800D01*
X5858309Y-10754800D01*
X5739691Y-10754800D01*
X5739689Y-10754800D01*
X5739684Y-10754801D01*
X5625118Y-10785499D01*
X5625117Y-10785499D01*
X5522385Y-10844812D01*
X5438512Y-10928685D01*
X5379199Y-11031417D01*
X5379199Y-11031418D01*
X5348501Y-11145984D01*
X5348500Y-11145993D01*
X4042900Y-11145993D01*
X4042900Y-11145991D01*
X4012199Y-11031414D01*
X3952889Y-10928687D01*
X3908956Y-10884754D01*
X3890211Y-10839499D01*
X3908956Y-10794244D01*
X3954211Y-10775499D01*
X4306517Y-10775499D01*
X4306518Y-10775499D01*
X4400304Y-10760646D01*
X4513338Y-10703052D01*
X4513339Y-10703052D01*
X4513339Y-10703051D01*
X4513342Y-10703050D01*
X4603050Y-10613342D01*
X4660646Y-10500304D01*
X4675500Y-10406519D01*
X4675499Y-9093483D01*
X5924500Y-9093483D01*
X5924500Y-10406516D01*
X5939353Y-10500300D01*
X5939356Y-10500308D01*
X5995124Y-10609760D01*
X5996950Y-10613342D01*
X6086658Y-10703050D01*
X6086660Y-10703051D01*
X6086661Y-10703052D01*
X6199690Y-10760643D01*
X6199696Y-10760646D01*
X6293481Y-10775500D01*
X7106518Y-10775499D01*
X7200304Y-10760646D01*
X7313338Y-10703052D01*
X7313339Y-10703052D01*
X7313339Y-10703051D01*
X7313342Y-10703050D01*
X7403050Y-10613342D01*
X7460646Y-10500304D01*
X7475500Y-10406519D01*
X7475500Y-10039500D01*
X7494245Y-9994245D01*
X7539500Y-9975500D01*
X7885500Y-9975500D01*
X7930755Y-9994245D01*
X7949500Y-10039500D01*
X7949500Y-10160636D01*
X7960133Y-10233622D01*
X7960133Y-10233623D01*
X7960134Y-10233625D01*
X8015174Y-10346211D01*
X8103789Y-10434826D01*
X8216375Y-10489866D01*
X8265034Y-10496955D01*
X8289363Y-10500500D01*
X8289364Y-10500500D01*
X8810637Y-10500500D01*
X8828883Y-10497841D01*
X8883625Y-10489866D01*
X8996211Y-10434826D01*
X9084826Y-10346211D01*
X9139866Y-10233625D01*
X9150500Y-10160636D01*
X9150500Y-9339364D01*
X9139866Y-9266375D01*
X9084826Y-9153789D01*
X8996211Y-9065174D01*
X8883625Y-9010134D01*
X8883623Y-9010133D01*
X8883622Y-9010133D01*
X8810637Y-8999500D01*
X8810636Y-8999500D01*
X8289364Y-8999500D01*
X8289363Y-8999500D01*
X8216377Y-9010133D01*
X8103788Y-9065174D01*
X8015174Y-9153788D01*
X7960133Y-9266377D01*
X7949500Y-9339363D01*
X7949500Y-9460500D01*
X7930755Y-9505755D01*
X7885500Y-9524500D01*
X7539499Y-9524500D01*
X7494244Y-9505755D01*
X7475499Y-9460500D01*
X7475499Y-9093483D01*
X7462299Y-9010134D01*
X7460646Y-8999696D01*
X7403050Y-8886658D01*
X7313342Y-8796950D01*
X7313339Y-8796948D01*
X7313337Y-8796947D01*
X7200309Y-8739356D01*
X7200302Y-8739353D01*
X7144985Y-8730592D01*
X7106519Y-8724500D01*
X7106516Y-8724500D01*
X6293483Y-8724500D01*
X6199699Y-8739353D01*
X6199691Y-8739356D01*
X6086662Y-8796947D01*
X6086660Y-8796948D01*
X6086658Y-8796950D01*
X5996950Y-8886658D01*
X5996948Y-8886660D01*
X5996947Y-8886662D01*
X5939356Y-8999690D01*
X5939353Y-8999697D01*
X5928983Y-9065174D01*
X5924617Y-9092746D01*
X5924500Y-9093483D01*
X4675499Y-9093483D01*
X4675499Y-9093482D01*
X4660646Y-8999696D01*
X4603050Y-8886658D01*
X4513342Y-8796950D01*
X4513339Y-8796948D01*
X4513337Y-8796947D01*
X4400309Y-8739356D01*
X4400302Y-8739353D01*
X4344985Y-8730592D01*
X4306519Y-8724500D01*
X4306516Y-8724500D01*
X4189500Y-8724500D01*
X4144245Y-8705755D01*
X4125500Y-8660500D01*
X4125500Y-7179688D01*
X4144245Y-7134433D01*
X4153933Y-7126481D01*
X4169655Y-7115977D01*
X4315977Y-6969655D01*
X4430941Y-6797598D01*
X4510130Y-6606420D01*
X4550500Y-6403465D01*
X4550500Y-6196535D01*
X4550500Y-6196532D01*
X6449500Y-6196532D01*
X6449500Y-6403467D01*
X6489868Y-6606412D01*
X6489871Y-6606422D01*
X6569058Y-6797598D01*
X6684022Y-6969654D01*
X6830345Y-7115977D01*
X7002401Y-7230941D01*
X7069992Y-7258938D01*
X7193580Y-7310130D01*
X7274094Y-7326145D01*
X7396532Y-7350500D01*
X7396535Y-7350500D01*
X7603468Y-7350500D01*
X7705405Y-7330222D01*
X7806420Y-7310130D01*
X7997598Y-7230941D01*
X8169655Y-7115977D01*
X8315977Y-6969655D01*
X8430941Y-6797598D01*
X8510130Y-6606420D01*
X8550500Y-6403465D01*
X8550500Y-6196535D01*
X8550500Y-6196532D01*
X10449500Y-6196532D01*
X10449500Y-6403467D01*
X10489868Y-6606412D01*
X10489871Y-6606422D01*
X10569058Y-6797598D01*
X10684022Y-6969654D01*
X10830345Y-7115977D01*
X11002401Y-7230941D01*
X11069992Y-7258938D01*
X11193580Y-7310130D01*
X11274094Y-7326145D01*
X11396532Y-7350500D01*
X11396535Y-7350500D01*
X11603468Y-7350500D01*
X11705405Y-7330222D01*
X11806420Y-7310130D01*
X11997598Y-7230941D01*
X12169655Y-7115977D01*
X12315977Y-6969655D01*
X12430941Y-6797598D01*
X12510130Y-6606420D01*
X12550500Y-6403465D01*
X12550500Y-6196535D01*
X12550500Y-6196532D01*
X14449500Y-6196532D01*
X14449500Y-6403467D01*
X14489868Y-6606412D01*
X14489871Y-6606422D01*
X14569058Y-6797598D01*
X14684022Y-6969654D01*
X14830345Y-7115977D01*
X15002401Y-7230941D01*
X15069992Y-7258938D01*
X15193580Y-7310130D01*
X15274094Y-7326145D01*
X15396532Y-7350500D01*
X15396535Y-7350500D01*
X15603468Y-7350500D01*
X15705405Y-7330222D01*
X15806420Y-7310130D01*
X15997598Y-7230941D01*
X16169655Y-7115977D01*
X16315977Y-6969655D01*
X16430941Y-6797598D01*
X16510130Y-6606420D01*
X16550500Y-6403465D01*
X16550500Y-6196535D01*
X16550500Y-6196532D01*
X16510131Y-5993587D01*
X16510130Y-5993580D01*
X16430941Y-5802402D01*
X16430941Y-5802401D01*
X16315977Y-5630345D01*
X16169654Y-5484022D01*
X15997598Y-5369058D01*
X15806422Y-5289871D01*
X15806423Y-5289871D01*
X15806420Y-5289870D01*
X15806416Y-5289869D01*
X15806412Y-5289868D01*
X15603468Y-5249500D01*
X15603465Y-5249500D01*
X15396535Y-5249500D01*
X15396532Y-5249500D01*
X15193587Y-5289868D01*
X15193577Y-5289871D01*
X15002401Y-5369058D01*
X14830345Y-5484022D01*
X14684022Y-5630345D01*
X14569058Y-5802401D01*
X14489871Y-5993577D01*
X14489868Y-5993587D01*
X14449500Y-6196532D01*
X12550500Y-6196532D01*
X12510131Y-5993587D01*
X12510130Y-5993580D01*
X12430941Y-5802402D01*
X12430941Y-5802401D01*
X12315977Y-5630345D01*
X12169654Y-5484022D01*
X11997598Y-5369058D01*
X11806422Y-5289871D01*
X11806423Y-5289871D01*
X11806420Y-5289870D01*
X11806416Y-5289869D01*
X11806412Y-5289868D01*
X11603468Y-5249500D01*
X11603465Y-5249500D01*
X11396535Y-5249500D01*
X11396532Y-5249500D01*
X11193587Y-5289868D01*
X11193577Y-5289871D01*
X11002401Y-5369058D01*
X10830345Y-5484022D01*
X10684022Y-5630345D01*
X10569058Y-5802401D01*
X10489871Y-5993577D01*
X10489868Y-5993587D01*
X10449500Y-6196532D01*
X8550500Y-6196532D01*
X8510131Y-5993587D01*
X8510130Y-5993580D01*
X8430941Y-5802402D01*
X8430941Y-5802401D01*
X8315977Y-5630345D01*
X8169654Y-5484022D01*
X7997598Y-5369058D01*
X7806422Y-5289871D01*
X7806423Y-5289871D01*
X7806420Y-5289870D01*
X7806416Y-5289869D01*
X7806412Y-5289868D01*
X7603468Y-5249500D01*
X7603465Y-5249500D01*
X7396535Y-5249500D01*
X7396532Y-5249500D01*
X7193587Y-5289868D01*
X7193577Y-5289871D01*
X7002401Y-5369058D01*
X6830345Y-5484022D01*
X6684022Y-5630345D01*
X6569058Y-5802401D01*
X6489871Y-5993577D01*
X6489868Y-5993587D01*
X6449500Y-6196532D01*
X4550500Y-6196532D01*
X4510131Y-5993587D01*
X4510130Y-5993580D01*
X4430941Y-5802402D01*
X4430941Y-5802401D01*
X4315977Y-5630345D01*
X4169654Y-5484022D01*
X3997598Y-5369058D01*
X3806422Y-5289871D01*
X3806423Y-5289871D01*
X3806420Y-5289870D01*
X3806416Y-5289869D01*
X3806412Y-5289868D01*
X3603468Y-5249500D01*
X3603465Y-5249500D01*
X3396535Y-5249500D01*
X3396532Y-5249500D01*
X3193587Y-5289868D01*
X3193577Y-5289871D01*
X3002401Y-5369058D01*
X2830345Y-5484022D01*
X2684022Y-5630345D01*
X2569058Y-5802401D01*
X2489871Y-5993577D01*
X2489868Y-5993587D01*
X2449500Y-6196532D01*
X400000Y-6196532D01*
X400000Y-3665560D01*
X4300000Y-3665560D01*
X4300000Y-3854439D01*
X4329547Y-4041000D01*
X4387915Y-4220637D01*
X4387918Y-4220646D01*
X4473663Y-4388930D01*
X4473668Y-4388937D01*
X4521871Y-4455283D01*
X4521872Y-4455283D01*
X4993843Y-3983311D01*
X5059890Y-4097708D01*
X5162292Y-4200110D01*
X5276686Y-4266154D01*
X4804715Y-4738126D01*
X4804715Y-4738127D01*
X4871062Y-4786331D01*
X4871069Y-4786336D01*
X5039353Y-4872081D01*
X5039362Y-4872084D01*
X5218999Y-4930452D01*
X5405561Y-4960000D01*
X5594439Y-4960000D01*
X5781000Y-4930452D01*
X5960637Y-4872084D01*
X5960646Y-4872081D01*
X6128930Y-4786336D01*
X6195283Y-4738126D01*
X5723312Y-4266155D01*
X5837708Y-4200110D01*
X5940110Y-4097708D01*
X6006155Y-3983312D01*
X6478126Y-4455282D01*
X6526336Y-4388930D01*
X6612081Y-4220646D01*
X6612084Y-4220637D01*
X6670452Y-4041000D01*
X6700000Y-3854439D01*
X6700000Y-3665564D01*
X6699658Y-3663406D01*
X6699658Y-3663402D01*
X6698570Y-3656532D01*
X8449500Y-3656532D01*
X8449500Y-3863467D01*
X8489868Y-4066412D01*
X8489871Y-4066422D01*
X8569058Y-4257598D01*
X8684022Y-4429654D01*
X8830345Y-4575977D01*
X9002401Y-4690941D01*
X9069471Y-4718722D01*
X9193580Y-4770130D01*
X9274094Y-4786145D01*
X9396532Y-4810500D01*
X9396535Y-4810500D01*
X9603468Y-4810500D01*
X9724946Y-4786336D01*
X9806420Y-4770130D01*
X9997598Y-4690941D01*
X10169655Y-4575977D01*
X10315977Y-4429655D01*
X10430941Y-4257598D01*
X10510130Y-4066420D01*
X10550500Y-3863465D01*
X10550500Y-3656535D01*
X10550500Y-3656532D01*
X12449500Y-3656532D01*
X12449500Y-3863467D01*
X12489868Y-4066412D01*
X12489871Y-4066422D01*
X12569058Y-4257598D01*
X12684022Y-4429654D01*
X12830345Y-4575977D01*
X13002401Y-4690941D01*
X13069471Y-4718722D01*
X13193580Y-4770130D01*
X13274094Y-4786145D01*
X13396532Y-4810500D01*
X13396535Y-4810500D01*
X13603468Y-4810500D01*
X13724946Y-4786336D01*
X13806420Y-4770130D01*
X13997598Y-4690941D01*
X14169655Y-4575977D01*
X14315977Y-4429655D01*
X14430941Y-4257598D01*
X14510130Y-4066420D01*
X14550500Y-3863465D01*
X14550500Y-3656535D01*
X14550500Y-3656532D01*
X14515186Y-3478999D01*
X14510130Y-3453580D01*
X14458938Y-3329992D01*
X14430941Y-3262401D01*
X14315977Y-3090345D01*
X14169654Y-2944022D01*
X14096661Y-2895250D01*
X14021723Y-2845178D01*
X16449500Y-2845178D01*
X16449500Y-4674821D01*
X16458233Y-4718722D01*
X16458234Y-4718724D01*
X16491494Y-4768502D01*
X16491497Y-4768505D01*
X16541275Y-4801765D01*
X16541278Y-4801767D01*
X16576446Y-4808762D01*
X16585179Y-4810500D01*
X16585180Y-4810500D01*
X18414821Y-4810500D01*
X18422104Y-4809050D01*
X18458722Y-4801767D01*
X18508504Y-4768504D01*
X18541767Y-4718722D01*
X18550500Y-4674820D01*
X18550500Y-2845180D01*
X18541767Y-2801278D01*
X18541765Y-2801275D01*
X18508505Y-2751497D01*
X18508502Y-2751494D01*
X18458724Y-2718234D01*
X18458722Y-2718233D01*
X18414821Y-2709500D01*
X18414820Y-2709500D01*
X16585180Y-2709500D01*
X16585179Y-2709500D01*
X16541277Y-2718233D01*
X16541275Y-2718234D01*
X16491497Y-2751494D01*
X16491494Y-2751497D01*
X16458234Y-2801275D01*
X16458233Y-2801277D01*
X16449500Y-2845178D01*
X14021723Y-2845178D01*
X13997598Y-2829058D01*
X13810345Y-2751496D01*
X13806420Y-2749870D01*
X13806416Y-2749869D01*
X13806412Y-2749868D01*
X13603468Y-2709500D01*
X13603465Y-2709500D01*
X13396535Y-2709500D01*
X13396532Y-2709500D01*
X13193587Y-2749868D01*
X13193577Y-2749871D01*
X13002401Y-2829058D01*
X12830345Y-2944022D01*
X12684022Y-3090345D01*
X12569058Y-3262401D01*
X12489871Y-3453577D01*
X12489868Y-3453587D01*
X12449500Y-3656532D01*
X10550500Y-3656532D01*
X10515186Y-3478999D01*
X10510130Y-3453580D01*
X10458938Y-3329992D01*
X10430941Y-3262401D01*
X10315977Y-3090345D01*
X10169654Y-2944022D01*
X9997598Y-2829058D01*
X9810345Y-2751496D01*
X9806420Y-2749870D01*
X9806416Y-2749869D01*
X9806412Y-2749868D01*
X9603468Y-2709500D01*
X9603465Y-2709500D01*
X9396535Y-2709500D01*
X9396532Y-2709500D01*
X9193587Y-2749868D01*
X9193577Y-2749871D01*
X9002401Y-2829058D01*
X8830345Y-2944022D01*
X8684022Y-3090345D01*
X8569058Y-3262401D01*
X8489871Y-3453577D01*
X8489868Y-3453587D01*
X8449500Y-3656532D01*
X6698570Y-3656532D01*
X6670452Y-3479000D01*
X6612084Y-3299362D01*
X6612081Y-3299353D01*
X6526336Y-3131069D01*
X6526331Y-3131062D01*
X6478127Y-3064715D01*
X6478126Y-3064715D01*
X6006154Y-3536686D01*
X5940110Y-3422292D01*
X5837708Y-3319890D01*
X5723311Y-3253843D01*
X6195283Y-2781872D01*
X6195283Y-2781871D01*
X6128937Y-2733668D01*
X6128930Y-2733663D01*
X5960646Y-2647918D01*
X5960637Y-2647915D01*
X5781000Y-2589547D01*
X5594439Y-2560000D01*
X5405561Y-2560000D01*
X5218999Y-2589547D01*
X5039362Y-2647915D01*
X5039353Y-2647918D01*
X4871069Y-2733663D01*
X4871062Y-2733668D01*
X4804715Y-2781871D01*
X4804715Y-2781872D01*
X5276687Y-3253844D01*
X5162292Y-3319890D01*
X5059890Y-3422292D01*
X4993844Y-3536687D01*
X4521872Y-3064715D01*
X4521871Y-3064715D01*
X4473668Y-3131062D01*
X4473663Y-3131069D01*
X4387918Y-3299353D01*
X4387915Y-3299362D01*
X4329547Y-3478999D01*
X4300000Y-3665560D01*
X400000Y-3665560D01*
X400000Y-464000D01*
X418745Y-418745D01*
X464000Y-400000D01*
X20536000Y-400000D01*
X20581255Y-418745D01*
G37*
%TD.AperFunction*%
%TA.AperFunction,Conductor*%
G36*
X2555313Y-53212470D02*
G01*
X2574058Y-53257725D01*
X2555313Y-53302980D01*
X2362980Y-53495313D01*
X2317725Y-53514058D01*
X2272470Y-53495313D01*
X1795176Y-53018019D01*
X1802993Y-53015925D01*
X1917007Y-52950099D01*
X2010099Y-52857007D01*
X2075925Y-52742993D01*
X2078019Y-52735176D01*
X2555313Y-53212470D01*
G37*
%TD.AperFunction*%
%TD*%
M02*
