%TF.GenerationSoftware,KiCad,Pcbnew,10.0.5*%
%TF.CreationDate,2026-08-23T13:32:26+09:00*%
%TF.ProjectId,MotoRecoPico,4d6f746f-5265-4636-9f50-69636f2e6b69,rev?*%
%TF.SameCoordinates,Original*%
%TF.FileFunction,Drillmap*%
%TF.FilePolarity,Positive*%
%FSLAX45Y45*%
G04 Gerber Fmt 4.5, Leading zero omitted, Abs format (unit mm)*
G04 Created by KiCad (PCBNEW 10.0.5) date 2026-08-23 13:32:26*
%MOMM*%
%LPD*%
G01*
G04 APERTURE LIST*
%ADD10C,0.100000*%
%ADD11C,0.200000*%
G04 APERTURE END LIST*
D10*
X0Y0D02*
X2100000Y0D01*
X0Y-6100000D02*
X0Y0D01*
X2100000Y0D02*
X2100000Y-6100000D01*
X2100000Y-6100000D02*
X0Y-6100000D01*
D11*
X255777Y-6416484D02*
X255777Y-6216484D01*
X255777Y-6216484D02*
X303396Y-6216484D01*
X303396Y-6216484D02*
X331967Y-6226008D01*
X331967Y-6226008D02*
X351015Y-6245055D01*
X351015Y-6245055D02*
X360539Y-6264103D01*
X360539Y-6264103D02*
X370062Y-6302198D01*
X370062Y-6302198D02*
X370062Y-6330769D01*
X370062Y-6330769D02*
X360539Y-6368865D01*
X360539Y-6368865D02*
X351015Y-6387912D01*
X351015Y-6387912D02*
X331967Y-6406960D01*
X331967Y-6406960D02*
X303396Y-6416484D01*
X303396Y-6416484D02*
X255777Y-6416484D01*
X455777Y-6416484D02*
X455777Y-6283150D01*
X455777Y-6321246D02*
X465301Y-6302198D01*
X465301Y-6302198D02*
X474824Y-6292674D01*
X474824Y-6292674D02*
X493872Y-6283150D01*
X493872Y-6283150D02*
X512920Y-6283150D01*
X579586Y-6416484D02*
X579586Y-6283150D01*
X579586Y-6216484D02*
X570063Y-6226008D01*
X570063Y-6226008D02*
X579586Y-6235531D01*
X579586Y-6235531D02*
X589110Y-6226008D01*
X589110Y-6226008D02*
X579586Y-6216484D01*
X579586Y-6216484D02*
X579586Y-6235531D01*
X703396Y-6416484D02*
X684348Y-6406960D01*
X684348Y-6406960D02*
X674824Y-6387912D01*
X674824Y-6387912D02*
X674824Y-6216484D01*
X808158Y-6416484D02*
X789110Y-6406960D01*
X789110Y-6406960D02*
X779586Y-6387912D01*
X779586Y-6387912D02*
X779586Y-6216484D01*
X1036729Y-6416484D02*
X1036729Y-6216484D01*
X1036729Y-6216484D02*
X1103396Y-6359341D01*
X1103396Y-6359341D02*
X1170063Y-6216484D01*
X1170063Y-6216484D02*
X1170063Y-6416484D01*
X1351015Y-6416484D02*
X1351015Y-6311722D01*
X1351015Y-6311722D02*
X1341491Y-6292674D01*
X1341491Y-6292674D02*
X1322444Y-6283150D01*
X1322444Y-6283150D02*
X1284348Y-6283150D01*
X1284348Y-6283150D02*
X1265301Y-6292674D01*
X1351015Y-6406960D02*
X1331967Y-6416484D01*
X1331967Y-6416484D02*
X1284348Y-6416484D01*
X1284348Y-6416484D02*
X1265301Y-6406960D01*
X1265301Y-6406960D02*
X1255777Y-6387912D01*
X1255777Y-6387912D02*
X1255777Y-6368865D01*
X1255777Y-6368865D02*
X1265301Y-6349817D01*
X1265301Y-6349817D02*
X1284348Y-6340293D01*
X1284348Y-6340293D02*
X1331967Y-6340293D01*
X1331967Y-6340293D02*
X1351015Y-6330769D01*
X1446253Y-6283150D02*
X1446253Y-6483150D01*
X1446253Y-6292674D02*
X1465301Y-6283150D01*
X1465301Y-6283150D02*
X1503396Y-6283150D01*
X1503396Y-6283150D02*
X1522443Y-6292674D01*
X1522443Y-6292674D02*
X1531967Y-6302198D01*
X1531967Y-6302198D02*
X1541491Y-6321246D01*
X1541491Y-6321246D02*
X1541491Y-6378388D01*
X1541491Y-6378388D02*
X1531967Y-6397436D01*
X1531967Y-6397436D02*
X1522443Y-6406960D01*
X1522443Y-6406960D02*
X1503396Y-6416484D01*
X1503396Y-6416484D02*
X1465301Y-6416484D01*
X1465301Y-6416484D02*
X1446253Y-6406960D01*
X1627205Y-6397436D02*
X1636729Y-6406960D01*
X1636729Y-6406960D02*
X1627205Y-6416484D01*
X1627205Y-6416484D02*
X1617682Y-6406960D01*
X1617682Y-6406960D02*
X1627205Y-6397436D01*
X1627205Y-6397436D02*
X1627205Y-6416484D01*
X1627205Y-6292674D02*
X1636729Y-6302198D01*
X1636729Y-6302198D02*
X1627205Y-6311722D01*
X1627205Y-6311722D02*
X1617682Y-6302198D01*
X1617682Y-6302198D02*
X1627205Y-6292674D01*
X1627205Y-6292674D02*
X1627205Y-6311722D01*
M02*
