%TF.GenerationSoftware,KiCad,Pcbnew,10.0.5*%
%TF.CreationDate,2026-08-23T13:32:26+09:00*%
%TF.ProjectId,MotoRecoPico,4d6f746f-5265-4636-9f50-69636f2e6b69,rev?*%
%TF.SameCoordinates,Original*%
%TF.FileFunction,Drillmap*%
%TF.FilePolarity,Positive*%
%FSLAX45Y45*%
G04 Gerber Fmt 4.5, Leading zero omitted, Abs format (unit mm)*
G04 Created by KiCad (PCBNEW 10.0.5) date 2026-08-23 13:32:26*
%MOMM*%
%LPD*%
G01*
G04 APERTURE LIST*
%ADD10C,0.100000*%
%ADD11C,0.200000*%
%ADD12C,0.110000*%
G04 APERTURE END LIST*
D10*
X0Y0D02*
X2100000Y0D01*
X0Y-6100000D02*
X0Y0D01*
X2100000Y0D02*
X2100000Y-6100000D01*
X2100000Y-6100000D02*
X0Y-6100000D01*
D11*
D10*
X45000Y-1045000D02*
X75000Y-1075000D01*
X75000Y-1045000D02*
X45000Y-1075000D01*
X45000Y-5945000D02*
X75000Y-5975000D01*
X75000Y-5945000D02*
X45000Y-5975000D01*
X145000Y-345000D02*
X175000Y-375000D01*
X175000Y-345000D02*
X145000Y-375000D01*
X145000Y-445000D02*
X175000Y-475000D01*
X175000Y-445000D02*
X145000Y-475000D01*
X245000Y-145000D02*
X275000Y-175000D01*
X275000Y-145000D02*
X245000Y-175000D01*
X245000Y-245000D02*
X275000Y-275000D01*
X275000Y-245000D02*
X245000Y-275000D01*
X245000Y-345000D02*
X275000Y-375000D01*
X275000Y-345000D02*
X245000Y-375000D01*
X245000Y-1045000D02*
X275000Y-1075000D01*
X275000Y-1045000D02*
X245000Y-1075000D01*
X256720Y-4831650D02*
X286720Y-4861650D01*
X286720Y-4831650D02*
X256720Y-4861650D01*
X344240Y-1105530D02*
X374240Y-1135530D01*
X374240Y-1105530D02*
X344240Y-1135530D01*
X345000Y-45000D02*
X375000Y-75000D01*
X375000Y-45000D02*
X345000Y-75000D01*
X345000Y-145000D02*
X375000Y-175000D01*
X375000Y-145000D02*
X345000Y-175000D01*
X345000Y-245000D02*
X375000Y-275000D01*
X375000Y-245000D02*
X345000Y-275000D01*
X345000Y-345000D02*
X375000Y-375000D01*
X375000Y-345000D02*
X345000Y-375000D01*
X345000Y-1345000D02*
X375000Y-1375000D01*
X375000Y-1345000D02*
X345000Y-1375000D01*
X345000Y-1445000D02*
X375000Y-1475000D01*
X375000Y-1445000D02*
X345000Y-1475000D01*
X345000Y-1545000D02*
X375000Y-1575000D01*
X375000Y-1545000D02*
X345000Y-1575000D01*
X345000Y-2545000D02*
X375000Y-2575000D01*
X375000Y-2545000D02*
X345000Y-2575000D01*
X345000Y-2745000D02*
X375000Y-2775000D01*
X375000Y-2745000D02*
X345000Y-2775000D01*
X345000Y-2845000D02*
X375000Y-2875000D01*
X375000Y-2845000D02*
X345000Y-2875000D01*
X352500Y-5336780D02*
X382500Y-5366780D01*
X382500Y-5336780D02*
X352500Y-5366780D01*
X362920Y-3107500D02*
X392920Y-3137500D01*
X392920Y-3107500D02*
X362920Y-3137500D01*
X373000Y-2063770D02*
X403000Y-2093770D01*
X403000Y-2063770D02*
X373000Y-2093770D01*
X373000Y-3867570D02*
X403000Y-3897570D01*
X403000Y-3867570D02*
X373000Y-3897570D01*
X386940Y-2362100D02*
X416940Y-2392100D01*
X416940Y-2362100D02*
X386940Y-2392100D01*
X445000Y-45000D02*
X475000Y-75000D01*
X475000Y-45000D02*
X445000Y-75000D01*
X445000Y-145000D02*
X475000Y-175000D01*
X475000Y-145000D02*
X445000Y-175000D01*
X445000Y-245000D02*
X475000Y-275000D01*
X475000Y-245000D02*
X445000Y-275000D01*
X445000Y-3345000D02*
X475000Y-3375000D01*
X475000Y-3345000D02*
X445000Y-3375000D01*
X445740Y-6000170D02*
X475740Y-6030170D01*
X475740Y-6000170D02*
X445740Y-6030170D01*
X450480Y-3131060D02*
X480480Y-3161060D01*
X480480Y-3131060D02*
X450480Y-3161060D01*
X472390Y-5854310D02*
X502390Y-5884310D01*
X502390Y-5854310D02*
X472390Y-5884310D01*
X523280Y-2506870D02*
X553280Y-2536870D01*
X553280Y-2506870D02*
X523280Y-2536870D01*
X528000Y-1866840D02*
X558000Y-1896840D01*
X558000Y-1866840D02*
X528000Y-1896840D01*
X528000Y-3867160D02*
X558000Y-3897160D01*
X558000Y-3867160D02*
X528000Y-3897160D01*
X537500Y-2828590D02*
X567500Y-2858590D01*
X567500Y-2828590D02*
X537500Y-2858590D01*
X538810Y-3008690D02*
X568810Y-3038690D01*
X568810Y-3008690D02*
X538810Y-3038690D01*
X545000Y-45000D02*
X575000Y-75000D01*
X575000Y-45000D02*
X545000Y-75000D01*
X545000Y-145000D02*
X575000Y-175000D01*
X575000Y-145000D02*
X545000Y-175000D01*
X545000Y-545000D02*
X575000Y-575000D01*
X575000Y-545000D02*
X545000Y-575000D01*
X545000Y-745000D02*
X575000Y-775000D01*
X575000Y-745000D02*
X545000Y-775000D01*
X545000Y-4645000D02*
X575000Y-4675000D01*
X575000Y-4645000D02*
X545000Y-4675000D01*
X545000Y-5145000D02*
X575000Y-5175000D01*
X575000Y-5145000D02*
X545000Y-5175000D01*
X545000Y-5245000D02*
X575000Y-5275000D01*
X575000Y-5245000D02*
X545000Y-5275000D01*
X545000Y-5445000D02*
X575000Y-5475000D01*
X575000Y-5445000D02*
X545000Y-5475000D01*
X545000Y-5545000D02*
X575000Y-5575000D01*
X575000Y-5545000D02*
X545000Y-5575000D01*
X545000Y-5645000D02*
X575000Y-5675000D01*
X575000Y-5645000D02*
X545000Y-5675000D01*
X545000Y-5745000D02*
X575000Y-5775000D01*
X575000Y-5745000D02*
X545000Y-5775000D01*
X546990Y-3363650D02*
X576990Y-3393650D01*
X576990Y-3363650D02*
X546990Y-3393650D01*
X564900Y-1105530D02*
X594900Y-1135530D01*
X594900Y-1105530D02*
X564900Y-1135530D01*
X638400Y-4529920D02*
X668400Y-4559920D01*
X668400Y-4529920D02*
X638400Y-4559920D01*
X644070Y-2543650D02*
X674070Y-2573650D01*
X674070Y-2543650D02*
X644070Y-2573650D01*
X645000Y-45000D02*
X675000Y-75000D01*
X675000Y-45000D02*
X645000Y-75000D01*
X645000Y-145000D02*
X675000Y-175000D01*
X675000Y-145000D02*
X645000Y-175000D01*
X645000Y-245000D02*
X675000Y-275000D01*
X675000Y-245000D02*
X645000Y-275000D01*
X645000Y-445000D02*
X675000Y-475000D01*
X675000Y-445000D02*
X645000Y-475000D01*
X645000Y-745000D02*
X675000Y-775000D01*
X675000Y-745000D02*
X645000Y-775000D01*
X645000Y-4045000D02*
X675000Y-4075000D01*
X675000Y-4045000D02*
X645000Y-4075000D01*
X645000Y-4145000D02*
X675000Y-4175000D01*
X675000Y-4145000D02*
X645000Y-4175000D01*
X645000Y-4645000D02*
X675000Y-4675000D01*
X675000Y-4645000D02*
X645000Y-4675000D01*
X645000Y-5345000D02*
X675000Y-5375000D01*
X675000Y-5345000D02*
X645000Y-5375000D01*
X645000Y-5445000D02*
X675000Y-5475000D01*
X675000Y-5445000D02*
X645000Y-5475000D01*
X645000Y-5545000D02*
X675000Y-5575000D01*
X675000Y-5545000D02*
X645000Y-5575000D01*
X645000Y-5645000D02*
X675000Y-5675000D01*
X675000Y-5645000D02*
X645000Y-5675000D01*
X645000Y-5745000D02*
X675000Y-5775000D01*
X675000Y-5745000D02*
X645000Y-5775000D01*
X646110Y-3226070D02*
X676110Y-3256070D01*
X676110Y-3226070D02*
X646110Y-3256070D01*
X700500Y-3492530D02*
X730500Y-3522530D01*
X730500Y-3492530D02*
X700500Y-3522530D01*
X745000Y-45000D02*
X775000Y-75000D01*
X775000Y-45000D02*
X745000Y-75000D01*
X745000Y-145000D02*
X775000Y-175000D01*
X775000Y-145000D02*
X745000Y-175000D01*
X745000Y-245000D02*
X775000Y-275000D01*
X775000Y-245000D02*
X745000Y-275000D01*
X745000Y-4145000D02*
X775000Y-4175000D01*
X775000Y-4145000D02*
X745000Y-4175000D01*
X745000Y-4545000D02*
X775000Y-4575000D01*
X775000Y-4545000D02*
X745000Y-4575000D01*
X745000Y-4645000D02*
X775000Y-4675000D01*
X775000Y-4645000D02*
X745000Y-4675000D01*
X745000Y-5445000D02*
X775000Y-5475000D01*
X775000Y-5445000D02*
X745000Y-5475000D01*
X748000Y-4053480D02*
X778000Y-4083480D01*
X778000Y-4053480D02*
X748000Y-4083480D01*
X762500Y-4480510D02*
X792500Y-4510510D01*
X792500Y-4480510D02*
X762500Y-4510510D01*
X783140Y-3354930D02*
X813140Y-3384930D01*
X813140Y-3354930D02*
X783140Y-3384930D01*
X793860Y-2525440D02*
X823860Y-2555440D01*
X823860Y-2525440D02*
X793860Y-2555440D01*
X832390Y-3096480D02*
X862390Y-3126480D01*
X862390Y-3096480D02*
X832390Y-3126480D01*
X835970Y-4826230D02*
X865970Y-4856230D01*
X865970Y-4826230D02*
X835970Y-4856230D01*
X845000Y-145000D02*
X875000Y-175000D01*
X875000Y-145000D02*
X845000Y-175000D01*
X845000Y-3845000D02*
X875000Y-3875000D01*
X875000Y-3845000D02*
X845000Y-3875000D01*
X845000Y-4145000D02*
X875000Y-4175000D01*
X875000Y-4145000D02*
X845000Y-4175000D01*
X877110Y-2524370D02*
X907110Y-2554370D01*
X907110Y-2524370D02*
X877110Y-2554370D01*
X898990Y-1423950D02*
X928990Y-1453950D01*
X928990Y-1423950D02*
X898990Y-1453950D01*
X903000Y-1348530D02*
X933000Y-1378530D01*
X933000Y-1348530D02*
X903000Y-1378530D01*
X903000Y-3865470D02*
X933000Y-3895470D01*
X933000Y-3865470D02*
X903000Y-3895470D01*
X918000Y-3416920D02*
X948000Y-3446920D01*
X948000Y-3416920D02*
X918000Y-3446920D01*
X922520Y-2062990D02*
X952520Y-2092990D01*
X952520Y-2062990D02*
X922520Y-2092990D01*
X927000Y-1709510D02*
X957000Y-1739510D01*
X957000Y-1709510D02*
X927000Y-1739510D01*
X945000Y-1545000D02*
X975000Y-1575000D01*
X975000Y-1545000D02*
X945000Y-1575000D01*
X945000Y-3345000D02*
X975000Y-3375000D01*
X975000Y-3345000D02*
X945000Y-3375000D01*
X957590Y-4480080D02*
X987590Y-4510080D01*
X987590Y-4480080D02*
X957590Y-4510080D01*
X1037560Y-2059050D02*
X1067560Y-2089050D01*
X1067560Y-2059050D02*
X1037560Y-2089050D01*
X1039490Y-5987510D02*
X1069490Y-6017510D01*
X1069490Y-5987510D02*
X1039490Y-6017510D01*
X1045000Y-845000D02*
X1075000Y-875000D01*
X1075000Y-845000D02*
X1045000Y-875000D01*
X1045000Y-1145000D02*
X1075000Y-1175000D01*
X1075000Y-1145000D02*
X1045000Y-1175000D01*
X1045000Y-1245000D02*
X1075000Y-1275000D01*
X1075000Y-1245000D02*
X1045000Y-1275000D01*
X1045000Y-3145000D02*
X1075000Y-3175000D01*
X1075000Y-3145000D02*
X1045000Y-3175000D01*
X1045000Y-3245000D02*
X1075000Y-3275000D01*
X1075000Y-3245000D02*
X1045000Y-3275000D01*
X1045000Y-3345000D02*
X1075000Y-3375000D01*
X1075000Y-3345000D02*
X1045000Y-3375000D01*
X1045000Y-4045000D02*
X1075000Y-4075000D01*
X1075000Y-4045000D02*
X1045000Y-4075000D01*
X1045000Y-4645000D02*
X1075000Y-4675000D01*
X1075000Y-4645000D02*
X1045000Y-4675000D01*
X1045550Y-4529920D02*
X1075550Y-4559920D01*
X1075550Y-4529920D02*
X1045550Y-4559920D01*
X1051620Y-3625930D02*
X1081620Y-3655930D01*
X1081620Y-3625930D02*
X1051620Y-3655930D01*
X1080940Y-1808300D02*
X1110940Y-1838300D01*
X1110940Y-1808300D02*
X1080940Y-1838300D01*
X1091270Y-2423450D02*
X1121270Y-2453450D01*
X1121270Y-2423450D02*
X1091270Y-2453450D01*
X1091270Y-2567030D02*
X1121270Y-2597030D01*
X1121270Y-2567030D02*
X1091270Y-2597030D01*
X1160910Y-3810600D02*
X1190910Y-3840600D01*
X1190910Y-3810600D02*
X1160910Y-3840600D01*
X1183410Y-4224000D02*
X1213410Y-4254000D01*
X1213410Y-4224000D02*
X1183410Y-4254000D01*
X1197500Y-3075860D02*
X1227500Y-3105860D01*
X1227500Y-3075860D02*
X1197500Y-3105860D01*
X1223180Y-2375650D02*
X1253180Y-2405650D01*
X1253180Y-2375650D02*
X1223180Y-2405650D01*
X1245000Y-1145000D02*
X1275000Y-1175000D01*
X1275000Y-1145000D02*
X1245000Y-1175000D01*
X1245000Y-1245000D02*
X1275000Y-1275000D01*
X1275000Y-1245000D02*
X1245000Y-1275000D01*
X1245000Y-3145000D02*
X1275000Y-3175000D01*
X1275000Y-3145000D02*
X1245000Y-3175000D01*
X1245000Y-3245000D02*
X1275000Y-3275000D01*
X1275000Y-3245000D02*
X1245000Y-3275000D01*
X1245000Y-3345000D02*
X1275000Y-3375000D01*
X1275000Y-3345000D02*
X1245000Y-3375000D01*
X1245000Y-4545000D02*
X1275000Y-4575000D01*
X1275000Y-4545000D02*
X1245000Y-4575000D01*
X1245000Y-4645000D02*
X1275000Y-4675000D01*
X1275000Y-4645000D02*
X1245000Y-4675000D01*
X1245000Y-5145000D02*
X1275000Y-5175000D01*
X1275000Y-5145000D02*
X1245000Y-5175000D01*
X1245000Y-5345000D02*
X1275000Y-5375000D01*
X1275000Y-5345000D02*
X1245000Y-5375000D01*
X1245000Y-5545000D02*
X1275000Y-5575000D01*
X1275000Y-5545000D02*
X1245000Y-5575000D01*
X1283000Y-1103790D02*
X1313000Y-1133790D01*
X1313000Y-1103790D02*
X1283000Y-1133790D01*
X1287110Y-4053480D02*
X1317110Y-4083480D01*
X1317110Y-4053480D02*
X1287110Y-4083480D01*
X1289300Y-5272700D02*
X1319300Y-5302700D01*
X1319300Y-5272700D02*
X1289300Y-5302700D01*
X1289800Y-5417470D02*
X1319800Y-5447470D01*
X1319800Y-5417470D02*
X1289800Y-5447470D01*
X1300000Y-3356510D02*
X1330000Y-3386510D01*
X1330000Y-3356510D02*
X1300000Y-3386510D01*
X1312220Y-2057270D02*
X1342220Y-2087270D01*
X1342220Y-2057270D02*
X1312220Y-2087270D01*
X1328000Y-1866120D02*
X1358000Y-1896120D01*
X1358000Y-1866120D02*
X1328000Y-1896120D01*
X1345000Y-1145000D02*
X1375000Y-1175000D01*
X1375000Y-1145000D02*
X1345000Y-1175000D01*
X1345000Y-5745000D02*
X1375000Y-5775000D01*
X1375000Y-5745000D02*
X1345000Y-5775000D01*
X1374670Y-3097780D02*
X1404670Y-3127780D01*
X1404670Y-3097780D02*
X1374670Y-3127780D01*
X1388000Y-4004890D02*
X1418000Y-4034890D01*
X1418000Y-4004890D02*
X1388000Y-4034890D01*
X1416290Y-1809920D02*
X1446290Y-1839920D01*
X1446290Y-1809920D02*
X1416290Y-1839920D01*
X1417110Y-2093450D02*
X1447110Y-2123450D01*
X1447110Y-2093450D02*
X1417110Y-2123450D01*
X1445000Y-2445000D02*
X1475000Y-2475000D01*
X1475000Y-2445000D02*
X1445000Y-2475000D01*
X1445000Y-4145000D02*
X1475000Y-4175000D01*
X1475000Y-4145000D02*
X1445000Y-4175000D01*
X1445000Y-5745000D02*
X1475000Y-5775000D01*
X1475000Y-5745000D02*
X1445000Y-5775000D01*
X1456830Y-2720460D02*
X1486830Y-2750460D01*
X1486830Y-2720460D02*
X1456830Y-2750460D01*
X1467500Y-4265340D02*
X1497500Y-4295340D01*
X1497500Y-4265340D02*
X1467500Y-4295340D01*
X1511900Y-2113680D02*
X1541900Y-2143680D01*
X1541900Y-2113680D02*
X1511900Y-2143680D01*
X1537610Y-1864000D02*
X1567610Y-1894000D01*
X1567610Y-1864000D02*
X1537610Y-1894000D01*
X1545000Y-2445000D02*
X1575000Y-2475000D01*
X1575000Y-2445000D02*
X1545000Y-2475000D01*
X1545000Y-2645000D02*
X1575000Y-2675000D01*
X1575000Y-2645000D02*
X1545000Y-2675000D01*
X1545000Y-4145000D02*
X1575000Y-4175000D01*
X1575000Y-4145000D02*
X1545000Y-4175000D01*
X1545000Y-4245000D02*
X1575000Y-4275000D01*
X1575000Y-4245000D02*
X1545000Y-4275000D01*
X1545000Y-5745000D02*
X1575000Y-5775000D01*
X1575000Y-5745000D02*
X1545000Y-5775000D01*
X1589750Y-1103520D02*
X1619750Y-1133520D01*
X1619750Y-1103520D02*
X1589750Y-1133520D01*
X1645000Y-1445000D02*
X1675000Y-1475000D01*
X1675000Y-1445000D02*
X1645000Y-1475000D01*
X1645000Y-2645000D02*
X1675000Y-2675000D01*
X1675000Y-2645000D02*
X1645000Y-2675000D01*
X1645000Y-2745000D02*
X1675000Y-2775000D01*
X1675000Y-2745000D02*
X1645000Y-2775000D01*
X1645000Y-2845000D02*
X1675000Y-2875000D01*
X1675000Y-2845000D02*
X1645000Y-2875000D01*
X1645000Y-2945000D02*
X1675000Y-2975000D01*
X1675000Y-2945000D02*
X1645000Y-2975000D01*
X1658000Y-3865710D02*
X1688000Y-3895710D01*
X1688000Y-3865710D02*
X1658000Y-3895710D01*
X1670000Y-3693170D02*
X1700000Y-3723170D01*
X1700000Y-3693170D02*
X1670000Y-3723170D01*
X1675000Y-2099710D02*
X1705000Y-2129710D01*
X1705000Y-2099710D02*
X1675000Y-2129710D01*
X1690500Y-805940D02*
X1720500Y-835940D01*
X1720500Y-805940D02*
X1690500Y-835940D01*
X1702500Y-5741350D02*
X1732500Y-5771350D01*
X1732500Y-5741350D02*
X1702500Y-5771350D01*
X1708000Y-1640090D02*
X1738000Y-1670090D01*
X1738000Y-1640090D02*
X1708000Y-1670090D01*
X1745000Y-745000D02*
X1775000Y-775000D01*
X1775000Y-745000D02*
X1745000Y-775000D01*
X1745000Y-2645000D02*
X1775000Y-2675000D01*
X1775000Y-2645000D02*
X1745000Y-2675000D01*
X1745000Y-2745000D02*
X1775000Y-2775000D01*
X1775000Y-2745000D02*
X1745000Y-2775000D01*
X1745000Y-2845000D02*
X1775000Y-2875000D01*
X1775000Y-2845000D02*
X1745000Y-2875000D01*
X1745000Y-2945000D02*
X1775000Y-2975000D01*
X1775000Y-2945000D02*
X1745000Y-2975000D01*
X1745000Y-3045000D02*
X1775000Y-3075000D01*
X1775000Y-3045000D02*
X1745000Y-3075000D01*
X1745000Y-3245000D02*
X1775000Y-3275000D01*
X1775000Y-3245000D02*
X1745000Y-3275000D01*
X1745000Y-3345000D02*
X1775000Y-3375000D01*
X1775000Y-3345000D02*
X1745000Y-3375000D01*
X1745000Y-3745000D02*
X1775000Y-3775000D01*
X1775000Y-3745000D02*
X1745000Y-3775000D01*
X1745000Y-3845000D02*
X1775000Y-3875000D01*
X1775000Y-3845000D02*
X1745000Y-3875000D01*
X1745000Y-4445000D02*
X1775000Y-4475000D01*
X1775000Y-4445000D02*
X1745000Y-4475000D01*
X1745000Y-4545000D02*
X1775000Y-4575000D01*
X1775000Y-4545000D02*
X1745000Y-4575000D01*
X1745000Y-4945000D02*
X1775000Y-4975000D01*
X1775000Y-4945000D02*
X1745000Y-4975000D01*
X1745000Y-5045000D02*
X1775000Y-5075000D01*
X1775000Y-5045000D02*
X1745000Y-5075000D01*
X1745000Y-5145000D02*
X1775000Y-5175000D01*
X1775000Y-5145000D02*
X1745000Y-5175000D01*
X1745000Y-5645000D02*
X1775000Y-5675000D01*
X1775000Y-5645000D02*
X1745000Y-5675000D01*
X1845000Y-645000D02*
X1875000Y-675000D01*
X1875000Y-645000D02*
X1845000Y-675000D01*
X1845000Y-745000D02*
X1875000Y-775000D01*
X1875000Y-745000D02*
X1845000Y-775000D01*
X1845000Y-1045000D02*
X1875000Y-1075000D01*
X1875000Y-1045000D02*
X1845000Y-1075000D01*
X1845000Y-2845000D02*
X1875000Y-2875000D01*
X1875000Y-2845000D02*
X1845000Y-2875000D01*
X1845000Y-3345000D02*
X1875000Y-3375000D01*
X1875000Y-3345000D02*
X1845000Y-3375000D01*
X1945000Y-745000D02*
X1975000Y-775000D01*
X1975000Y-745000D02*
X1945000Y-775000D01*
X1945000Y-5945000D02*
X1975000Y-5975000D01*
X1975000Y-5945000D02*
X1945000Y-5975000D01*
X1540000Y-3256000D02*
G75*
G02*
X1460000Y-3256000I-40000J0D01*
G01*
X1460000Y-3256000D02*
G75*
G02*
X1540000Y-3256000I40000J0D01*
G01*
X1540000Y-3744000D02*
G75*
G02*
X1460000Y-3744000I-40000J0D01*
G01*
X1460000Y-3744000D02*
G75*
G02*
X1540000Y-3744000I40000J0D01*
G01*
X161000Y-887000D02*
X161000Y-987000D01*
X111000Y-937000D02*
X211000Y-937000D01*
X161000Y-1141000D02*
X161000Y-1241000D01*
X111000Y-1191000D02*
X211000Y-1191000D01*
X161000Y-1395000D02*
X161000Y-1495000D01*
X111000Y-1445000D02*
X211000Y-1445000D01*
X161000Y-1649000D02*
X161000Y-1749000D01*
X111000Y-1699000D02*
X211000Y-1699000D01*
X161000Y-1903000D02*
X161000Y-2003000D01*
X111000Y-1953000D02*
X211000Y-1953000D01*
X161000Y-2157000D02*
X161000Y-2257000D01*
X111000Y-2207000D02*
X211000Y-2207000D01*
X161000Y-2411000D02*
X161000Y-2511000D01*
X111000Y-2461000D02*
X211000Y-2461000D01*
X161000Y-2665000D02*
X161000Y-2765000D01*
X111000Y-2715000D02*
X211000Y-2715000D01*
X161000Y-2919000D02*
X161000Y-3019000D01*
X111000Y-2969000D02*
X211000Y-2969000D01*
X161000Y-3173000D02*
X161000Y-3273000D01*
X111000Y-3223000D02*
X211000Y-3223000D01*
X161000Y-3427000D02*
X161000Y-3527000D01*
X111000Y-3477000D02*
X211000Y-3477000D01*
X161000Y-3681000D02*
X161000Y-3781000D01*
X111000Y-3731000D02*
X211000Y-3731000D01*
X161000Y-3935000D02*
X161000Y-4035000D01*
X111000Y-3985000D02*
X211000Y-3985000D01*
X161000Y-4189000D02*
X161000Y-4289000D01*
X111000Y-4239000D02*
X211000Y-4239000D01*
X161000Y-4443000D02*
X161000Y-4543000D01*
X111000Y-4493000D02*
X211000Y-4493000D01*
X161000Y-4697000D02*
X161000Y-4797000D01*
X111000Y-4747000D02*
X211000Y-4747000D01*
X161000Y-4951000D02*
X161000Y-5051000D01*
X111000Y-5001000D02*
X211000Y-5001000D01*
X161000Y-5205000D02*
X161000Y-5305000D01*
X111000Y-5255000D02*
X211000Y-5255000D01*
X161000Y-5459000D02*
X161000Y-5559000D01*
X111000Y-5509000D02*
X211000Y-5509000D01*
X161000Y-5713000D02*
X161000Y-5813000D01*
X111000Y-5763000D02*
X211000Y-5763000D01*
X1939000Y-887000D02*
X1939000Y-987000D01*
X1889000Y-937000D02*
X1989000Y-937000D01*
X1939000Y-1141000D02*
X1939000Y-1241000D01*
X1889000Y-1191000D02*
X1989000Y-1191000D01*
X1939000Y-1395000D02*
X1939000Y-1495000D01*
X1889000Y-1445000D02*
X1989000Y-1445000D01*
X1939000Y-1649000D02*
X1939000Y-1749000D01*
X1889000Y-1699000D02*
X1989000Y-1699000D01*
X1939000Y-1903000D02*
X1939000Y-2003000D01*
X1889000Y-1953000D02*
X1989000Y-1953000D01*
X1939000Y-2157000D02*
X1939000Y-2257000D01*
X1889000Y-2207000D02*
X1989000Y-2207000D01*
X1939000Y-2411000D02*
X1939000Y-2511000D01*
X1889000Y-2461000D02*
X1989000Y-2461000D01*
X1939000Y-2665000D02*
X1939000Y-2765000D01*
X1889000Y-2715000D02*
X1989000Y-2715000D01*
X1939000Y-2919000D02*
X1939000Y-3019000D01*
X1889000Y-2969000D02*
X1989000Y-2969000D01*
X1939000Y-3173000D02*
X1939000Y-3273000D01*
X1889000Y-3223000D02*
X1989000Y-3223000D01*
X1939000Y-3427000D02*
X1939000Y-3527000D01*
X1889000Y-3477000D02*
X1989000Y-3477000D01*
X1939000Y-3681000D02*
X1939000Y-3781000D01*
X1889000Y-3731000D02*
X1989000Y-3731000D01*
X1939000Y-3935000D02*
X1939000Y-4035000D01*
X1889000Y-3985000D02*
X1989000Y-3985000D01*
X1939000Y-4189000D02*
X1939000Y-4289000D01*
X1889000Y-4239000D02*
X1989000Y-4239000D01*
X1939000Y-4443000D02*
X1939000Y-4543000D01*
X1889000Y-4493000D02*
X1989000Y-4493000D01*
X1939000Y-4697000D02*
X1939000Y-4797000D01*
X1889000Y-4747000D02*
X1989000Y-4747000D01*
X1939000Y-4951000D02*
X1939000Y-5051000D01*
X1889000Y-5001000D02*
X1989000Y-5001000D01*
X1939000Y-5205000D02*
X1939000Y-5305000D01*
X1889000Y-5255000D02*
X1989000Y-5255000D01*
X1939000Y-5459000D02*
X1939000Y-5559000D01*
X1889000Y-5509000D02*
X1989000Y-5509000D01*
X1939000Y-5713000D02*
X1939000Y-5813000D01*
X1889000Y-5763000D02*
X1989000Y-5763000D01*
D12*
X388891Y-668891D02*
X388891Y-591109D01*
X311109Y-591109D01*
X311109Y-668891D01*
X388891Y-668891D01*
X588891Y-414891D02*
X588891Y-337109D01*
X511109Y-337109D01*
X511109Y-414891D01*
X588891Y-414891D01*
X788891Y-668891D02*
X788891Y-591109D01*
X711109Y-591109D01*
X711109Y-668891D01*
X788891Y-668891D01*
X988891Y-414891D02*
X988891Y-337109D01*
X911109Y-337109D01*
X911109Y-414891D01*
X988891Y-414891D01*
X1188891Y-668891D02*
X1188891Y-591109D01*
X1111109Y-591109D01*
X1111109Y-668891D01*
X1188891Y-668891D01*
X1388891Y-414891D02*
X1388891Y-337109D01*
X1311109Y-337109D01*
X1311109Y-414891D01*
X1388891Y-414891D01*
X1588891Y-668891D02*
X1588891Y-591109D01*
X1511109Y-591109D01*
X1511109Y-668891D01*
X1588891Y-668891D01*
X1788891Y-414891D02*
X1788891Y-337109D01*
X1711109Y-337109D01*
X1711109Y-414891D01*
X1788891Y-414891D01*
D11*
X255777Y-6416484D02*
X255777Y-6216484D01*
X255777Y-6216484D02*
X303396Y-6216484D01*
X303396Y-6216484D02*
X331967Y-6226008D01*
X331967Y-6226008D02*
X351015Y-6245055D01*
X351015Y-6245055D02*
X360539Y-6264103D01*
X360539Y-6264103D02*
X370062Y-6302198D01*
X370062Y-6302198D02*
X370062Y-6330769D01*
X370062Y-6330769D02*
X360539Y-6368865D01*
X360539Y-6368865D02*
X351015Y-6387912D01*
X351015Y-6387912D02*
X331967Y-6406960D01*
X331967Y-6406960D02*
X303396Y-6416484D01*
X303396Y-6416484D02*
X255777Y-6416484D01*
X455777Y-6416484D02*
X455777Y-6283150D01*
X455777Y-6321246D02*
X465301Y-6302198D01*
X465301Y-6302198D02*
X474824Y-6292674D01*
X474824Y-6292674D02*
X493872Y-6283150D01*
X493872Y-6283150D02*
X512920Y-6283150D01*
X579586Y-6416484D02*
X579586Y-6283150D01*
X579586Y-6216484D02*
X570063Y-6226008D01*
X570063Y-6226008D02*
X579586Y-6235531D01*
X579586Y-6235531D02*
X589110Y-6226008D01*
X589110Y-6226008D02*
X579586Y-6216484D01*
X579586Y-6216484D02*
X579586Y-6235531D01*
X703396Y-6416484D02*
X684348Y-6406960D01*
X684348Y-6406960D02*
X674824Y-6387912D01*
X674824Y-6387912D02*
X674824Y-6216484D01*
X808158Y-6416484D02*
X789110Y-6406960D01*
X789110Y-6406960D02*
X779586Y-6387912D01*
X779586Y-6387912D02*
X779586Y-6216484D01*
X1036729Y-6416484D02*
X1036729Y-6216484D01*
X1036729Y-6216484D02*
X1103396Y-6359341D01*
X1103396Y-6359341D02*
X1170063Y-6216484D01*
X1170063Y-6216484D02*
X1170063Y-6416484D01*
X1351015Y-6416484D02*
X1351015Y-6311722D01*
X1351015Y-6311722D02*
X1341491Y-6292674D01*
X1341491Y-6292674D02*
X1322444Y-6283150D01*
X1322444Y-6283150D02*
X1284348Y-6283150D01*
X1284348Y-6283150D02*
X1265301Y-6292674D01*
X1351015Y-6406960D02*
X1331967Y-6416484D01*
X1331967Y-6416484D02*
X1284348Y-6416484D01*
X1284348Y-6416484D02*
X1265301Y-6406960D01*
X1265301Y-6406960D02*
X1255777Y-6387912D01*
X1255777Y-6387912D02*
X1255777Y-6368865D01*
X1255777Y-6368865D02*
X1265301Y-6349817D01*
X1265301Y-6349817D02*
X1284348Y-6340293D01*
X1284348Y-6340293D02*
X1331967Y-6340293D01*
X1331967Y-6340293D02*
X1351015Y-6330769D01*
X1446253Y-6283150D02*
X1446253Y-6483150D01*
X1446253Y-6292674D02*
X1465301Y-6283150D01*
X1465301Y-6283150D02*
X1503396Y-6283150D01*
X1503396Y-6283150D02*
X1522443Y-6292674D01*
X1522443Y-6292674D02*
X1531967Y-6302198D01*
X1531967Y-6302198D02*
X1541491Y-6321246D01*
X1541491Y-6321246D02*
X1541491Y-6378388D01*
X1541491Y-6378388D02*
X1531967Y-6397436D01*
X1531967Y-6397436D02*
X1522443Y-6406960D01*
X1522443Y-6406960D02*
X1503396Y-6416484D01*
X1503396Y-6416484D02*
X1465301Y-6416484D01*
X1465301Y-6416484D02*
X1446253Y-6406960D01*
X1627205Y-6397436D02*
X1636729Y-6406960D01*
X1636729Y-6406960D02*
X1627205Y-6416484D01*
X1627205Y-6416484D02*
X1617682Y-6406960D01*
X1617682Y-6406960D02*
X1627205Y-6397436D01*
X1627205Y-6397436D02*
X1627205Y-6416484D01*
X1627205Y-6292674D02*
X1636729Y-6302198D01*
X1636729Y-6302198D02*
X1627205Y-6311722D01*
X1627205Y-6311722D02*
X1617682Y-6302198D01*
X1617682Y-6302198D02*
X1627205Y-6292674D01*
X1627205Y-6292674D02*
X1627205Y-6311722D01*
D10*
X-35000Y-6730000D02*
X-5000Y-6760000D01*
X-5000Y-6730000D02*
X-35000Y-6760000D01*
D11*
X293872Y-6636484D02*
X312920Y-6636484D01*
X312920Y-6636484D02*
X331967Y-6646008D01*
X331967Y-6646008D02*
X341491Y-6655531D01*
X341491Y-6655531D02*
X351015Y-6674579D01*
X351015Y-6674579D02*
X360539Y-6712674D01*
X360539Y-6712674D02*
X360539Y-6760293D01*
X360539Y-6760293D02*
X351015Y-6798388D01*
X351015Y-6798388D02*
X341491Y-6817436D01*
X341491Y-6817436D02*
X331967Y-6826960D01*
X331967Y-6826960D02*
X312920Y-6836484D01*
X312920Y-6836484D02*
X293872Y-6836484D01*
X293872Y-6836484D02*
X274824Y-6826960D01*
X274824Y-6826960D02*
X265301Y-6817436D01*
X265301Y-6817436D02*
X255777Y-6798388D01*
X255777Y-6798388D02*
X246253Y-6760293D01*
X246253Y-6760293D02*
X246253Y-6712674D01*
X246253Y-6712674D02*
X255777Y-6674579D01*
X255777Y-6674579D02*
X265301Y-6655531D01*
X265301Y-6655531D02*
X274824Y-6646008D01*
X274824Y-6646008D02*
X293872Y-6636484D01*
X446253Y-6817436D02*
X455777Y-6826960D01*
X455777Y-6826960D02*
X446253Y-6836484D01*
X446253Y-6836484D02*
X436729Y-6826960D01*
X436729Y-6826960D02*
X446253Y-6817436D01*
X446253Y-6817436D02*
X446253Y-6836484D01*
X522443Y-6636484D02*
X646253Y-6636484D01*
X646253Y-6636484D02*
X579586Y-6712674D01*
X579586Y-6712674D02*
X608158Y-6712674D01*
X608158Y-6712674D02*
X627205Y-6722198D01*
X627205Y-6722198D02*
X636729Y-6731722D01*
X636729Y-6731722D02*
X646253Y-6750769D01*
X646253Y-6750769D02*
X646253Y-6798388D01*
X646253Y-6798388D02*
X636729Y-6817436D01*
X636729Y-6817436D02*
X627205Y-6826960D01*
X627205Y-6826960D02*
X608158Y-6836484D01*
X608158Y-6836484D02*
X551015Y-6836484D01*
X551015Y-6836484D02*
X531967Y-6826960D01*
X531967Y-6826960D02*
X522443Y-6817436D01*
X770062Y-6636484D02*
X789110Y-6636484D01*
X789110Y-6636484D02*
X808158Y-6646008D01*
X808158Y-6646008D02*
X817682Y-6655531D01*
X817682Y-6655531D02*
X827205Y-6674579D01*
X827205Y-6674579D02*
X836729Y-6712674D01*
X836729Y-6712674D02*
X836729Y-6760293D01*
X836729Y-6760293D02*
X827205Y-6798388D01*
X827205Y-6798388D02*
X817682Y-6817436D01*
X817682Y-6817436D02*
X808158Y-6826960D01*
X808158Y-6826960D02*
X789110Y-6836484D01*
X789110Y-6836484D02*
X770062Y-6836484D01*
X770062Y-6836484D02*
X751015Y-6826960D01*
X751015Y-6826960D02*
X741491Y-6817436D01*
X741491Y-6817436D02*
X731967Y-6798388D01*
X731967Y-6798388D02*
X722443Y-6760293D01*
X722443Y-6760293D02*
X722443Y-6712674D01*
X722443Y-6712674D02*
X731967Y-6674579D01*
X731967Y-6674579D02*
X741491Y-6655531D01*
X741491Y-6655531D02*
X751015Y-6646008D01*
X751015Y-6646008D02*
X770062Y-6636484D01*
X960539Y-6636484D02*
X979586Y-6636484D01*
X979586Y-6636484D02*
X998634Y-6646008D01*
X998634Y-6646008D02*
X1008158Y-6655531D01*
X1008158Y-6655531D02*
X1017682Y-6674579D01*
X1017682Y-6674579D02*
X1027205Y-6712674D01*
X1027205Y-6712674D02*
X1027205Y-6760293D01*
X1027205Y-6760293D02*
X1017682Y-6798388D01*
X1017682Y-6798388D02*
X1008158Y-6817436D01*
X1008158Y-6817436D02*
X998634Y-6826960D01*
X998634Y-6826960D02*
X979586Y-6836484D01*
X979586Y-6836484D02*
X960539Y-6836484D01*
X960539Y-6836484D02*
X941491Y-6826960D01*
X941491Y-6826960D02*
X931967Y-6817436D01*
X931967Y-6817436D02*
X922443Y-6798388D01*
X922443Y-6798388D02*
X912920Y-6760293D01*
X912920Y-6760293D02*
X912920Y-6712674D01*
X912920Y-6712674D02*
X922443Y-6674579D01*
X922443Y-6674579D02*
X931967Y-6655531D01*
X931967Y-6655531D02*
X941491Y-6646008D01*
X941491Y-6646008D02*
X960539Y-6636484D01*
X1112920Y-6836484D02*
X1112920Y-6703150D01*
X1112920Y-6722198D02*
X1122444Y-6712674D01*
X1122444Y-6712674D02*
X1141491Y-6703150D01*
X1141491Y-6703150D02*
X1170063Y-6703150D01*
X1170063Y-6703150D02*
X1189110Y-6712674D01*
X1189110Y-6712674D02*
X1198634Y-6731722D01*
X1198634Y-6731722D02*
X1198634Y-6836484D01*
X1198634Y-6731722D02*
X1208158Y-6712674D01*
X1208158Y-6712674D02*
X1227205Y-6703150D01*
X1227205Y-6703150D02*
X1255777Y-6703150D01*
X1255777Y-6703150D02*
X1274825Y-6712674D01*
X1274825Y-6712674D02*
X1284348Y-6731722D01*
X1284348Y-6731722D02*
X1284348Y-6836484D01*
X1379586Y-6836484D02*
X1379586Y-6703150D01*
X1379586Y-6722198D02*
X1389110Y-6712674D01*
X1389110Y-6712674D02*
X1408158Y-6703150D01*
X1408158Y-6703150D02*
X1436729Y-6703150D01*
X1436729Y-6703150D02*
X1455777Y-6712674D01*
X1455777Y-6712674D02*
X1465301Y-6731722D01*
X1465301Y-6731722D02*
X1465301Y-6836484D01*
X1465301Y-6731722D02*
X1474824Y-6712674D01*
X1474824Y-6712674D02*
X1493872Y-6703150D01*
X1493872Y-6703150D02*
X1522443Y-6703150D01*
X1522443Y-6703150D02*
X1541491Y-6712674D01*
X1541491Y-6712674D02*
X1551015Y-6731722D01*
X1551015Y-6731722D02*
X1551015Y-6836484D01*
X1941491Y-6626960D02*
X1770063Y-6884103D01*
X2198634Y-6636484D02*
X2217682Y-6636484D01*
X2217682Y-6636484D02*
X2236729Y-6646008D01*
X2236729Y-6646008D02*
X2246253Y-6655531D01*
X2246253Y-6655531D02*
X2255777Y-6674579D01*
X2255777Y-6674579D02*
X2265301Y-6712674D01*
X2265301Y-6712674D02*
X2265301Y-6760293D01*
X2265301Y-6760293D02*
X2255777Y-6798388D01*
X2255777Y-6798388D02*
X2246253Y-6817436D01*
X2246253Y-6817436D02*
X2236729Y-6826960D01*
X2236729Y-6826960D02*
X2217682Y-6836484D01*
X2217682Y-6836484D02*
X2198634Y-6836484D01*
X2198634Y-6836484D02*
X2179587Y-6826960D01*
X2179587Y-6826960D02*
X2170063Y-6817436D01*
X2170063Y-6817436D02*
X2160539Y-6798388D01*
X2160539Y-6798388D02*
X2151015Y-6760293D01*
X2151015Y-6760293D02*
X2151015Y-6712674D01*
X2151015Y-6712674D02*
X2160539Y-6674579D01*
X2160539Y-6674579D02*
X2170063Y-6655531D01*
X2170063Y-6655531D02*
X2179587Y-6646008D01*
X2179587Y-6646008D02*
X2198634Y-6636484D01*
X2351015Y-6817436D02*
X2360539Y-6826960D01*
X2360539Y-6826960D02*
X2351015Y-6836484D01*
X2351015Y-6836484D02*
X2341491Y-6826960D01*
X2341491Y-6826960D02*
X2351015Y-6817436D01*
X2351015Y-6817436D02*
X2351015Y-6836484D01*
X2484348Y-6636484D02*
X2503396Y-6636484D01*
X2503396Y-6636484D02*
X2522444Y-6646008D01*
X2522444Y-6646008D02*
X2531968Y-6655531D01*
X2531968Y-6655531D02*
X2541491Y-6674579D01*
X2541491Y-6674579D02*
X2551015Y-6712674D01*
X2551015Y-6712674D02*
X2551015Y-6760293D01*
X2551015Y-6760293D02*
X2541491Y-6798388D01*
X2541491Y-6798388D02*
X2531968Y-6817436D01*
X2531968Y-6817436D02*
X2522444Y-6826960D01*
X2522444Y-6826960D02*
X2503396Y-6836484D01*
X2503396Y-6836484D02*
X2484348Y-6836484D01*
X2484348Y-6836484D02*
X2465301Y-6826960D01*
X2465301Y-6826960D02*
X2455777Y-6817436D01*
X2455777Y-6817436D02*
X2446253Y-6798388D01*
X2446253Y-6798388D02*
X2436729Y-6760293D01*
X2436729Y-6760293D02*
X2436729Y-6712674D01*
X2436729Y-6712674D02*
X2446253Y-6674579D01*
X2446253Y-6674579D02*
X2455777Y-6655531D01*
X2455777Y-6655531D02*
X2465301Y-6646008D01*
X2465301Y-6646008D02*
X2484348Y-6636484D01*
X2741491Y-6836484D02*
X2627206Y-6836484D01*
X2684348Y-6836484D02*
X2684348Y-6636484D01*
X2684348Y-6636484D02*
X2665301Y-6665055D01*
X2665301Y-6665055D02*
X2646253Y-6684103D01*
X2646253Y-6684103D02*
X2627206Y-6693627D01*
X2931967Y-6836484D02*
X2817682Y-6836484D01*
X2874825Y-6836484D02*
X2874825Y-6636484D01*
X2874825Y-6636484D02*
X2855777Y-6665055D01*
X2855777Y-6665055D02*
X2836729Y-6684103D01*
X2836729Y-6684103D02*
X2817682Y-6693627D01*
X3046253Y-6722198D02*
X3027206Y-6712674D01*
X3027206Y-6712674D02*
X3017682Y-6703150D01*
X3017682Y-6703150D02*
X3008158Y-6684103D01*
X3008158Y-6684103D02*
X3008158Y-6674579D01*
X3008158Y-6674579D02*
X3017682Y-6655531D01*
X3017682Y-6655531D02*
X3027206Y-6646008D01*
X3027206Y-6646008D02*
X3046253Y-6636484D01*
X3046253Y-6636484D02*
X3084348Y-6636484D01*
X3084348Y-6636484D02*
X3103396Y-6646008D01*
X3103396Y-6646008D02*
X3112920Y-6655531D01*
X3112920Y-6655531D02*
X3122444Y-6674579D01*
X3122444Y-6674579D02*
X3122444Y-6684103D01*
X3122444Y-6684103D02*
X3112920Y-6703150D01*
X3112920Y-6703150D02*
X3103396Y-6712674D01*
X3103396Y-6712674D02*
X3084348Y-6722198D01*
X3084348Y-6722198D02*
X3046253Y-6722198D01*
X3046253Y-6722198D02*
X3027206Y-6731722D01*
X3027206Y-6731722D02*
X3017682Y-6741246D01*
X3017682Y-6741246D02*
X3008158Y-6760293D01*
X3008158Y-6760293D02*
X3008158Y-6798388D01*
X3008158Y-6798388D02*
X3017682Y-6817436D01*
X3017682Y-6817436D02*
X3027206Y-6826960D01*
X3027206Y-6826960D02*
X3046253Y-6836484D01*
X3046253Y-6836484D02*
X3084348Y-6836484D01*
X3084348Y-6836484D02*
X3103396Y-6826960D01*
X3103396Y-6826960D02*
X3112920Y-6817436D01*
X3112920Y-6817436D02*
X3122444Y-6798388D01*
X3122444Y-6798388D02*
X3122444Y-6760293D01*
X3122444Y-6760293D02*
X3112920Y-6741246D01*
X3112920Y-6741246D02*
X3103396Y-6731722D01*
X3103396Y-6731722D02*
X3084348Y-6722198D01*
X3198634Y-6636484D02*
X3198634Y-6674579D01*
X3274825Y-6636484D02*
X3274825Y-6674579D01*
X3570063Y-6912674D02*
X3560539Y-6903150D01*
X3560539Y-6903150D02*
X3541491Y-6874579D01*
X3541491Y-6874579D02*
X3531968Y-6855531D01*
X3531968Y-6855531D02*
X3522444Y-6826960D01*
X3522444Y-6826960D02*
X3512920Y-6779341D01*
X3512920Y-6779341D02*
X3512920Y-6741246D01*
X3512920Y-6741246D02*
X3522444Y-6693627D01*
X3522444Y-6693627D02*
X3531968Y-6665055D01*
X3531968Y-6665055D02*
X3541491Y-6646008D01*
X3541491Y-6646008D02*
X3560539Y-6617436D01*
X3560539Y-6617436D02*
X3570063Y-6607912D01*
X3751015Y-6836484D02*
X3636729Y-6836484D01*
X3693872Y-6836484D02*
X3693872Y-6636484D01*
X3693872Y-6636484D02*
X3674825Y-6665055D01*
X3674825Y-6665055D02*
X3655777Y-6684103D01*
X3655777Y-6684103D02*
X3636729Y-6693627D01*
X3865301Y-6722198D02*
X3846253Y-6712674D01*
X3846253Y-6712674D02*
X3836729Y-6703150D01*
X3836729Y-6703150D02*
X3827206Y-6684103D01*
X3827206Y-6684103D02*
X3827206Y-6674579D01*
X3827206Y-6674579D02*
X3836729Y-6655531D01*
X3836729Y-6655531D02*
X3846253Y-6646008D01*
X3846253Y-6646008D02*
X3865301Y-6636484D01*
X3865301Y-6636484D02*
X3903396Y-6636484D01*
X3903396Y-6636484D02*
X3922444Y-6646008D01*
X3922444Y-6646008D02*
X3931968Y-6655531D01*
X3931968Y-6655531D02*
X3941491Y-6674579D01*
X3941491Y-6674579D02*
X3941491Y-6684103D01*
X3941491Y-6684103D02*
X3931968Y-6703150D01*
X3931968Y-6703150D02*
X3922444Y-6712674D01*
X3922444Y-6712674D02*
X3903396Y-6722198D01*
X3903396Y-6722198D02*
X3865301Y-6722198D01*
X3865301Y-6722198D02*
X3846253Y-6731722D01*
X3846253Y-6731722D02*
X3836729Y-6741246D01*
X3836729Y-6741246D02*
X3827206Y-6760293D01*
X3827206Y-6760293D02*
X3827206Y-6798388D01*
X3827206Y-6798388D02*
X3836729Y-6817436D01*
X3836729Y-6817436D02*
X3846253Y-6826960D01*
X3846253Y-6826960D02*
X3865301Y-6836484D01*
X3865301Y-6836484D02*
X3903396Y-6836484D01*
X3903396Y-6836484D02*
X3922444Y-6826960D01*
X3922444Y-6826960D02*
X3931968Y-6817436D01*
X3931968Y-6817436D02*
X3941491Y-6798388D01*
X3941491Y-6798388D02*
X3941491Y-6760293D01*
X3941491Y-6760293D02*
X3931968Y-6741246D01*
X3931968Y-6741246D02*
X3922444Y-6731722D01*
X3922444Y-6731722D02*
X3903396Y-6722198D01*
X4017682Y-6655531D02*
X4027206Y-6646008D01*
X4027206Y-6646008D02*
X4046253Y-6636484D01*
X4046253Y-6636484D02*
X4093872Y-6636484D01*
X4093872Y-6636484D02*
X4112920Y-6646008D01*
X4112920Y-6646008D02*
X4122444Y-6655531D01*
X4122444Y-6655531D02*
X4131968Y-6674579D01*
X4131968Y-6674579D02*
X4131968Y-6693627D01*
X4131968Y-6693627D02*
X4122444Y-6722198D01*
X4122444Y-6722198D02*
X4008158Y-6836484D01*
X4008158Y-6836484D02*
X4131968Y-6836484D01*
X4370063Y-6836484D02*
X4370063Y-6636484D01*
X4455777Y-6836484D02*
X4455777Y-6731722D01*
X4455777Y-6731722D02*
X4446253Y-6712674D01*
X4446253Y-6712674D02*
X4427206Y-6703150D01*
X4427206Y-6703150D02*
X4398634Y-6703150D01*
X4398634Y-6703150D02*
X4379587Y-6712674D01*
X4379587Y-6712674D02*
X4370063Y-6722198D01*
X4579587Y-6836484D02*
X4560539Y-6826960D01*
X4560539Y-6826960D02*
X4551015Y-6817436D01*
X4551015Y-6817436D02*
X4541492Y-6798388D01*
X4541492Y-6798388D02*
X4541492Y-6741246D01*
X4541492Y-6741246D02*
X4551015Y-6722198D01*
X4551015Y-6722198D02*
X4560539Y-6712674D01*
X4560539Y-6712674D02*
X4579587Y-6703150D01*
X4579587Y-6703150D02*
X4608158Y-6703150D01*
X4608158Y-6703150D02*
X4627206Y-6712674D01*
X4627206Y-6712674D02*
X4636730Y-6722198D01*
X4636730Y-6722198D02*
X4646253Y-6741246D01*
X4646253Y-6741246D02*
X4646253Y-6798388D01*
X4646253Y-6798388D02*
X4636730Y-6817436D01*
X4636730Y-6817436D02*
X4627206Y-6826960D01*
X4627206Y-6826960D02*
X4608158Y-6836484D01*
X4608158Y-6836484D02*
X4579587Y-6836484D01*
X4760539Y-6836484D02*
X4741492Y-6826960D01*
X4741492Y-6826960D02*
X4731968Y-6807912D01*
X4731968Y-6807912D02*
X4731968Y-6636484D01*
X4912920Y-6826960D02*
X4893873Y-6836484D01*
X4893873Y-6836484D02*
X4855777Y-6836484D01*
X4855777Y-6836484D02*
X4836730Y-6826960D01*
X4836730Y-6826960D02*
X4827206Y-6807912D01*
X4827206Y-6807912D02*
X4827206Y-6731722D01*
X4827206Y-6731722D02*
X4836730Y-6712674D01*
X4836730Y-6712674D02*
X4855777Y-6703150D01*
X4855777Y-6703150D02*
X4893873Y-6703150D01*
X4893873Y-6703150D02*
X4912920Y-6712674D01*
X4912920Y-6712674D02*
X4922444Y-6731722D01*
X4922444Y-6731722D02*
X4922444Y-6750769D01*
X4922444Y-6750769D02*
X4827206Y-6769817D01*
X4998634Y-6826960D02*
X5017682Y-6836484D01*
X5017682Y-6836484D02*
X5055777Y-6836484D01*
X5055777Y-6836484D02*
X5074825Y-6826960D01*
X5074825Y-6826960D02*
X5084349Y-6807912D01*
X5084349Y-6807912D02*
X5084349Y-6798388D01*
X5084349Y-6798388D02*
X5074825Y-6779341D01*
X5074825Y-6779341D02*
X5055777Y-6769817D01*
X5055777Y-6769817D02*
X5027206Y-6769817D01*
X5027206Y-6769817D02*
X5008158Y-6760293D01*
X5008158Y-6760293D02*
X4998634Y-6741246D01*
X4998634Y-6741246D02*
X4998634Y-6731722D01*
X4998634Y-6731722D02*
X5008158Y-6712674D01*
X5008158Y-6712674D02*
X5027206Y-6703150D01*
X5027206Y-6703150D02*
X5055777Y-6703150D01*
X5055777Y-6703150D02*
X5074825Y-6712674D01*
X5151015Y-6912674D02*
X5160539Y-6903150D01*
X5160539Y-6903150D02*
X5179587Y-6874579D01*
X5179587Y-6874579D02*
X5189111Y-6855531D01*
X5189111Y-6855531D02*
X5198634Y-6826960D01*
X5198634Y-6826960D02*
X5208158Y-6779341D01*
X5208158Y-6779341D02*
X5208158Y-6741246D01*
X5208158Y-6741246D02*
X5198634Y-6693627D01*
X5198634Y-6693627D02*
X5189111Y-6665055D01*
X5189111Y-6665055D02*
X5179587Y-6646008D01*
X5179587Y-6646008D02*
X5160539Y-6617436D01*
X5160539Y-6617436D02*
X5151015Y-6607912D01*
D10*
X-5000Y-7009000D02*
G75*
G02*
X-85000Y-7009000I-40000J0D01*
G01*
X-85000Y-7009000D02*
G75*
G02*
X-5000Y-7009000I40000J0D01*
G01*
D11*
X293872Y-6900484D02*
X312920Y-6900484D01*
X312920Y-6900484D02*
X331967Y-6910008D01*
X331967Y-6910008D02*
X341491Y-6919531D01*
X341491Y-6919531D02*
X351015Y-6938579D01*
X351015Y-6938579D02*
X360539Y-6976674D01*
X360539Y-6976674D02*
X360539Y-7024293D01*
X360539Y-7024293D02*
X351015Y-7062388D01*
X351015Y-7062388D02*
X341491Y-7081436D01*
X341491Y-7081436D02*
X331967Y-7090960D01*
X331967Y-7090960D02*
X312920Y-7100484D01*
X312920Y-7100484D02*
X293872Y-7100484D01*
X293872Y-7100484D02*
X274824Y-7090960D01*
X274824Y-7090960D02*
X265301Y-7081436D01*
X265301Y-7081436D02*
X255777Y-7062388D01*
X255777Y-7062388D02*
X246253Y-7024293D01*
X246253Y-7024293D02*
X246253Y-6976674D01*
X246253Y-6976674D02*
X255777Y-6938579D01*
X255777Y-6938579D02*
X265301Y-6919531D01*
X265301Y-6919531D02*
X274824Y-6910008D01*
X274824Y-6910008D02*
X293872Y-6900484D01*
X446253Y-7081436D02*
X455777Y-7090960D01*
X455777Y-7090960D02*
X446253Y-7100484D01*
X446253Y-7100484D02*
X436729Y-7090960D01*
X436729Y-7090960D02*
X446253Y-7081436D01*
X446253Y-7081436D02*
X446253Y-7100484D01*
X570063Y-6986198D02*
X551015Y-6976674D01*
X551015Y-6976674D02*
X541491Y-6967150D01*
X541491Y-6967150D02*
X531967Y-6948103D01*
X531967Y-6948103D02*
X531967Y-6938579D01*
X531967Y-6938579D02*
X541491Y-6919531D01*
X541491Y-6919531D02*
X551015Y-6910008D01*
X551015Y-6910008D02*
X570063Y-6900484D01*
X570063Y-6900484D02*
X608158Y-6900484D01*
X608158Y-6900484D02*
X627205Y-6910008D01*
X627205Y-6910008D02*
X636729Y-6919531D01*
X636729Y-6919531D02*
X646253Y-6938579D01*
X646253Y-6938579D02*
X646253Y-6948103D01*
X646253Y-6948103D02*
X636729Y-6967150D01*
X636729Y-6967150D02*
X627205Y-6976674D01*
X627205Y-6976674D02*
X608158Y-6986198D01*
X608158Y-6986198D02*
X570063Y-6986198D01*
X570063Y-6986198D02*
X551015Y-6995722D01*
X551015Y-6995722D02*
X541491Y-7005246D01*
X541491Y-7005246D02*
X531967Y-7024293D01*
X531967Y-7024293D02*
X531967Y-7062388D01*
X531967Y-7062388D02*
X541491Y-7081436D01*
X541491Y-7081436D02*
X551015Y-7090960D01*
X551015Y-7090960D02*
X570063Y-7100484D01*
X570063Y-7100484D02*
X608158Y-7100484D01*
X608158Y-7100484D02*
X627205Y-7090960D01*
X627205Y-7090960D02*
X636729Y-7081436D01*
X636729Y-7081436D02*
X646253Y-7062388D01*
X646253Y-7062388D02*
X646253Y-7024293D01*
X646253Y-7024293D02*
X636729Y-7005246D01*
X636729Y-7005246D02*
X627205Y-6995722D01*
X627205Y-6995722D02*
X608158Y-6986198D01*
X770062Y-6900484D02*
X789110Y-6900484D01*
X789110Y-6900484D02*
X808158Y-6910008D01*
X808158Y-6910008D02*
X817682Y-6919531D01*
X817682Y-6919531D02*
X827205Y-6938579D01*
X827205Y-6938579D02*
X836729Y-6976674D01*
X836729Y-6976674D02*
X836729Y-7024293D01*
X836729Y-7024293D02*
X827205Y-7062388D01*
X827205Y-7062388D02*
X817682Y-7081436D01*
X817682Y-7081436D02*
X808158Y-7090960D01*
X808158Y-7090960D02*
X789110Y-7100484D01*
X789110Y-7100484D02*
X770062Y-7100484D01*
X770062Y-7100484D02*
X751015Y-7090960D01*
X751015Y-7090960D02*
X741491Y-7081436D01*
X741491Y-7081436D02*
X731967Y-7062388D01*
X731967Y-7062388D02*
X722443Y-7024293D01*
X722443Y-7024293D02*
X722443Y-6976674D01*
X722443Y-6976674D02*
X731967Y-6938579D01*
X731967Y-6938579D02*
X741491Y-6919531D01*
X741491Y-6919531D02*
X751015Y-6910008D01*
X751015Y-6910008D02*
X770062Y-6900484D01*
X960539Y-6900484D02*
X979586Y-6900484D01*
X979586Y-6900484D02*
X998634Y-6910008D01*
X998634Y-6910008D02*
X1008158Y-6919531D01*
X1008158Y-6919531D02*
X1017682Y-6938579D01*
X1017682Y-6938579D02*
X1027205Y-6976674D01*
X1027205Y-6976674D02*
X1027205Y-7024293D01*
X1027205Y-7024293D02*
X1017682Y-7062388D01*
X1017682Y-7062388D02*
X1008158Y-7081436D01*
X1008158Y-7081436D02*
X998634Y-7090960D01*
X998634Y-7090960D02*
X979586Y-7100484D01*
X979586Y-7100484D02*
X960539Y-7100484D01*
X960539Y-7100484D02*
X941491Y-7090960D01*
X941491Y-7090960D02*
X931967Y-7081436D01*
X931967Y-7081436D02*
X922443Y-7062388D01*
X922443Y-7062388D02*
X912920Y-7024293D01*
X912920Y-7024293D02*
X912920Y-6976674D01*
X912920Y-6976674D02*
X922443Y-6938579D01*
X922443Y-6938579D02*
X931967Y-6919531D01*
X931967Y-6919531D02*
X941491Y-6910008D01*
X941491Y-6910008D02*
X960539Y-6900484D01*
X1112920Y-7100484D02*
X1112920Y-6967150D01*
X1112920Y-6986198D02*
X1122444Y-6976674D01*
X1122444Y-6976674D02*
X1141491Y-6967150D01*
X1141491Y-6967150D02*
X1170063Y-6967150D01*
X1170063Y-6967150D02*
X1189110Y-6976674D01*
X1189110Y-6976674D02*
X1198634Y-6995722D01*
X1198634Y-6995722D02*
X1198634Y-7100484D01*
X1198634Y-6995722D02*
X1208158Y-6976674D01*
X1208158Y-6976674D02*
X1227205Y-6967150D01*
X1227205Y-6967150D02*
X1255777Y-6967150D01*
X1255777Y-6967150D02*
X1274825Y-6976674D01*
X1274825Y-6976674D02*
X1284348Y-6995722D01*
X1284348Y-6995722D02*
X1284348Y-7100484D01*
X1379586Y-7100484D02*
X1379586Y-6967150D01*
X1379586Y-6986198D02*
X1389110Y-6976674D01*
X1389110Y-6976674D02*
X1408158Y-6967150D01*
X1408158Y-6967150D02*
X1436729Y-6967150D01*
X1436729Y-6967150D02*
X1455777Y-6976674D01*
X1455777Y-6976674D02*
X1465301Y-6995722D01*
X1465301Y-6995722D02*
X1465301Y-7100484D01*
X1465301Y-6995722D02*
X1474824Y-6976674D01*
X1474824Y-6976674D02*
X1493872Y-6967150D01*
X1493872Y-6967150D02*
X1522443Y-6967150D01*
X1522443Y-6967150D02*
X1541491Y-6976674D01*
X1541491Y-6976674D02*
X1551015Y-6995722D01*
X1551015Y-6995722D02*
X1551015Y-7100484D01*
X1941491Y-6890960D02*
X1770063Y-7148103D01*
X2198634Y-6900484D02*
X2217682Y-6900484D01*
X2217682Y-6900484D02*
X2236729Y-6910008D01*
X2236729Y-6910008D02*
X2246253Y-6919531D01*
X2246253Y-6919531D02*
X2255777Y-6938579D01*
X2255777Y-6938579D02*
X2265301Y-6976674D01*
X2265301Y-6976674D02*
X2265301Y-7024293D01*
X2265301Y-7024293D02*
X2255777Y-7062388D01*
X2255777Y-7062388D02*
X2246253Y-7081436D01*
X2246253Y-7081436D02*
X2236729Y-7090960D01*
X2236729Y-7090960D02*
X2217682Y-7100484D01*
X2217682Y-7100484D02*
X2198634Y-7100484D01*
X2198634Y-7100484D02*
X2179587Y-7090960D01*
X2179587Y-7090960D02*
X2170063Y-7081436D01*
X2170063Y-7081436D02*
X2160539Y-7062388D01*
X2160539Y-7062388D02*
X2151015Y-7024293D01*
X2151015Y-7024293D02*
X2151015Y-6976674D01*
X2151015Y-6976674D02*
X2160539Y-6938579D01*
X2160539Y-6938579D02*
X2170063Y-6919531D01*
X2170063Y-6919531D02*
X2179587Y-6910008D01*
X2179587Y-6910008D02*
X2198634Y-6900484D01*
X2351015Y-7081436D02*
X2360539Y-7090960D01*
X2360539Y-7090960D02*
X2351015Y-7100484D01*
X2351015Y-7100484D02*
X2341491Y-7090960D01*
X2341491Y-7090960D02*
X2351015Y-7081436D01*
X2351015Y-7081436D02*
X2351015Y-7100484D01*
X2484348Y-6900484D02*
X2503396Y-6900484D01*
X2503396Y-6900484D02*
X2522444Y-6910008D01*
X2522444Y-6910008D02*
X2531968Y-6919531D01*
X2531968Y-6919531D02*
X2541491Y-6938579D01*
X2541491Y-6938579D02*
X2551015Y-6976674D01*
X2551015Y-6976674D02*
X2551015Y-7024293D01*
X2551015Y-7024293D02*
X2541491Y-7062388D01*
X2541491Y-7062388D02*
X2531968Y-7081436D01*
X2531968Y-7081436D02*
X2522444Y-7090960D01*
X2522444Y-7090960D02*
X2503396Y-7100484D01*
X2503396Y-7100484D02*
X2484348Y-7100484D01*
X2484348Y-7100484D02*
X2465301Y-7090960D01*
X2465301Y-7090960D02*
X2455777Y-7081436D01*
X2455777Y-7081436D02*
X2446253Y-7062388D01*
X2446253Y-7062388D02*
X2436729Y-7024293D01*
X2436729Y-7024293D02*
X2436729Y-6976674D01*
X2436729Y-6976674D02*
X2446253Y-6938579D01*
X2446253Y-6938579D02*
X2455777Y-6919531D01*
X2455777Y-6919531D02*
X2465301Y-6910008D01*
X2465301Y-6910008D02*
X2484348Y-6900484D01*
X2617682Y-6900484D02*
X2741491Y-6900484D01*
X2741491Y-6900484D02*
X2674825Y-6976674D01*
X2674825Y-6976674D02*
X2703396Y-6976674D01*
X2703396Y-6976674D02*
X2722444Y-6986198D01*
X2722444Y-6986198D02*
X2731968Y-6995722D01*
X2731968Y-6995722D02*
X2741491Y-7014769D01*
X2741491Y-7014769D02*
X2741491Y-7062388D01*
X2741491Y-7062388D02*
X2731968Y-7081436D01*
X2731968Y-7081436D02*
X2722444Y-7090960D01*
X2722444Y-7090960D02*
X2703396Y-7100484D01*
X2703396Y-7100484D02*
X2646253Y-7100484D01*
X2646253Y-7100484D02*
X2627206Y-7090960D01*
X2627206Y-7090960D02*
X2617682Y-7081436D01*
X2931967Y-7100484D02*
X2817682Y-7100484D01*
X2874825Y-7100484D02*
X2874825Y-6900484D01*
X2874825Y-6900484D02*
X2855777Y-6929055D01*
X2855777Y-6929055D02*
X2836729Y-6948103D01*
X2836729Y-6948103D02*
X2817682Y-6957627D01*
X3112920Y-6900484D02*
X3017682Y-6900484D01*
X3017682Y-6900484D02*
X3008158Y-6995722D01*
X3008158Y-6995722D02*
X3017682Y-6986198D01*
X3017682Y-6986198D02*
X3036729Y-6976674D01*
X3036729Y-6976674D02*
X3084348Y-6976674D01*
X3084348Y-6976674D02*
X3103396Y-6986198D01*
X3103396Y-6986198D02*
X3112920Y-6995722D01*
X3112920Y-6995722D02*
X3122444Y-7014769D01*
X3122444Y-7014769D02*
X3122444Y-7062388D01*
X3122444Y-7062388D02*
X3112920Y-7081436D01*
X3112920Y-7081436D02*
X3103396Y-7090960D01*
X3103396Y-7090960D02*
X3084348Y-7100484D01*
X3084348Y-7100484D02*
X3036729Y-7100484D01*
X3036729Y-7100484D02*
X3017682Y-7090960D01*
X3017682Y-7090960D02*
X3008158Y-7081436D01*
X3198634Y-6900484D02*
X3198634Y-6938579D01*
X3274825Y-6900484D02*
X3274825Y-6938579D01*
X3570063Y-7176674D02*
X3560539Y-7167150D01*
X3560539Y-7167150D02*
X3541491Y-7138579D01*
X3541491Y-7138579D02*
X3531968Y-7119531D01*
X3531968Y-7119531D02*
X3522444Y-7090960D01*
X3522444Y-7090960D02*
X3512920Y-7043341D01*
X3512920Y-7043341D02*
X3512920Y-7005246D01*
X3512920Y-7005246D02*
X3522444Y-6957627D01*
X3522444Y-6957627D02*
X3531968Y-6929055D01*
X3531968Y-6929055D02*
X3541491Y-6910008D01*
X3541491Y-6910008D02*
X3560539Y-6881436D01*
X3560539Y-6881436D02*
X3570063Y-6871912D01*
X3636729Y-6919531D02*
X3646253Y-6910008D01*
X3646253Y-6910008D02*
X3665301Y-6900484D01*
X3665301Y-6900484D02*
X3712920Y-6900484D01*
X3712920Y-6900484D02*
X3731968Y-6910008D01*
X3731968Y-6910008D02*
X3741491Y-6919531D01*
X3741491Y-6919531D02*
X3751015Y-6938579D01*
X3751015Y-6938579D02*
X3751015Y-6957627D01*
X3751015Y-6957627D02*
X3741491Y-6986198D01*
X3741491Y-6986198D02*
X3627206Y-7100484D01*
X3627206Y-7100484D02*
X3751015Y-7100484D01*
X3989110Y-7100484D02*
X3989110Y-6900484D01*
X4074825Y-7100484D02*
X4074825Y-6995722D01*
X4074825Y-6995722D02*
X4065301Y-6976674D01*
X4065301Y-6976674D02*
X4046253Y-6967150D01*
X4046253Y-6967150D02*
X4017682Y-6967150D01*
X4017682Y-6967150D02*
X3998634Y-6976674D01*
X3998634Y-6976674D02*
X3989110Y-6986198D01*
X4198634Y-7100484D02*
X4179587Y-7090960D01*
X4179587Y-7090960D02*
X4170063Y-7081436D01*
X4170063Y-7081436D02*
X4160539Y-7062388D01*
X4160539Y-7062388D02*
X4160539Y-7005246D01*
X4160539Y-7005246D02*
X4170063Y-6986198D01*
X4170063Y-6986198D02*
X4179587Y-6976674D01*
X4179587Y-6976674D02*
X4198634Y-6967150D01*
X4198634Y-6967150D02*
X4227206Y-6967150D01*
X4227206Y-6967150D02*
X4246253Y-6976674D01*
X4246253Y-6976674D02*
X4255777Y-6986198D01*
X4255777Y-6986198D02*
X4265301Y-7005246D01*
X4265301Y-7005246D02*
X4265301Y-7062388D01*
X4265301Y-7062388D02*
X4255777Y-7081436D01*
X4255777Y-7081436D02*
X4246253Y-7090960D01*
X4246253Y-7090960D02*
X4227206Y-7100484D01*
X4227206Y-7100484D02*
X4198634Y-7100484D01*
X4379587Y-7100484D02*
X4360539Y-7090960D01*
X4360539Y-7090960D02*
X4351015Y-7071912D01*
X4351015Y-7071912D02*
X4351015Y-6900484D01*
X4531968Y-7090960D02*
X4512920Y-7100484D01*
X4512920Y-7100484D02*
X4474825Y-7100484D01*
X4474825Y-7100484D02*
X4455777Y-7090960D01*
X4455777Y-7090960D02*
X4446253Y-7071912D01*
X4446253Y-7071912D02*
X4446253Y-6995722D01*
X4446253Y-6995722D02*
X4455777Y-6976674D01*
X4455777Y-6976674D02*
X4474825Y-6967150D01*
X4474825Y-6967150D02*
X4512920Y-6967150D01*
X4512920Y-6967150D02*
X4531968Y-6976674D01*
X4531968Y-6976674D02*
X4541492Y-6995722D01*
X4541492Y-6995722D02*
X4541492Y-7014769D01*
X4541492Y-7014769D02*
X4446253Y-7033817D01*
X4617682Y-7090960D02*
X4636730Y-7100484D01*
X4636730Y-7100484D02*
X4674825Y-7100484D01*
X4674825Y-7100484D02*
X4693873Y-7090960D01*
X4693873Y-7090960D02*
X4703396Y-7071912D01*
X4703396Y-7071912D02*
X4703396Y-7062388D01*
X4703396Y-7062388D02*
X4693873Y-7043341D01*
X4693873Y-7043341D02*
X4674825Y-7033817D01*
X4674825Y-7033817D02*
X4646253Y-7033817D01*
X4646253Y-7033817D02*
X4627206Y-7024293D01*
X4627206Y-7024293D02*
X4617682Y-7005246D01*
X4617682Y-7005246D02*
X4617682Y-6995722D01*
X4617682Y-6995722D02*
X4627206Y-6976674D01*
X4627206Y-6976674D02*
X4646253Y-6967150D01*
X4646253Y-6967150D02*
X4674825Y-6967150D01*
X4674825Y-6967150D02*
X4693873Y-6976674D01*
X4770063Y-7176674D02*
X4779587Y-7167150D01*
X4779587Y-7167150D02*
X4798634Y-7138579D01*
X4798634Y-7138579D02*
X4808158Y-7119531D01*
X4808158Y-7119531D02*
X4817682Y-7090960D01*
X4817682Y-7090960D02*
X4827206Y-7043341D01*
X4827206Y-7043341D02*
X4827206Y-7005246D01*
X4827206Y-7005246D02*
X4817682Y-6957627D01*
X4817682Y-6957627D02*
X4808158Y-6929055D01*
X4808158Y-6929055D02*
X4798634Y-6910008D01*
X4798634Y-6910008D02*
X4779587Y-6881436D01*
X4779587Y-6881436D02*
X4770063Y-6871912D01*
D10*
X-55000Y-7223000D02*
X-55000Y-7323000D01*
X-105000Y-7273000D02*
X-5000Y-7273000D01*
D11*
X360539Y-7364484D02*
X246253Y-7364484D01*
X303396Y-7364484D02*
X303396Y-7164484D01*
X303396Y-7164484D02*
X284348Y-7193055D01*
X284348Y-7193055D02*
X265301Y-7212103D01*
X265301Y-7212103D02*
X246253Y-7221627D01*
X446253Y-7345436D02*
X455777Y-7354960D01*
X455777Y-7354960D02*
X446253Y-7364484D01*
X446253Y-7364484D02*
X436729Y-7354960D01*
X436729Y-7354960D02*
X446253Y-7345436D01*
X446253Y-7345436D02*
X446253Y-7364484D01*
X579586Y-7164484D02*
X598634Y-7164484D01*
X598634Y-7164484D02*
X617682Y-7174008D01*
X617682Y-7174008D02*
X627205Y-7183531D01*
X627205Y-7183531D02*
X636729Y-7202579D01*
X636729Y-7202579D02*
X646253Y-7240674D01*
X646253Y-7240674D02*
X646253Y-7288293D01*
X646253Y-7288293D02*
X636729Y-7326388D01*
X636729Y-7326388D02*
X627205Y-7345436D01*
X627205Y-7345436D02*
X617682Y-7354960D01*
X617682Y-7354960D02*
X598634Y-7364484D01*
X598634Y-7364484D02*
X579586Y-7364484D01*
X579586Y-7364484D02*
X560539Y-7354960D01*
X560539Y-7354960D02*
X551015Y-7345436D01*
X551015Y-7345436D02*
X541491Y-7326388D01*
X541491Y-7326388D02*
X531967Y-7288293D01*
X531967Y-7288293D02*
X531967Y-7240674D01*
X531967Y-7240674D02*
X541491Y-7202579D01*
X541491Y-7202579D02*
X551015Y-7183531D01*
X551015Y-7183531D02*
X560539Y-7174008D01*
X560539Y-7174008D02*
X579586Y-7164484D01*
X770062Y-7164484D02*
X789110Y-7164484D01*
X789110Y-7164484D02*
X808158Y-7174008D01*
X808158Y-7174008D02*
X817682Y-7183531D01*
X817682Y-7183531D02*
X827205Y-7202579D01*
X827205Y-7202579D02*
X836729Y-7240674D01*
X836729Y-7240674D02*
X836729Y-7288293D01*
X836729Y-7288293D02*
X827205Y-7326388D01*
X827205Y-7326388D02*
X817682Y-7345436D01*
X817682Y-7345436D02*
X808158Y-7354960D01*
X808158Y-7354960D02*
X789110Y-7364484D01*
X789110Y-7364484D02*
X770062Y-7364484D01*
X770062Y-7364484D02*
X751015Y-7354960D01*
X751015Y-7354960D02*
X741491Y-7345436D01*
X741491Y-7345436D02*
X731967Y-7326388D01*
X731967Y-7326388D02*
X722443Y-7288293D01*
X722443Y-7288293D02*
X722443Y-7240674D01*
X722443Y-7240674D02*
X731967Y-7202579D01*
X731967Y-7202579D02*
X741491Y-7183531D01*
X741491Y-7183531D02*
X751015Y-7174008D01*
X751015Y-7174008D02*
X770062Y-7164484D01*
X960539Y-7164484D02*
X979586Y-7164484D01*
X979586Y-7164484D02*
X998634Y-7174008D01*
X998634Y-7174008D02*
X1008158Y-7183531D01*
X1008158Y-7183531D02*
X1017682Y-7202579D01*
X1017682Y-7202579D02*
X1027205Y-7240674D01*
X1027205Y-7240674D02*
X1027205Y-7288293D01*
X1027205Y-7288293D02*
X1017682Y-7326388D01*
X1017682Y-7326388D02*
X1008158Y-7345436D01*
X1008158Y-7345436D02*
X998634Y-7354960D01*
X998634Y-7354960D02*
X979586Y-7364484D01*
X979586Y-7364484D02*
X960539Y-7364484D01*
X960539Y-7364484D02*
X941491Y-7354960D01*
X941491Y-7354960D02*
X931967Y-7345436D01*
X931967Y-7345436D02*
X922443Y-7326388D01*
X922443Y-7326388D02*
X912920Y-7288293D01*
X912920Y-7288293D02*
X912920Y-7240674D01*
X912920Y-7240674D02*
X922443Y-7202579D01*
X922443Y-7202579D02*
X931967Y-7183531D01*
X931967Y-7183531D02*
X941491Y-7174008D01*
X941491Y-7174008D02*
X960539Y-7164484D01*
X1112920Y-7364484D02*
X1112920Y-7231150D01*
X1112920Y-7250198D02*
X1122444Y-7240674D01*
X1122444Y-7240674D02*
X1141491Y-7231150D01*
X1141491Y-7231150D02*
X1170063Y-7231150D01*
X1170063Y-7231150D02*
X1189110Y-7240674D01*
X1189110Y-7240674D02*
X1198634Y-7259722D01*
X1198634Y-7259722D02*
X1198634Y-7364484D01*
X1198634Y-7259722D02*
X1208158Y-7240674D01*
X1208158Y-7240674D02*
X1227205Y-7231150D01*
X1227205Y-7231150D02*
X1255777Y-7231150D01*
X1255777Y-7231150D02*
X1274825Y-7240674D01*
X1274825Y-7240674D02*
X1284348Y-7259722D01*
X1284348Y-7259722D02*
X1284348Y-7364484D01*
X1379586Y-7364484D02*
X1379586Y-7231150D01*
X1379586Y-7250198D02*
X1389110Y-7240674D01*
X1389110Y-7240674D02*
X1408158Y-7231150D01*
X1408158Y-7231150D02*
X1436729Y-7231150D01*
X1436729Y-7231150D02*
X1455777Y-7240674D01*
X1455777Y-7240674D02*
X1465301Y-7259722D01*
X1465301Y-7259722D02*
X1465301Y-7364484D01*
X1465301Y-7259722D02*
X1474824Y-7240674D01*
X1474824Y-7240674D02*
X1493872Y-7231150D01*
X1493872Y-7231150D02*
X1522443Y-7231150D01*
X1522443Y-7231150D02*
X1541491Y-7240674D01*
X1541491Y-7240674D02*
X1551015Y-7259722D01*
X1551015Y-7259722D02*
X1551015Y-7364484D01*
X1941491Y-7154960D02*
X1770063Y-7412103D01*
X2198634Y-7164484D02*
X2217682Y-7164484D01*
X2217682Y-7164484D02*
X2236729Y-7174008D01*
X2236729Y-7174008D02*
X2246253Y-7183531D01*
X2246253Y-7183531D02*
X2255777Y-7202579D01*
X2255777Y-7202579D02*
X2265301Y-7240674D01*
X2265301Y-7240674D02*
X2265301Y-7288293D01*
X2265301Y-7288293D02*
X2255777Y-7326388D01*
X2255777Y-7326388D02*
X2246253Y-7345436D01*
X2246253Y-7345436D02*
X2236729Y-7354960D01*
X2236729Y-7354960D02*
X2217682Y-7364484D01*
X2217682Y-7364484D02*
X2198634Y-7364484D01*
X2198634Y-7364484D02*
X2179587Y-7354960D01*
X2179587Y-7354960D02*
X2170063Y-7345436D01*
X2170063Y-7345436D02*
X2160539Y-7326388D01*
X2160539Y-7326388D02*
X2151015Y-7288293D01*
X2151015Y-7288293D02*
X2151015Y-7240674D01*
X2151015Y-7240674D02*
X2160539Y-7202579D01*
X2160539Y-7202579D02*
X2170063Y-7183531D01*
X2170063Y-7183531D02*
X2179587Y-7174008D01*
X2179587Y-7174008D02*
X2198634Y-7164484D01*
X2351015Y-7345436D02*
X2360539Y-7354960D01*
X2360539Y-7354960D02*
X2351015Y-7364484D01*
X2351015Y-7364484D02*
X2341491Y-7354960D01*
X2341491Y-7354960D02*
X2351015Y-7345436D01*
X2351015Y-7345436D02*
X2351015Y-7364484D01*
X2484348Y-7164484D02*
X2503396Y-7164484D01*
X2503396Y-7164484D02*
X2522444Y-7174008D01*
X2522444Y-7174008D02*
X2531968Y-7183531D01*
X2531968Y-7183531D02*
X2541491Y-7202579D01*
X2541491Y-7202579D02*
X2551015Y-7240674D01*
X2551015Y-7240674D02*
X2551015Y-7288293D01*
X2551015Y-7288293D02*
X2541491Y-7326388D01*
X2541491Y-7326388D02*
X2531968Y-7345436D01*
X2531968Y-7345436D02*
X2522444Y-7354960D01*
X2522444Y-7354960D02*
X2503396Y-7364484D01*
X2503396Y-7364484D02*
X2484348Y-7364484D01*
X2484348Y-7364484D02*
X2465301Y-7354960D01*
X2465301Y-7354960D02*
X2455777Y-7345436D01*
X2455777Y-7345436D02*
X2446253Y-7326388D01*
X2446253Y-7326388D02*
X2436729Y-7288293D01*
X2436729Y-7288293D02*
X2436729Y-7240674D01*
X2436729Y-7240674D02*
X2446253Y-7202579D01*
X2446253Y-7202579D02*
X2455777Y-7183531D01*
X2455777Y-7183531D02*
X2465301Y-7174008D01*
X2465301Y-7174008D02*
X2484348Y-7164484D01*
X2617682Y-7164484D02*
X2741491Y-7164484D01*
X2741491Y-7164484D02*
X2674825Y-7240674D01*
X2674825Y-7240674D02*
X2703396Y-7240674D01*
X2703396Y-7240674D02*
X2722444Y-7250198D01*
X2722444Y-7250198D02*
X2731968Y-7259722D01*
X2731968Y-7259722D02*
X2741491Y-7278769D01*
X2741491Y-7278769D02*
X2741491Y-7326388D01*
X2741491Y-7326388D02*
X2731968Y-7345436D01*
X2731968Y-7345436D02*
X2722444Y-7354960D01*
X2722444Y-7354960D02*
X2703396Y-7364484D01*
X2703396Y-7364484D02*
X2646253Y-7364484D01*
X2646253Y-7364484D02*
X2627206Y-7354960D01*
X2627206Y-7354960D02*
X2617682Y-7345436D01*
X2836729Y-7364484D02*
X2874825Y-7364484D01*
X2874825Y-7364484D02*
X2893872Y-7354960D01*
X2893872Y-7354960D02*
X2903396Y-7345436D01*
X2903396Y-7345436D02*
X2922444Y-7316865D01*
X2922444Y-7316865D02*
X2931967Y-7278769D01*
X2931967Y-7278769D02*
X2931967Y-7202579D01*
X2931967Y-7202579D02*
X2922444Y-7183531D01*
X2922444Y-7183531D02*
X2912920Y-7174008D01*
X2912920Y-7174008D02*
X2893872Y-7164484D01*
X2893872Y-7164484D02*
X2855777Y-7164484D01*
X2855777Y-7164484D02*
X2836729Y-7174008D01*
X2836729Y-7174008D02*
X2827206Y-7183531D01*
X2827206Y-7183531D02*
X2817682Y-7202579D01*
X2817682Y-7202579D02*
X2817682Y-7250198D01*
X2817682Y-7250198D02*
X2827206Y-7269246D01*
X2827206Y-7269246D02*
X2836729Y-7278769D01*
X2836729Y-7278769D02*
X2855777Y-7288293D01*
X2855777Y-7288293D02*
X2893872Y-7288293D01*
X2893872Y-7288293D02*
X2912920Y-7278769D01*
X2912920Y-7278769D02*
X2922444Y-7269246D01*
X2922444Y-7269246D02*
X2931967Y-7250198D01*
X3103396Y-7231150D02*
X3103396Y-7364484D01*
X3055777Y-7154960D02*
X3008158Y-7297817D01*
X3008158Y-7297817D02*
X3131967Y-7297817D01*
X3198634Y-7164484D02*
X3198634Y-7202579D01*
X3274825Y-7164484D02*
X3274825Y-7202579D01*
X3570063Y-7440674D02*
X3560539Y-7431150D01*
X3560539Y-7431150D02*
X3541491Y-7402579D01*
X3541491Y-7402579D02*
X3531968Y-7383531D01*
X3531968Y-7383531D02*
X3522444Y-7354960D01*
X3522444Y-7354960D02*
X3512920Y-7307341D01*
X3512920Y-7307341D02*
X3512920Y-7269246D01*
X3512920Y-7269246D02*
X3522444Y-7221627D01*
X3522444Y-7221627D02*
X3531968Y-7193055D01*
X3531968Y-7193055D02*
X3541491Y-7174008D01*
X3541491Y-7174008D02*
X3560539Y-7145436D01*
X3560539Y-7145436D02*
X3570063Y-7135912D01*
X3731968Y-7231150D02*
X3731968Y-7364484D01*
X3684348Y-7154960D02*
X3636729Y-7297817D01*
X3636729Y-7297817D02*
X3760539Y-7297817D01*
X3874825Y-7164484D02*
X3893872Y-7164484D01*
X3893872Y-7164484D02*
X3912920Y-7174008D01*
X3912920Y-7174008D02*
X3922444Y-7183531D01*
X3922444Y-7183531D02*
X3931968Y-7202579D01*
X3931968Y-7202579D02*
X3941491Y-7240674D01*
X3941491Y-7240674D02*
X3941491Y-7288293D01*
X3941491Y-7288293D02*
X3931968Y-7326388D01*
X3931968Y-7326388D02*
X3922444Y-7345436D01*
X3922444Y-7345436D02*
X3912920Y-7354960D01*
X3912920Y-7354960D02*
X3893872Y-7364484D01*
X3893872Y-7364484D02*
X3874825Y-7364484D01*
X3874825Y-7364484D02*
X3855777Y-7354960D01*
X3855777Y-7354960D02*
X3846253Y-7345436D01*
X3846253Y-7345436D02*
X3836729Y-7326388D01*
X3836729Y-7326388D02*
X3827206Y-7288293D01*
X3827206Y-7288293D02*
X3827206Y-7240674D01*
X3827206Y-7240674D02*
X3836729Y-7202579D01*
X3836729Y-7202579D02*
X3846253Y-7183531D01*
X3846253Y-7183531D02*
X3855777Y-7174008D01*
X3855777Y-7174008D02*
X3874825Y-7164484D01*
X4179587Y-7364484D02*
X4179587Y-7164484D01*
X4265301Y-7364484D02*
X4265301Y-7259722D01*
X4265301Y-7259722D02*
X4255777Y-7240674D01*
X4255777Y-7240674D02*
X4236730Y-7231150D01*
X4236730Y-7231150D02*
X4208158Y-7231150D01*
X4208158Y-7231150D02*
X4189110Y-7240674D01*
X4189110Y-7240674D02*
X4179587Y-7250198D01*
X4389111Y-7364484D02*
X4370063Y-7354960D01*
X4370063Y-7354960D02*
X4360539Y-7345436D01*
X4360539Y-7345436D02*
X4351015Y-7326388D01*
X4351015Y-7326388D02*
X4351015Y-7269246D01*
X4351015Y-7269246D02*
X4360539Y-7250198D01*
X4360539Y-7250198D02*
X4370063Y-7240674D01*
X4370063Y-7240674D02*
X4389111Y-7231150D01*
X4389111Y-7231150D02*
X4417682Y-7231150D01*
X4417682Y-7231150D02*
X4436730Y-7240674D01*
X4436730Y-7240674D02*
X4446253Y-7250198D01*
X4446253Y-7250198D02*
X4455777Y-7269246D01*
X4455777Y-7269246D02*
X4455777Y-7326388D01*
X4455777Y-7326388D02*
X4446253Y-7345436D01*
X4446253Y-7345436D02*
X4436730Y-7354960D01*
X4436730Y-7354960D02*
X4417682Y-7364484D01*
X4417682Y-7364484D02*
X4389111Y-7364484D01*
X4570063Y-7364484D02*
X4551015Y-7354960D01*
X4551015Y-7354960D02*
X4541492Y-7335912D01*
X4541492Y-7335912D02*
X4541492Y-7164484D01*
X4722444Y-7354960D02*
X4703396Y-7364484D01*
X4703396Y-7364484D02*
X4665301Y-7364484D01*
X4665301Y-7364484D02*
X4646253Y-7354960D01*
X4646253Y-7354960D02*
X4636730Y-7335912D01*
X4636730Y-7335912D02*
X4636730Y-7259722D01*
X4636730Y-7259722D02*
X4646253Y-7240674D01*
X4646253Y-7240674D02*
X4665301Y-7231150D01*
X4665301Y-7231150D02*
X4703396Y-7231150D01*
X4703396Y-7231150D02*
X4722444Y-7240674D01*
X4722444Y-7240674D02*
X4731968Y-7259722D01*
X4731968Y-7259722D02*
X4731968Y-7278769D01*
X4731968Y-7278769D02*
X4636730Y-7297817D01*
X4808158Y-7354960D02*
X4827206Y-7364484D01*
X4827206Y-7364484D02*
X4865301Y-7364484D01*
X4865301Y-7364484D02*
X4884349Y-7354960D01*
X4884349Y-7354960D02*
X4893873Y-7335912D01*
X4893873Y-7335912D02*
X4893873Y-7326388D01*
X4893873Y-7326388D02*
X4884349Y-7307341D01*
X4884349Y-7307341D02*
X4865301Y-7297817D01*
X4865301Y-7297817D02*
X4836730Y-7297817D01*
X4836730Y-7297817D02*
X4817682Y-7288293D01*
X4817682Y-7288293D02*
X4808158Y-7269246D01*
X4808158Y-7269246D02*
X4808158Y-7259722D01*
X4808158Y-7259722D02*
X4817682Y-7240674D01*
X4817682Y-7240674D02*
X4836730Y-7231150D01*
X4836730Y-7231150D02*
X4865301Y-7231150D01*
X4865301Y-7231150D02*
X4884349Y-7240674D01*
X4960539Y-7440674D02*
X4970063Y-7431150D01*
X4970063Y-7431150D02*
X4989111Y-7402579D01*
X4989111Y-7402579D02*
X4998634Y-7383531D01*
X4998634Y-7383531D02*
X5008158Y-7354960D01*
X5008158Y-7354960D02*
X5017682Y-7307341D01*
X5017682Y-7307341D02*
X5017682Y-7269246D01*
X5017682Y-7269246D02*
X5008158Y-7221627D01*
X5008158Y-7221627D02*
X4998634Y-7193055D01*
X4998634Y-7193055D02*
X4989111Y-7174008D01*
X4989111Y-7174008D02*
X4970063Y-7145436D01*
X4970063Y-7145436D02*
X4960539Y-7135912D01*
D12*
X-21109Y-7575891D02*
X-21109Y-7498109D01*
X-98891Y-7498109D01*
X-98891Y-7575891D01*
X-21109Y-7575891D01*
D11*
X360539Y-7628484D02*
X246253Y-7628484D01*
X303396Y-7628484D02*
X303396Y-7428484D01*
X303396Y-7428484D02*
X284348Y-7457055D01*
X284348Y-7457055D02*
X265301Y-7476103D01*
X265301Y-7476103D02*
X246253Y-7485627D01*
X446253Y-7609436D02*
X455777Y-7618960D01*
X455777Y-7618960D02*
X446253Y-7628484D01*
X446253Y-7628484D02*
X436729Y-7618960D01*
X436729Y-7618960D02*
X446253Y-7609436D01*
X446253Y-7609436D02*
X446253Y-7628484D01*
X646253Y-7628484D02*
X531967Y-7628484D01*
X589110Y-7628484D02*
X589110Y-7428484D01*
X589110Y-7428484D02*
X570063Y-7457055D01*
X570063Y-7457055D02*
X551015Y-7476103D01*
X551015Y-7476103D02*
X531967Y-7485627D01*
X770062Y-7428484D02*
X789110Y-7428484D01*
X789110Y-7428484D02*
X808158Y-7438008D01*
X808158Y-7438008D02*
X817682Y-7447531D01*
X817682Y-7447531D02*
X827205Y-7466579D01*
X827205Y-7466579D02*
X836729Y-7504674D01*
X836729Y-7504674D02*
X836729Y-7552293D01*
X836729Y-7552293D02*
X827205Y-7590388D01*
X827205Y-7590388D02*
X817682Y-7609436D01*
X817682Y-7609436D02*
X808158Y-7618960D01*
X808158Y-7618960D02*
X789110Y-7628484D01*
X789110Y-7628484D02*
X770062Y-7628484D01*
X770062Y-7628484D02*
X751015Y-7618960D01*
X751015Y-7618960D02*
X741491Y-7609436D01*
X741491Y-7609436D02*
X731967Y-7590388D01*
X731967Y-7590388D02*
X722443Y-7552293D01*
X722443Y-7552293D02*
X722443Y-7504674D01*
X722443Y-7504674D02*
X731967Y-7466579D01*
X731967Y-7466579D02*
X741491Y-7447531D01*
X741491Y-7447531D02*
X751015Y-7438008D01*
X751015Y-7438008D02*
X770062Y-7428484D01*
X960539Y-7428484D02*
X979586Y-7428484D01*
X979586Y-7428484D02*
X998634Y-7438008D01*
X998634Y-7438008D02*
X1008158Y-7447531D01*
X1008158Y-7447531D02*
X1017682Y-7466579D01*
X1017682Y-7466579D02*
X1027205Y-7504674D01*
X1027205Y-7504674D02*
X1027205Y-7552293D01*
X1027205Y-7552293D02*
X1017682Y-7590388D01*
X1017682Y-7590388D02*
X1008158Y-7609436D01*
X1008158Y-7609436D02*
X998634Y-7618960D01*
X998634Y-7618960D02*
X979586Y-7628484D01*
X979586Y-7628484D02*
X960539Y-7628484D01*
X960539Y-7628484D02*
X941491Y-7618960D01*
X941491Y-7618960D02*
X931967Y-7609436D01*
X931967Y-7609436D02*
X922443Y-7590388D01*
X922443Y-7590388D02*
X912920Y-7552293D01*
X912920Y-7552293D02*
X912920Y-7504674D01*
X912920Y-7504674D02*
X922443Y-7466579D01*
X922443Y-7466579D02*
X931967Y-7447531D01*
X931967Y-7447531D02*
X941491Y-7438008D01*
X941491Y-7438008D02*
X960539Y-7428484D01*
X1112920Y-7628484D02*
X1112920Y-7495150D01*
X1112920Y-7514198D02*
X1122444Y-7504674D01*
X1122444Y-7504674D02*
X1141491Y-7495150D01*
X1141491Y-7495150D02*
X1170063Y-7495150D01*
X1170063Y-7495150D02*
X1189110Y-7504674D01*
X1189110Y-7504674D02*
X1198634Y-7523722D01*
X1198634Y-7523722D02*
X1198634Y-7628484D01*
X1198634Y-7523722D02*
X1208158Y-7504674D01*
X1208158Y-7504674D02*
X1227205Y-7495150D01*
X1227205Y-7495150D02*
X1255777Y-7495150D01*
X1255777Y-7495150D02*
X1274825Y-7504674D01*
X1274825Y-7504674D02*
X1284348Y-7523722D01*
X1284348Y-7523722D02*
X1284348Y-7628484D01*
X1379586Y-7628484D02*
X1379586Y-7495150D01*
X1379586Y-7514198D02*
X1389110Y-7504674D01*
X1389110Y-7504674D02*
X1408158Y-7495150D01*
X1408158Y-7495150D02*
X1436729Y-7495150D01*
X1436729Y-7495150D02*
X1455777Y-7504674D01*
X1455777Y-7504674D02*
X1465301Y-7523722D01*
X1465301Y-7523722D02*
X1465301Y-7628484D01*
X1465301Y-7523722D02*
X1474824Y-7504674D01*
X1474824Y-7504674D02*
X1493872Y-7495150D01*
X1493872Y-7495150D02*
X1522443Y-7495150D01*
X1522443Y-7495150D02*
X1541491Y-7504674D01*
X1541491Y-7504674D02*
X1551015Y-7523722D01*
X1551015Y-7523722D02*
X1551015Y-7628484D01*
X1941491Y-7418960D02*
X1770063Y-7676103D01*
X2198634Y-7428484D02*
X2217682Y-7428484D01*
X2217682Y-7428484D02*
X2236729Y-7438008D01*
X2236729Y-7438008D02*
X2246253Y-7447531D01*
X2246253Y-7447531D02*
X2255777Y-7466579D01*
X2255777Y-7466579D02*
X2265301Y-7504674D01*
X2265301Y-7504674D02*
X2265301Y-7552293D01*
X2265301Y-7552293D02*
X2255777Y-7590388D01*
X2255777Y-7590388D02*
X2246253Y-7609436D01*
X2246253Y-7609436D02*
X2236729Y-7618960D01*
X2236729Y-7618960D02*
X2217682Y-7628484D01*
X2217682Y-7628484D02*
X2198634Y-7628484D01*
X2198634Y-7628484D02*
X2179587Y-7618960D01*
X2179587Y-7618960D02*
X2170063Y-7609436D01*
X2170063Y-7609436D02*
X2160539Y-7590388D01*
X2160539Y-7590388D02*
X2151015Y-7552293D01*
X2151015Y-7552293D02*
X2151015Y-7504674D01*
X2151015Y-7504674D02*
X2160539Y-7466579D01*
X2160539Y-7466579D02*
X2170063Y-7447531D01*
X2170063Y-7447531D02*
X2179587Y-7438008D01*
X2179587Y-7438008D02*
X2198634Y-7428484D01*
X2351015Y-7609436D02*
X2360539Y-7618960D01*
X2360539Y-7618960D02*
X2351015Y-7628484D01*
X2351015Y-7628484D02*
X2341491Y-7618960D01*
X2341491Y-7618960D02*
X2351015Y-7609436D01*
X2351015Y-7609436D02*
X2351015Y-7628484D01*
X2484348Y-7428484D02*
X2503396Y-7428484D01*
X2503396Y-7428484D02*
X2522444Y-7438008D01*
X2522444Y-7438008D02*
X2531968Y-7447531D01*
X2531968Y-7447531D02*
X2541491Y-7466579D01*
X2541491Y-7466579D02*
X2551015Y-7504674D01*
X2551015Y-7504674D02*
X2551015Y-7552293D01*
X2551015Y-7552293D02*
X2541491Y-7590388D01*
X2541491Y-7590388D02*
X2531968Y-7609436D01*
X2531968Y-7609436D02*
X2522444Y-7618960D01*
X2522444Y-7618960D02*
X2503396Y-7628484D01*
X2503396Y-7628484D02*
X2484348Y-7628484D01*
X2484348Y-7628484D02*
X2465301Y-7618960D01*
X2465301Y-7618960D02*
X2455777Y-7609436D01*
X2455777Y-7609436D02*
X2446253Y-7590388D01*
X2446253Y-7590388D02*
X2436729Y-7552293D01*
X2436729Y-7552293D02*
X2436729Y-7504674D01*
X2436729Y-7504674D02*
X2446253Y-7466579D01*
X2446253Y-7466579D02*
X2455777Y-7447531D01*
X2455777Y-7447531D02*
X2465301Y-7438008D01*
X2465301Y-7438008D02*
X2484348Y-7428484D01*
X2722444Y-7495150D02*
X2722444Y-7628484D01*
X2674825Y-7418960D02*
X2627206Y-7561817D01*
X2627206Y-7561817D02*
X2751015Y-7561817D01*
X2808158Y-7428484D02*
X2931967Y-7428484D01*
X2931967Y-7428484D02*
X2865301Y-7504674D01*
X2865301Y-7504674D02*
X2893872Y-7504674D01*
X2893872Y-7504674D02*
X2912920Y-7514198D01*
X2912920Y-7514198D02*
X2922444Y-7523722D01*
X2922444Y-7523722D02*
X2931967Y-7542769D01*
X2931967Y-7542769D02*
X2931967Y-7590388D01*
X2931967Y-7590388D02*
X2922444Y-7609436D01*
X2922444Y-7609436D02*
X2912920Y-7618960D01*
X2912920Y-7618960D02*
X2893872Y-7628484D01*
X2893872Y-7628484D02*
X2836729Y-7628484D01*
X2836729Y-7628484D02*
X2817682Y-7618960D01*
X2817682Y-7618960D02*
X2808158Y-7609436D01*
X2998634Y-7428484D02*
X3122444Y-7428484D01*
X3122444Y-7428484D02*
X3055777Y-7504674D01*
X3055777Y-7504674D02*
X3084348Y-7504674D01*
X3084348Y-7504674D02*
X3103396Y-7514198D01*
X3103396Y-7514198D02*
X3112920Y-7523722D01*
X3112920Y-7523722D02*
X3122444Y-7542769D01*
X3122444Y-7542769D02*
X3122444Y-7590388D01*
X3122444Y-7590388D02*
X3112920Y-7609436D01*
X3112920Y-7609436D02*
X3103396Y-7618960D01*
X3103396Y-7618960D02*
X3084348Y-7628484D01*
X3084348Y-7628484D02*
X3027206Y-7628484D01*
X3027206Y-7628484D02*
X3008158Y-7618960D01*
X3008158Y-7618960D02*
X2998634Y-7609436D01*
X3198634Y-7428484D02*
X3198634Y-7466579D01*
X3274825Y-7428484D02*
X3274825Y-7466579D01*
X3570063Y-7704674D02*
X3560539Y-7695150D01*
X3560539Y-7695150D02*
X3541491Y-7666579D01*
X3541491Y-7666579D02*
X3531968Y-7647531D01*
X3531968Y-7647531D02*
X3522444Y-7618960D01*
X3522444Y-7618960D02*
X3512920Y-7571341D01*
X3512920Y-7571341D02*
X3512920Y-7533246D01*
X3512920Y-7533246D02*
X3522444Y-7485627D01*
X3522444Y-7485627D02*
X3531968Y-7457055D01*
X3531968Y-7457055D02*
X3541491Y-7438008D01*
X3541491Y-7438008D02*
X3560539Y-7409436D01*
X3560539Y-7409436D02*
X3570063Y-7399912D01*
X3674825Y-7514198D02*
X3655777Y-7504674D01*
X3655777Y-7504674D02*
X3646253Y-7495150D01*
X3646253Y-7495150D02*
X3636729Y-7476103D01*
X3636729Y-7476103D02*
X3636729Y-7466579D01*
X3636729Y-7466579D02*
X3646253Y-7447531D01*
X3646253Y-7447531D02*
X3655777Y-7438008D01*
X3655777Y-7438008D02*
X3674825Y-7428484D01*
X3674825Y-7428484D02*
X3712920Y-7428484D01*
X3712920Y-7428484D02*
X3731968Y-7438008D01*
X3731968Y-7438008D02*
X3741491Y-7447531D01*
X3741491Y-7447531D02*
X3751015Y-7466579D01*
X3751015Y-7466579D02*
X3751015Y-7476103D01*
X3751015Y-7476103D02*
X3741491Y-7495150D01*
X3741491Y-7495150D02*
X3731968Y-7504674D01*
X3731968Y-7504674D02*
X3712920Y-7514198D01*
X3712920Y-7514198D02*
X3674825Y-7514198D01*
X3674825Y-7514198D02*
X3655777Y-7523722D01*
X3655777Y-7523722D02*
X3646253Y-7533246D01*
X3646253Y-7533246D02*
X3636729Y-7552293D01*
X3636729Y-7552293D02*
X3636729Y-7590388D01*
X3636729Y-7590388D02*
X3646253Y-7609436D01*
X3646253Y-7609436D02*
X3655777Y-7618960D01*
X3655777Y-7618960D02*
X3674825Y-7628484D01*
X3674825Y-7628484D02*
X3712920Y-7628484D01*
X3712920Y-7628484D02*
X3731968Y-7618960D01*
X3731968Y-7618960D02*
X3741491Y-7609436D01*
X3741491Y-7609436D02*
X3751015Y-7590388D01*
X3751015Y-7590388D02*
X3751015Y-7552293D01*
X3751015Y-7552293D02*
X3741491Y-7533246D01*
X3741491Y-7533246D02*
X3731968Y-7523722D01*
X3731968Y-7523722D02*
X3712920Y-7514198D01*
X3989110Y-7628484D02*
X3989110Y-7428484D01*
X4074825Y-7628484D02*
X4074825Y-7523722D01*
X4074825Y-7523722D02*
X4065301Y-7504674D01*
X4065301Y-7504674D02*
X4046253Y-7495150D01*
X4046253Y-7495150D02*
X4017682Y-7495150D01*
X4017682Y-7495150D02*
X3998634Y-7504674D01*
X3998634Y-7504674D02*
X3989110Y-7514198D01*
X4198634Y-7628484D02*
X4179587Y-7618960D01*
X4179587Y-7618960D02*
X4170063Y-7609436D01*
X4170063Y-7609436D02*
X4160539Y-7590388D01*
X4160539Y-7590388D02*
X4160539Y-7533246D01*
X4160539Y-7533246D02*
X4170063Y-7514198D01*
X4170063Y-7514198D02*
X4179587Y-7504674D01*
X4179587Y-7504674D02*
X4198634Y-7495150D01*
X4198634Y-7495150D02*
X4227206Y-7495150D01*
X4227206Y-7495150D02*
X4246253Y-7504674D01*
X4246253Y-7504674D02*
X4255777Y-7514198D01*
X4255777Y-7514198D02*
X4265301Y-7533246D01*
X4265301Y-7533246D02*
X4265301Y-7590388D01*
X4265301Y-7590388D02*
X4255777Y-7609436D01*
X4255777Y-7609436D02*
X4246253Y-7618960D01*
X4246253Y-7618960D02*
X4227206Y-7628484D01*
X4227206Y-7628484D02*
X4198634Y-7628484D01*
X4379587Y-7628484D02*
X4360539Y-7618960D01*
X4360539Y-7618960D02*
X4351015Y-7599912D01*
X4351015Y-7599912D02*
X4351015Y-7428484D01*
X4531968Y-7618960D02*
X4512920Y-7628484D01*
X4512920Y-7628484D02*
X4474825Y-7628484D01*
X4474825Y-7628484D02*
X4455777Y-7618960D01*
X4455777Y-7618960D02*
X4446253Y-7599912D01*
X4446253Y-7599912D02*
X4446253Y-7523722D01*
X4446253Y-7523722D02*
X4455777Y-7504674D01*
X4455777Y-7504674D02*
X4474825Y-7495150D01*
X4474825Y-7495150D02*
X4512920Y-7495150D01*
X4512920Y-7495150D02*
X4531968Y-7504674D01*
X4531968Y-7504674D02*
X4541492Y-7523722D01*
X4541492Y-7523722D02*
X4541492Y-7542769D01*
X4541492Y-7542769D02*
X4446253Y-7561817D01*
X4617682Y-7618960D02*
X4636730Y-7628484D01*
X4636730Y-7628484D02*
X4674825Y-7628484D01*
X4674825Y-7628484D02*
X4693873Y-7618960D01*
X4693873Y-7618960D02*
X4703396Y-7599912D01*
X4703396Y-7599912D02*
X4703396Y-7590388D01*
X4703396Y-7590388D02*
X4693873Y-7571341D01*
X4693873Y-7571341D02*
X4674825Y-7561817D01*
X4674825Y-7561817D02*
X4646253Y-7561817D01*
X4646253Y-7561817D02*
X4627206Y-7552293D01*
X4627206Y-7552293D02*
X4617682Y-7533246D01*
X4617682Y-7533246D02*
X4617682Y-7523722D01*
X4617682Y-7523722D02*
X4627206Y-7504674D01*
X4627206Y-7504674D02*
X4646253Y-7495150D01*
X4646253Y-7495150D02*
X4674825Y-7495150D01*
X4674825Y-7495150D02*
X4693873Y-7504674D01*
X4770063Y-7704674D02*
X4779587Y-7695150D01*
X4779587Y-7695150D02*
X4798634Y-7666579D01*
X4798634Y-7666579D02*
X4808158Y-7647531D01*
X4808158Y-7647531D02*
X4817682Y-7618960D01*
X4817682Y-7618960D02*
X4827206Y-7571341D01*
X4827206Y-7571341D02*
X4827206Y-7533246D01*
X4827206Y-7533246D02*
X4817682Y-7485627D01*
X4817682Y-7485627D02*
X4808158Y-7457055D01*
X4808158Y-7457055D02*
X4798634Y-7438008D01*
X4798634Y-7438008D02*
X4779587Y-7409436D01*
X4779587Y-7409436D02*
X4770063Y-7399912D01*
M02*
